/* XPM */
static char *dead__0071666884087[] = {
/* columns rows colors chars-per-pixel */
"47 48 133 2 ",
"   c None",
".  c #1D0E0E",
"X  c #1B1314",
"o  c #1A1918",
"O  c #2A0C0C",
"+  c #3E0000",
"@  c #320A0A",
"#  c #3D0B0B",
"$  c #241313",
"%  c #2C1617",
"&  c #241E1E",
"*  c #2D1A1A",
"=  c #361717",
"-  c #3C1212",
";  c #331A1A",
":  c #3C1E1E",
">  c #252016",
",  c #322B1E",
"<  c #242324",
"1  c #292323",
"2  c #2E2B26",
"3  c #2C2C2C",
"4  c #3E2121",
"5  c #332F2F",
"6  c #3A2A2A",
"7  c #333232",
"8  c #3A3A3A",
"9  c #460303",
"0  c #470C0C",
"q  c #550303",
"w  c #5B0202",
"e  c #530909",
"r  c #4C1414",
"t  c #431E1E",
"y  c #4C1919",
"u  c #511111",
"i  c #511B1B",
"p  c #640000",
"a  c #680000",
"s  c #442323",
"d  c #4B2626",
"f  c #472C28",
"g  c #4E2828",
"h  c #532525",
"j  c #532A2A",
"k  c #5B2D2D",
"l  c #46362C",
"z  c #433D2C",
"x  c #5D392D",
"c  c #4A3232",
"v  c #4D3E3E",
"b  c #523535",
"n  c #5F3030",
"m  c #543939",
"M  c #642525",
"N  c #663333",
"B  c #693535",
"V  c #663838",
"C  c #753C3C",
"Z  c #793F3F",
"A  c #514B3B",
"S  c #5C493A",
"D  c #62442E",
"F  c #60553A",
"G  c #474545",
"H  c #544840",
"J  c #6C4242",
"K  c #644C4C",
"L  c #7C4040",
"P  c #645B43",
"I  c #6B5845",
"U  c #6A5556",
"Y  c #756D59",
"T  c #83673B",
"R  c #8B733B",
"E  c #854545",
"W  c #894747",
"Q  c #8A4848",
"!  c #917B47",
"~  c #8F7A5B",
"^  c #8D7D60",
"/  c #B7984D",
"(  c #B8994D",
")  c #A78D50",
"_  c #B78957",
"`  c #AE9356",
"'  c #B99A50",
"]  c #A4906D",
"[  c #AA9970",
"{  c #BB9670",
"}  c #BDA672",
"|  c #B5A47C",
" . c #B9A77D",
".. c #C19F54",
"X. c #C0975B",
"o. c #CBA85D",
"O. c #E0B95E",
"+. c #C3A663",
"@. c #D0B679",
"#. c #F1BB7C",
"$. c #FED26D",
"%. c #E1C073",
"&. c #EBC773",
"*. c #E6C77E",
"=. c #F6C373",
"-. c #FED473",
";. c #F7D37F",
":. c #FDD47C",
">. c #FFDA7B",
",. c #808181",
"<. c #8A8888",
"1. c #968F81",
"2. c #FFAA93",
"3. c #DBC899",
"4. c #F6C68F",
"5. c #F5D48E",
"6. c #FFDE8A",
"7. c #E9CE9C",
"8. c #EBD59F",
"9. c #F2D694",
"0. c #F1D89D",
"q. c #FFE197",
"w. c #DDD4BF",
"e. c #EED8A2",
"r. c #FFD9A7",
"t. c #FFE5A3",
"y. c #FBE4AC",
"u. c #FFE9AE",
"i. c #F7E4B5",
"p. c #F3E2B8",
"a. c #FFEDBC",
"s. c #E1D8C5",
"d. c #E6DFCE",
/* pixels */
"                                                                                              ",
"                                                                                              ",
"                                                                                              ",
"                                                                                              ",
"                                                                                              ",
"                                                                                              ",
"                                                                                              ",
"                                                                                              ",
"                                                                                              ",
"                                                                                              ",
"                                                                                              ",
"                                                                                              ",
"                                                                                              ",
"                                                                                              ",
"                                                                                              ",
"                                                                                              ",
"                                                                                              ",
"                                                                                              ",
"                                                                                              ",
"                                                                                              ",
"                                                                                              ",
"                                                                                              ",
"                                                                                              ",
"                                                              s j j s                         ",
"                                                          s N N B B B k                       ",
"                                          j n k d       j N N N N N N B j s                   ",
"                                        : N N B B N d s N N N N N N N N B B N s               ",
"                                        ; k N N N N B n h k N N N N N N N N C N               ",
"                                          4 n B N N N B B j j B N N N N B B W C               ",
"                                          . : k N N N N N B j k N N B N N L Q L               ",
"                                            H s k N N N N N s N N N N N B E Q L               ",
"                                        Y 3.9.~ s k N N N k 0 h N N N N N C W Z               ",
"                                        1.6.$.;.~ 4 j B N k q w h B B N N B C B               ",
"                                        [ >.$.5.7.] f j N N e a w y N N N N N d               ",
"                            + 9 9 @ % % A o.-.y.y.y.] $ j N y p a w y n B N N ;               ",
"                            q p M r s d d T $.6.u.t.@., % h k e a a p y k B d                 ",
"            ; ;           < 6 r q 0 g k N b ..6.r.;.O.R > $ d y w a a p r d                   ",
"          $ d g % <     3 7 7 3 @ - k s s U ] ' 2.#./ R R 8 S d 0 q a a w O                   ",
"          4 j j s 8 8 3 7 7 7 < 7 c N k N v 8 z _ =.:.&.6.e.e.I : # q p # : ; $               ",
"        ; j j g 6 G 8 7 3 < < < ,.<.K J V 1 < 2 z / >.0.y.a.y.P . : - @ = s 4 ; X             ",
"    $ % j N j % % 8 7 7 3 = t 7 G v c m 6 3 3 < o D o.w.s.i.9.) F o ; 4 s : ; $               ",
"    . s j k       3 5 3 3 & * < . $     X < 3 o ; k D  .d.p.*.' } A                           ",
"                                            o           ` %.4.{ P                             ",
"                                                                                              ",
"                                                                                              ",
"                                                                                              ",
"                                                                                              ",
"                                                                                              "
};
