/* XPM */
static char *dead__rev__0091666884089[] = {
/* columns rows colors chars-per-pixel */
"47 48 149 2 ",
"   c None",
".  c #150506",
"X  c #180707",
"o  c #130A0B",
"O  c #1E0A0B",
"+  c #170D10",
"@  c #131211",
"#  c #1F1515",
"$  c #1D1C1C",
"%  c #2D0404",
"&  c #210C0C",
"*  c #290F0F",
"=  c #260404",
"-  c #330202",
";  c #3B0202",
":  c #360909",
">  c #3D0A0A",
",  c #201A0E",
"<  c #240E10",
"1  c #261111",
"2  c #2D1212",
"3  c #221C1C",
"4  c #2B1A1A",
"5  c #321515",
"6  c #381717",
"7  c #3B1718",
"8  c #3C1A1A",
"9  c #2E2718",
"0  c #242424",
"q  c #292724",
"w  c #2C2C2C",
"e  c #352626",
"r  c #392222",
"t  c #302B2B",
"y  c #3E382A",
"u  c #343333",
"i  c #363839",
"p  c #3D3A3A",
"a  c #450202",
"s  c #470B0B",
"d  c #4E0D0D",
"f  c #540101",
"g  c #5B0000",
"h  c #500909",
"j  c #431717",
"k  c #4B1212",
"l  c #441E1E",
"z  c #4F1818",
"x  c #511111",
"c  c #511C1C",
"v  c #640000",
"b  c #680000",
"n  c #41211F",
"m  c #442120",
"M  c #4C2222",
"N  c #452823",
"B  c #492E2E",
"V  c #532525",
"C  c #5B2727",
"Z  c #562728",
"A  c #562828",
"S  c #5C2A2A",
"D  c #433C27",
"F  c #433228",
"G  c #5D3629",
"H  c #4B3C3C",
"J  c #523434",
"K  c #642020",
"L  c #622E2E",
"P  c #662E30",
"I  c #663030",
"U  c #693232",
"Y  c #743737",
"T  c #773A3A",
"R  c #7C3E3E",
"E  c #5C4737",
"W  c #52453E",
"Q  c #504A39",
"!  c #62422A",
"~  c #605437",
"^  c #62593E",
"/  c #454343",
"(  c #6C4040",
")  c #644B4B",
"_  c #6B5743",
"`  c #665C43",
"'  c #6A5455",
"]  c #766D59",
"[  c #846738",
"{  c #8D753A",
"}  c #8B7235",
"|  c #834141",
" . c #8A4545",
".. c #927C45",
"X. c #907B57",
"o. c #907B5E",
"O. c #8E7E60",
"+. c #A88E4F",
"@. c #B99A4D",
"#. c #B88A56",
"$. c #AF9455",
"%. c #A5916D",
"&. c #AB9A70",
"*. c #BC9771",
"=. c #BEA773",
"-. c #B6A57D",
";. c #BAA87E",
":. c #C1985B",
">. c #C2A053",
",. c #CCA95D",
"<. c #E1BA5E",
"1. c #C4A763",
"2. c #D1B77A",
"3. c #F1BC7D",
"4. c #FED36D",
"5. c #E2C174",
"6. c #ECC874",
"7. c #E7C87F",
"8. c #F6C474",
"9. c #FED574",
"0. c #FDD47C",
"q. c #FEDA7D",
"w. c #818282",
"e. c #8B8989",
"r. c #979082",
"t. c #FFAB94",
"y. c #DCC99A",
"u. c #F7D480",
"i. c #F5D58F",
"p. c #FFDF8B",
"a. c #EACF9D",
"s. c #F6C790",
"d. c #F1D796",
"f. c #F5D892",
"g. c #F1D99E",
"h. c #FFE298",
"j. c #ECD6A0",
"k. c #EED9A3",
"l. c #FFDAA8",
"z. c #FFE6A4",
"x. c #FBE5AD",
"c. c #FFE9AE",
"v. c #F7E5B6",
"b. c #FFEAB0",
"n. c #F3E3B9",
"m. c #FFEEBD",
"M. c #DED5C0",
"N. c #E2D9C6",
"B. c #E7E0CF",
/* pixels */
"                                                                                              ",
"                                                                                              ",
"                                                                                              ",
"                                                                                              ",
"                                                                                              ",
"                                                                                              ",
"                                                                                              ",
"                                                                                              ",
"                                                                                              ",
"                                                                                              ",
"                                                                                              ",
"                                                                                              ",
"                                                                                              ",
"                                                                                              ",
"                                                                                              ",
"                                                                                              ",
"                                                                                              ",
"                                                                                              ",
"                                                                                              ",
"                                                                                              ",
"                                                                                              ",
"                                                                                              ",
"                                                                                              ",
"                        l V V l                                                               ",
"                      A U U U I L l                                                           ",
"                  j A U I I I I I L V       M S L M                                           ",
"              l I U U I I I I I I I L l M L I U I I 6                                         ",
"              L Y I I I I I I I L S V L I I I I I S 2                                         ",
"              T  .U I I I I I I Z A U U I L I I S 8                                           ",
"              R  .| I I I I I S V U I I I P I S 8 .                                           ",
"              R  .| U I I I U L l L L I I I S m W                                             ",
"              R  .T L I U L L V a C U I I S m X.d.y.]                                         ",
"              U T U I I I I z f f C I I A m o.0.4.p.-.                                        ",
"              M I I I I I z g b f L I A N %.a.f.4.q.&.                                        ",
"              5 L I I L z g b v x I V 1 O.b.x.z.9.1.F * < % a a ;                             ",
"                M U S d v b b f C V & 9 2.z.c.h.4.[ M m l s K v f                             ",
"                  V d b b b f k M O , { <.0.l.0.:.G P S M a f k e $           6 2             ",
"                  = g b b f ; M E y ..} @.3.t.@.%.' l m S : % w u w 0     $ 2 M m &           ",
"              & 5 6 ; g f ; 8 _ j.j.f.6.0.8.#.Q i / P S P B u 0 w u w 0 i p 8 V V 8           ",
"            . 2 6 8 5 - > 6 o ` x.m.x.g.q.@.y q 0 $ U ( ) e.w.$ # 3 w w i / r M V V 5         ",
"              O 2 6 l 6 2 # ~ +.a.n.M.M.,.! O $ w q r J J H / w j : w w w i 1 * M L V 2 O     ",
"                          Q =.@.u.n.B.;.! S 4 @ 0 $ o     X o 3 4 # 0 w w q       S S 8 .     ",
"                            ` *.s.5.$.          @                                             ",
"                                                                                              ",
"                                                                                              ",
"                                                                                              ",
"                                                                                              ",
"                                                                                              "
};
