/* XPM */
static char *dead__rev__0011666884088[] = {
/* columns rows colors chars-per-pixel */
"47 48 156 2 ",
"   c None",
".  c #060606",
"X  c #0B0707",
"o  c #1B0505",
"O  c #140C0C",
"+  c #1B0C0C",
"@  c #1C0E10",
"#  c #141414",
"$  c #1B1B1B",
"%  c #250D0D",
"&  c #280303",
"*  c #3B0202",
"=  c #3B0B0B",
"-  c #370C0C",
";  c #251213",
":  c #2C1212",
">  c #281F14",
",  c #201919",
"<  c #341515",
"1  c #3C1415",
"2  c #301917",
"3  c #331C1B",
"4  c #3D1A1A",
"5  c #24211C",
"6  c #232323",
"7  c #2A2121",
"8  c #2B2A2A",
"9  c #2F2B23",
"0  c #342323",
"q  c #3D2323",
"w  c #3D2F27",
"e  c #342C2C",
"r  c #363023",
"t  c #2E3030",
"y  c #323232",
"u  c #3C3C3C",
"i  c #3D3A33",
"p  c #440101",
"a  c #4C0101",
"s  c #540202",
"d  c #5C0000",
"f  c #5F0909",
"g  c #461313",
"h  c #421D1D",
"j  c #4E1F1F",
"k  c #501212",
"l  c #521B1B",
"z  c #5F1A1A",
"x  c #650000",
"c  c #680000",
"v  c #442120",
"b  c #4C2222",
"n  c #422929",
"m  c #4B2E29",
"M  c #532525",
"N  c #582323",
"B  c #542929",
"V  c #5C2A2A",
"C  c #463E28",
"Z  c #423737",
"A  c #403E3E",
"S  c #5C3232",
"D  c #533A30",
"F  c #553D3D",
"G  c #622D2D",
"H  c #663030",
"J  c #693232",
"K  c #763C3C",
"L  c #7D3E3E",
"P  c #4E4328",
"I  c #444031",
"U  c #594D3A",
"Y  c #59503A",
"T  c #5F5235",
"R  c #795F2D",
"E  c #62573C",
"W  c #7C652E",
"Q  c #79673C",
"!  c #7D6733",
"~  c #464646",
"^  c #5E4747",
"/  c #634F4F",
"(  c #6D5847",
")  c #6C6041",
"_  c #766949",
"`  c #7E6E49",
"'  c #776C51",
"]  c #7A6F57",
"[  c #7D725D",
"{  c #7F6060",
"}  c #826931",
"|  c #8F7637",
" . c #874343",
".. c #894545",
"X. c #806B47",
"o. c #847657",
"O. c #847759",
"+. c #897458",
"@. c #816A6A",
"#. c #867C64",
"$. c #AD8E4A",
"%. c #AE904A",
"&. c #B4954B",
"*. c #BC9B4C",
"=. c #A18D5F",
"-. c #AC9051",
";. c #A3936B",
":. c #B2936A",
">. c #A2977F",
",. c #BAA16C",
"<. c #CB9657",
"1. c #CC8279",
"2. c #C1A76A",
"3. c #CFB16A",
"4. c #DDB077",
"5. c #DFBF75",
"6. c #E7A96E",
"7. c #F1C763",
"8. c #F4CB6B",
"9. c #FFD66E",
"0. c #E6C476",
"q. c #F3CC72",
"w. c #FBCF70",
"e. c #FFD473",
"r. c #FCD67C",
"t. c #FFD97A",
"y. c #998B8B",
"u. c #939191",
"i. c #A59D9D",
"p. c #BBAE8C",
"a. c #A4A09F",
"s. c #A9A9A9",
"d. c #F9B48A",
"f. c #C2B9BB",
"g. c #DDC386",
"h. c #DBC693",
"j. c #EDCC85",
"k. c #F9D783",
"l. c #FFDE8B",
"z. c #ECCF9A",
"x. c #E8D098",
"c. c #F2D793",
"v. c #FADE9B",
"b. c #D1C5AC",
"n. c #DECFAE",
"m. c #FFC1A0",
"M. c #EBD5A0",
"N. c #FEE4A6",
"B. c #F6E0A8",
"V. c #F9E3AC",
"C. c #FFE8AD",
"Z. c #FFEEB5",
"A. c #FDECBF",
"S. c #CCC8C8",
"D. c #E1DCCF",
"F. c #E6DCC3",
/* pixels */
"                                                                                              ",
"                                                                                              ",
"                                                                                              ",
"                                                                                              ",
"                                                                                              ",
"                                                    h                                         ",
"                                                  H J G V G J H V 4                           ",
"                                                J  .J H H H H H H G h                         ",
"                                              V ....J J J H H H H J V                         ",
"                                              L .. .J H H H H H J G G b                       ",
"                                            V ....L J H H J H H G J J V                       ",
"                                            V K J J H H H G H H G V V B :                     ",
"                                            V H H H H H H H H M M B V V B M M h               ",
"                                            G H H H H J H H V b H J J J J J J J H b           ",
"                                            V H H G V M l k a g H H H H H H H H H G :         ",
"                                            b l k s s d x x d B J G H H J G H H G b %         ",
"                                    + : < % a x x c c c x s l H H H H H G V B b 4 %           ",
"                                    % < h < p c x c x x s N J G G V b v v m 3 o               ",
"                                      : < 4 * d s a * g B M b 4 3 D ( +.,.g.p.                ",
"                                        < 4 < = = g v m 2 + O > O.z.B.x.t.9.v.#.              ",
"                                            : ; @ O O.h.o.P ! &.k.C.C.N.t.9.c.]               ",
"                                              I _ Q h.Z.V.0.| &.w.N.N.l.8.5.;.                ",
"                                              ' 3.$.v.A.V.v.r.q.d.m.e.7.%.C                   ",
"                                              r :.j.V.F.D.x.t.w.6.<.%.y.w                     ",
"                                                1.4.j.n.b.2.*.R [ $.b.s.J B v                 ",
"                                                    W }       < ^ ( s.{ G J J B               ",
"                                                              M B F h V M M V H G             ",
"                                                              b M i.@.- V b 3 b V H           ",
"                                                              h b y.S.g - M - % J ( v         ",
"                                                              h M / u.n & s z * v 7 6 6       ",
"                                                              M h Z s.~ & a x a X 6 8 8 $     ",
"                                                            : V S e ~ y 7 0 h p @ , 6 # X     ",
"                                                          U X.< ; 8 y 8 6 y t +   E # .       ",
"                                                          9 E 5 % 1 0 $ # 8 y 6               ",
"                                                          Y ;.` 3 a a o   6 t 8               ",
"                                                              ) i 8 3 8   # 8 8 $             ",
"                                                                  t y ~ 3 2 8 t i             ",
"                                                                  8 u A q b e ~ A ,           ",
"                                                                      q b b q e q h <         ",
"                                                                    h G M h B M b M b :       ",
"                                                                    b G h M G B b b b <       ",
"                                                                    < 4 % h h 4 : ; %         ",
"                                                                                              ",
"                                                                                              ",
"                                                                                              ",
"                                                                                              ",
"                                                                                              ",
"                                                                                              "
};
