/* XPM */
static char *dead__rev__0021666884088[] = {
/* columns rows colors chars-per-pixel */
"47 48 161 2 ",
"   c None",
".  c #0C0C0D",
"X  c gray2",
"o  c #150707",
"O  c #1C0707",
"+  c #1C0A0A",
"@  c #130C0C",
"#  c #1B1313",
"$  c #171818",
"%  c #1A1A1A",
"&  c #161616",
"*  c #240E0E",
"=  c #280E0E",
"-  c #330505",
";  c #3A0202",
":  c #390909",
">  c #340D0D",
",  c #20190E",
"<  c #231311",
"1  c #2C1415",
"2  c #2B1A1A",
"3  c #241C1C",
"4  c #341515",
"5  c #3C1616",
"6  c #331C1C",
"7  c #3C1A1A",
"8  c #2C281D",
"9  c #25221B",
"0  c #1F1F20",
"q  c #1F2121",
"w  c #232323",
"e  c #242728",
"r  c #2B2A2A",
"t  c #2D2722",
"y  c #3C2121",
"u  c #322C2C",
"i  c #3E2A23",
"p  c #3F3827",
"a  c #3E3728",
"s  c #3D3523",
"d  c #323333",
"f  c #393636",
"g  c gray22",
"h  c #440202",
"j  c #4D0B0B",
"k  c #550101",
"l  c #5F0000",
"z  c #421313",
"x  c #411C1C",
"c  c #4A1F1F",
"v  c #4B1515",
"b  c #511111",
"n  c #511919",
"m  c #650000",
"M  c #690000",
"N  c #472C1D",
"B  c #452020",
"V  c #4C2223",
"C  c #422824",
"Z  c #4B2B2B",
"A  c #532525",
"S  c #582727",
"D  c #552A2A",
"F  c #5C2A2A",
"G  c #453C2B",
"H  c #51332B",
"J  c #4D3132",
"K  c #563030",
"L  c #52393A",
"P  c #622D2D",
"I  c #663030",
"U  c #693232",
"Y  c #673C3C",
"T  c #763838",
"R  c #7B3C3C",
"E  c #5C4635",
"W  c #584F37",
"Q  c #554C38",
"!  c #514333",
"~  c #5A503E",
"^  c #69523E",
"/  c #7E6937",
"(  c #726135",
")  c #434343",
"_  c #674343",
"`  c #695E40",
"'  c #706549",
"]  c #766F5D",
"[  c #7E7251",
"{  c #656060",
"}  c #686060",
"|  c #7F6A6A",
" . c #8E763C",
".. c #947A3A",
"X. c #854242",
"o. c #8A4545",
"O. c #8D7741",
"+. c #83744C",
"@. c #887954",
"#. c #8A755B",
"$. c #907E55",
"%. c #887866",
"&. c #867272",
"*. c #A3823F",
"=. c #928154",
"-. c #A58A4D",
";. c #A98D4B",
":. c #AE904A",
">. c #8E8375",
",. c #AB9869",
"<. c #BCA46A",
"1. c #C2A153",
"2. c #E1BA5D",
"3. c #C6987A",
"4. c #DEAF67",
"5. c #D5B363",
"6. c #DFBF73",
"7. c #EDA978",
"8. c #F1C867",
"9. c #F7CC6A",
"0. c #FFD46E",
"q. c #E9C576",
"w. c #F2CD75",
"e. c #FED673",
"r. c #FFDB7A",
"t. c #F6D27C",
"y. c #8E8A8A",
"u. c #968788",
"i. c #9B9C9C",
"p. c #A19999",
"a. c #BFAC81",
"s. c #A8A49F",
"d. c #C0AB81",
"f. c #C5B286",
"g. c #CEB784",
"h. c #FFAE8E",
"j. c #DEC78E",
"k. c #D5C499",
"l. c #E7CB87",
"z. c #EACA82",
"x. c #F4C78B",
"c. c #FFDF8D",
"v. c #E6D09B",
"b. c #FFD29C",
"n. c #F7D392",
"m. c #FFE08C",
"M. c #FEE39E",
"N. c #D4C8AD",
"B. c #DDD3B9",
"V. c #EED5A1",
"C. c #F0DAA4",
"Z. c #E6D8B7",
"A. c #FEE7AE",
"S. c #FFE8AD",
"D. c #FEE3A2",
"F. c #FFECB3",
"G. c #FEECBA",
"H. c #F2E2B8",
"J. c #D9D5D6",
"K. c #E8E5DC",
"L. c #E1E2E2",
/* pixels */
"                                                                                              ",
"                                                                                              ",
"                                                                                              ",
"                                                                                              ",
"                                                                                              ",
"                                                                                              ",
"                                                                                              ",
"                                                                                              ",
"                                                                                              ",
"                                                                                              ",
"                                          A F F A 7                                           ",
"                                      7 P U U U I P B                                         ",
"                                7 P I U U I I I I I I V                                       ",
"                                I T I I I I P I I I I I 7     V A A x                         ",
"                                ^ X.U I I I I I I I F A A S I U U I P 7                       ",
"                              V o.o.T I I I I U P A A P U U I I I U F 4                       ",
"                              S o.o.T U I P U P A F U I I U I I I F x +                       ",
"                              F o.X.U U I I I U A A I I I P I I S 4 +                         ",
"                              V T U I I I I U S j v I I I I P c C t                           ",
"                              7 I I I I I P c k l n U I I S x ^ g.k.]                         ",
"                                P P I I S j l M k F I P V C #.z.e.m.f.                        ",
"                                n U P v k M M l b I F x E f.C.n.0.r.f.                        ",
"                                4 A j m M M M k P A 1 < a.F.A.D.e.6.[                         ",
"                                O ; M M M l h c 7 + , O.t.D.A.c.8.(                           ",
"                            + 4 7 > k M k ; x H ! 8  ...2.n.b.9.:.                            ",
"                            * 4 7 4 - h ; 7 C f.C.j.5.1.q.h.7.-.s.L 4                         ",
"                              1 4 7 7 7 4 @ a v.G.F.M.m.0.5.*.3.J.Y P S                       ",
"                                        9 @.-.l.G.Z.B.w.1.E >.>.u.S P U F                     ",
"                                        _ ,.1.l.H.K.N.-.N V J Z 5 A x A P P                   ",
"                                          G <.n.q.<./     S D p.&.- z x S P V                 ",
"                                                          A A | L._ - ; z U _                 ",
"                                                          x A H y.{ * ; v U K 6               ",
"                                                          c S 4 { i.u 2 1 3 w 0               ",
"                                                        7 I S * r g r e $ w e r &             ",
"                                                      ` G 2 6 * w d w $ a t 0 % .             ",
"                                                      Q Q e # < : 5 2 . s t . X               ",
"                                                      ' +.a     : h 6 e # 9 w r w             ",
"                                                        =.=.    e r d ) y u d ) u * 1         ",
"                                                                  d d ) 6 y g ) y V V x       ",
"                                                                      r B D y # N A A 7       ",
"                                                                        S I 7 x S A 7         ",
"                                                                        V S 4 F F x           ",
"                                                                          7 * S c +           ",
"                                                                              7 *             ",
"                                                                                              ",
"                                                                                              ",
"                                                                                              ",
"                                                                                              "
};
