/* XPM */
static char *dead__0031666884087[] = {
/* columns rows colors chars-per-pixel */
"47 48 159 2 ",
"   c None",
".  c #170F11",
"X  c #151212",
"o  c #1F1010",
"O  c #171718",
"+  c #1D1D1D",
"@  c #230D0D",
"#  c #3F0B0C",
"$  c #330404",
"%  c #241313",
"&  c #2A1515",
"*  c #211E1E",
"=  c #2B1A1A",
"-  c #231C15",
";  c #3A1616",
":  c #341B1B",
">  c #3B1D1D",
",  c #361414",
"<  c #2D281C",
"1  c #31211D",
"2  c #30281C",
"3  c #262626",
"4  c #2A2524",
"5  c #2B2A2A",
"6  c #3D2222",
"7  c #392E26",
"8  c #342929",
"9  c #363227",
"0  c #3F3224",
"q  c #313131",
"w  c #3A3131",
"e  c gray22",
"r  c #420202",
"t  c #4C0303",
"y  c #440A0A",
"u  c #5D0101",
"i  c #530B0B",
"p  c #4F1515",
"a  c #401C1C",
"s  c #4D1C1C",
"d  c #531313",
"f  c #511D1D",
"g  c #581D1D",
"h  c #650000",
"j  c #680000",
"k  c #442222",
"l  c #4B2525",
"z  c #442926",
"x  c #4B2826",
"c  c #412929",
"v  c #4E2A2A",
"b  c #522525",
"n  c #542A2A",
"m  c #5C2E2E",
"M  c #47322A",
"N  c #4F312C",
"B  c #423C2D",
"V  c #4F3830",
"C  c #493534",
"Z  c #5F3131",
"A  c #543535",
"S  c #653333",
"D  c #693535",
"F  c #643C3C",
"G  c #713A3A",
"H  c #564125",
"J  c #5A4C2A",
"K  c #4F4939",
"L  c #4A4435",
"P  c #594F39",
"I  c #434444",
"U  c #474848",
"Y  c #5D4940",
"T  c #5B4B4B",
"R  c #7C4242",
"E  c #6B5C44",
"W  c #63524D",
"Q  c #695354",
"!  c #69604A",
"~  c #746344",
"^  c #716549",
"/  c #74684A",
"(  c #7F6A4E",
")  c #7F7255",
"_  c #7E6F6F",
"`  c #776767",
"'  c #757272",
"]  c #8F763B",
"[  c #884646",
"{  c #8B4848",
"}  c #887240",
"|  c #83734E",
" . c #967C40",
".. c #9B7F40",
"X. c #977E49",
"o. c #816B6B",
"O. c #8E7676",
"+. c #A18040",
"@. c #AB8D47",
"#. c #A98A49",
"$. c #B4954C",
"%. c #AB8F50",
"&. c #A28E5F",
"*. c #B2985B",
"=. c #8D8269",
"-. c #988862",
";. c #8A8475",
":. c #AA9460",
">. c #A09174",
",. c #AB9873",
"<. c #BFA167",
"1. c #BFA66C",
"2. c #C79F5E",
"3. c #CDA557",
"4. c #C5A353",
"5. c #D2877B",
"6. c #C9AC67",
"7. c #E0BC6E",
"8. c #F0C665",
"9. c #FCD16C",
"0. c #EFC972",
"q. c #FFD574",
"w. c #FFD079",
"e. c #9B8D8D",
"r. c gray57",
"t. c #BDAA80",
"y. c #C4B48F",
"u. c #D2B782",
"i. c #CDBD95",
"p. c #F7A683",
"a. c #F6B783",
"s. c #D5C191",
"d. c #E8CA81",
"f. c #E5CA8C",
"g. c #F4C68F",
"h. c #F7D586",
"j. c #FCD781",
"k. c #FFDC82",
"l. c #FFDD89",
"z. c #FFCA99",
"x. c #E8D095",
"c. c #FCD694",
"v. c #F9DB97",
"b. c #FFE096",
"n. c #FFE29C",
"m. c #DBC9A0",
"M. c #C5C2BC",
"N. c #EFD3A0",
"B. c #F2DCA4",
"V. c #E0D3B2",
"C. c #EBDBB4",
"Z. c #FEE4A4",
"A. c #FDE5AB",
"S. c #F5E3B8",
"D. c #FBE7B8",
"F. c #FFEDB8",
"G. c #DBD6CB",
"H. c gainsboro",
"J. c #E7E6E2",
/* pixels */
"                                                                                              ",
"                                                                                              ",
"                                                                                              ",
"                                                                                              ",
"                                                                                              ",
"                                                                                              ",
"                                                                                              ",
"                                                                                              ",
"                                                                                              ",
"                                                                                              ",
"                                                                                              ",
"                                                                                              ",
"                                                                                              ",
"                                                                                              ",
"                                                                                              ",
"                                      > k                                                     ",
"                                    > S S S k           k l l k                               ",
"                                    > Z S D D n     l Z S S D S S                             ",
"                                    : n S S S D n l S S D S S S D m                           ",
"                                      k S S S S D Z n D S S S S D D l                         ",
"                                      = n S S S S D m n S S S S S D D m 6                     ",
"                                  =.i.>.z m S S S S D n S S S S S S S D S                     ",
"                                ! x.k.j.| k S S S D S l Z S S S S S D R G                     ",
"                                ) h.9.q.u.V n S S S s l D S S D S S R { G                     ",
"                                  6.q.v.N.,.k Z D S i i m S S S S G { { S                     ",
"                                  #.q.A.A.A.E k S S i h s S S S S G { { n                     ",
"                                  +.9.v.A.Z.) % n S i h u b D S S D R R                       ",
"                            > a Q ;.3.z.c.q.%.- : S p h j i m S S S D n                       ",
"                          > S m O.G.+.p.a.4.] J . l f u j h d S S S m                         ",
"                        : m S b ` M.X.2.w.0.$.*.B M l t h j u b D Z >                         ",
"                      $ k S n > k C W ~ 8.l.n.A.B.1.v # u h h i b >                           ",
"                    r g S m , ; o._ v x #.f.V.D.F.s.7 a # h h t @                             ",
"                    u d Z v > e.H.Q b n H y.J.C.A.6.< = ; r y : > %                           ",
"                    y A R D T r.` n n k   ] m.S.d.@.:.3 : > > 6 6 > %                         ",
"                    3 8 7 6 ' ' : m m :      .7.g.<.-.L   & 6 > : & o                         ",
"                : = 5 3 5 5 + *   n Z m         5.Y                                           ",
"        > >   * 8 4 5 5 5 3 9 2 & 6 F Z 1                                                     ",
"      & x n k e I q 5 + + + B c &   5 4 E ^                                                   ",
"        k n v w U q 8 5 3 + + X     O 3 P L                                                   ",
"        k n k = C 7 4 I e q q         ~ &./                                                   ",
"        l m k > Z m     5 q           |                                                       ",
"        k S k k n >                                                                           ",
"        k n &                                                                                 ",
"        &                                                                                     ",
"                                                                                              ",
"                                                                                              ",
"                                                                                              ",
"                                                                                              "
};
