/* XPM */
static char *dead__0011666884086[] = {
/* columns rows colors chars-per-pixel */
"47 48 157 2 ",
"   c None",
".  c #0C0C0C",
"X  c #1D0E0E",
"o  c #121010",
"O  c #1C1313",
"+  c #1C1C1C",
"@  c #2D0A0A",
"#  c #230C0C",
"$  c #3C0707",
"%  c #3F0909",
"&  c #231415",
"*  c #2A1515",
"=  c #271718",
"-  c #261E1E",
";  c #2C1A1A",
":  c #3D1313",
">  c #331B1B",
",  c #3B1D1D",
"<  c #2C241B",
"1  c #37241E",
"2  c #252524",
"3  c #2C2625",
"4  c #272728",
"5  c #272828",
"6  c #2C2C2C",
"7  c #342423",
"8  c #3E2120",
"9  c #332D2B",
"0  c #3B2828",
"q  c #393428",
"w  c #333333",
"e  c #383030",
"r  c #3F3D36",
"t  c #3B3B3B",
"y  c #4C0404",
"u  c #440808",
"i  c #470404",
"p  c #550202",
"a  c #5C0101",
"s  c #530909",
"d  c #401717",
"f  c #4E1010",
"g  c #431D1D",
"h  c #491919",
"j  c #521010",
"k  c #5F1111",
"l  c #511919",
"z  c #650000",
"x  c #680000",
"c  c #432222",
"v  c #4B2626",
"b  c #432C2C",
"n  c #4F2828",
"m  c #522424",
"M  c #5C2424",
"N  c #502728",
"B  c #532A2A",
"V  c #5B2E2E",
"C  c #40332B",
"Z  c #4C322D",
"A  c #473F2C",
"S  c #443A3A",
"D  c #5D3333",
"F  c #563F3F",
"G  c #543D33",
"H  c #653333",
"J  c #693535",
"K  c #603A3A",
"L  c #6E3838",
"P  c #7B3F3F",
"I  c #743B3B",
"U  c #4F452C",
"Y  c #474235",
"T  c #5B513B",
"R  c #62583E",
"E  c #776031",
"W  c #7C6634",
"Q  c #78673E",
"!  c #424040",
"~  c #494646",
"^  c #474848",
"/  c #494949",
"(  c #5E4949",
")  c #754141",
"_  c #7C4040",
"`  c #6C5745",
"'  c #6E5A4C",
"]  c #635050",
"[  c #6C6042",
"{  c #7E6D4A",
"}  c #75694A",
"|  c #766C52",
" . c #7A7057",
".. c #7C715D",
"X. c #7E6060",
"o. c #806935",
"O. c #8E753A",
"+. c #864545",
"@. c #884747",
"#. c #8A4848",
"$. c #837659",
"%. c #887359",
"&. c #806A6A",
"*. c #847B65",
"=. c #AC8E4B",
"-. c #AF914D",
";. c #B6964B",
":. c #BB994D",
">. c #AB8F52",
",. c #A08C5F",
"<. c #A2926A",
"1. c #B1926A",
"2. c #A1967E",
"3. c #B9A06C",
"4. c #CA9558",
"5. c #CA8079",
"6. c #C0A66A",
"7. c #CEB06A",
"8. c #DCAF76",
"9. c #DEBE74",
"0. c #E6A86E",
"q. c #FBCE6F",
"w. c #F3C867",
"e. c #FFD56F",
"r. c #E5C375",
"t. c #F3CB71",
"y. c #FED075",
"u. c #FDD57A",
"i. c #FFD879",
"p. c #988A8A",
"a. c #929090",
"s. c #A49E9D",
"d. c #BAAC8B",
"f. c gray66",
"g. c #F9B389",
"h. c #C1B8BA",
"j. c #DCC285",
"k. c #DAC592",
"l. c #ECCB84",
"z. c #F9D682",
"x. c #FFDD8A",
"c. c #E7CF97",
"v. c #EBCE99",
"b. c #FFC09F",
"n. c #EAD49F",
"m. c #FADD9A",
"M. c #F2D692",
"N. c #D0C4AB",
"B. c #DDCEAD",
"V. c #F6DFA7",
"C. c #FEE3A5",
"Z. c #FBE4AB",
"A. c #FFEDB4",
"S. c #FDEBBE",
"D. c #CBC7C7",
"F. c #E0DBCE",
"G. c #E5DBC2",
/* pixels */
"                                                                                              ",
"                                                                                              ",
"                                                                                              ",
"                                                                                              ",
"                                                                                              ",
"                                        c                                                     ",
"                          c V J J H V H J H                                                   ",
"                        1 H J H H J H H J +.L                                                 ",
"                        V J H H H H H H J @.#.V                                               ",
"                      v H H H H H J H H J @.#.P                                               ",
"                      V J H H H H H H H J _ @.@.V                                             ",
"                    ; V V V H J H H H H H J L I V                                             ",
"              v N V B V V V B B H H H H H H H H D                                             ",
"          v H H J H J J J H H v H H J J H H H H V                                             ",
"        > H H H H H H H H H H h f h m B H H H H H                                             ",
"        & N H H H H H J H H J B p z z z s s l m v                                             ",
"          * , v B V H J H H H H m p x x x x z z y * > > X                                     ",
"              X 7 Z c n m V D H H M s z z z x x y , c > *                                     ",
"                d.j.1.%.` G 7 c v B V h u i p a $ , , >                                       ",
"              *.m.e.u.c.C.n.$.< O O 1 Z v g : : , 1 ,                                         ",
"               .M.e.i.C.Z.Z.z.-.W U ..k.$.O & = ;                                             ",
"                <.9.w.x.C.C.q.;.O.r.Z.A.k.} } Y                                               ",
"                  Y -.w.y.b.g.t.u.m.Z.S.m.=.7.|                                               ",
"                    q 2.>.4.0.y.u.c.F.G.C.l.1.q                                               ",
"                v n D h.h.=.X.E :.6.N.B.l.8.5.                                                ",
"              V J J V ..s.` ( g       o.W                                                     ",
"            H H V N V V h T B N                                                               ",
"          K V n , v V : &.s.B N                                                               ",
"        b ) J * : m : g D.p.N 8                                                               ",
"      2 5 7 v u M y @ b a.] n c                                                               ",
"    + 6 6 5 o y k p # ~ f.S c B                                                               ",
"    o - 4 2 O i c 0 3 t / e D V >                                                             ",
"      . + T   & w w 4 6 w 9 ; > { T                                                           ",
"              5 w w + 2 7 , * 4 R 9                                                           ",
"              6 w 2   # u s 1 { ,.T                                                           ",
"            2 6 w +   9 3 9 r [                                                               ",
"            t e w > 7 ^ w e                                                                   ",
"          - ! / e v b S t w                                                                   ",
"        , c b 9 0 N v b                                                                       ",
"      > v B v B N v B H c                                                                     ",
"      , v n n V H B c V v                                                                     ",
"        * * > , 8 v * c ,                                                                     ",
"                                                                                              ",
"                                                                                              ",
"                                                                                              ",
"                                                                                              ",
"                                                                                              ",
"                                                                                              "
};
