/* XPM */
static char *dead__rev__0001666884088[] = {
/* columns rows colors chars-per-pixel */
"47 48 155 2 ",
"   c None",
".  c #0A0908",
"X  c #1A0707",
"o  c #190D0E",
"O  c #140808",
"+  c #131312",
"@  c #1F1A15",
"#  c #1D1D1D",
"$  c #230C0C",
"%  c #290D0D",
"&  c #240202",
"*  c #340404",
"=  c #3C0303",
"-  c #330B0B",
";  c #380D0D",
":  c #241616",
">  c #2B1313",
",  c #241C13",
"<  c #2D1C17",
"1  c #211D19",
"2  c #2D1A1A",
"3  c #331515",
"4  c #3B1414",
"5  c #3C1A1A",
"6  c #38281C",
"7  c #1F2021",
"8  c #242424",
"9  c #282223",
"0  c #292825",
"q  c #2C2C2C",
"w  c #352020",
"e  c #3D2222",
"r  c #372C2C",
"t  c #343025",
"y  c #313131",
"u  c #3C3B3B",
"i  c #460505",
"p  c #4C0000",
"a  c #430D0C",
"s  c #540202",
"d  c #5B0000",
"f  c #500909",
"g  c #4F1313",
"h  c #431D1D",
"j  c #481C1C",
"k  c #501212",
"l  c #521B1B",
"z  c #640000",
"x  c #680000",
"c  c #462020",
"v  c #4C2222",
"b  c #462924",
"n  c #472B2B",
"m  c #532525",
"M  c #572828",
"N  c #5C2B2B",
"B  c #4E342B",
"V  c #4A3636",
"C  c #533535",
"Z  c #622D2D",
"A  c #663030",
"S  c #693232",
"D  c #713737",
"F  c #753838",
"G  c #7B3C3C",
"H  c #5E4F2A",
"J  c #554C33",
"K  c #66492D",
"L  c #674F3E",
"P  c #6D5D3E",
"I  c #444545",
"U  c gray29",
"Y  c #5F4D45",
"T  c #5B5C5C",
"R  c #644444",
"E  c #754040",
"W  c #6C5F42",
"Q  c #7E5F5F",
"!  c #6E664E",
"~  c #766846",
"^  c #74604C",
"/  c #7C6E4F",
"(  c #716443",
")  c #7F6951",
"_  c #7A6F5E",
"`  c #6D6868",
"'  c #756666",
"]  c #90773B",
"[  c #957A39",
"{  c #9C7D3C",
"}  c #834141",
"|  c #8B4646",
" . c #88774C",
".. c #967F49",
"X. c #8E7C5E",
"o. c #897354",
"O. c #8A7C69",
"+. c #867272",
"@. c #8B7C7C",
"#. c #9B834D",
"$. c #918155",
"%. c #AD8D47",
"&. c #B08F49",
"*. c #B99956",
"=. c #9D8F69",
"-. c #958363",
";. c #9D9278",
":. c #BEA261",
">. c #CAA755",
",. c #C6A45B",
"<. c #DCB65D",
"1. c #CE9178",
"2. c #CCB06E",
"3. c #D7B361",
"4. c #D9B768",
"5. c #CDB278",
"6. c #ECA677",
"7. c #ECC463",
"8. c #FFD46B",
"9. c #FFD67A",
"0. c #FFDA7E",
"q. c #818181",
"w. c #908F8F",
"e. c #948585",
"r. c #9E9B9B",
"t. c #BFB49D",
"y. c #B7B3B3",
"u. c #C4B287",
"i. c #CEBB8D",
"p. c #CCBA92",
"a. c #FFB286",
"s. c #EEC387",
"d. c #F4C383",
"f. c #FBD781",
"g. c #FEDB84",
"h. c #F7D488",
"j. c #E5CF9A",
"k. c #EFD79C",
"l. c #F1D591",
"z. c #FDDF95",
"x. c #FDE19C",
"c. c #FFCFA6",
"v. c #E2D1A7",
"b. c #ECD2A0",
"n. c #E2D8BF",
"m. c #FCE3A4",
"M. c #FFE8AC",
"N. c #FCE5AD",
"B. c #FFEAB1",
"V. c #FFEEBF",
"C. c #F2E1B5",
"Z. c #CAC6C6",
"A. c #D6D4D4",
"S. c #EBE0C6",
"D. c #E6E1D5",
/* pixels */
"                                                                                              ",
"                                                                                              ",
"                                                                                              ",
"                                                                                              ",
"                                                                                              ",
"                                                    c c   m S S Z m                           ",
"                                                  N S S S S S Z S S N                         ",
"                                                m } S Z A A A S S Z S M                       ",
"                                                D | G S S Z S S A A Z S c                     ",
"                                              c } | E A Z S S Z S Z S Z M %                   ",
"                                              N | | G A Z S Z S S N m m M M Z Z A Z v         ",
"                                              Z } D S S S S Z S m M Z S S S S S Z S S h       ",
"                                              m S A A A Z S S A v N Z A A A A A S S M 3       ",
"                                              m A A A S S Z m g i N A A A A A Z N m 3         ",
"                                              c A S A N l f d z s Z A S A Z Z v 3 $           ",
"                                              5 N m g s z x x s m S A Z m v b ^ _             ",
"                                              X i d x x x x d l S Z M h B ) 5.f.x.=.          ",
"                                        O > 3 3 i x x x d s l N v 3 > -.j.b.h.8.g.t.          ",
"                                        X 3 5 5 * d d p = j h > O ,  .m.B.M.x.8.g.=.          ",
"                                            3 5 3 = = 4 h L X.t H ] <.g.M.m.0.<.$.            ",
"                                              3 5 5 > o @ i.M.j.4.[ >.d.c.9.7.]               ",
"                                                    t ~ ..k.V.B.x.g.9.a.6.&.(                 ",
"                                                    ! 2.%.l.C.n.v.9.7.*.{ t.y.5               ",
"                                                      o.s.x.S.D.p.%.K Y O.A.Q Z M             ",
"                                                        1.,.:.#.  3 v C n R M Z S M           ",
"                                                                    j @.+.a M h N Z           ",
"                                                                    j e.Z.; v m c S N         ",
"                                                                    h ' r.c * j h N m         ",
"                                                                  % % ` w.: * i S E n         ",
"                                                              $ 6 < 2 U T 9 & % e C V         ",
"                                                              , 6 1 0 y q 0 # # 0 9           ",
"                                                              ) W - w q 7 6 J 7 q 8           ",
"                                                                W a d - + . + + + #           ",
"                                                                8 q 3 h     + # +             ",
"                                                                q y 8 q.r.    q q             ",
"                                                                q y q         q q 8           ",
"                                                                u I u       q I I y           ",
"                                                                : b 2         q r :           ",
"                                                            v m c m c       h h m h           ",
"                                                          v S N m m m 3 3 N Z m m M 5         ",
"                                                          c c c 5 h c 3 c N M c h h 3         ",
"                                                                        > > % $               ",
"                                                                                              ",
"                                                                                              ",
"                                                                                              ",
"                                                                                              ",
"                                                                                              ",
"                                                                                              "
};
