/* XPM */
static char *dead__0051666884087[] = {
/* columns rows colors chars-per-pixel */
"47 48 153 2 ",
"   c None",
".  c #0C0C0C",
"X  c #1C0E0E",
"o  c #151514",
"O  c #1A1112",
"+  c #350B0B",
"@  c #3E0808",
"#  c #221313",
"$  c #2B1616",
"%  c #221E1E",
"&  c #2B1C1C",
"*  c #221C15",
"=  c #311111",
"-  c #341B1B",
";  c #3B1E1E",
":  c #2E2316",
">  c #20211F",
",  c #39211C",
"<  c #3F1F20",
"1  c #252323",
"2  c #292825",
"3  c #2C2C2C",
"4  c #3E2121",
"5  c #302C23",
"6  c #3F2E24",
"7  c #322E2E",
"8  c #323232",
"9  c #3C3131",
"0  c #3A3A3A",
"q  c #450202",
"w  c #4C0101",
"e  c #4A0F0F",
"r  c #420C0C",
"t  c #540202",
"y  c #5B0303",
"u  c #540B0B",
"i  c #421616",
"p  c #4B1515",
"a  c #441B1B",
"s  c #4A1D1D",
"d  c #5D1212",
"f  c #501B1B",
"g  c #650000",
"h  c #680000",
"j  c #601111",
"k  c #401F20",
"l  c #432322",
"z  c #4A2626",
"x  c #4C2925",
"c  c #4C2929",
"v  c #532323",
"b  c #532A2A",
"n  c #5B2E2E",
"m  c #4B322B",
"M  c #5F2F30",
"N  c #483A38",
"B  c #503535",
"V  c #5E3030",
"C  c #5C3B3C",
"Z  c #653333",
"A  c #693535",
"S  c #6D3939",
"D  c #793E3E",
"F  c #743B3B",
"G  c #564A2E",
"H  c #504335",
"J  c #5A4F35",
"K  c #5C4538",
"L  c #64442F",
"P  c #674D2E",
"I  c #695531",
"U  c #665939",
"Y  c #454646",
"T  c #5E5540",
"R  c #5F5A5A",
"E  c #674F4F",
"W  c #6F4A4A",
"Q  c #6A584F",
"!  c #655B43",
"~  c #705C48",
"^  c #6C6247",
"/  c #6E644B",
"(  c #746757",
")  c #796F56",
"_  c #7C745F",
"`  c #6D6162",
"'  c #746262",
"]  c #786E65",
"[  c #8E763D",
"{  c #824343",
"}  c #8A4747",
"|  c #8B4848",
" . c #816641",
".. c #9C8142",
"X. c #998149",
"o. c #9D8553",
"O. c #A38346",
"+. c #B5964D",
"@. c #B6984E",
"#. c #BC994E",
"$. c #948464",
"%. c #9E8D6B",
"&. c #AD966D",
"*. c #A49578",
"=. c #AA9A74",
"-. c #C09F54",
";. c #C3965D",
":. c #C6A351",
">. c #C09178",
",. c #D09A72",
"<. c #CAA962",
"1. c #CDAF69",
"2. c #CFB069",
"3. c #EBBD72",
"4. c #F3B474",
"5. c #EEC568",
"6. c #F5C56E",
"7. c #FFD169",
"8. c #E6C371",
"9. c #E2C47D",
"0. c #FBCD7A",
"q. c #FFD674",
"w. c #F8D27A",
"e. c #FFDA7A",
"r. c #8F8283",
"t. c #B1A587",
"y. c #D1BB87",
"u. c #D2BD8E",
"i. c #CBBA91",
"p. c #FFAE98",
"a. c #EACC86",
"s. c #F4D181",
"d. c #FFDA83",
"f. c #FFDC89",
"g. c #E2C796",
"h. c #E6CE96",
"j. c #E7D099",
"k. c #F6D692",
"l. c #FFDE90",
"z. c #FFDF98",
"x. c #FFE08D",
"c. c #C8C5BD",
"v. c #FFD8A3",
"b. c #F5DDA4",
"n. c #E2D7BC",
"m. c #F9E1A7",
"M. c #F6E0AC",
"N. c #FEE5AA",
"B. c #FFE8AD",
"V. c #FFECB4",
"C. c #FDEABC",
"Z. c #E1DDD1",
"A. c #E9E2D2",
/* pixels */
"                                                                                              ",
"                                                                                              ",
"                                                                                              ",
"                                                                                              ",
"                                                                                              ",
"                                                                                              ",
"                                                                                              ",
"                                                                                              ",
"                                                                                              ",
"                                                                                              ",
"                                                                                              ",
"                                                                                              ",
"                                                                                              ",
"                                                                                              ",
"                                                                                              ",
"                                                                                              ",
"                                                                                              ",
"                                                                                              ",
"                                                                                              ",
"                                                                                              ",
"                                                                                              ",
"                                                                                              ",
"                                            $ b Z b                                           ",
"                                            ; Z Z A Z l       l b n n b                       ",
"                                            $ n A Z Z A l k n Z A Z Z A Z z                   ",
"                                            # z Z Z Z Z Z b n A Z Z Z Z Z Z                   ",
"                                              $ n Z Z Z Z Z b Z Z Z Z Z Z A b                 ",
"                                          _ t.( l Z Z Z Z Z Z b Z Z Z Z Z Z A Z l             ",
"                                        / h.f.a.K b Z Z Z Z A b Z Z Z Z Z Z Z S V             ",
"                                        $.f.7.e.&.l M Z Z Z b z Z Z Z Z Z Z S { A             ",
"                                        / 8.q.k.g.~ z Z Z Z e f Z Z Z Z Z S { } Z             ",
"                                        : -.e.N.N.u.m n Z n y u n Z A Z Z D } } V             ",
"                                $ - l b l #.e.N.B.b.H l Z n y h p Z A Z Z F } { l             ",
"                          w u p ; c Z Z C $.6.v.f.w.U # b V t h y v A Z Z A { A               ",
"                        @ g d d p V Z z r.c.;.p.3.:.[ * - n u g h u n A Z Z Z l               ",
"                        # 4 p q i Z l $ ' *.O.4.0.@...G O z p g h g f Z Z Z z                 ",
"          $ l $         3 8 8 & c Z c ' B Q ] @.e.f.s.y.=.K a t h h y b Z z                   ",
"          l b l & 8 1 3 0 8 2 0 ' Z S E C b k P 5.j.M.V.V.%.k r y h h p 4                     ",
"        $ z b c 9 Y 8 8 7 & 1 0 R W V & & l Z x o.Z.n.C.N./ & ; q g w + X                     ",
"        l b b l 9 Y 8 7 % r s 7 & 1 1 2 > m b n L i.A.b.1. .5 - i + - a ; X                   ",
"      - n Z c l % 8 0 7 7 4 @ & $ > 3 3 2 J , Z n ~ a.v.<.1.) O - l ; ; ; $                   ",
"      l M b c     7 0 8 8 2       o 3 1 o o       N I ,.&.^ U       - - $ #                   ",
"        $ O                         o .                                                       ",
"                                                                                              ",
"                                                                                              ",
"                                                                                              ",
"                                                                                              ",
"                                                                                              "
};
