/* XPM */
static char *dead__0001666884086[] = {
/* columns rows colors chars-per-pixel */
"47 48 158 2 ",
"   c None",
".  c #0E0C08",
"X  c #1C0E0E",
"o  c #1E1415",
"O  c #1A1A19",
"+  c #161515",
"@  c #290909",
"#  c #370202",
"$  c #3C0C0C",
"%  c #350D0D",
"&  c #251313",
"*  c #2B1515",
"=  c #261F1C",
"-  c #2D1B1B",
";  c #361313",
":  c #351B1B",
">  c #3B1D1D",
",  c #3B1515",
"<  c #25211E",
"1  c #2B2418",
"2  c #31221E",
"3  c #232323",
"4  c #282626",
"5  c #2C2728",
"6  c #2C2C2C",
"7  c #2C2A26",
"8  c #322121",
"9  c #3C2525",
"0  c #352F22",
"q  c #3E2B21",
"w  c #3D2F2F",
"e  c #383328",
"r  c #35332A",
"t  c #323232",
"y  c #3E3E3E",
"u  c #4B0202",
"i  c #430C0C",
"p  c #480E0E",
"a  c #5A0303",
"s  c #540C0C",
"d  c #510303",
"f  c #451514",
"g  c #481010",
"h  c #441F1F",
"j  c #511111",
"k  c #521C1C",
"l  c #640000",
"z  c #680000",
"x  c #442323",
"c  c #4A2525",
"v  c #402929",
"b  c #4C2A29",
"n  c #522323",
"m  c #582626",
"M  c #532A2A",
"N  c #5B2D2D",
"B  c #4F372F",
"V  c #493131",
"C  c #4B3939",
"Z  c #563636",
"A  c #5F3030",
"S  c #513939",
"D  c #602F2F",
"F  c #663333",
"G  c #683434",
"H  c #6D3838",
"J  c #733B3B",
"K  c #7A3E3E",
"L  c #5E502E",
"P  c #564D36",
"I  c #664A31",
"U  c #474848",
"Y  c #4A4A4A",
"T  c #444444",
"R  c #5F4E47",
"E  c #5B5C5C",
"W  c #644646",
"Q  c #7E4141",
"!  c #744242",
"~  c #675040",
"^  c #6D5E42",
"/  c #7D5F5F",
"(  c #6F664F",
")  c #73604D",
"_  c #756848",
"`  c #716445",
"'  c #7D6C51",
"]  c #796F5E",
"[  c #6D6868",
"{  c #746666",
"}  c #8F763D",
"|  c #987B3D",
" . c #824343",
".. c #894747",
"X. c #8B4848",
"o. c #87764D",
"O. c #957E4A",
"+. c #877255",
"@. c #8F7F57",
"#. c #8D7B5E",
"$. c #897B69",
"%. c #857171",
"&. c #8A7B7B",
"*. c #99824E",
"=. c #AD8D49",
"-. c #B89857",
";. c #988866",
":. c #9C9076",
">. c #BDA161",
",. c #C9A656",
"<. c #C4A35B",
"1. c #DBB55D",
"2. c #CD8F76",
"3. c #CBAF6E",
"4. c #D6B261",
"5. c #D8B668",
"6. c #CCB177",
"7. c #EBA576",
"8. c #ECC363",
"9. c #FFD36B",
"0. c #FFD579",
"q. c #FFD97D",
"w. c #808080",
"e. c #8F8E8E",
"r. c #938484",
"t. c #9D9A9A",
"y. c #BEB39C",
"u. c #B6B1B2",
"i. c #C3B186",
"p. c #CDBA8C",
"a. c #CBB991",
"s. c #FFB185",
"d. c #EEC286",
"f. c #F4C282",
"g. c #F7D387",
"h. c #FBD782",
"j. c #FFDB82",
"k. c #E5CE97",
"l. c #E3CD9A",
"z. c #EED49D",
"x. c #F1D490",
"c. c #FDDE94",
"v. c #FCDF9B",
"b. c #FFE19D",
"n. c #FFCEA5",
"m. c #E1D0A6",
"M. c #F8DFA1",
"N. c #E1D7BE",
"B. c #FFE4A4",
"V. c #FEE6AC",
"C. c #FFEAAF",
"Z. c #FFE8B1",
"A. c #FFEDBE",
"S. c #F2E0B4",
"D. c #C9C5C5",
"F. c #D5D3D3",
"G. c #EADFC5",
"H. c #E5E0D4",
/* pixels */
"                                                                                              ",
"                                                                                              ",
"                                                                                              ",
"                                                                                              ",
"                                                                                              ",
"                          M F F F M   x x                                                     ",
"                        A F F G G G G G H N                                                   ",
"                      N F F F F F F F F J  .b                                                 ",
"                    c F F F F F F F F F K X.J                                                 ",
"                  * M F F F G F F G F F Q X. .x                                               ",
"        M A F F F N N M M N F F F F F F K ....N                                               ",
"      x F F F F F G G F G M M F F G F F F J Q F                                               ",
"      > N F F F F F F F F A c F G F F F F F G M                                               ",
"        > M F F F F F F F N i k m F F F F F G M                                               ",
"          & > c N F F F F F s l a j n A F G G c                                               ",
"            ] ) b x N F F G m a z l l s k m D 9                                               ",
"          :.v.0.6.' B > M F G k a l z z l a g X                                               ",
"          y.h.9.g.z.l.;.- > b A k d l l l z u > > - X                                         ",
"          ;.h.9.c.V.C.B.o.1 o * x x $ u a l $ 9 > : &                                         ",
"            @.4.j.M.V.j.1.} L e #.~ x f $ $ ; 9 >                                             ",
"              O.1.0.n.f.,.| 5.l.C.p.< o - > > >                                               ",
"                _ =.7.s.0.j.v.Z.A.z.*._ r                                                     ",
"              x u.y.| -.8.0.m.N.S.x.=.3.(                                                     ",
"            N D { F.$.~ I =.a.H.G.b.d.+.                                                      ",
"          M G D N W V S c >   *.>.<.2.                                                        ",
"          F N c N f %.&.c                                                                     ",
"        N F x M n , D.r.x                                                                     ",
"        M D x x % c t.{ h                                                                     ",
"        V ! J p # 1 e.[ * -                                                                   ",
"        C Z 9 * @ 7 E Y 2 2 q -                                                               ",
"          4 6 3 3 6 t t 6 < v <                                                               ",
"          6 6 3 P 0 3 t 9 ; I '                                                               ",
"          3 = O O . + ; a f ^                                                                 ",
"            O 3 O     x : t 7                                                                 ",
"            t t     t.w.6 t 6                                                                 ",
"          3 t t         t t t                                                                 ",
"          t Y T 6       T Y y                                                                 ",
"          = w t         8 9 =                                                                 ",
"          c c x x       c M c M c                                                             ",
"        x M M M F A : : M M M D F M                                                           ",
"        > x x c M N c : x x x x b x                                                           ",
"              & * : :                                                                         ",
"                                                                                              ",
"                                                                                              ",
"                                                                                              ",
"                                                                                              ",
"                                                                                              ",
"                                                                                              "
};
