/* XPM */
static char *dead__rev__0041666884088[] = {
/* columns rows colors chars-per-pixel */
"47 48 158 2 ",
"   c None",
".  c #060606",
"X  c gray4",
"o  c #1D0909",
"O  c #130507",
"+  c #161415",
"@  c #181010",
"#  c #1D1B1B",
"$  c #2C0404",
"%  c #240D0D",
"&  c #2A0F0F",
"*  c #360505",
"=  c #3E0C0C",
"-  c #3A0505",
";  c #241111",
":  c #2C1313",
">  c #221812",
",  c #231C1C",
"<  c #2C1818",
"1  c #321515",
"2  c #3C1414",
"3  c #3C1917",
"4  c #391718",
"5  c #371818",
"6  c #3D1A1A",
"7  c #24231E",
"8  c #29221A",
"9  c #2D291C",
"0  c #342A17",
"q  c #242424",
"w  c #2C2D2D",
"e  c #3F2821",
"r  c #382A2A",
"t  c #373121",
"y  c #323232",
"u  c #3E3333",
"i  c #3C3C3C",
"p  c #410000",
"a  c #4C0101",
"s  c #440B0B",
"d  c #520303",
"f  c #5C0101",
"g  c #500D0D",
"h  c #4D1414",
"j  c #431D1D",
"k  c #421415",
"l  c #521414",
"z  c #521D1D",
"x  c #5D1919",
"c  c #640000",
"v  c #680000",
"b  c #42201F",
"n  c #461F20",
"m  c #442321",
"M  c #4C2222",
"N  c #482C2B",
"B  c #532525",
"V  c #5A2727",
"C  c #552828",
"Z  c #5C2A2A",
"A  c #46362C",
"S  c #523620",
"D  c #5F3528",
"F  c #413F3F",
"G  c #533131",
"H  c #5F3535",
"J  c #583C3C",
"K  c #622D2D",
"L  c #663030",
"P  c #693232",
"I  c #7D3E3E",
"U  c #723939",
"Y  c #5E4E28",
"T  c #504938",
"R  c #5F5231",
"E  c #5F553B",
"W  c #644D29",
"Q  c #70512E",
"!  c #654F3E",
"~  c #6B523E",
"^  c #79683F",
"/  c #414141",
"(  c #5C4040",
")  c #674E4E",
"_  c #624343",
"`  c #61514E",
"'  c #6C6449",
"]  c #776947",
"[  c #796E58",
"{  c #746262",
"}  c #866D33",
"|  c #834141",
" . c #8A4545",
".. c #8F7947",
"X. c #8A774A",
"o. c #8B794F",
"O. c #8E7B55",
"+. c #847457",
"@. c #9A6E61",
"#. c #97865B",
"$. c #9F8958",
"%. c #AC8E47",
"&. c #A78A4D",
"*. c #BD9D50",
"=. c #A8966C",
"-. c #B29A62",
";. c #AE9B75",
":. c #BDA673",
">. c #C7A655",
",. c #D7B15A",
"<. c #C7A963",
"1. c #CAAB62",
"2. c #D9A764",
"3. c #D9B563",
"4. c #CAB078",
"5. c #CBB276",
"6. c #DFB770",
"7. c #D0B57A",
"8. c #E5BE60",
"9. c #F2CB6B",
"0. c #FFD36A",
"q. c #FFCB7E",
"w. c #FFD670",
"e. c #FFD976",
"r. c #9C9691",
"t. c #A69F9F",
"y. c #B1A486",
"u. c #BFB18C",
"i. c #AEA9AA",
"p. c #B7B2B2",
"a. c #F3A681",
"s. c #F7B98C",
"d. c #DAC28B",
"f. c #DECA97",
"g. c #D8C494",
"h. c #E7C980",
"j. c #EDC28A",
"k. c #FFCA86",
"l. c #F0D083",
"z. c #FEDB85",
"x. c #FFDF89",
"c. c #E1C594",
"v. c #F7D893",
"b. c #F0D798",
"n. c #FFE08C",
"m. c #FFDFA7",
"M. c #E8DCBE",
"N. c #ECDCB3",
"B. c #F7E1A7",
"V. c #FFE5A6",
"C. c #FDE6AD",
"Z. c #FFE8AF",
"A. c #FAE5B0",
"S. c #FFEBB0",
"D. c #FFEEBE",
"F. c #DFDACE",
"G. c #E7E1D3",
"H. c #E4E3E2",
/* pixels */
"                                                                                              ",
"                                                                                              ",
"                                                                                              ",
"                                                                                              ",
"                                                                                              ",
"                                                                                              ",
"                                                                                              ",
"                                                                                              ",
"                                                                                              ",
"                                                                                              ",
"                                                                                              ",
"                                                                                              ",
"                                                                                              ",
"                                                                                              ",
"                                                                                              ",
"                                                                                              ",
"                                                                                              ",
"                                                                                              ",
"                                                                                              ",
"                                          M V M                                               ",
"                                        V P P Z :                                             ",
"                                      C P L L C :                                             ",
"                      B K K K K C 6 j P L L L M o                                             ",
"                    Z P P L K L L B L L L L K 4                                               ",
"                  B P P K P L L C K L L L L C A y.u.[                                         ",
"                  K P K K L L K B P L L L L n O.x.n.d.                                        ",
"                V P L L P L P V V L L L L Z m 4.w.0.l.'                                       ",
"              V P L L L L L K K n Z L L L M ! c.v.e.1.                                        ",
"              P P P L L L L L L z s K L K n ;.C.V.n.,.                                        ",
"              P  .| P P L L L L g f V L C m g.S.Z.n.,.u : 4 ;                                 ",
"              C  . ._ L L L L V f c l L n ; 7.v.V.k.-.i.L K C :                               ",
"                |  . .L L L L h c c l K 1 0 *.8.s.6.$.H.) Z L M 1 $                           ",
"                Z  .I L L L Z d c c l B O Y } >.q.2...r.J 6 K Z s x d                         ",
"                  L P L L L z c c f h j 8 $.3.z.e.&.` N G 6 B K a f c d                       ",
"                    C L L K g v c f k ~ f.B.V.b.9.Q M ( p.t.B Z = 2 n *                       ",
"                      B K B f v c p 6 +.Z.D.N.F.:.D V M ( { P U r w y q           %           ",
"                        4 s c v f - : 9 d.A.M.G.X.4 Z j j 6 B H u q w w + < < o j j           ",
"                          % * a p 3 @ ^ %.q.C.u.S M K m   + q q # + w w w y y 5 B M :         ",
"                        % 6 6 1 3 : 7 =.<.j.8.W P P Z   t 7 q q , $ # w w i F m B M 5         ",
"                      O 1 5 5 6 :     E T @.~ 7 N _     R 7 q q ; : y / w y u 5 M Z M         ",
"                        % %               #.E q #         X . . # w w / y   B K M L Z :       ",
"                                          ] O.t                   y w q       C M M V 6       ",
"                                            O.                                                ",
"                                                                                              ",
"                                                                                              ",
"                                                                                              ",
"                                                                                              ",
"                                                                                              "
};
