/* XPM */
static char *dead__rev__0031666884088[] = {
/* columns rows colors chars-per-pixel */
"47 48 156 2 ",
"   c None",
".  c #0D0A0A",
"X  c #100609",
"o  c #190808",
"O  c #1D0505",
"+  c #1E150D",
"@  c #141414",
"#  c #1A1717",
"$  c #1A1A1A",
"%  c #240D0D",
"&  c #280E0F",
"*  c #300000",
"=  c #3D0303",
"-  c #350D0D",
";  c #251414",
":  c #2C1111",
">  c #2D1B17",
",  c #251B1B",
"<  c #351515",
"1  c #3C1616",
"2  c #361718",
"3  c #351919",
"4  c #3C1A1A",
"5  c #2B2315",
"6  c #23211D",
"7  c #3D2E1F",
"8  c #232424",
"9  c #2B2424",
"0  c #2C2C2C",
"q  c #322525",
"w  c #3C2323",
"e  c #352C22",
"r  c #372D2D",
"t  c #3E3727",
"y  c #353535",
"u  c #410101",
"i  c #4B0000",
"p  c #4E0D0D",
"a  c #520303",
"s  c #5D0000",
"d  c #520B0B",
"f  c #4E1111",
"g  c #441D1D",
"h  c #4A1C1C",
"j  c #541717",
"k  c #521E1E",
"l  c #650000",
"z  c #680000",
"x  c #42221F",
"c  c #452120",
"v  c #4B2222",
"b  c #4D2B29",
"n  c #452E25",
"m  c #522525",
"M  c #562828",
"N  c #5D2A2B",
"B  c #413A2B",
"V  c #4E352C",
"C  c #413131",
"Z  c #4D3230",
"A  c #533232",
"S  c #622D2D",
"D  c #663030",
"F  c #693232",
"G  c #643939",
"H  c #713737",
"J  c #7E3E3E",
"K  c #564021",
"L  c #5A4B25",
"P  c #484131",
"I  c #4D4836",
"U  c #584E36",
"Y  c #5D483E",
"T  c #695D3E",
"R  c #424343",
"E  c #5B4A4A",
"W  c #7C4545",
"Q  c #685649",
"!  c #695253",
"~  c #6A6048",
"^  c #756342",
"/  c #716548",
"(  c #766849",
")  c #7F7252",
"_  c #776363",
"`  c #78696A",
"'  c #7F7070",
"]  c #767373",
"[  c #8A723D",
"{  c #907738",
"}  c #977D3E",
"|  c #8A4545",
" . c #806A4D",
".. c #85734D",
"X. c #987F47",
"o. c #807358",
"O. c #826B6B",
"+. c #8F7777",
"@. c #9D803D",
"#. c #A2813E",
"$. c #AA8C46",
"%. c #AC904F",
"&. c #B5964B",
"*. c #A38F5F",
"=. c #B3995B",
"-. c #8E8369",
";. c #998962",
":. c #8C8676",
">. c #AB9560",
",. c #A79675",
"<. c #CEA656",
"1. c #C8A05E",
"2. c #C6A452",
"3. c #D4897B",
"4. c #C0A267",
"5. c #CAAD67",
"6. c #C0A76C",
"7. c #E1BD6E",
"8. c #F0C765",
"9. c #FCD26C",
"0. c #EFCA73",
"q. c #FFD675",
"w. c #FFD17A",
"e. c #9C8E8E",
"r. c #929292",
"t. c #BEAB81",
"y. c #D3B883",
"u. c #C5B590",
"i. c #CFBE96",
"p. c #F7A784",
"a. c #F6B884",
"s. c #D6C292",
"d. c #E8CB88",
"f. c #F7D687",
"g. c #FEDB83",
"h. c #FFDE8A",
"j. c #F4C790",
"k. c #FFCB9A",
"l. c #E9D196",
"z. c #FCD795",
"x. c #F9DC98",
"c. c #FFE197",
"v. c #FFE39D",
"b. c #DCCAA1",
"n. c #C6C3BD",
"m. c #EFD4A1",
"M. c #F2DDA5",
"N. c #E7D8B4",
"B. c #FEE5A4",
"V. c #FDE5AA",
"C. c #FFE8AE",
"Z. c #FDEBB9",
"A. c #F5E4B9",
"S. c #DCD7CC",
"D. c #DDDDDD",
"F. c #E8E7E3",
/* pixels */
"                                                                                              ",
"                                                                                              ",
"                                                                                              ",
"                                                                                              ",
"                                                                                              ",
"                                                                                              ",
"                                                                                              ",
"                                                                                              ",
"                                                                                              ",
"                                                                                              ",
"                                                                                              ",
"                                                                                              ",
"                                                                                              ",
"                                                                                              ",
"                                                                                              ",
"                                                    g 2                                       ",
"                              g v v 4           c S D S 2                                     ",
"                            N F D D S N v     m F D D S 4                                     ",
"                          N F D F S F D D v m F D D D M :                                     ",
"                        v F D D D F F S m N F F D D S g                                       ",
"                    4 N F D D D D D D M M F D S D D v ;                                       ",
"                    S F D D D D S D S m F F D F D N c ,.i.-.                                  ",
"                    F J F D D D F D S v S F S S S c  .g.g.l.~                                 ",
"                    H | J D D D D D D h h S F F m V y.q.9.f.o.                                ",
"                    D | | H D D D D N a a S D N c ,.m.x.q.5.                                  ",
"                    M | | F D D D D f l a S D g Q V.C.V.q.$.                                  ",
"                      J | D D D D k s z a D M % ..B.C.v.9.@.                                  ",
"                      M D D D D N a l l d N 2 + %.9.z.k.<.:.! 4 2                             ",
"                        N D D S p l l l j c X L { 2.a.p.#.S.O.M S 4                           ",
"                        2 N D k s l l i g n B =.&.0.w.1.@.S.` v F N :                         ",
"                          2 v a l l s = M t.M.V.x.h.8.^ E Z g 1 v S h *                       ",
"                            O i l l = 4 e s.Z.A.N.d.$.v b ' O.- - S S j u                     ",
"                          % 4 < = u 1 ; 5 6.V.N.F.u.K m m ! D.e.1 m S d s                     ",
"                        o 4 4 2 < 1 & 6 >.$.d.A.b.{   v m m _ r.E F W A u                     ",
"                        o : : 2 4 &   I ;.4.j.7.}     < N m < ] ] 4 w q 8                     ",
"                                          Y 3.        M S m   # @ 8 0 $ 8 ; :                 ",
"                                                    > N G 3 & 5 e 8 0 8 8 , 9 #   2 4         ",
"                                                  / T 8 9   % 7 t @ $ @ 8 0 R r 4 m v %       ",
"                                                  P U 8 @     . $ $ 8 8 0 0 R r v m c         ",
"                                                  ( *.^         0 0 y R , w C , x m c         ",
"                                                      ..          0 8     N N 4 h S c         ",
"                                                                          4 m 4 4 D g         ",
"                                                                                % m g         ",
"                                                                                    %         ",
"                                                                                              ",
"                                                                                              ",
"                                                                                              ",
"                                                                                              "
};
