/* XPM */
static char *dead__0041666884087[] = {
/* columns rows colors chars-per-pixel */
"47 48 157 2 ",
"   c None",
".  c #0F0F0F",
"X  c #180C0C",
"o  c #1D1415",
"O  c #1D1C1C",
"+  c #131313",
"@  c #2F0303",
"#  c #370C0C",
"$  c #3C0E0E",
"%  c #241212",
"&  c #2B1616",
"*  c #251D1B",
"=  c #2B1B1B",
"-  c #311010",
";  c #321B1B",
":  c #3B1E1E",
">  c #372E1D",
",  c #252322",
"<  c #2B2724",
"1  c #2A2924",
"2  c #272828",
"3  c #2B2B2B",
"4  c #3E2121",
"5  c #312D22",
"6  c #3B2E2E",
"7  c #3A3426",
"8  c #333333",
"9  c #3D3A3A",
"0  c #430303",
"q  c #4D0606",
"w  c #540000",
"e  c #5C0202",
"r  c #530B0B",
"t  c #5F0E0E",
"y  c #421414",
"u  c #411D1E",
"i  c #4C1A1A",
"p  c #511313",
"a  c #531B1B",
"s  c #5D1F1F",
"d  c #640000",
"f  c #680000",
"g  c #432222",
"h  c #4B2626",
"j  c #412C26",
"k  c #4D2628",
"l  c #462B28",
"z  c #4D2C2B",
"x  c #532525",
"c  c #582626",
"v  c #502728",
"b  c #532A2A",
"n  c #5B2E2E",
"m  c #453B2F",
"M  c #5F382C",
"N  c #533925",
"B  c #493431",
"V  c #413333",
"C  c #5F3131",
"Z  c #523E3E",
"A  c #5F3A3A",
"S  c #543434",
"D  c #653333",
"F  c #693535",
"G  c #6C3838",
"H  c #713C3C",
"J  c #7A3F3F",
"K  c #5E4F2C",
"L  c #514A3A",
"P  c #5E543B",
"I  c #644E2D",
"U  c #605335",
"Y  c #6D553E",
"T  c #705232",
"R  c #434242",
"E  c #5C4242",
"W  c #5F5641",
"Q  c #674F4F",
"!  c #624545",
"~  c #7E4141",
"^  c #655040",
"/  c #685141",
"(  c #61524F",
")  c #6D644C",
"_  c #786841",
"`  c #776949",
"'  c #786E58",
"]  c #736262",
"[  c #856D36",
"{  c #894747",
"}  c #8A4848",
"|  c #824343",
" . c #89764B",
".. c #8E7849",
"X. c #8C7B52",
"o. c #837358",
"O. c #8D7858",
"+. c #996E61",
"@. c #9D8759",
"#. c #9E8959",
"$. c #96855B",
"%. c #A6894E",
"&. c #AB8D49",
"*. c #BC9C51",
"=. c #A7956C",
"-. c #B19962",
";. c #AD9A74",
":. c #BCA572",
">. c #C6A556",
",. c #D4AF5A",
"<. c #D6B05A",
"1. c #C6A863",
"2. c #C9AA62",
"3. c #D8A664",
"4. c #D8B463",
"5. c #C9AF77",
"6. c #CFB479",
"7. c #CAB175",
"8. c #DEB670",
"9. c #E4BD60",
"0. c #F2CA6B",
"q. c #FFD26A",
"w. c #E6C87F",
"e. c #FFCA7D",
"r. c #FFD672",
"t. c #FFD876",
"y. c #9B9590",
"u. c #A59E9E",
"i. c #B0A385",
"p. c #BEAF8B",
"a. c #ADA8A9",
"s. c #B6B1B1",
"d. c #F3A580",
"f. c #F7B88B",
"g. c #DAC187",
"h. c #D8C18C",
"j. c #D7C393",
"k. c #DDC996",
"l. c #EDC189",
"z. c #F0CF82",
"x. c #FFC985",
"c. c #FCD782",
"v. c #FFDC85",
"b. c #FFDF8A",
"n. c #E0C493",
"m. c #F4D795",
"M. c #FFDEA6",
"N. c #E7DBBD",
"B. c #ECDBB2",
"V. c #F7E0A6",
"C. c #FFE4A5",
"Z. c #FDE6AD",
"A. c #FFEAAF",
"S. c #FFEDBD",
"D. c #DED9CD",
"F. c #E6E0D2",
"G. c #E3E2E1",
/* pixels */
"                                                                                              ",
"                                                                                              ",
"                                                                                              ",
"                                                                                              ",
"                                                                                              ",
"                                                                                              ",
"                                                                                              ",
"                                                                                              ",
"                                                                                              ",
"                                                                                              ",
"                                                                                              ",
"                                                                                              ",
"                                                                                              ",
"                                                                                              ",
"                                                                                              ",
"                                                                                              ",
"                                                                                              ",
"                                                                                              ",
"                                                                                              ",
"                                              h n v                                           ",
"                                            ; n F D n                                         ",
"                                            & n D D F n                                       ",
"                                            % k D D D F g g n C D D D b                       ",
"                                              : D D D D D v D D D D D F C                     ",
"                                        ' p.i.B b D D D F C n D D D D F F b                   ",
"                                        h.b.b.O.h D D D D F v D D D D D D C                   ",
"                                      ) z.q.q.7.l C D D D D n n D D D D D F n                 ",
"                                        2.t.m.n.P v D D D n h n D F D D D D F n               ",
"                                        <.v.Z.Z.;.g D D D y x D D D D D D F G D               ",
"                                & > ; m <.b.A.A.j.j n D c e p D D D D D F ~ } F               ",
"                              ; b D D a.-.x.M.b.5.* h D a d e n D D D F ~ } { n               ",
"                          @ ; h F C Q G.+.8.f.9.*.> = D a d d a F D D F | } ~                 ",
"                        q c y n D g Z y...3.e.>.[ K o z a d d r n D D D J { n                 ",
"                      w d t r D b 4 S z ( %.t.c.4.@.< g i d f d x D D D F F                   ",
"                      # i : y C z u.s.E k T 0.m.C.M.k./ u w f f r D D D n                     ",
"          &           3 8 8 6 H A ] G v n M :.D.B.S.Z.o.u 0 d f e c D b                       ",
"          g g % = ; O 8 8 3 V A n 4 : g n :  .F.N.Z.g.1 ; $ e f d $ 4                         ",
"        & z v 4 9 8 2 8 3 O , , 3 O   g D h N 6.Z.w.&._ % > 0 q $ &                           ",
"        : v v l R 9 8 8 * - * 3 3 , 7   n F G I 8.l.1.=.< & : ; 4 4 &                         ",
"        k n v 4 9 8 8 R 8 ; * 3 , 1 U     ! B < Y +.L W     ; g 4 : ; X                       ",
"      ; n D v D b   8 R 8 8 , . . +         , 3 P $.              & %                         ",
"      g n h h b       3 8 8                   7 X.`                                           ",
"                                                X.                                            ",
"                                                                                              ",
"                                                                                              ",
"                                                                                              ",
"                                                                                              ",
"                                                                                              "
};
