/* XPM */
static char *dead__0021666884087[] = {
/* columns rows colors chars-per-pixel */
"47 48 154 2 ",
"   c None",
".  c gray5",
"X  c #1B0F0F",
"o  c #141415",
"O  c #1E1C1C",
"+  c #1A1414",
"@  c #3D0404",
"#  c #350C0C",
"$  c #3C0A0A",
"%  c #231213",
"&  c #2A1616",
"*  c #251F16",
"=  c #261B19",
"-  c #2D1E1E",
";  c #3A1111",
":  c #341B1B",
">  c #3B1E1E",
",  c #371515",
"<  c #3E1F20",
"1  c #242425",
"2  c #2B2322",
"3  c #272828",
"4  c #2C2C2C",
"5  c #2F2C24",
"6  c #332222",
"7  c #3D2222",
"8  c #312C24",
"9  c #352F2F",
"0  c #3F392A",
"q  c #333333",
"w  c #373838",
"e  c #3C3A3A",
"r  c #460202",
"t  c #480606",
"y  c #440F0F",
"u  c #570303",
"i  c #5F0000",
"p  c #540A0A",
"a  c #4C1515",
"s  c #431A1A",
"d  c #4C1C1C",
"f  c #501212",
"g  c #521D1D",
"h  c #650000",
"j  c #690000",
"k  c #422222",
"l  c #4B2626",
"z  c #462C27",
"x  c #4C2728",
"c  c #412D29",
"v  c #4E2A2A",
"b  c #522424",
"n  c #542B2B",
"m  c #5C2E2E",
"M  c #493122",
"N  c #413B2C",
"B  c #483D2D",
"V  c #52362F",
"C  c #4E3435",
"Z  c #553333",
"A  c #5F3030",
"S  c #533C3D",
"D  c #653333",
"F  c #693535",
"G  c #673E3E",
"H  c #753B3B",
"J  c #783D3D",
"K  c #464031",
"L  c #5B4639",
"P  c #574937",
"I  c #59513D",
"U  c #726138",
"Y  c #7D6939",
"T  c #454444",
"R  c #474848",
"E  c #674545",
"W  c #7C4040",
"Q  c #695340",
"!  c #695E42",
"~  c #70654A",
"^  c #756E5C",
"/  c #7D7153",
"(  c #656060",
")  c #686060",
"_  c #7E6A6A",
"`  c #8D753E",
"'  c #93793D",
"]  c #844444",
"[  c #894747",
"{  c #877548",
"}  c #877855",
"|  c #8E7D56",
" . c #89745B",
".. c #917F55",
"X. c #877766",
"o. c #857171",
"O. c #A28141",
"+. c #A3894E",
"@. c #AB8E4C",
"#. c #8D8274",
"$. c #AA9769",
"%. c #BBA36A",
"&. c #C39F51",
"*. c #C1A054",
"=. c #C0A158",
"-. c #E0B95D",
";. c #C59679",
":. c #DDAE67",
">. c #D4B263",
",. c #DEBE72",
"<. c #EDA877",
"1. c #F1C767",
"2. c #F7CB6A",
"3. c #FFD36E",
"4. c #EBC270",
"5. c #E7C87F",
"6. c #E4C57B",
"7. c #F2CC74",
"8. c #FED572",
"9. c #F6D17B",
"0. c #FFDA79",
"q. c #8D8989",
"w. c #958687",
"e. c #9A9B9B",
"r. c #A09898",
"t. c #BFAB80",
"y. c #A6A39E",
"u. c #C4B185",
"i. c #CDB683",
"p. c #FFAD8D",
"a. c #DDC68D",
"s. c #D4C398",
"d. c #E6CA86",
"f. c #EBCA82",
"g. c #F4C68A",
"h. c #FFDF8B",
"j. c #E5CF9A",
"k. c #F4D390",
"l. c #FAD091",
"z. c #FFD19B",
"x. c #FEE29D",
"c. c #D3C7AC",
"v. c #DCD2B8",
"b. c #EED4A0",
"n. c #F0D9A3",
"m. c #E5D7B6",
"M. c #FEE2A1",
"N. c #FFE7AD",
"B. c #F2E1B7",
"V. c #FEEAB3",
"C. c #FFEDBA",
"Z. c #D8D4D5",
"A. c #E7E4DB",
"S. c #E0E1E1",
/* pixels */
"                                                                                              ",
"                                                                                              ",
"                                                                                              ",
"                                                                                              ",
"                                                                                              ",
"                                                                                              ",
"                                                                                              ",
"                                                                                              ",
"                                                                                              ",
"                                                                                              ",
"                                          > v m A n                                           ",
"                                        l D F F F F A 7                                       ",
"                                      l D D D D D D F F D D >                                 ",
"                        k m n l     k D F D D D D D D D F H D                                 ",
"                      > D F F F D m n n A F D D D D D D F ] W                                 ",
"                      : A D D D D D D D n n D D D F D D J [ ] x                               ",
"                      % k m D D D D D F F A n D D D D D J [ [ n                               ",
"                        % > n D D D D D D n n D D F D D F ] [ m                               ",
"                          8 c l A D D D D d a m D D D D D F J x                               ",
"                        ^ s.i.Q k m F D D g h p b D D D D D D k                               ",
"                        u.h.3.f. .z l D D m u j h f n D D D m                                 ",
"                        u.0.3.k.b.u.L k m F a h j j u b D D n                                 ",
"                        / ,.8.M.N.V.%.= : n m p h j j i f b :                                 ",
"                          U 1.h.N.x.h.{ * % k l t i j j j $ X                                 ",
"                            @.2.z.k.-.' ` 2 P Z k @ u j u , > : %                             ",
"                        : S y.+.<.p.4.*.>.a.n.u.c > ; r # > > > &                             ",
"                      m D G Z.t.O.:.8.h.x.V.C.j.N + : 7 > k > &                               ",
"                    m D m m w.#.X.L &.7.v.m.V.d.@.} 2                                         ",
"                  D D n k n s v C b M +.c.A.B.f.=.$.I                                         ",
"                l D n 7 s , o.r.V n     Y %.6.g.;.K                                           ",
"                E F s $ # E S._ n n                                                           ",
"              6 Z F a @ & ) q.Z n k                                                           ",
"              1 3 2 2 - q e.) : m x                                                           ",
"            O 4 4 1 O 4 4 e 9 & n F <                                                         ",
"            o 1 1 8 N O 3 q 3 & : 2 B !                                                       ",
"              . o 5 0 o - s ; = O 3 I I                                                       ",
"            1 4 4 1 O 4 6 y ;     N { ~                                                       ",
"        : & q R q q 7 T w q 4     ..|                                                         ",
"      k x l k T e 7 7 R w q                                                                   ",
"      k n n k = c m k 4                                                                       ",
"        7 n m k < A m                                                                         ",
"          k A A : m b                                                                         ",
"          % l n & 7                                                                           ",
"            & >                                                                               ",
"                                                                                              ",
"                                                                                              ",
"                                                                                              ",
"                                                                                              "
};
