/* XPM */
static char *dead__rev__0051666884089[] = {
/* columns rows colors chars-per-pixel */
"47 48 152 2 ",
"   c None",
".  c #0E0D0B",
"X  c gray2",
"o  c #110303",
"O  c #1D0707",
"+  c #150909",
"@  c #1C0A0B",
"#  c #1C150D",
"$  c #111111",
"%  c #1D1515",
"&  c #1B1B1B",
"*  c #260E0E",
"=  c #2B0C0C",
"-  c #320404",
";  c #3E0202",
":  c #3E0E0E",
">  c #2B1E0D",
",  c #280F10",
"<  c #241515",
"1  c #2C1313",
"2  c #211D1D",
"3  c #2B1919",
"4  c #341515",
"5  c #371919",
"6  c #3D1B1B",
"7  c #3A1714",
"8  c #2C281E",
"9  c #3D2A1F",
"0  c #242323",
"q  c #2C2C2C",
"w  c #3E2020",
"e  c #302B2B",
"r  c #392D2D",
"t  c #333333",
"y  c #373838",
"u  c #393939",
"i  c #450101",
"p  c #4D0202",
"a  c #410E0E",
"s  c #4B0C0C",
"d  c #530303",
"f  c #5A0000",
"g  c #5D0A0A",
"h  c #441313",
"j  c #4C1616",
"k  c #421E1E",
"l  c #511A1A",
"z  c #650000",
"x  c #680000",
"c  c #600909",
"v  c #43211F",
"b  c #491F20",
"n  c #472525",
"m  c #4B2222",
"M  c #4A2E27",
"N  c #522525",
"B  c #5D2727",
"V  c #552827",
"C  c #552929",
"Z  c #5C2A2A",
"A  c #463734",
"S  c #4F3232",
"D  c #5D3638",
"F  c #5A3A3A",
"G  c #632E2E",
"H  c #663030",
"J  c #6A3333",
"K  c #753838",
"L  c #7A3C3C",
"P  c #55492A",
"I  c #4F4132",
"U  c #5C4335",
"Y  c #5A4E32",
"T  c #5E533F",
"R  c #674C2A",
"E  c #64422B",
"W  c #68532D",
"Q  c #665836",
"!  c #434444",
"~  c #5F5A5A",
"^  c #674E4E",
"/  c #6F4949",
"(  c #655B41",
")  c #6A574E",
"_  c #705C46",
"`  c #6D6247",
"'  c #6F654B",
"]  c #756756",
"[  c #7A7055",
"{  c #7E745E",
"}  c #6D6162",
"|  c #756262",
" . c #796E65",
".. c #82663F",
"X. c #8F773A",
"o. c #834141",
"O. c #8B4545",
"+. c #9C8244",
"@. c #9E8652",
"#. c #A48444",
"$. c #B6974C",
"%. c #B7994D",
"&. c #BD9A4D",
"*. c #958564",
"=. c #9F8E6B",
"-. c #AE976D",
";. c #A59679",
":. c #AB9B75",
">. c #C4975D",
",. c #C4A252",
"<. c #C19279",
"1. c #D29C73",
"2. c #CBAA62",
"3. c #CEB069",
"4. c #D0B169",
"5. c #ECBE73",
"6. c #F3B575",
"7. c #EEC668",
"8. c #F5C66E",
"9. c #FFD269",
"0. c #E7C472",
"q. c #E3C57E",
"w. c #FBCE7B",
"e. c #FFD775",
"r. c #FFDB7B",
"t. c #F8D37B",
"y. c #908384",
"u. c #B2A688",
"i. c #D3BD8C",
"p. c #CCBB92",
"a. c #FFAF99",
"s. c #EBCD87",
"d. c #FFDB84",
"f. c #FFDD8A",
"g. c #F4D282",
"h. c #E5CC97",
"j. c #E8D19A",
"k. c #F6D793",
"l. c #FFDF91",
"z. c #FFE18E",
"x. c #FFE099",
"c. c #C9C6BE",
"v. c #F5DEA5",
"b. c #FFD9A4",
"n. c #E3D8BD",
"m. c #F6E1AD",
"M. c #FDE5AA",
"N. c #FFE9AE",
"B. c #FFEDB5",
"V. c #FDEBBD",
"C. c #E2DED2",
"Z. c #EAE3D3",
/* pixels */
"                                                                                              ",
"                                                                                              ",
"                                                                                              ",
"                                                                                              ",
"                                                                                              ",
"                                                                                              ",
"                                                                                              ",
"                                                                                              ",
"                                                                                              ",
"                                                                                              ",
"                                                                                              ",
"                                                                                              ",
"                                                                                              ",
"                                                                                              ",
"                                                                                              ",
"                                                                                              ",
"                                                                                              ",
"                                                                                              ",
"                                                                                              ",
"                                                                                              ",
"                                                                                              ",
"                                                                                              ",
"                                          C G C *                                             ",
"                      N Z Z N k       k G J H G 5                                             ",
"                  k H J H G J H B 6 k J H H H C 1                                             ",
"                  G J H H H G H B N H H H H G b O                                             ",
"                N J H H H H H G N H H H H H C *                                               ",
"            6 G J H H H H H H N H H H H H G b ] u.{                                           ",
"            Z J J H H H H H G N H H H H J N U s.z.h.'                                         ",
"            J o.J H H H H H H m m J H H Z w -.e.9.f.*.                                        ",
"            J O.o.J H H H H H l i G H H b _ h.k.e.0.`                                         ",
"            Z O.O.L H H H H Z d f B H C M i.M.M.d.,.>                                         ",
"            9 o.O.K H H H G s x f B G 6 I v.N.M.r.&.v V 6 1 *                                 ",
"              J o.J H H H N f x d G N @ Q t.f.b.8.*.D H H b 6 s d i                           ",
"              6 H H H H Z p x x d Z 4 # X.,.5.a.>.c.y.N G G h g g z ;                         ",
"                b H H G j z x z s v + P +.$.w.6.#.;.} = k G a i h 6 %                         ",
"                  m H N f x x d 6 F :.i.g.f.r.%. .) S | n G m < q t q         * k *           ",
"                    5 p x x f ; 6 =.B.B.m.j.7.R 6 N F ) J H | y 0 q t 0 & q < m V 6           ",
"                    o - p x i : # ( M.V.n.Z.@.m G k 1 3 C / ~ y 2 2 q q q ! r m N m *         ",
"                  O 4 6 4 - : 3 8 +.2.m.Z.p.E G V 9 & 0 0 3 < e j i % q q ! r k N V k         ",
"                  1 5 5 5 6 4 + [ 4.2.x.q...V Z 5 Y 0 q q % * < ; 6 q q y e < k m H C 1       ",
"                  @ * 1 4       T ` <.1.W A       . . & 0 $       0 q q y q     b N Z k       ",
"                                                      X X                         O *         ",
"                                                                                              ",
"                                                                                              ",
"                                                                                              ",
"                                                                                              ",
"                                                                                              "
};
