/* XPM */
static char *door__0021666871906[] = {
/* columns rows colors chars-per-pixel */
"48 48 155 2 ",
"   c #41484A",
".  c #3E4547",
"X  c #3B4243",
"o  c #363C3D",
"O  c #2F3233",
"+  c #1D1E1E",
"@  c #251B13",
"#  c #705238",
"$  c #5D4C3B",
"%  c #353B3C",
"&  c #393F40",
"*  c #383F40",
"=  c #323637",
"-  c #2C2B2A",
";  c #1B1A19",
":  c #322825",
">  c #362E2F",
",  c #342B2A",
"<  c #383235",
"1  c #383B3C",
"2  c #2D2E2F",
"3  c #1C1C1B",
"4  c #2A2726",
"5  c #1B1917",
"6  c #383638",
"7  c #4A5557",
"8  c #2F3131",
"9  c #252221",
"0  c #2E241B",
"q  c #635343",
"w  c #3C4445",
"e  c #393133",
"r  c #3D4445",
"t  c #464F51",
"y  c #363B3C",
"u  c #2D2C2C",
"i  c #201E1C",
"p  c #2A2017",
"a  c #60503F",
"s  c #373D3E",
"d  c #36312F",
"f  c #464D4F",
"g  c #556569",
"h  c #212120",
"j  c #665747",
"k  c #414B4C",
"l  c #526063",
"z  c #434A4C",
"x  c #596A6E",
"c  c #33291F",
"v  c #495254",
"b  c #4F5B5E",
"n  c #4C5659",
"m  c #635342",
"M  c #3E4647",
"N  c #3A4142",
"B  c #444C4D",
"V  c #34393A",
"C  c #272624",
"Z  c #655545",
"A  c #40484A",
"S  c #404748",
"D  c #5C6F73",
"F  c #4C5759",
"G  c #625040",
"H  c #4A5456",
"J  c #4E595C",
"K  c #4F5C5F",
"L  c #2C2A29",
"P  c #2B251F",
"I  c #403227",
"U  c #3B2F25",
"Y  c #372C22",
"T  c #3A3129",
"R  c #6B513B",
"E  c #604F3E",
"W  c #5F4D3C",
"Q  c #414244",
"!  c #414648",
"~  c #414446",
"^  c #444B4D",
"/  c #2D2C2A",
"(  c #242525",
")  c #292927",
"_  c #1E1F1E",
"`  c #161614",
"'  c #070706",
"]  c #434548",
"[  c #404749",
"{  c #363C3C",
"}  c #475254",
"|  c #403E41",
" . c #1E1F1F",
".. c #4A5659",
"X. c #3D363A",
"o. c #474F51",
"O. c #373E3F",
"+. c #1F2121",
"@. c #4D595B",
"#. c #3D3F41",
"$. c #10100F",
"%. c #1D1A18",
"&. c #444D4F",
"*. c #3D3B3D",
"=. c #262423",
"-. c #1F1C1A",
";. c #526164",
":. c #282726",
">. c #26201E",
",. c #222322",
"<. c #241F1C",
"1. c #343939",
"2. c #252220",
"3. c #2C3030",
"4. c #202222",
"5. c #2C2C2B",
"6. c #32302F",
"7. c #2E2D2C",
"8. c #292A2A",
"9. c #262726",
"0. c #2C2826",
"q. c #28221F",
"w. c gray5",
"e. c #221B15",
"r. c #2B2724",
"t. c #303333",
"y. c #4B3725",
"u. c #4B453D",
"i. c #3B4344",
"p. c #514B44",
"a. c #4E4941",
"s. c #5A5851",
"d. c #1B1816",
"f. c #4F3B2A",
"g. c #5D5D56",
"h. c #141311",
"j. c #4D3927",
"k. c #3A3336",
"l. c #2F2F2E",
"z. c #514D45",
"x. c #211D1B",
"c. c #513D2C",
"v. c #181716",
"b. c #556568",
"n. c #56402E",
"m. c #39302F",
"M. c #3B3334",
"N. c #221E1C",
"B. c #543F2D",
"V. c #3B3229",
"C. c #2C2624",
"Z. c #232525",
"A. c #252727",
"S. c #353133",
"D. c #372C2A",
/* pixels */
"            . .     X o O O + @ # # # # # # # # # # # $ o % &                                   ",
"* * * * * * * * * * * = O - ; @ # # # # # # # # # # # $ = O = * * * * * * * * * * * * * * * * * ",
": > , < < < < < 1 * * = O 2 3 @ # # # # # # # # # # # $ = O = * * : : : : : : : : : > > < < , : ",
"* * * * * * * * * X * = O 4 5 @ # # # # # # # # # # # $ = O = * : 6 * * * * * * * * * * * * * * ",
"* * * * * * * * *   * = O 4 5 @ # # # # # # # # # # # $ = O = * : * * * * * * * * * * * * * * * ",
"                  7   & % 8 9 0 # # # # # # # # # # # q w % &   e                               ",
"r r r r r r r r r t r y = u i p # # # # # # # # # # # a s = y r d r r r r r r r r r r r r r r r ",
"f f f f f f f f f g f r * = h p # # # # # # # # # # # j k * r f r f f f f f f f f f f f f f f f ",
"f f f f f f f f f l f r * = + @ # # # # # # # # # # # j k * r f z f f f f f f f f f f f f f f f ",
"f f f f f f f f f x f r * = 4 c # # # # # # # # # # # j k * r f f v b b g g x x l n f f f f f f ",
"f f f f f f f f f x f r * = 4 c # # # # # # # # # # # j k * r f f f f f f f f f f v n f f f f f ",
"f f f f f f f f f x f r * = h c # # # # # # # # # # # m M * N r r r r r r r r . B f n v f f f f ",
"f f f f f f f f v x f r * V C c # # # # # # # # # # # Z A * * * * * * * * * * * * S f n n f f f ",
"b g l g g x x x D F f r * V C c # # # # # # # # # # # G z         . . X . * * * * N f f v l x x ",
"H J F J J K K K K f f r * o L P I I I I I U U Y c p T R G G G G G E E W E $ $ * * * f f f F K K ",
"Q ! ~           ^ f f r * * V / / / / / / ( ( ) _ ` ' # # # # # # # # # # # # X * * f f ] Q Q ! ",
"Q ! ~           ^ f f [ * * * * * * * * * * * * { _ ' # # # # # # # # # # # # } * * f | | Q Q ! ",
"f f f f f f f f f n f B * * * * * * * * * * * * o  .' # # # # # # # # # # # # ..* * f X.Q f f f ",
"f f f f f f f f f F b o.B . r r r r r r r r N * O.+.' # # # # # # # # # # # # ..* * f X.Q f f f ",
"f f f f f f f f f f v @.f f f f f f f f f f r * % + ' # # # # # # # # # # # # ..* * f X.Q f f f ",
"f f f f f f f f f f f v #.X.X.X.X.#.r z f f r * % + ' # # # # # # # # # # # # ..* * f X.Q f f f ",
"f f f f f f f f f f f f f f f f f f f f v f r * % + ' # # # # # # # # # # # # } * * f X.Q f f f ",
"f f f f f f f f f f f f f f f f f f f f b f r * % + $.# # # # # # # # # # # # } * * f #.! f f f ",
"f f f f f f f f f f f f f f f f f f f f b f r * % + %.# # # # # # # # # # # # &.* * f *.~ f f f ",
"f f f f f f f f f f f f f f f f f f f f l f r * % =.%.# # # # # # # # # # # #   * * f #.! f f f ",
"f f f f f f f f f f f f f f f f f f f f x f r * % =.%.# # # # # # # # # # # #   * * f #.! f f f ",
"f f f f f f f f f f f f f f f f f f f n D f r * % h -.# # # # # # # # # # # #   * * f r   f f f ",
"f f f f f f ;.x x x x x x x x x x x x x F f r * O.:.>.# # # # # # # # # # # #   * * f r   f f f ",
"f f f f f ;.F f f f f f f f f f f f f f f f r * O.:.>.# # # # # # # # # # # #   * * f r   f f f ",
"f f f f ;.;.f z . r r r r r r r r r r r r r N * o ,.<.# # # # # # # # # # # # X * * f r   f f f ",
"f f f ;.F f S * * * * * * * * * * * * * * * * * * ) >.# # # # # # # # # # # # . * * f S z f f f ",
"x x x F f f N * * * * .                 X . . X 1.2.>.# # # # # # # # # # # # . * * f f f b b g ",
"K K K f f f * * * 3.4.5.6.6.6.7.7.8.7.7.9.5.5.9.0.q.q.# # # # # # # # # # # # X * * f f f H H J ",
"      f f f * * * w.e.U I I I Y Y U Y Y U Y r.) / / t.$ $ $ $ $ $ $ $ $ $ $ $ * * * f f f Q Q ! ",
"      f f f * * V w.y.# # # # # # # # # # # u.* * * * * * * * * * * * * * * * * * i.f f | Q Q ! ",
"f f f v v f * * o w.y.# # # # # # # # # # # p.X * * * * * * * * * * * * * * * * * S f | | f f f ",
"f f f H H f * * = w.y.# # # # # # # # # # # a.N * X r r r r r r r r r r r r r . B f | ] f f f f ",
"f f f J J f * * = w.y.# # # # # # # # # # # s.A *   f f f f f f f f f f f f f f f S ] f f f f f ",
"f f f K K f * * = d.f.# # # # # # # # # # # g.k *   f ] X.X.X.X.X.X.X.#.*.r r r r S f f f f f f ",
"f f f K K f * * = h.j.# # # # # # # # # # # s.A *   f k.z f f f f f f f f f f f f f f f f f f f ",
"f f f K K f * * = h.j.# # # # # # # # # # # s.A *   f X.f f f f f f f f f f f f f f f f f f f f ",
"f f f F F f * * l.d.f.# # # # # # # # # # # z.i.*   f X.f f f f f f f f f f f f f f f f f f f f ",
"f f f K K f * * t.x.c.# # # # # # # # # # # p.X *   f r f f f f f f f f f f f f f f f f f f f f ",
"f f f K K f * * / v.c.# # # # # # # # # # # u.* *   f r f f f f f f f f f f f f f f f f f f f f ",
"f f f b.K f * * / %.c.# # # # # # # # # # # u.* *   f z f f f f f f f f f f f f f f f f f f f f ",
"l x x ;.f f * * / v.c.# # # # # # # # # # # u.* *   f f n b b b b x x x g g l x x x x x x x x x ",
"f f f f f f * * / >.n.# # # # # # # # # # # u.* *   f f f f f f f f f f f f f f f f f f f f f f ",
"m.m.M.X.X.X.: : N.5 B.# # # # # # # # # # # V.C.4.Z.A.S.S.X.X.X.X.X.X.X.m.m.M.M.M.m.M.D.D.D.D.M."
};
