/* XPM */
static char *door__0051666871906[] = {
/* columns rows colors chars-per-pixel */
"48 48 134 2 ",
"   c #41484A",
".  c #3B4243",
"X  c #363C3D",
"o  c #2F3233",
"O  c #1D1E1E",
"+  c #251B13",
"@  c #705238",
"#  c #5D4C3B",
"$  c #353B3C",
"%  c #393F40",
"&  c #383F40",
"*  c #323637",
"=  c #2C2B2A",
"-  c #1B1A19",
";  c #2D2E2F",
":  c #1C1C1B",
">  c #322825",
",  c #2A2726",
"<  c #1B1917",
"1  c #383638",
"2  c #4A5557",
"3  c #2F3131",
"4  c #252221",
"5  c #2E241B",
"6  c #635343",
"7  c #3C4445",
"8  c #393133",
"9  c #464F51",
"0  c #3D4445",
"q  c #363B3C",
"w  c #2D2C2C",
"e  c #201E1C",
"r  c #2A2017",
"t  c #60503F",
"y  c #373D3E",
"u  c #36312F",
"i  c #556569",
"p  c #464D4F",
"a  c #212120",
"s  c #665747",
"d  c #414B4C",
"f  c #526063",
"g  c #434A4C",
"h  c #596A6E",
"j  c #33291F",
"k  c #495254",
"l  c #4F5B5E",
"z  c #635342",
"x  c #3E4647",
"c  c #3A4142",
"v  c #34393A",
"b  c #272624",
"n  c #655545",
"m  c #40484A",
"M  c #4C5759",
"N  c #625040",
"B  c #3E4547",
"V  c #2C2A29",
"C  c #2B251F",
"Z  c #403227",
"A  c #3B2F25",
"S  c #372C22",
"D  c #3A3129",
"F  c #6B513B",
"G  c #604F3E",
"H  c #5F4D3C",
"J  c #2D2C2A",
"K  c #242525",
"L  c #292927",
"P  c #1E1F1E",
"I  c #161614",
"U  c #070706",
"Y  c #404749",
"T  c #363C3C",
"R  c #4C5659",
"E  c #444C4D",
"W  c #1E1F1F",
"Q  c #474F51",
"!  c #373E3F",
"~  c #1F2121",
"^  c #4D595B",
"/  c #3D3F41",
"(  c #3D363A",
")  c #10100F",
"_  c #1D1A18",
"`  c #262423",
"'  c #5C6F73",
"]  c #1F1C1A",
"[  c #282726",
"{  c #26201E",
"}  c #222322",
"|  c #241F1C",
" . c #343939",
".. c #252220",
"X. c #2C3030",
"o. c #202222",
"O. c #2C2C2B",
"+. c #32302F",
"@. c #2E2D2C",
"#. c #292A2A",
"$. c #262726",
"%. c #2C2826",
"&. c #28221F",
"*. c gray5",
"=. c #221B15",
"-. c #433930",
";. c #634E3A",
":. c #4B3725",
">. c #4B453D",
",. c #514B44",
"<. c #4E4941",
"1. c #5A5851",
"2. c #1B1816",
"3. c #4F3B2A",
"4. c #5D5D56",
"5. c #434548",
"6. c #3D3B3D",
"7. c #141311",
"8. c #4D3927",
"9. c #3A3336",
"0. c #514D45",
"q. c #3B4344",
"w. c #211D1B",
"e. c #513D2C",
"r. c #181716",
"t. c #56402E",
"y. c #543F2D",
"u. c #3B3229",
"i. c #2C2624",
"p. c #232525",
"a. c #252727",
"s. c #353133",
"d. c #39302F",
"f. c #3B3334",
/* pixels */
"  . X o o O + @ @ @ @ @ @ @ @ @ @ @ @ @ @ @ @ @ @ @ @ @ @ @ @ @ @ @ @ @ # X $ %                 ",
"& & * o = - + @ @ @ @ @ @ @ @ @ @ @ @ @ @ @ @ @ @ @ @ @ @ @ @ @ @ @ @ @ # * o * & & & & & & & & ",
"& & * o ; : + @ @ @ @ @ @ @ @ @ @ @ @ @ @ @ @ @ @ @ @ @ @ @ @ @ @ @ @ @ # * o * & & > > > > > > ",
". & * o , < + @ @ @ @ @ @ @ @ @ @ @ @ @ @ @ @ @ @ @ @ @ @ @ @ @ @ @ @ @ # * o * & > 1 & & & & & ",
"  & * o , < + @ @ @ @ @ @ @ @ @ @ @ @ @ @ @ @ @ @ @ @ @ @ @ @ @ @ @ @ @ # * o * & > & & & & & & ",
"2   % $ 3 4 5 @ @ @ @ @ @ @ @ @ @ @ @ @ @ @ @ @ @ @ @ @ @ @ @ @ @ @ @ @ 6 7 $ %   8             ",
"9 0 q * w e r @ @ @ @ @ @ @ @ @ @ @ @ @ @ @ @ @ @ @ @ @ @ @ @ @ @ @ @ @ t y * q 0 u 0 0 0 0 0 0 ",
"i p 0 & * a r @ @ @ @ @ @ @ @ @ @ @ @ @ @ @ @ @ @ @ @ @ @ @ @ @ @ @ @ @ s d & 0 p 0 p p p p p p ",
"f p 0 & * O + @ @ @ @ @ @ @ @ @ @ @ @ @ @ @ @ @ @ @ @ @ @ @ @ @ @ @ @ @ s d & 0 p g p p p p p p ",
"h p 0 & * , j @ @ @ @ @ @ @ @ @ @ @ @ @ @ @ @ @ @ @ @ @ @ @ @ @ @ @ @ @ s d & 0 p p k l l i i h ",
"h p 0 & * , j @ @ @ @ @ @ @ @ @ @ @ @ @ @ @ @ @ @ @ @ @ @ @ @ @ @ @ @ @ s d & 0 p p p p p p p p ",
"h p 0 & * a j @ @ @ @ @ @ @ @ @ @ @ @ @ @ @ @ @ @ @ @ @ @ @ @ @ @ @ @ @ z x & c 0 0 0 0 0 0 0 0 ",
"h p 0 & v b j @ @ @ @ @ @ @ @ @ @ @ @ @ @ @ @ @ @ @ @ @ @ @ @ @ @ @ @ @ n m & & & & & & & & & & ",
"M p 0 & v b j @ @ @ @ @ @ @ @ @ @ @ @ @ @ @ @ @ @ @ @ @ @ @ @ @ @ @ @ @ N g         B B . B & & ",
"p p 0 & X V C Z Z Z Z Z A A S j r D @ @ @ @ @ @ @ @ @ @ @ @ @ @ @ @ @ @ F N N N N N G G H G # # ",
"p p 0 & & v J J J J J J K K L P I U @ @ @ @ @ @ @ @ @ @ @ @ @ @ @ @ @ @ @ @ @ @ @ @ @ @ @ @ @ @ ",
"p p Y & & & & & & & & & & & & T P U @ @ @ @ @ @ @ @ @ @ @ @ @ @ @ @ @ @ @ @ @ @ @ @ @ @ @ @ @ @ ",
"R p E & & & & & & & & & & & & X W U @ @ @ @ @ @ @ @ @ @ @ @ @ @ @ @ @ @ @ @ @ @ @ @ @ @ @ @ @ @ ",
"M l Q E B 0 0 0 0 0 0 0 0 c & ! ~ U @ @ @ @ @ @ @ @ @ @ @ @ @ @ @ @ @ @ @ @ @ @ @ @ @ @ @ @ @ @ ",
"p k ^ p p p p p p p p p p 0 & $ O U @ @ @ @ @ @ @ @ @ @ @ @ @ @ @ @ @ @ @ @ @ @ @ @ @ @ @ @ @ @ ",
"p p k / ( ( ( ( / 0 g p p 0 & $ O U @ @ @ @ @ @ @ @ @ @ @ @ @ @ @ @ @ @ @ @ @ @ @ @ @ @ @ @ @ @ ",
"p p p p p p p p p p p k p 0 & $ O U @ @ @ @ @ @ @ @ @ @ @ @ @ @ @ @ @ @ @ @ @ @ @ @ @ @ @ @ @ @ ",
"p p p p p p p p p p p l p 0 & $ O ) @ @ @ @ @ @ @ @ @ @ @ @ @ @ @ @ @ @ @ @ @ @ @ @ @ @ @ @ @ @ ",
"p p p p p p p p p p p l p 0 & $ O _ @ @ @ @ @ @ @ @ @ @ @ @ @ @ @ @ @ @ @ @ @ @ @ @ @ @ @ @ @ @ ",
"p p p p p p p p p p p f p 0 & $ ` _ @ @ @ @ @ @ @ @ @ @ @ @ @ @ @ @ @ @ @ @ @ @ @ @ @ @ @ @ @ @ ",
"p p p p p p p p p p p h p 0 & $ ` _ @ @ @ @ @ @ @ @ @ @ @ @ @ @ @ @ @ @ @ @ @ @ @ @ @ @ @ @ @ @ ",
"p p p p p p p p p p R ' p 0 & $ a ] @ @ @ @ @ @ @ @ @ @ @ @ @ @ @ @ @ @ @ @ @ @ @ @ @ @ @ @ @ @ ",
"h h h h h h h h h h h M p 0 & ! [ { @ @ @ @ @ @ @ @ @ @ @ @ @ @ @ @ @ @ @ @ @ @ @ @ @ @ @ @ @ @ ",
"p p p p p p p p p p p p p 0 & ! [ { @ @ @ @ @ @ @ @ @ @ @ @ @ @ @ @ @ @ @ @ @ @ @ @ @ @ @ @ @ @ ",
"0 0 0 0 0 0 0 0 0 0 0 0 0 c & X } | @ @ @ @ @ @ @ @ @ @ @ @ @ @ @ @ @ @ @ @ @ @ @ @ @ @ @ @ @ @ ",
"& & & & & & & & & & & & & & & & L { @ @ @ @ @ @ @ @ @ @ @ @ @ @ @ @ @ @ @ @ @ @ @ @ @ @ @ @ @ @ ",
"& & B                 . B B .  ...{ @ @ @ @ @ @ @ @ @ @ @ @ @ @ @ @ @ @ @ @ @ @ @ @ @ @ @ @ @ @ ",
"X.o.O.+.+.+.@.@.#.@.@.$.O.O.$.%.&.&.@ @ @ @ @ @ @ @ @ @ @ @ @ @ @ @ @ @ @ @ @ @ @ @ @ @ @ @ @ @ ",
"*.=.A Z Z Z S S A S S A S S A Z Z -.@ @ @ @ @ @ @ @ @ @ @ @ @ ;.# # # # # # # # # # # # # # # # ",
"*.:.@ @ @ @ @ @ @ @ @ @ @ @ @ @ @ @ @ @ @ @ @ @ @ @ @ @ @ @ @ >.& & & & & & & & & & & & & & & & ",
"*.:.@ @ @ @ @ @ @ @ @ @ @ @ @ @ @ @ @ @ @ @ @ @ @ @ @ @ @ @ @ ,.. & & & & & & & & & & & & & & & ",
"*.:.@ @ @ @ @ @ @ @ @ @ @ @ @ @ @ @ @ @ @ @ @ @ @ @ @ @ @ @ @ <.c & . 0 0 0 0 0 0 0 0 0 0 0 0 0 ",
"*.:.@ @ @ @ @ @ @ @ @ @ @ @ @ @ @ @ @ @ @ @ @ @ @ @ @ @ @ @ @ 1.m &   p p p p p p p p p p p p p ",
"2.3.@ @ @ @ @ @ @ @ @ @ @ @ @ @ @ @ @ @ @ @ @ @ @ @ @ @ @ @ @ 4.d &   p 5.( ( ( ( ( ( ( / 6.0 0 ",
"7.8.@ @ @ @ @ @ @ @ @ @ @ @ @ @ @ @ @ @ @ @ @ @ @ @ @ @ @ @ @ 1.m &   p 9.g p p p p p p p p p p ",
"7.8.@ @ @ @ @ @ @ @ @ @ @ @ @ @ @ @ @ @ @ @ @ @ @ @ @ @ @ @ @ 1.m &   p ( p p p p p p p p p p p ",
"2.3.@ @ @ @ @ @ @ @ @ @ @ @ @ @ @ @ @ @ @ @ @ @ @ @ @ @ @ @ @ 0.q.&   p ( p p p p p p p p p p p ",
"w.e.@ @ @ @ @ @ @ @ @ @ @ @ @ @ @ @ @ @ @ @ @ @ @ @ @ @ @ @ @ ,.. &   p 0 p p p p p p p p p p p ",
"r.e.@ @ @ @ @ @ @ @ @ @ @ @ @ @ @ @ @ @ @ @ @ @ @ @ @ @ @ @ @ >.& &   p 0 p p p p p p p p p p p ",
"_ e.@ @ @ @ @ @ @ @ @ @ @ @ @ @ @ @ @ @ @ @ @ @ @ @ @ @ @ @ @ >.& &   p g p p p p p p p p p p p ",
"r.e.@ @ @ @ @ @ @ @ @ @ @ @ @ @ @ @ @ @ @ @ @ @ @ @ @ @ @ @ @ >.& &   p p R l l l l h h h i i f ",
"{ t.@ @ @ @ @ @ @ @ @ @ @ @ @ @ @ @ @ @ @ @ @ @ @ @ @ @ @ @ @ >.& &   p p p p p p p p p p p p p ",
"< y.@ @ @ @ @ @ @ @ @ @ @ @ @ @ @ @ @ @ @ @ @ @ @ @ @ @ @ @ @ u.i.o.p.a.s.s.( ( ( ( ( ( ( d.d.f."
};
