/* XPM */
static char *door1666810592[] = {
/* columns rows colors chars-per-pixel */
"48 48 58 1 ",
"  c #060706",
". c #070808",
"X c #0B0C0C",
"o c #120F0D",
"O c #13100F",
"+ c #0D0F10",
"@ c #0E1111",
"# c #151312",
"$ c #191614",
"% c #16191A",
"& c #1D1B1A",
"* c #231E1B",
"= c #1D201F",
"- c #23201E",
"; c #1C1F20",
": c #1F2222",
"> c #242423",
", c #2A2624",
"< c #2C2927",
"1 c #262A2A",
"2 c #2D2C2B",
"3 c #322522",
"4 c #352825",
"5 c #332C2B",
"6 c #382E2D",
"7 c #2D2F30",
"8 c #372E31",
"9 c #382F31",
"0 c #2E3233",
"q c #313434",
"w c #3A3235",
"e c #333738",
"r c #3C3538",
"t c #363D3E",
"y c #3A3C3E",
"u c #373F40",
"i c #393F40",
"p c #403F41",
"a c #374041",
"s c #3B4244",
"d c #3F4648",
"f c #414245",
"g c #414748",
"h c #454C4E",
"j c #474E50",
"k c #484F51",
"l c #475052",
"z c #495153",
"x c #4B5759",
"c c #4E5A5C",
"v c #505C5F",
"b c #515E61",
"n c #536165",
"m c #56666A",
"M c #57686C",
"N c #596B6F",
"B c #5A6D71",
"V c #5C7075",
/* pixels */
"hhhhdhhghghhsshhst0q%Xseahhhdhdhgggghgghgghhddsj",
"tttaaaatuuuuuutuuq07#@y7qauaaauusasaaaatsaattitt",
"tay333354wwwwwtuue0q#@a2qsu33333333465ww6-4wtiti",
"aa3wyttttttuttysaq05#@t0qs38ytttttttttaiyttutssi",
"ta3yatuuuuuauuaguq02OXt20a3yatautaaaaaitiitaahti",
"hh8fhgdhgggggghxhutq&:jeah6ghddhgggggggggggghzgg",
"as5sssssdsddddghdeqq$%s0ts6adssssdssddsddsdddjss",
"jzrhzjjjjhhjhhzMhsay&>xtszshkhjhhjjjjjkkhzhhzMhj",
"hkrhjhjhjhjhhhjnhuut@%xeszhhjkzkzzzhjhhhhjjhjnhh",
"jjwhjhhjhjhjjhzNhdue-1xtskjzvbmnBBmzhjkhjhjhkMhj",
"jjwhjjhjhjjhhhzVhdut-1xeszkkjkhhhhhcchhjhjjjzBhh",
"jjyhjhjhjjjjjjzNhiut&-jtasssdssssshhxxhhjjjjkBhj",
"hjfjhhhhhhhgggjVhsii*>ltuttutuytiitghxxhfhffkVhj",
"hjjkvxxvvvnMmmVbhsii=-lddhddsshssaiahhxvMMMMBvhj",
"jhhzxxxvvvxbvvxhhdti<-25225,,-=#<aiihhjcbvvvchjh",
"hjjfpfpffffffdhjjaiue<,,,,,=--%@ iiihjffyfgghjhj",
"hkpwpprspshshshhjdiiiasadaasaas- laalgyypfgshhjh",
"jkwgkzzzzzhzhkhvjhaetiittiiiiis, xtthyfzkkjjjchj",
"hkwhhhhhhhhhhhhxnhjdfsisssssaua, xttzrfkhjjhjchj",
"jjyhjjkhkhkhjhhhzcjjkkkjzhjzdaa: xiizyfzhhjhjmhh",
"hjyhjhhjhhjhhjhjjziwrrrpdgjjgta- xtazrfjjhhhkmhh",
"jjyhlhjhhkhjjhkhhhhhhhhhhhzjdta> ltazyfzhjjhkMhj",
"jjyhhjjhkhkhhkhjjjjhhkjhhhbzguu-XhtiksgjjhkhkVhj",
"hkrhjkhjhhkhjhjhjhhjhhhjjhczsuu:-jiijpgjhjhhkBhj",
"hkrgkjhjhjhhkhhjhjhjhjjjhhbzguu,$giijsgjjhjhjnhh",
"hjwhjhjhkhkhjhjhhhhhhhhhhhVzfuu,*gtijpglhjhhzNhj",
"jkrhjjhjkhhhhzzzzzlzzzzzjxVzsuu>-giikggjjhhhzBhh",
"hkrjjhkhhhjhbBBBBBBBBBBBNVxjhya1-hiijsgjhjjjzBhh",
"hkyhjjhjhjhnnhhhhhhhhhhhhhhlsys1-gyijfhhjjhhzBhj",
"hkyhjhkkhhbnghssssssssssssssaaa,-syajihhhkjjzNhj",
"hkghhhgggnnhhtuuttttattttttttts2-guujghhhhhfzVhj",
"khhkcnmmmbhlayuasdhhdhdhdhddddu>-fuihjhcxnMmVbhj",
"hjhkxvvbvhjhuii7%<525,,,1,->--,--diijhjxxcvvchhh",
"jhkfppffsjjjuuuO.1,,,=--=-----<<9aiijhjfpggghjjh",
"hjfwpyffghhhuutX:duussssasssadsuaitahkpyyfgshhhj",
"hjwhzzjkjzxhiut.:dtaututuuuuitiitiihkppzjkjjjchh",
"hjwhhhhjhzxhiieX=daasdidssdidusssshkppzhhjjhjvhj",
"jkyhkhjhhxvhise 1jtdjjjjzjjjjjjjjzhgpjhkhhjhjmhj",
"hjyhjhhjhvMhsieOtjtfjgwrrwwwryrdsssgjhkhjhhhjnhh",
"jjphhkjjhcnhiieo0jeghwghhhhhhhhjhhhjhhhjhjjjzMhj",
"jjshhjjhhcmfiueO0jtdjejjjjjjjhjjhjhjjhjhjhjhkBhk",
"jjrhjhjjhzvhis5$1dtshrjhhhjhhjhhjhjhhjhjhjhhkBhj",
"hjshjhhjhcmhsaq*2dtdhujjjhjjjhjjhjjjjhjhjhjhkBhj",
"jjshjjjhhcMfia<O1stdhdjhhjhhhhhjhhhhhhjjhhhhjNhh",
"hjhhjljzjMnhia4$1stdjhjzjjjkkzkkkzzzzzzzzkzjnBhj",
"hhhjbcnBBMhhia<O1stdjhzvvvvBBBMmnNBNVNNNBBBBBjhj",
"jzjkzjjhhhzjaa2-2dadzkzhjjjjhhjjjhjjjjhhjjjjjjjj",
"w4444666wrww33*$--==,55rwrwwww666w66644646666rww"
};
