/* XPM */
static char *door__0041666871906[] = {
/* columns rows colors chars-per-pixel */
"48 48 146 2 ",
"   c #3E4547",
".  c #41484A",
"X  c #3B4243",
"o  c #363C3D",
"O  c #2F3233",
"+  c #1D1E1E",
"@  c #251B13",
"#  c #705238",
"$  c #5D4C3B",
"%  c #353B3C",
"&  c #393F40",
"*  c #383F40",
"=  c #323637",
"-  c #2C2B2A",
";  c #1B1A19",
":  c #383235",
">  c #383B3C",
",  c #2D2E2F",
"<  c #1C1C1B",
"1  c #322825",
"2  c #2A2726",
"3  c #1B1917",
"4  c #383638",
"5  c #4A5557",
"6  c #2F3131",
"7  c #252221",
"8  c #2E241B",
"9  c #635343",
"0  c #3C4445",
"q  c #393133",
"w  c #3D4445",
"e  c #464F51",
"r  c #363B3C",
"t  c #2D2C2C",
"y  c #201E1C",
"u  c #2A2017",
"i  c #60503F",
"p  c #373D3E",
"a  c #36312F",
"s  c #464D4F",
"d  c #556569",
"f  c #212120",
"g  c #665747",
"h  c #414B4C",
"j  c #526063",
"k  c #434A4C",
"l  c #596A6E",
"z  c #33291F",
"x  c #495254",
"c  c #4F5B5E",
"v  c #4C5659",
"b  c #635342",
"n  c #3E4647",
"m  c #3A4142",
"M  c #444C4D",
"N  c #34393A",
"B  c #272624",
"V  c #655545",
"C  c #40484A",
"Z  c #404748",
"A  c #5C6F73",
"S  c #4C5759",
"D  c #625040",
"F  c #4F5C5F",
"G  c #2C2A29",
"H  c #2B251F",
"J  c #403227",
"K  c #3B2F25",
"L  c #372C22",
"P  c #3A3129",
"I  c #6B513B",
"U  c #604F3E",
"Y  c #5F4D3C",
"T  c #444B4D",
"R  c #2D2C2A",
"E  c #242525",
"W  c #292927",
"Q  c #1E1F1E",
"!  c #161614",
"~  c #070706",
"^  c #404749",
"/  c #363C3C",
"(  c #475254",
")  c #1E1F1F",
"_  c #4A5659",
"`  c #474F51",
"'  c #373E3F",
"]  c #1F2121",
"[  c #4D595B",
"{  c #3D3F41",
"}  c #3D363A",
"|  c #10100F",
" . c #1D1A18",
".. c #444D4F",
"X. c #262423",
"o. c #1F1C1A",
"O. c #526164",
"+. c #282726",
"@. c #26201E",
"#. c #222322",
"$. c #241F1C",
"%. c #343939",
"&. c #252220",
"*. c #2C3030",
"=. c #202222",
"-. c #2C2C2B",
";. c #32302F",
":. c #2E2D2C",
">. c #292A2A",
",. c #262726",
"<. c #2C2826",
"1. c #28221F",
"2. c gray5",
"3. c #221B15",
"4. c #433930",
"5. c #634E3A",
"6. c #4B3725",
"7. c #4B453D",
"8. c #3B4344",
"9. c #514B44",
"0. c #4E4941",
"q. c #5A5851",
"w. c #1B1816",
"e. c #4F3B2A",
"r. c #5D5D56",
"t. c #434548",
"y. c #3D3B3D",
"u. c #141311",
"i. c #4D3927",
"p. c #3A3336",
"a. c #2F2F2E",
"s. c #514D45",
"d. c #303333",
"f. c #211D1B",
"g. c #513D2C",
"h. c #181716",
"j. c #56402E",
"k. c #221E1C",
"l. c #543F2D",
"z. c #3B3229",
"x. c #2C2624",
"c. c #232525",
"v. c #252727",
"b. c #353133",
"n. c #39302F",
"m. c #3B3334",
/* pixels */
"    . . X o O O + @ # # # # # # # # # # # # # # # # # # # # # # # $ o % & . . . . . . . . . . . ",
"* * * * * = O - ; @ # # # # # # # # # # # # # # # # # # # # # # # $ = O = * * * * * * * * * * * ",
": : > * * = O , < @ # # # # # # # # # # # # # # # # # # # # # # # $ = O = * * 1 1 1 1 1 1 1 1 1 ",
"* * * X * = O 2 3 @ # # # # # # # # # # # # # # # # # # # # # # # $ = O = * 1 4 * * * * * * * * ",
"* * * . * = O 2 3 @ # # # # # # # # # # # # # # # # # # # # # # # $ = O = * 1 * * * * * * * * * ",
". . . 5 . & % 6 7 8 # # # # # # # # # # # # # # # # # # # # # # # 9 0 % & . q . . . . . . . . . ",
"w w w e w r = t y u # # # # # # # # # # # # # # # # # # # # # # # i p = r w a w w w w w w w w w ",
"s s s d s w * = f u # # # # # # # # # # # # # # # # # # # # # # # g h * w s w s s s s s s s s s ",
"s s s j s w * = + @ # # # # # # # # # # # # # # # # # # # # # # # g h * w s k s s s s s s s s s ",
"s s s l s w * = 2 z # # # # # # # # # # # # # # # # # # # # # # # g h * w s s x c c d d l l j v ",
"s s s l s w * = 2 z # # # # # # # # # # # # # # # # # # # # # # # g h * w s s s s s s s s s s x ",
"s s s l s w * = f z # # # # # # # # # # # # # # # # # # # # # # # b n * m w w w w w w w w   M s ",
"s s x l s w * N B z # # # # # # # # # # # # # # # # # # # # # # # V C * * * * * * * * * * * * Z ",
"l l A S s w * N B z # # # # # # # # # # # # # # # # # # # # # # # D k . . . .     X   * * * * m ",
"F F F s s w * o G H J J J J J K K L z u P # # # # # # # # # # # # I D D D D D U U Y U $ $ * * * ",
". . T s s w * * N R R R R R R E E W Q ! ~ # # # # # # # # # # # # # # # # # # # # # # # # X * * ",
". . T s s ^ * * * * * * * * * * * * / Q ~ # # # # # # # # # # # # # # # # # # # # # # # # ( * * ",
"s s s v s M * * * * * * * * * * * * o ) ~ # # # # # # # # # # # # # # # # # # # # # # # # _ * * ",
"s s s S c ` M   w w w w w w w w m * ' ] ~ # # # # # # # # # # # # # # # # # # # # # # # # _ * * ",
"s s s s x [ s s s s s s s s s s w * % + ~ # # # # # # # # # # # # # # # # # # # # # # # # _ * * ",
"s s s s s x { } } } } { w k s s w * % + ~ # # # # # # # # # # # # # # # # # # # # # # # # _ * * ",
"s s s s s s s s s s s s s s x s w * % + ~ # # # # # # # # # # # # # # # # # # # # # # # # ( * * ",
"s s s s s s s s s s s s s s c s w * % + | # # # # # # # # # # # # # # # # # # # # # # # # ( * * ",
"s s s s s s s s s s s s s s c s w * % +  .# # # # # # # # # # # # # # # # # # # # # # # # ..* * ",
"s s s s s s s s s s s s s s j s w * % X. .# # # # # # # # # # # # # # # # # # # # # # # # . * * ",
"s s s s s s s s s s s s s s l s w * % X. .# # # # # # # # # # # # # # # # # # # # # # # # . * * ",
"s s s s s s s s s s s s s v A s w * % f o.# # # # # # # # # # # # # # # # # # # # # # # # . * * ",
"O.l l l l l l l l l l l l l S s w * ' +.@.# # # # # # # # # # # # # # # # # # # # # # # # . * * ",
"S s s s s s s s s s s s s s s s w * ' +.@.# # # # # # # # # # # # # # # # # # # # # # # # . * * ",
"s k   w w w w w w w w w w w w w m * o #.$.# # # # # # # # # # # # # # # # # # # # # # # # X * * ",
"Z * * * * * * * * * * * * * * * * * * W @.# # # # # # # # # # # # # # # # # # # # # # # #   * * ",
"m * * * *   . . . . . . . . X     X %.&.@.# # # # # # # # # # # # # # # # # # # # # # # #   * * ",
"* * * *.=.-.;.;.;.:.:.>.:.:.,.-.-.,.<.1.1.# # # # # # # # # # # # # # # # # # # # # # # # X * * ",
"* * * 2.3.K J J J L L K L L K L L K J J 4.# # # # # # # 5.$ $ $ $ $ $ $ $ $ $ $ $ $ $ $ $ * * * ",
"* * N 2.6.# # # # # # # # # # # # # # # # # # # # # # # 7.* * * * * * * * * * * * * * * * * * 8.",
"* * o 2.6.# # # # # # # # # # # # # # # # # # # # # # # 9.X * * * * * * * * * * * * * * * * * Z ",
"* * = 2.6.# # # # # # # # # # # # # # # # # # # # # # # 0.m * X w w w w w w w w w w w w w   M s ",
"* * = 2.6.# # # # # # # # # # # # # # # # # # # # # # # q.C * . s s s s s s s s s s s s s s s Z ",
"* * = w.e.# # # # # # # # # # # # # # # # # # # # # # # r.h * . s t.} } } } } } } { y.w w w w Z ",
"* * = u.i.# # # # # # # # # # # # # # # # # # # # # # # q.C * . s p.k s s s s s s s s s s s s s ",
"* * = u.i.# # # # # # # # # # # # # # # # # # # # # # # q.C * . s } s s s s s s s s s s s s s s ",
"* * a.w.e.# # # # # # # # # # # # # # # # # # # # # # # s.8.* . s } s s s s s s s s s s s s s s ",
"* * d.f.g.# # # # # # # # # # # # # # # # # # # # # # # 9.X * . s w s s s s s s s s s s s s s s ",
"* * R h.g.# # # # # # # # # # # # # # # # # # # # # # # 7.* * . s w s s s s s s s s s s s s s s ",
"* * R  .g.# # # # # # # # # # # # # # # # # # # # # # # 7.* * . s k s s s s s s s s s s s s s s ",
"* * R h.g.# # # # # # # # # # # # # # # # # # # # # # # 7.* * . s s v c c c c l l l d d j l l l ",
"* * R @.j.# # # # # # # # # # # # # # # # # # # # # # # 7.* * . s s s s s s s s s s s s s s s s ",
"1 1 k.3 l.# # # # # # # # # # # # # # # # # # # # # # # z.x.=.c.v.b.b.} } } } } } } n.n.m.m.m.n."
};
