/* XPM */
static char *door__0061666871907[] = {
/* columns rows colors chars-per-pixel */
"48 48 112 2 ",
"   c #2F3233",
".  c #1D1E1E",
"X  c #251B13",
"o  c #705238",
"O  c #5D4C3B",
"+  c #363C3D",
"@  c #353B3C",
"#  c #393F40",
"$  c #41484A",
"%  c #2C2B2A",
"&  c #1B1A19",
"*  c #323637",
"=  c #383F40",
"-  c #2D2E2F",
";  c #1C1C1B",
":  c #322825",
">  c #2A2726",
",  c #1B1917",
"<  c #383638",
"1  c #2F3131",
"2  c #252221",
"3  c #2E241B",
"4  c #635343",
"5  c #3C4445",
"6  c #393133",
"7  c #2D2C2C",
"8  c #201E1C",
"9  c #2A2017",
"0  c #60503F",
"q  c #373D3E",
"w  c #363B3C",
"e  c #3D4445",
"r  c #36312F",
"t  c #212120",
"y  c #665747",
"u  c #414B4C",
"i  c #464D4F",
"p  c #434A4C",
"a  c #33291F",
"s  c #495254",
"d  c #4F5B5E",
"f  c #635342",
"g  c #3E4647",
"h  c #3A4142",
"j  c #34393A",
"k  c #272624",
"l  c #655545",
"z  c #40484A",
"x  c #625040",
"c  c #3E4547",
"v  c #3B4243",
"b  c #2C2A29",
"n  c #2B251F",
"m  c #403227",
"M  c #3B2F25",
"N  c #372C22",
"B  c #3A3129",
"V  c #6B513B",
"C  c #604F3E",
"Z  c #5F4D3C",
"A  c #2D2C2A",
"S  c #242525",
"D  c #292927",
"F  c #1E1F1E",
"G  c #161614",
"H  c #070706",
"J  c #363C3C",
"K  c #1E1F1F",
"L  c #444C4D",
"P  c #373E3F",
"I  c #1F2121",
"U  c #3D3F41",
"Y  c #3D363A",
"T  c #10100F",
"R  c #1D1A18",
"E  c #526063",
"W  c #262423",
"Q  c #596A6E",
"!  c #4C5659",
"~  c #5C6F73",
"^  c #1F1C1A",
"/  c #4C5759",
"(  c #282726",
")  c #26201E",
"_  c #222322",
"`  c #241F1C",
"'  c #343939",
"]  c #252220",
"[  c #32302F",
"{  c #2E2D2C",
"}  c #292A2A",
"|  c #262726",
" . c #2C2C2B",
".. c #2C2826",
"X. c #28221F",
"o. c #433930",
"O. c #634E3A",
"+. c #4B453D",
"@. c #514B44",
"#. c #4E4941",
"$. c #5A5851",
"%. c #5D5D56",
"&. c #434548",
"*. c #3A3336",
"=. c #514D45",
"-. c #3B4344",
";. c #3B3229",
":. c #2C2624",
">. c #202222",
",. c #232525",
"<. c #252727",
"1. c #353133",
/* pixels */
"    . X o o o o o o o o o o o o o o o o o o o o o o o o o o o o o o o o o o o O + @ # $ $ $ $ $ ",
"  % & X o o o o o o o o o o o o o o o o o o o o o o o o o o o o o o o o o o o O *   * = = = = = ",
"  - ; X o o o o o o o o o o o o o o o o o o o o o o o o o o o o o o o o o o o O *   * = = : : : ",
"  > , X o o o o o o o o o o o o o o o o o o o o o o o o o o o o o o o o o o o O *   * = : < = = ",
"  > , X o o o o o o o o o o o o o o o o o o o o o o o o o o o o o o o o o o o O *   * = : = = = ",
"@ 1 2 3 o o o o o o o o o o o o o o o o o o o o o o o o o o o o o o o o o o o 4 5 @ # $ 6 $ $ $ ",
"* 7 8 9 o o o o o o o o o o o o o o o o o o o o o o o o o o o o o o o o o o o 0 q * w e r e e e ",
"= * t 9 o o o o o o o o o o o o o o o o o o o o o o o o o o o o o o o o o o o y u = e i e i i i ",
"= * . X o o o o o o o o o o o o o o o o o o o o o o o o o o o o o o o o o o o y u = e i p i i i ",
"= * > a o o o o o o o o o o o o o o o o o o o o o o o o o o o o o o o o o o o y u = e i i s d d ",
"= * > a o o o o o o o o o o o o o o o o o o o o o o o o o o o o o o o o o o o y u = e i i i i i ",
"= * t a o o o o o o o o o o o o o o o o o o o o o o o o o o o o o o o o o o o f g = h e e e e e ",
"= j k a o o o o o o o o o o o o o o o o o o o o o o o o o o o o o o o o o o o l z = = = = = = = ",
"= j k a o o o o o o o o o o o o o o o o o o o o o o o o o o o o o o o o o o o x p $ $ $ $ c c v ",
"= + b n m m m m m M M N a 9 B o o o o o o o o o o o o o o o o o o o o o o o o V x x x x x C C Z ",
"= = j A A A A A A S S D F G H o o o o o o o o o o o o o o o o o o o o o o o o o o o o o o o o o ",
"= = = = = = = = = = = = J F H o o o o o o o o o o o o o o o o o o o o o o o o o o o o o o o o o ",
"= = = = = = = = = = = = + K H o o o o o o o o o o o o o o o o o o o o o o o o o o o o o o o o o ",
"L c e e e e e e e e h = P I H o o o o o o o o o o o o o o o o o o o o o o o o o o o o o o o o o ",
"i i i i i i i i i i e = @ . H o o o o o o o o o o o o o o o o o o o o o o o o o o o o o o o o o ",
"U Y Y Y Y U e p i i e = @ . H o o o o o o o o o o o o o o o o o o o o o o o o o o o o o o o o o ",
"i i i i i i i i s i e = @ . H o o o o o o o o o o o o o o o o o o o o o o o o o o o o o o o o o ",
"i i i i i i i i d i e = @ . T o o o o o o o o o o o o o o o o o o o o o o o o o o o o o o o o o ",
"i i i i i i i i d i e = @ . R o o o o o o o o o o o o o o o o o o o o o o o o o o o o o o o o o ",
"i i i i i i i i E i e = @ W R o o o o o o o o o o o o o o o o o o o o o o o o o o o o o o o o o ",
"i i i i i i i i Q i e = @ W R o o o o o o o o o o o o o o o o o o o o o o o o o o o o o o o o o ",
"i i i i i i i ! ~ i e = @ t ^ o o o o o o o o o o o o o o o o o o o o o o o o o o o o o o o o o ",
"Q Q Q Q Q Q Q Q / i e = P ( ) o o o o o o o o o o o o o o o o o o o o o o o o o o o o o o o o o ",
"i i i i i i i i i i e = P ( ) o o o o o o o o o o o o o o o o o o o o o o o o o o o o o o o o o ",
"e e e e e e e e e e h = + _ ` o o o o o o o o o o o o o o o o o o o o o o o o o o o o o o o o o ",
"= = = = = = = = = = = = = D ) o o o o o o o o o o o o o o o o o o o o o o o o o o o o o o o o o ",
"$ $ $ $ $ $ $ $ v c c v ' ] ) o o o o o o o o o o o o o o o o o o o o o o o o o o o o o o o o o ",
"[ [ [ { { } { { |  . .| ..X.X.o o o o o o o o o o o o o o o o o o o o o o o o o o o o o o o o o ",
"m m m N N M N N M N N M m m o.o o o o o o o o o o o o o o o o o o o O.O O O O O O O O O O O O O ",
"o o o o o o o o o o o o o o o o o o o o o o o o o o o o o o o o o o +.= = = = = = = = = = = = = ",
"o o o o o o o o o o o o o o o o o o o o o o o o o o o o o o o o o o @.v = = = = = = = = = = = = ",
"o o o o o o o o o o o o o o o o o o o o o o o o o o o o o o o o o o #.h = v e e e e e e e e e e ",
"o o o o o o o o o o o o o o o o o o o o o o o o o o o o o o o o o o $.z = $ i i i i i i i i i i ",
"o o o o o o o o o o o o o o o o o o o o o o o o o o o o o o o o o o %.u = $ i &.Y Y Y Y Y Y Y U ",
"o o o o o o o o o o o o o o o o o o o o o o o o o o o o o o o o o o $.z = $ i *.p i i i i i i i ",
"o o o o o o o o o o o o o o o o o o o o o o o o o o o o o o o o o o $.z = $ i Y i i i i i i i i ",
"o o o o o o o o o o o o o o o o o o o o o o o o o o o o o o o o o o =.-.= $ i Y i i i i i i i i ",
"o o o o o o o o o o o o o o o o o o o o o o o o o o o o o o o o o o @.v = $ i e i i i i i i i i ",
"o o o o o o o o o o o o o o o o o o o o o o o o o o o o o o o o o o +.= = $ i e i i i i i i i i ",
"o o o o o o o o o o o o o o o o o o o o o o o o o o o o o o o o o o +.= = $ i p i i i i i i i i ",
"o o o o o o o o o o o o o o o o o o o o o o o o o o o o o o o o o o +.= = $ i i ! d d d d Q Q Q ",
"o o o o o o o o o o o o o o o o o o o o o o o o o o o o o o o o o o +.= = $ i i i i i i i i i i ",
"o o o o o o o o o o o o o o o o o o o o o o o o o o o o o o o o o o ;.:.>.,.<.1.1.Y Y Y Y Y Y Y "
};
