/* XPM */
static char *door__0011666871906[] = {
/* columns rows colors chars-per-pixel */
"48 48 157 2 ",
"   c #41484A",
".  c #3E4547",
"X  c #3B4243",
"o  c #363C3D",
"O  c #2F3233",
"+  c #1D1E1E",
"@  c #251B13",
"#  c #705238",
"$  c #5D4C3B",
"%  c #353B3C",
"&  c #393F40",
"*  c #383F40",
"=  c #323637",
"-  c #2C2B2A",
";  c #1B1A19",
":  c #322825",
">  c #362E2F",
",  c #342B2A",
"<  c #383235",
"1  c #383B3C",
"2  c #2D2E2F",
"3  c #1C1C1B",
"4  c #383638",
"5  c #2A2726",
"6  c #1B1917",
"7  c #4A5557",
"8  c #2F3131",
"9  c #252221",
"0  c #2E241B",
"q  c #635343",
"w  c #3C4445",
"e  c #393133",
"r  c #3D4445",
"t  c #464F51",
"y  c #363B3C",
"u  c #2D2C2C",
"i  c #201E1C",
"p  c #2A2017",
"a  c #60503F",
"s  c #373D3E",
"d  c #36312F",
"f  c #464D4F",
"g  c #556569",
"h  c #212120",
"j  c #665747",
"k  c #414B4C",
"l  c #526063",
"z  c #434A4C",
"x  c #596A6E",
"c  c #33291F",
"v  c #495254",
"b  c #4F5B5E",
"n  c #4C5659",
"m  c #635342",
"M  c #3E4647",
"N  c #3A4142",
"B  c #444C4D",
"V  c #34393A",
"C  c #272624",
"Z  c #655545",
"A  c #40484A",
"S  c #404748",
"D  c #5C6F73",
"F  c #4C5759",
"G  c #625040",
"H  c #474F51",
"J  c #4A5456",
"K  c #4E595C",
"L  c #4F5C5F",
"P  c #2C2A29",
"I  c #2B251F",
"U  c #403227",
"Y  c #372E27",
"T  c #2E2D2C",
"R  c #292A2A",
"E  c #252727",
"W  c #1C1E1F",
"Q  c #2C3031",
"!  c #604F3E",
"~  c #5F4D3C",
"^  c #414244",
"/  c #414648",
"(  c #414446",
")  c #444B4D",
"_  c #2D2C2A",
"`  c #242525",
"'  c #292927",
"]  c #1E1F1E",
"[  c #161614",
"{  c #070706",
"}  c #434548",
"|  c #3B3B3E",
" . c #404749",
".. c #363C3C",
"X. c #475254",
"o. c #403E41",
"O. c #1E1F1F",
"+. c #4A5659",
"@. c #3D363A",
"#. c #373E3F",
"$. c #1F2121",
"%. c #4D595B",
"&. c #3D3F41",
"*. c #10100F",
"=. c #1D1A18",
"-. c #444D4F",
";. c #3D3B3D",
":. c #262423",
">. c #1F1C1A",
",. c #526164",
"<. c #282726",
"1. c #26201E",
"2. c #222322",
"3. c #241F1C",
"4. c #343939",
"5. c #252220",
"6. c #2C3030",
"7. c #202222",
"8. c #2C2C2B",
"9. c #32302F",
"0. c #262726",
"q. c #2C2826",
"w. c #28221F",
"e. c gray5",
"r. c #221B15",
"t. c #3B2F25",
"y. c #372C22",
"u. c #2B2724",
"i. c #303333",
"p. c #4B3725",
"a. c #4B453D",
"s. c #3B4344",
"d. c #514B44",
"f. c #4E4941",
"g. c #5A5851",
"h. c #1B1816",
"j. c #4F3B2A",
"k. c #5D5D56",
"l. c #141311",
"z. c #4D3927",
"x. c #3A3336",
"c. c #2F2F2E",
"v. c #514D45",
"b. c #211D1B",
"n. c #513D2C",
"m. c #181716",
"M. c #556568",
"N. c #56402E",
"B. c #372C2A",
"V. c #3B3334",
"C. c #39302F",
"Z. c #221E1C",
"A. c #543F2D",
"S. c #3B3229",
"D. c #2C2624",
"F. c #232525",
"G. c #353133",
/* pixels */
"                  . .     X o O O + @ # # # # # $ o % &                                       X ",
"* * * * * * * * * * * * * * = O - ; @ # # # # # $ = O = * * * * * * * * * * * * * * * * * * * * ",
": : : : > , < < < < < 1 * * = O 2 3 @ # # # # # $ = O = * * : : : : : : : : : > > < < , : , < 1 ",
"4 * * * * * * * * * * * X * = O 5 6 @ # # # # # $ = O = * : 4 * * * * * * * * * * * * * * * * * ",
"* * * * * * * * * * * *   * = O 5 6 @ # # # # # $ = O = * : * * * * * * * * * * * * * * * * * * ",
"                        7   & % 8 9 0 # # # # # q w % &   e                                     ",
"r r r r r r r r r r r r t r y = u i p # # # # # a s = y r d r r r r r r r r r r r r r r r r r r ",
"f f f f f f f f f f f f g f r * = h p # # # # # j k * r f r f f f f f f f f f f f f f f f f f f ",
"f f f f f f f f f f f f l f r * = + @ # # # # # j k * r f z f f f f f f f f f f f f f f f f f f ",
"f f f f f f f f f f f f x f r * = 5 c # # # # # j k * r f f v b b g g x x l n f f f f f f f f f ",
"f f f f f f f f f f f f x f r * = 5 c # # # # # j k * r f f f f f f f f f f v n f f f f f f f f ",
"f f f f f f f f f f f f x f r * = h c # # # # # m M * N r r r r r r r r . B f n v f f f f f f f ",
"f f f f f f f f f f f v x f r * V C c # # # # # Z A * * * * * * * * * * * * S f n n f f f f f v ",
"v b b b g l g g x x x D F f r * V C c # # # # # G z         . . X . * * * * N f f v l x x x x D ",
"H J J J K F K K L L L L f f r * o P I U U U U U Y T R E W Q ! ! ~ ! $ $ * * * f f f F L L L L L ",
"^ ^ ^ ^ / (           ) f f r * * V _ _ _ _ _ _ ` ` ' ] [ { # # # # # # X * * f f } ^ ^ /     ) ",
"| ^ ^ ^ / (           ) f f  .* * * * * * * * * * * * ..] { # # # # # # X.* * f o.o.^ ^ /     ) ",
"z f f f f f f f f f f f n f B * * * * * * * * * * * * o O.{ # # # # # # +.* * f @.^ f f f f f f ",
"f f f f f f f f f f f f F b H B . r r r r r r r r N * #.$.{ # # # # # # +.* * f @.^ f f f f f f ",
"f f f f f f f f f f f f f v %.f f f f f f f f f f r * % + { # # # # # # +.* * f @.^ f f f f f f ",
"f f f f f f f f f f f f f f v &.@.@.@.@.&.r z f f r * % + { # # # # # # +.* * f @.^ f f f f f f ",
"f f f f f f f f f f f f f f f f f f f f f f f v f r * % + { # # # # # # X.* * f @.^ f f f f f f ",
"f f f f f f f f f f f f f f f f f f f f f f f b f r * % + *.# # # # # # X.* * f &./ f f f f f f ",
"f f f f f f f f f f f f f f f f f f f f f f f b f r * % + =.# # # # # # -.* * f ;.( f f f f f f ",
"f f f f f f f f f f f f f f f f f f f f f f f l f r * % :.=.# # # # # #   * * f &./ f f f f f f ",
"f f f f f f f f f f f f f f f f f f f f f f f x f r * % :.=.# # # # # #   * * f &./ f f f f f f ",
"f f f f f f f f f f f f f f f f f f f f f f n D f r * % h >.# # # # # #   * * f r   f f f f f f ",
"f f f f f f f f f ,.x x x x x x x x x x x x x F f r * #.<.1.# # # # # #   * * f r   f f f f f f ",
"f f f f f f f f ,.F f f f f f f f f f f f f f f f r * #.<.1.# # # # # #   * * f r   f f f f f f ",
"f f f f f f f ,.,.f z . r r r r r r r r r r r r r N * o 2.3.# # # # # # X * * f r   f f f f f f ",
"f f f f f f ,.F f S * * * * * * * * * * * * * * * * * * ' 1.# # # # # # . * * f S z f f f f f v ",
"v b g x x x F f f N * * * * .                 X . . X 4.5.1.# # # # # # . * * f f f b b g x x D ",
"H J K L L L f f f * * * 6.7.8.9.9.9.T T R T T 0.8.8.0.q.w.w.# # # # # # X * * f f f J J K L L L ",
"^ ^ ^       f f f * * * e.r.t.U U U y.u.' ` ` ' ` ` ' _ _ i.$ $ $ $ $ $ * * * f f f ^ ^ /     ) ",
"| ^ ^       f f f * * V e.p.# # # # # a.* * * * * * * * * * * * * * * * * * s.f f o.^ ^ /     ) ",
"z f f f f f v v f * * o e.p.# # # # # d.X * * * * * * * * * * * * * * * * * S f o.o.f f f f f f ",
"f f f f f f J J f * * = e.p.# # # # # f.N * X r r r r r r r r r r r r r . B f o.} f f f f f f f ",
"f f f f f f K K f * * = e.p.# # # # # g.A *   f f f f f f f f f f f f f f f S } f f f f f f f f ",
"f f f f f f L L f * * = h.j.# # # # # k.k *   f } @.@.@.@.@.@.@.&.;.r r r r S f f f f f f f f f ",
"f f f f f f L L f * * = l.z.# # # # # g.A *   f x.z f f f f f f f f f f f f f f f f f f f f f f ",
"f f f f f f L L f * * = l.z.# # # # # g.A *   f @.f f f f f f f f f f f f f f f f f f f f f f f ",
"f f f f f f F F f * * c.h.j.# # # # # v.s.*   f @.f f f f f f f f f f f f f f f f f f f f f f f ",
"f f f f f f L L f * * i.b.n.# # # # # d.X *   f r f f f f f f f f f f f f f f f f f f f f f f f ",
"f f f f f f L L f * * _ m.n.# # # # # a.* *   f r f f f f f f f f f f f f f f f f f f f f f f f ",
"f f f f f f M.L f * * _ =.n.# # # # # a.* *   f z f f f f f f f f f f f f f f f f f f f f f f n ",
"v b b l x x ,.f f * * _ m.n.# # # # # a.* *   f f n b b b b x x x g g l x x x x x x x x x x x x ",
"f f f f f f f f f * * _ 1.N.# # # # # a.* *   f f f f f f f f f f f f f f f f f f f f f f f f f ",
"B.B.V.C.C.V.@.@.@.: : Z.6 A.# # # # # S.D.7.F.E G.G.@.@.@.@.@.@.@.C.C.V.V.V.C.V.B.B.B.B.V.C.C.V."
};
