/* XPM */
static char *door__0071666871907[] = {
/* columns rows colors chars-per-pixel */
"48 48 94 2 ",
"   c #251B13",
".  c #705238",
"X  c #5D4C3B",
"o  c #363C3D",
"O  c #353B3C",
"+  c #393F40",
"@  c #41484A",
"#  c #323637",
"$  c #2F3233",
"%  c #383F40",
"&  c #322825",
"*  c #2E241B",
"=  c #635343",
"-  c #3C4445",
";  c #393133",
":  c #2A2017",
">  c #60503F",
",  c #373D3E",
"<  c #363B3C",
"1  c #3D4445",
"2  c #36312F",
"3  c #665747",
"4  c #414B4C",
"5  c #464D4F",
"6  c #434A4C",
"7  c #33291F",
"8  c #635342",
"9  c #3E4647",
"0  c #3A4142",
"q  c #655545",
"w  c #40484A",
"e  c #625040",
"r  c #2B251F",
"t  c #403227",
"y  c #3B2F25",
"u  c #372C22",
"i  c #3A3129",
"p  c #6B513B",
"a  c #2D2C2A",
"s  c #242525",
"d  c #292927",
"f  c #1E1F1E",
"g  c #161614",
"h  c #070706",
"j  c #363C3C",
"k  c #1E1F1F",
"l  c #373E3F",
"z  c #1F2121",
"x  c #1D1E1E",
"c  c #3D363A",
"v  c #3D3F41",
"b  c #495254",
"n  c #4F5B5E",
"m  c #10100F",
"M  c #1D1A18",
"N  c #526063",
"B  c #262423",
"V  c #596A6E",
"C  c #4C5659",
"Z  c #5C6F73",
"A  c #212120",
"S  c #1F1C1A",
"D  c #4C5759",
"F  c #282726",
"G  c #26201E",
"H  c #222322",
"J  c #241F1C",
"K  c #3B4243",
"L  c #3E4547",
"P  c #343939",
"I  c #252220",
"U  c #2E2D2C",
"Y  c #292A2A",
"T  c #262726",
"R  c #2C2C2B",
"E  c #2C2826",
"W  c #28221F",
"Q  c #433930",
"!  c #634E3A",
"~  c #4B453D",
"^  c #514B44",
"/  c #4E4941",
"(  c #5A5851",
")  c #5D5D56",
"_  c #434548",
"`  c #3A3336",
"'  c #514D45",
"]  c #3B4344",
"[  c #3B3229",
"{  c #2C2624",
"}  c #202222",
"|  c #232525",
" . c #252727",
".. c #353133",
/* pixels */
"  . . . . . . . . . . . . . . . . . . . . . . . . . . . . . . . . . . . . . . . . . X o O + @ @ ",
"  . . . . . . . . . . . . . . . . . . . . . . . . . . . . . . . . . . . . . . . . . X # $ # % % ",
"  . . . . . . . . . . . . . . . . . . . . . . . . . . . . . . . . . . . . . . . . . X # $ # % % ",
"  . . . . . . . . . . . . . . . . . . . . . . . . . . . . . . . . . . . . . . . . . X # $ # % & ",
"  . . . . . . . . . . . . . . . . . . . . . . . . . . . . . . . . . . . . . . . . . X # $ # % & ",
"* . . . . . . . . . . . . . . . . . . . . . . . . . . . . . . . . . . . . . . . . . = - O + @ ; ",
": . . . . . . . . . . . . . . . . . . . . . . . . . . . . . . . . . . . . . . . . . > , # < 1 2 ",
": . . . . . . . . . . . . . . . . . . . . . . . . . . . . . . . . . . . . . . . . . 3 4 % 1 5 1 ",
"  . . . . . . . . . . . . . . . . . . . . . . . . . . . . . . . . . . . . . . . . . 3 4 % 1 5 6 ",
"7 . . . . . . . . . . . . . . . . . . . . . . . . . . . . . . . . . . . . . . . . . 3 4 % 1 5 5 ",
"7 . . . . . . . . . . . . . . . . . . . . . . . . . . . . . . . . . . . . . . . . . 3 4 % 1 5 5 ",
"7 . . . . . . . . . . . . . . . . . . . . . . . . . . . . . . . . . . . . . . . . . 8 9 % 0 1 1 ",
"7 . . . . . . . . . . . . . . . . . . . . . . . . . . . . . . . . . . . . . . . . . q w % % % % ",
"7 . . . . . . . . . . . . . . . . . . . . . . . . . . . . . . . . . . . . . . . . . e 6 @ @ @ @ ",
"r t t t t t y y u 7 : i . . . . . . . . . . . . . . . . . . . . . . . . . . . . . . p e e e e e ",
"a a a a a a s s d f g h . . . . . . . . . . . . . . . . . . . . . . . . . . . . . . . . . . . . ",
"% % % % % % % % % j f h . . . . . . . . . . . . . . . . . . . . . . . . . . . . . . . . . . . . ",
"% % % % % % % % % o k h . . . . . . . . . . . . . . . . . . . . . . . . . . . . . . . . . . . . ",
"1 1 1 1 1 1 1 0 % l z h . . . . . . . . . . . . . . . . . . . . . . . . . . . . . . . . . . . . ",
"5 5 5 5 5 5 5 1 % O x h . . . . . . . . . . . . . . . . . . . . . . . . . . . . . . . . . . . . ",
"c c v 1 6 5 5 1 % O x h . . . . . . . . . . . . . . . . . . . . . . . . . . . . . . . . . . . . ",
"5 5 5 5 5 b 5 1 % O x h . . . . . . . . . . . . . . . . . . . . . . . . . . . . . . . . . . . . ",
"5 5 5 5 5 n 5 1 % O x m . . . . . . . . . . . . . . . . . . . . . . . . . . . . . . . . . . . . ",
"5 5 5 5 5 n 5 1 % O x M . . . . . . . . . . . . . . . . . . . . . . . . . . . . . . . . . . . . ",
"5 5 5 5 5 N 5 1 % O B M . . . . . . . . . . . . . . . . . . . . . . . . . . . . . . . . . . . . ",
"5 5 5 5 5 V 5 1 % O B M . . . . . . . . . . . . . . . . . . . . . . . . . . . . . . . . . . . . ",
"5 5 5 5 C Z 5 1 % O A S . . . . . . . . . . . . . . . . . . . . . . . . . . . . . . . . . . . . ",
"V V V V V D 5 1 % l F G . . . . . . . . . . . . . . . . . . . . . . . . . . . . . . . . . . . . ",
"5 5 5 5 5 5 5 1 % l F G . . . . . . . . . . . . . . . . . . . . . . . . . . . . . . . . . . . . ",
"1 1 1 1 1 1 1 0 % o H J . . . . . . . . . . . . . . . . . . . . . . . . . . . . . . . . . . . . ",
"% % % % % % % % % % d G . . . . . . . . . . . . . . . . . . . . . . . . . . . . . . . . . . . . ",
"@ @ @ @ @ K L L K P I G . . . . . . . . . . . . . . . . . . . . . . . . . . . . . . . . . . . . ",
"U U Y U U T R R T E W W . . . . . . . . . . . . . . . . . . . . . . . . . . . . . . . . . . . . ",
"u u y u u y u u y t t Q . . . . . . . . . . . . . . . . . . . . . . . . . ! X X X X X X X X X X ",
". . . . . . . . . . . . . . . . . . . . . . . . . . . . . . . . . . . . . ~ % % % % % % % % % % ",
". . . . . . . . . . . . . . . . . . . . . . . . . . . . . . . . . . . . . ^ K % % % % % % % % % ",
". . . . . . . . . . . . . . . . . . . . . . . . . . . . . . . . . . . . . / 0 % K 1 1 1 1 1 1 1 ",
". . . . . . . . . . . . . . . . . . . . . . . . . . . . . . . . . . . . . ( w % @ 5 5 5 5 5 5 5 ",
". . . . . . . . . . . . . . . . . . . . . . . . . . . . . . . . . . . . . ) 4 % @ 5 _ c c c c c ",
". . . . . . . . . . . . . . . . . . . . . . . . . . . . . . . . . . . . . ( w % @ 5 ` 6 5 5 5 5 ",
". . . . . . . . . . . . . . . . . . . . . . . . . . . . . . . . . . . . . ( w % @ 5 c 5 5 5 5 5 ",
". . . . . . . . . . . . . . . . . . . . . . . . . . . . . . . . . . . . . ' ] % @ 5 c 5 5 5 5 5 ",
". . . . . . . . . . . . . . . . . . . . . . . . . . . . . . . . . . . . . ^ K % @ 5 1 5 5 5 5 5 ",
". . . . . . . . . . . . . . . . . . . . . . . . . . . . . . . . . . . . . ~ % % @ 5 1 5 5 5 5 5 ",
". . . . . . . . . . . . . . . . . . . . . . . . . . . . . . . . . . . . . ~ % % @ 5 6 5 5 5 5 5 ",
". . . . . . . . . . . . . . . . . . . . . . . . . . . . . . . . . . . . . ~ % % @ 5 5 C n n n n ",
". . . . . . . . . . . . . . . . . . . . . . . . . . . . . . . . . . . . . ~ % % @ 5 5 5 5 5 5 5 ",
". . . . . . . . . . . . . . . . . . . . . . . . . . . . . . . . . . . . . [ { } |  .....c c c c "
};
