/* XPM */
static char *door__0081666871907[] = {
/* columns rows colors chars-per-pixel */
"48 48 84 1 ",
"  c #705238",
". c #5D4C3B",
"X c #363C3D",
"o c #353B3C",
"O c #323637",
"+ c #2F3233",
"@ c #635343",
"# c #3C4445",
"$ c #60503F",
"% c #373D3E",
"& c #665747",
"* c #414B4C",
"= c #383F40",
"- c #635342",
"; c #3E4647",
": c #655545",
"> c #40484A",
", c #625040",
"< c #434A4C",
"1 c #41484A",
"2 c #403227",
"3 c #3B2F25",
"4 c #372C22",
"5 c #33291F",
"6 c #2A2017",
"7 c #3A3129",
"8 c #6B513B",
"9 c #2D2C2A",
"0 c #242525",
"q c #292927",
"w c #1E1F1E",
"e c #161614",
"r c #070706",
"t c #363C3C",
"y c #1E1F1F",
"u c #3D4445",
"i c #3A4142",
"p c #373E3F",
"a c #1F2121",
"s c #464D4F",
"d c #1D1E1E",
"f c #495254",
"g c #4F5B5E",
"h c #10100F",
"j c #1D1A18",
"k c #526063",
"l c #262423",
"z c #596A6E",
"x c #4C5659",
"c c #5C6F73",
"v c #212120",
"b c #1F1C1A",
"n c #4C5759",
"m c #282726",
"M c #26201E",
"N c #222322",
"B c #241F1C",
"V c #3B4243",
"C c #3E4547",
"Z c #343939",
"A c #252220",
"S c #2E2D2C",
"D c #262726",
"F c #2C2C2B",
"G c #2C2826",
"H c #28221F",
"J c #433930",
"K c #634E3A",
"L c #4B453D",
"P c #514B44",
"I c #4E4941",
"U c #5A5851",
"Y c #5D5D56",
"T c #434548",
"R c #3D363A",
"E c #3A3336",
"W c #514D45",
"Q c #3B4344",
"! c #3B3229",
"~ c #2C2624",
"^ c #202222",
"/ c #232525",
"( c #252727",
") c #353133",
/* pixels */
"                                             .Xo",
"                                             .O+",
"                                             .O+",
"                                             .O+",
"                                             .O+",
"                                             @#o",
"                                             $%O",
"                                             &*=",
"                                             &*=",
"                                             &*=",
"                                             &*=",
"                                             -;=",
"                                             :>=",
"                                             ,<1",
"222334567                                    8,,",
"99900qwer                                       ",
"======twr                                       ",
"======Xyr                                       ",
"uuuui=par                                       ",
"ssssu=odr                                       ",
"u<ssu=odr                                       ",
"ssfsu=odr                                       ",
"ssgsu=odh                                       ",
"ssgsu=odj                                       ",
"ssksu=olj                                       ",
"sszsu=olj                                       ",
"sxcsu=ovb                                       ",
"zznsu=pmM                                       ",
"ssssu=pmM                                       ",
"uuuui=XNB                                       ",
"=======qM                                       ",
"11VCCVZAM                                       ",
"SSDFFDGHH                                       ",
"44344322J                               K.......",
"                                        L=======",
"                                        PV======",
"                                        Ii=Vuuuu",
"                                        U>=1ssss",
"                                        Y*=1sTRR",
"                                        U>=1sE<s",
"                                        U>=1sRss",
"                                        WQ=1sRss",
"                                        PV=1suss",
"                                        L==1suss",
"                                        L==1s<ss",
"                                        L==1ssxg",
"                                        L==1ssss",
"                                        !~^/())R"
};
