/* XPM */
static char *door__0031666871906[] = {
/* columns rows colors chars-per-pixel */
"48 48 155 2 ",
"   c #41484A",
".  c #3E4547",
"X  c #3B4243",
"o  c #363C3D",
"O  c #2F3233",
"+  c #1D1E1E",
"@  c #251B13",
"#  c #705238",
"$  c #5D4C3B",
"%  c #353B3C",
"&  c #393F40",
"*  c #383F40",
"=  c #323637",
"-  c #2C2B2A",
";  c #1B1A19",
":  c #383235",
">  c #383B3C",
",  c #2D2E2F",
"<  c #1C1C1B",
"1  c #322825",
"2  c #362E2F",
"3  c #2A2726",
"4  c #1B1917",
"5  c #383638",
"6  c #4A5557",
"7  c #2F3131",
"8  c #252221",
"9  c #2E241B",
"0  c #635343",
"q  c #3C4445",
"w  c #393133",
"e  c #3D4445",
"r  c #464F51",
"t  c #363B3C",
"y  c #2D2C2C",
"u  c #201E1C",
"i  c #2A2017",
"p  c #60503F",
"a  c #373D3E",
"s  c #36312F",
"d  c #464D4F",
"f  c #556569",
"g  c #212120",
"h  c #665747",
"j  c #414B4C",
"k  c #526063",
"l  c #434A4C",
"z  c #596A6E",
"x  c #33291F",
"c  c #495254",
"v  c #4F5B5E",
"b  c #4C5659",
"n  c #635342",
"m  c #3E4647",
"M  c #3A4142",
"N  c #444C4D",
"B  c #34393A",
"V  c #272624",
"C  c #655545",
"Z  c #40484A",
"A  c #404748",
"S  c #5C6F73",
"D  c #4C5759",
"F  c #625040",
"G  c #4E595C",
"H  c #4F5C5F",
"J  c #2C2A29",
"K  c #2B251F",
"L  c #403227",
"P  c #3B2F25",
"I  c #372C22",
"U  c #3A3129",
"Y  c #6B513B",
"T  c #604F3E",
"R  c #5F4D3C",
"E  c #444B4D",
"W  c #2D2C2A",
"Q  c #242525",
"!  c #292927",
"~  c #1E1F1E",
"^  c #161614",
"/  c #070706",
"(  c #434548",
")  c #404749",
"_  c #363C3C",
"`  c #475254",
"'  c #403E41",
"]  c #1E1F1F",
"[  c #4A5659",
"{  c #3D363A",
"}  c #414244",
"|  c #474F51",
" . c #373E3F",
".. c #1F2121",
"X. c #4D595B",
"o. c #3D3F41",
"O. c #10100F",
"+. c #414648",
"@. c #1D1A18",
"#. c #444D4F",
"$. c #3D3B3D",
"%. c #414446",
"&. c #262423",
"*. c #1F1C1A",
"=. c #526164",
"-. c #282726",
";. c #26201E",
":. c #222322",
">. c #241F1C",
",. c #343939",
"<. c #252220",
"1. c #2C3030",
"2. c #202222",
"3. c #2C2C2B",
"4. c #32302F",
"5. c #2E2D2C",
"6. c #292A2A",
"7. c #262726",
"8. c #2C2826",
"9. c #28221F",
"0. c gray5",
"q. c #221B15",
"w. c #433930",
"e. c #634E3A",
"r. c #4B3725",
"t. c #4B453D",
"y. c #3B4344",
"u. c #514B44",
"i. c #4A5456",
"p. c #4E4941",
"a. c #5A5851",
"s. c #1B1816",
"d. c #4F3B2A",
"f. c #5D5D56",
"g. c #141311",
"h. c #4D3927",
"j. c #3A3336",
"k. c #2F2F2E",
"l. c #514D45",
"z. c #303333",
"x. c #211D1B",
"c. c #513D2C",
"v. c #181716",
"b. c #556568",
"n. c #56402E",
"m. c #221E1C",
"M. c #543F2D",
"N. c #3B3229",
"B. c #2C2624",
"V. c #232525",
"C. c #252727",
"Z. c #353133",
"A. c #39302F",
"S. c #3B3334",
"D. c #372C2A",
/* pixels */
"      . .     X o O O + @ # # # # # # # # # # # # # # # # # $ o % &                             ",
"* * * * * * * * = O - ; @ # # # # # # # # # # # # # # # # # $ = O = * * * * * * * * * * * * * * ",
": : : : : > * * = O , < @ # # # # # # # # # # # # # # # # # $ = O = * * 1 1 1 1 1 1 1 1 1 2 2 : ",
"* * * * * * X * = O 3 4 @ # # # # # # # # # # # # # # # # # $ = O = * 1 5 * * * * * * * * * * * ",
"* * * * * *   * = O 3 4 @ # # # # # # # # # # # # # # # # # $ = O = * 1 * * * * * * * * * * * * ",
"            6   & % 7 8 9 # # # # # # # # # # # # # # # # # 0 q % &   w                         ",
"e e e e e e r e t = y u i # # # # # # # # # # # # # # # # # p a = t e s e e e e e e e e e e e e ",
"d d d d d d f d e * = g i # # # # # # # # # # # # # # # # # h j * e d e d d d d d d d d d d d d ",
"d d d d d d k d e * = + @ # # # # # # # # # # # # # # # # # h j * e d l d d d d d d d d d d d d ",
"d d d d d d z d e * = 3 x # # # # # # # # # # # # # # # # # h j * e d d c v v f f z z k b d d d ",
"d d d d d d z d e * = 3 x # # # # # # # # # # # # # # # # # h j * e d d d d d d d d d d c b d d ",
"d d d d d d z d e * = g x # # # # # # # # # # # # # # # # # n m * M e e e e e e e e . N d b c d ",
"d d d d d c z d e * B V x # # # # # # # # # # # # # # # # # C Z * * * * * * * * * * * * A d b b ",
"f f z z z S D d e * B V x # # # # # # # # # # # # # # # # # F l         . . X . * * * * M d d c ",
"G G H H H H d d e * o J K L L L L L P P I x i U # # # # # # Y F F F F F T T R T $ $ * * * d d d ",
"          E d d e * * B W W W W W W Q Q ! ~ ^ / # # # # # # # # # # # # # # # # # # X * * d d ( ",
"          E d d ) * * * * * * * * * * * * _ ~ / # # # # # # # # # # # # # # # # # # ` * * d ' ' ",
"d d d d d d b d N * * * * * * * * * * * * o ] / # # # # # # # # # # # # # # # # # # [ * * d { } ",
"d d d d d d D v | N . e e e e e e e e M *  .../ # # # # # # # # # # # # # # # # # # [ * * d { } ",
"d d d d d d d c X.d d d d d d d d d d e * % + / # # # # # # # # # # # # # # # # # # [ * * d { } ",
"d d d d d d d d c o.{ { { { o.e l d d e * % + / # # # # # # # # # # # # # # # # # # [ * * d { } ",
"d d d d d d d d d d d d d d d d d c d e * % + / # # # # # # # # # # # # # # # # # # ` * * d { } ",
"d d d d d d d d d d d d d d d d d v d e * % + O.# # # # # # # # # # # # # # # # # # ` * * d o.+.",
"d d d d d d d d d d d d d d d d d v d e * % + @.# # # # # # # # # # # # # # # # # # #.* * d $.%.",
"d d d d d d d d d d d d d d d d d k d e * % &.@.# # # # # # # # # # # # # # # # # #   * * d o.+.",
"d d d d d d d d d d d d d d d d d z d e * % &.@.# # # # # # # # # # # # # # # # # #   * * d o.+.",
"d d d d d d d d d d d d d d d d b S d e * % g *.# # # # # # # # # # # # # # # # # #   * * d e   ",
"d d d =.z z z z z z z z z z z z z D d e *  .-.;.# # # # # # # # # # # # # # # # # #   * * d e   ",
"d d =.D d d d d d d d d d d d d d d d e *  .-.;.# # # # # # # # # # # # # # # # # #   * * d e   ",
"d =.=.d l . e e e e e e e e e e e e e M * o :.>.# # # # # # # # # # # # # # # # # # X * * d e   ",
"=.D d A * * * * * * * * * * * * * * * * * * ! ;.# # # # # # # # # # # # # # # # # # . * * d A l ",
"D d d M * * * * .                 X . . X ,.<.;.# # # # # # # # # # # # # # # # # # . * * d d d ",
"d d d * * * 1.2.3.4.4.4.5.5.6.5.5.7.3.3.7.8.9.9.# # # # # # # # # # # # # # # # # # X * * d d d ",
"d d d * * * 0.q.P L L L I I P I I P I I P L L w.# e.$ $ $ $ $ $ $ $ $ $ $ $ $ $ $ $ * * * d d d ",
"d d d * * B 0.r.# # # # # # # # # # # # # # # # # t.* * * * * * * * * * * * * * * * * * y.d d ' ",
"c c d * * o 0.r.# # # # # # # # # # # # # # # # # u.X * * * * * * * * * * * * * * * * * A d ' ' ",
"i.i.d * * = 0.r.# # # # # # # # # # # # # # # # # p.M * X e e e e e e e e e e e e e . N d ' ( d ",
"G G d * * = 0.r.# # # # # # # # # # # # # # # # # a.Z *   d d d d d d d d d d d d d d d A ( d d ",
"H H d * * = s.d.# # # # # # # # # # # # # # # # # f.j *   d ( { { { { { { { o.$.e e e e A d d d ",
"H H d * * = g.h.# # # # # # # # # # # # # # # # # a.Z *   d j.l d d d d d d d d d d d d d d d d ",
"H H d * * = g.h.# # # # # # # # # # # # # # # # # a.Z *   d { d d d d d d d d d d d d d d d d d ",
"D D d * * k.s.d.# # # # # # # # # # # # # # # # # l.y.*   d { d d d d d d d d d d d d d d d d d ",
"H H d * * z.x.c.# # # # # # # # # # # # # # # # # u.X *   d e d d d d d d d d d d d d d d d d d ",
"H H d * * W v.c.# # # # # # # # # # # # # # # # # t.* *   d e d d d d d d d d d d d d d d d d d ",
"b.H d * * W @.c.# # # # # # # # # # # # # # # # # t.* *   d l d d d d d d d d d d d d d d d d d ",
"=.d d * * W v.c.# # # # # # # # # # # # # # # # # t.* *   d d b v v v v z z z f f k z z z z z z ",
"d d d * * W ;.n.# # # # # # # # # # # # # # # # # t.* *   d d d d d d d d d d d d d d d d d d d ",
"{ { { 1 1 m.4 M.# # # # # # # # # # # # # # # # # N.B.2.V.C.Z.Z.{ { { { { { { A.A.S.S.S.A.S.D.D."
};
