/* XPM */
static char *door__0001666871906[] = {
/* columns rows colors chars-per-pixel */
"48 48 144 2 ",
"   c #41484A",
".  c #3E4547",
"X  c #3B4243",
"o  c #363C3D",
"O  c #2F3233",
"+  c #1D1E1E",
"@  c #131515",
"#  c #353B3C",
"$  c #393F40",
"%  c #383F40",
"&  c #323637",
"*  c #2C2B2A",
"=  c #1B1A19",
"-  c #322825",
";  c #362E2F",
":  c #342B2A",
">  c #383235",
",  c #383B3C",
"<  c #2D2E2F",
"1  c #1C1C1B",
"2  c #383638",
"3  c #2A2726",
"4  c #1B1917",
"5  c #393133",
"6  c #4A5557",
"7  c #2F3131",
"8  c #252221",
"9  c #222626",
"0  c #3C4445",
"q  c #3D4445",
"w  c #362D2C",
"e  c #464F51",
"r  c #363B3C",
"t  c #2D2C2C",
"y  c #201E1C",
"u  c #1A1D1E",
"i  c #373D3E",
"p  c #36312F",
"a  c #464D4F",
"s  c #3D363A",
"d  c #556569",
"f  c #212120",
"g  c #202526",
"h  c #414B4C",
"j  c #526063",
"k  c #1C2122",
"l  c #434A4C",
"z  c #596A6E",
"x  c #292E2E",
"c  c #495254",
"v  c #4F5B5E",
"b  c #4C5659",
"n  c #3D3F41",
"m  c #262929",
"M  c #3E4647",
"N  c #3A4142",
"B  c #444C4D",
"V  c #404748",
"C  c #34393A",
"Z  c #272624",
"A  c #282C2C",
"S  c #40484A",
"D  c #5C6F73",
"F  c #4C5759",
"G  c #252727",
"H  c #474F51",
"J  c #4A5456",
"K  c #4E595C",
"L  c #4F5C5F",
"P  c #2C2A29",
"I  c #272422",
"U  c #32302F",
"Y  c #2C2C2B",
"T  c #262726",
"R  c #232525",
"E  c #17191A",
"W  c #282B2C",
"Q  c #414244",
"!  c #414648",
"~  c #414446",
"^  c #444B4D",
"/  c #2D2C2A",
"(  c #242525",
")  c #292927",
"_  c #1E1F1E",
"`  c #161614",
"'  c #070706",
"]  c #434548",
"[  c #403E41",
"{  c #3B3B3E",
"}  c #404749",
"|  c #363C3C",
" . c #475254",
".. c #1E1F1F",
"X. c #4A5659",
"o. c #373E3F",
"O. c #1F2121",
"+. c #4D595B",
"@. c #3D3B3D",
"#. c #10100F",
"$. c #1D1A18",
"%. c #444D4F",
"&. c #262423",
"*. c #1F1C1A",
"=. c #526164",
"-. c #282726",
";. c #26201E",
":. c #222322",
">. c #241F1C",
",. c #343939",
"<. c #252220",
"1. c #2C3030",
"2. c #202222",
"3. c #2E2D2C",
"4. c #292A2A",
"5. c #2C2826",
"6. c #28221F",
"7. c gray5",
"8. c #151717",
"9. c #303333",
"0. c #252A2B",
"q. c #3B4344",
"w. c #2C3031",
"e. c #282D2E",
"r. c #343D3E",
"t. c #1B1816",
"y. c #3C4648",
"u. c #141311",
"i. c #373F41",
"p. c #3A3336",
"a. c #2F2F2E",
"s. c #303637",
"d. c #211D1B",
"f. c #323738",
"g. c #181716",
"h. c #2C3131",
"j. c #556568",
"k. c #303434",
"l. c #3B3334",
"z. c #372C2A",
"x. c #39302F",
"c. c #221E1C",
"v. c #2C2624",
"b. c #353133",
/* pixels */
"                        . .     X o O O + @ o # $                                       X . .   ",
"% % % % % % % % % % % % % % % % % & O * = @ & O & % % % % % % % % % % % % % % % % % % % % % % % ",
"% % % - - - - ; : > > > > > , % % & O < 1 @ & O & % % - - - - - - - - - ; ; > > : - : > , % % % ",
"% % - 2 % % % % % % % % % % % X % & O 3 4 @ & O & % - 2 % % % % % % % % % % % % % % % % % X % % ",
"% % - % % % % % % % % % % % %   % & O 3 4 @ & O & % - % % % % % % % % % % % % % % % % % %   % % ",
"    5                         6   $ # 7 8 9 0 # $   5                                     6     ",
"q q w q q q q q q q q q q q q e q r & t y u i & r q p q q q q q q q q q q q q q q q q q q e q q ",
"a a s a a a a a a a a a a a a d a q % & f g h % q a q a a a a a a a a a a a a a a a a a a d a a ",
"a a s a a a a a a a a a a a a j a q % & + k h % q a l a a a a a a a a a a a a a a a a a a j a a ",
"a a s a a a a a a a a a a a a z a q % & 3 x h % q a a c v v d d z z j b a a a a a a a a a z a a ",
"a a s a a a a a a a a a a a a z a q % & 3 x h % q a a a a a a a a a a c b a a a a a a a a z a a ",
"a a n a a a a a a a a a a a a z a q % & f m M % N q q q q q q q q . B a b c a a a a a a a z a a ",
"a a V a a a a a a a a a a a c z a q % C Z A S % % % % % % % % % % % % V a b b a a a a a c z a a ",
"a a a c v v v d j d d z z z D F a q % C Z G l         . . X . % % % % N a a c j z z z z D F a a ",
"a a a H J J J K F K K L L L L a a q % o P I U U U U U Y Y T R E W % % % a a a F L L L L L a a a ",
"a a a Q Q Q Q ! ~           ^ a a q % % C / / / / / / ( ( ) _ ` ' X % % a a ] Q Q !     ^ a a a ",
"a a [ { Q Q Q ! ~           ^ a a } % % % % % % % % % % % % | _ '  .% % a [ [ Q Q !     ^ a a a ",
"a a s l a a a a a a a a a a a b a B % % % % % % % % % % % % o ..' X.% % a s Q a a a a a a b a a ",
"a a s a a a a a a a a a a a a F v H B . q q q q q q q q N % o.O.' X.% % a s Q a a a a a a v a a ",
"a a n a a a a a a a a a a a a a c +.a a a a a a a a a a q % # + ' X.% % a s Q a a a a a a d a a ",
"a a @.a a a a a a a a a a a a a a c n s s s s n q l a a q % # + ' X.% % a s Q a a a a a a j a a ",
"a a n a a a a a a a a a a a a a a a a a a a a a a a c a q % # + '  .% % a s Q a a a a a a z a a ",
"a a n a a a a a a a a a a a a a a a a a a a a a a a v a q % # + #. .% % a n ! a a a a a a z a a ",
"a a @.a a a a a a a a a a a a a a a a a a a a a a a v a q % # + $.%.% % a @.~ a a a a a a z a a ",
"a a s a a a a a a a a a a a a a a a a a a a a a a a j a q % # &.$.  % % a n ! a a a a a a j a a ",
"a a s a a a a a a a a a a a a a a a a a a a a a a a z a q % # &.$.  % % a n ! a a a a a a z a a ",
"a a s a a a a a a a a a a a a a a a a a a a a a a b D a q % # f *.  % % a q   a a a a a a z a a ",
"a a @.a a a a a a a a a =.z z z z z z z z z z z z z F a q % o.-.;.  % % a q   a a a a a a z a a ",
"a a @.a a a a a a a a =.F a a a a a a a a a a a a a a a q % o.-.;.  % % a q   a a a a a a z a a ",
"a a n a a a a a a a =.=.a l . q q q q q q q q q q q q q N % o :.>.X % % a q   a a a a a a z a a ",
"a a V a a a a a a =.F a V % % % % % % % % % % % % % % % % % % ) ;.. % % a V l a a a a a c z a a ",
"a a a c v d z z z F a a N % % % % .                 X . . X ,.<.;.. % % a a a v v d z z D F a a ",
"a a a H J K L L L a a a % % % 1.2.Y U U U 3.3.4.3.3.T Y Y T 5.6.6.X % % a a a J J K L L L a a a ",
"a a a Q Q Q       a a a % % % 7.8.) / / / ( ( ) ( ( ) ( ( ) / / 9.% % % a a a Q Q !     ^ a a a ",
"a a [ { Q Q       a a a % % C 7.0.% % % % % % % % % % % % % % % % % % q.a a [ Q Q !     ^ a a a ",
"a a s l a a a a a c c a % % o 7.w.X % % % % % % % % % % % % % % % % % V a [ [ a a a a a a b a a ",
"a a s a a a a a a J J a % % & 7.e.N % X q q q q q q q q q q q q q . B a [ ] a a a a a a a v a a ",
"a a n a a a a a a K K a % % & 7.r.S %   a a a a a a a a a a a a a a a V ] a a a a a a a a d a a ",
"a a @.a a a a a a L L a % % & t.y.h %   a ] s s s s s s s n @.q q q q V a a a a a a a a a j a a ",
"a a q a a a a a a L L a % % & u.i.S %   a p.l a a a a a a a a a a a a a a a a a a a a a a z a a ",
"a a q a a a a a a L L a % % & u.i.S %   a s a a a a a a a a a a a a a a a a a a a a a a a z a a ",
"a a @.a a a a a a F F a % % a.t.s.q.%   a s a a a a a a a a a a a a a a a a a a a a a a a z a a ",
"a a q a a a a a a L L a % % 9.d.f.X %   a q a a a a a a a a a a a a a a a a a a a a a a a z a a ",
"a a q a a a a a a L L a % % / g.h.% %   a q a a a a a a a a a a a a a a a a a a a a a a a z a a ",
"a a l a a a a a a j.L a % % / $.h.% %   a l a a a a a a a a a a a a a a a a a a a a a a b z a a ",
"a a a c v v j z z =.a a % % / g.h.% %   a a b v v v v z z z d d j z z z z z z z z z z z z a a a ",
"a a a a a a a a a a a a % % / ;.k.% %   a a a a a a a a a a a a a a a a a a a a a a a a a a a a ",
"l.z.z.z.z.l.x.x.l.s s s - - c.4 _ v.2.R G b.b.s s s s s s s x.x.l.l.l.x.l.z.z.z.z.l.x.x.l.s s s "
};
