/* XPM */
static char *fire__0021666882037[] = {
/* columns rows colors chars-per-pixel */
"48 48 5 1 ",
"  c None",
". c #0D54F3",
"X c #2273FF",
"o c #38ADFF",
"O c #47FFFF",
/* pixels */
"                                                ",
"                                                ",
"                                                ",
"                                                ",
"                                                ",
"                                                ",
"                                                ",
"                                                ",
"                                                ",
"                                                ",
"                                                ",
"                                                ",
"                                                ",
"                                                ",
"                                                ",
"                                                ",
"                                                ",
"                                                ",
"                         X                      ",
"                                                ",
"                                                ",
"                                                ",
"                      ..                        ",
"                     ...                        ",
"                      .                         ",
"                        XX                      ",
"                       XXX                      ",
"                     X XOXX                     ",
"                    XX  OXX.                    ",
"                    XX  XX..                    ",
"                   .XX..X..oo                   ",
"                   ..X.Xoo.ooX                  ",
"                   .XX.ooooXXX                  ",
"                  XooX.ooooXX.                  ",
"                  XoooXooXXX..                  ",
"                  XooXXOOOXX..                  ",
"                   ..XOOOOoXX.                  ",
"                   ..oOOOOOXXX                  ",
"                   XXOOOOOOooX.                 ",
"                  .XOOOOOOOooXX                 ",
"                                                ",
"                                                ",
"                                                ",
"                                                ",
"                                                ",
"                                                ",
"                                                ",
"                                                "
};
