/* XPM */
static char *fire__0071666882038[] = {
/* columns rows colors chars-per-pixel */
"48 48 5 1 ",
"  c None",
". c #0D54F3",
"X c #2273FF",
"o c #38ADFF",
"O c #47FFFF",
/* pixels */
"                                                ",
"                                                ",
"                                                ",
"                                                ",
"                                                ",
"                                                ",
"                                                ",
"                                                ",
"                                                ",
"                                                ",
"                                                ",
"                                                ",
"                                                ",
"                                                ",
"                                                ",
"                                                ",
"                                                ",
"                                                ",
"                                                ",
"                          .                     ",
"                          .                     ",
"                                                ",
"                    .. XX                       ",
"                    ..ooXX                      ",
"                      ooXX                      ",
"                      X..                       ",
"                       .                        ",
"                       .                        ",
"                       ..   XX                  ",
"                    XX ..   XX                  ",
"                   XXXX..   .X                  ",
"                   XXoooXX  .                   ",
"                    .oooXX...                   ",
"                    .XOOoXX.XXX                 ",
"                    .OOOOOX.XXXX                ",
"                   XXOOOOOoXooXX                ",
"                  .XXXOOOOOXooX.                ",
"                  XXXoOOOOOoo..                 ",
"                  XXXOOOOOOo...                 ",
"                   .oOOOOOOOX.                  ",
"                                                ",
"                                                ",
"                                                ",
"                                                ",
"                                                ",
"                                                ",
"                                                ",
"                                                "
};
