/* XPM */
static char *fire__0011666882036[] = {
/* columns rows colors chars-per-pixel */
"48 48 5 1 ",
"  c None",
". c #0D54F3",
"X c #2273FF",
"o c #38ADFF",
"O c #47FFFF",
/* pixels */
"                                                ",
"                                                ",
"                                                ",
"                                                ",
"                                                ",
"                                                ",
"                                                ",
"                                                ",
"                                                ",
"                                                ",
"                                                ",
"                                                ",
"                                                ",
"                                                ",
"                                                ",
"                                                ",
"                                                ",
"                                                ",
"                      .                         ",
"                         X                      ",
"                         .                      ",
"                                                ",
"                                                ",
"                                                ",
"                       .                        ",
"                      ...   X                   ",
"                     ....                       ",
"                    Xo..XX                      ",
"                   ooo.oooX                     ",
"                   ooX.ooOX                     ",
"                   XXX.XOOX.                    ",
"                    XOOXOO..X                   ",
"                    XOOoOXoooX                  ",
"                   XXXoooXoooX                  ",
"                  XXXooooXXooX                  ",
"                  XXOOOooXXXXX                  ",
"                  XXOOOOOoOOXX                  ",
"                  .XoOOOOOOO..                  ",
"                  .XoOOOOOOO..                  ",
"                   XXOOOOOOoX                   ",
"                                                ",
"                                                ",
"                                                ",
"                                                ",
"                                                ",
"                                                ",
"                                                ",
"                                                "
};
