/* XPM */
static char *fire__0051666882037[] = {
/* columns rows colors chars-per-pixel */
"48 48 5 1 ",
"  c None",
". c #0D54F3",
"X c #2273FF",
"o c #38ADFF",
"O c #47FFFF",
/* pixels */
"                                                ",
"                                                ",
"                                                ",
"                                                ",
"                                                ",
"                                                ",
"                                                ",
"                                                ",
"                                                ",
"                                                ",
"                                                ",
"                                                ",
"                                                ",
"                                                ",
"                                                ",
"                                                ",
"                                                ",
"                                                ",
"                                                ",
"                        X                       ",
"                                                ",
"                                                ",
"                          X                     ",
"                     X    XX                    ",
"                     X     X                    ",
"                     ..    .                    ",
"                    .XX                         ",
"                   ..XXX.                       ",
"                   ..XXXXX                      ",
"                   ..XOOoXX                     ",
"                    .XOOOOX.                    ",
"                     .OOOO..XX                  ",
"                    ..XOOX.ooX                  ",
"                  XX.XXooXXooX                  ",
"                 XooXXXooXXXXX                  ",
"                 XooOOooOOXXX                   ",
"                 .oOOOOoOOOXX                   ",
"                 ..OOOOOOOOoX.                  ",
"                  .XOOoOOOOOX.                  ",
"                   .XoOOOOOOXX                  ",
"                                                ",
"                                                ",
"                                                ",
"                                                ",
"                                                ",
"                                                ",
"                                                ",
"                                                "
};
