/* XPM */
static char *fire__0041666882037[] = {
/* columns rows colors chars-per-pixel */
"48 48 5 1 ",
"  c None",
". c #0D54F3",
"X c #2273FF",
"o c #38ADFF",
"O c #47FFFF",
/* pixels */
"                                                ",
"                                                ",
"                                                ",
"                                                ",
"                                                ",
"                                                ",
"                                                ",
"                                                ",
"                                                ",
"                                                ",
"                                                ",
"                                                ",
"                                                ",
"                                                ",
"                                                ",
"                                                ",
"                                                ",
"                                                ",
"                                                ",
"                       .                        ",
"                                                ",
"                         X                      ",
"                        oX                      ",
"                         .                      ",
"                                                ",
"                     X     XX                   ",
"                    XX     XX                   ",
"                    XX     X                    ",
"                     X XX  .                    ",
"                    XXoooX .                    ",
"                    XooooXX..                   ",
"                    ..ooXXX..                   ",
"                    ..XOOOX.oX                  ",
"                    .XXOOOOXoo.                 ",
"                    .XXOOOOXooX                 ",
"                  XX.XoOOOOoXoX                 ",
"                  XXXXooOOooXXX                 ",
"                  XXXOOooOOOXX.                 ",
"                  .XoOOOOOOOX..                 ",
"                   .OOOOOOOXXX                  ",
"                                                ",
"                                                ",
"                                                ",
"                                                ",
"                                                ",
"                                                ",
"                                                ",
"                                                "
};
