/* XPM */
static char *fire__0061666882037[] = {
/* columns rows colors chars-per-pixel */
"48 48 5 1 ",
"  c None",
". c #0D54F3",
"X c #2273FF",
"o c #38ADFF",
"O c #47FFFF",
/* pixels */
"                                                ",
"                                                ",
"                                                ",
"                                                ",
"                                                ",
"                                                ",
"                                                ",
"                                                ",
"                                                ",
"                                                ",
"                                                ",
"                                                ",
"                                                ",
"                                                ",
"                                                ",
"                                                ",
"                                                ",
"                                                ",
"                                                ",
"                                                ",
"                                                ",
"                      X   X                     ",
"                          X.                    ",
"                           .                    ",
"                    ..  X                       ",
"                   ... ooo                      ",
"                   ...ooooX                     ",
"                    . ooooX                     ",
"                      Xoo.                      ",
"                       ...                      ",
"                       XX. XXX                  ",
"                   XXX.XXX.XXX                  ",
"                  XXXXXXXXXXX                   ",
"                  XXOOOXXooXX                   ",
"                  .OOOOoooooX.                  ",
"                  .OOOoOOoooX.                  ",
"                   XOooOOooXXXX                 ",
"                   XooOOOOOooXX                 ",
"                  .XXOOOOOOooX.                 ",
"                 ..XoOOOOOOOXX                  ",
"                                                ",
"                                                ",
"                                                ",
"                                                ",
"                                                ",
"                                                ",
"                                                ",
"                                                "
};
