/* XPM */
static char *fire__0031666882037[] = {
/* columns rows colors chars-per-pixel */
"48 48 5 1 ",
"  c None",
". c #0D54F3",
"X c #2273FF",
"o c #38ADFF",
"O c #47FFFF",
/* pixels */
"                                                ",
"                                                ",
"                                                ",
"                                                ",
"                                                ",
"                                                ",
"                                                ",
"                                                ",
"                                                ",
"                                                ",
"                                                ",
"                                                ",
"                                                ",
"                                                ",
"                                                ",
"                                                ",
"                                                ",
"                                                ",
"                                                ",
"                                                ",
"                                                ",
"                      .                         ",
"                      .  X                      ",
"                        XX                      ",
"                        X.                      ",
"                        o                       ",
"                    XX  o                       ",
"                    XX  .  XX                   ",
"                    XX...  XX                   ",
"                    .X... .XX                   ",
"                    XX.XoX.X.                   ",
"                   XXXooooX..                   ",
"                   XXXoooXXX..                  ",
"                   XX.XXXXXXX.                  ",
"                    ...XOOOXX.X                 ",
"                    ..XXOOOoXXX                 ",
"                   ..XXoOOOOXXX                 ",
"                  XX.XXOOOOOXXX                 ",
"                  XXooOOOOOoXX.                 ",
"                 .XoooOOOOOoXX.                 ",
"                                                ",
"                                                ",
"                                                ",
"                                                ",
"                                                ",
"                                                ",
"                                                ",
"                                                "
};
