/* XPM */
static char *fire__0001666882037[] = {
/* columns rows colors chars-per-pixel */
"48 48 5 1 ",
"  c None",
". c #0D54F3",
"X c #2273FF",
"o c #38ADFF",
"O c #47FFFF",
/* pixels */
"                                                ",
"                                                ",
"                                                ",
"                                                ",
"                                                ",
"                                                ",
"                                                ",
"                                                ",
"                                                ",
"                                                ",
"                                                ",
"                                                ",
"                                                ",
"                                                ",
"                                                ",
"                                                ",
"                                                ",
"                          .                     ",
"                                                ",
"                                                ",
"                     .. .                       ",
"                     . XX                       ",
"                       .X                       ",
"                       .                        ",
"                                                ",
"                                                ",
"                             X                  ",
"                     ...     X                  ",
"                    .....                       ",
"                   XooX.XXX                     ",
"                   Xooo.XooX                    ",
"                   .oooXoooX.                   ",
"                   .XOOOoOO..                   ",
"                   .XOOOOOO.oX.                 ",
"                  XXXoOOoOo.ooX                 ",
"                  XXXXoooooXXoX                 ",
"                  XXOOOooooXXXX                 ",
"                  XXOOOOOooOOXX                 ",
"                  XXOOOOOOOOO..                 ",
"                  .XoOOOOOOOo..                 ",
"                                                ",
"                                                ",
"                                                ",
"                                                ",
"                                                ",
"                                                ",
"                                                ",
"                                                "
};
