/* XPM */
static char *GRASS_1A1666792785[] = {
/* columns rows colors chars-per-pixel */
"48 48 17 1 ",
"  c #06230E",
". c #09260F",
"X c #0C290F",
"o c #112E0F",
"O c #15310F",
"+ c #1A350F",
"@ c #1D390F",
"# c #0A2710",
"$ c #0E2B10",
"% c #112E10",
"& c #153211",
"* c #193611",
"= c #1D3A11",
"- c #213D11",
"; c #254113",
": c #2B4512",
"> c #294815",
/* pixels */
"*=-;&&.$>-XX%X%$%&=-& o=&$%$#*===-;%X;*-##&%%%>O",
"=-=&==*.$O=-;--=>@=%.$.O-==##$$*-*$#X=;&#&%=$#O*",
"X&$#X@**#-==&&@%#--$####&;O=**# *&%.X$%$.&--+==*",
"=-*=&&@& O& %$&$$$&%$-==##===*$$$***=-*$.&-=====",
"*&;==&$O#&&%X-=>*X&%=====o=-;X*-==&=@***&.%;% *-",
".$$*-#$$$=-&.O-&$==;=X$-*&.&#$o=;%#$%.&--%.%=O-O",
"*=X.**&&&#&O%&=% $@.$%$%-==.$$.$=$$==* X@%%*=;%=",
"@==$.X%*=-=X#&==+% O=-=%==$*==$.*==%*=&*X**%O...",
"o$*=*&X$-=#%%$%=-*.%=O%=&$$=-+=#%;*XX;=*X*==%&*X",
"*$-=* X**.=*-=$*=$#%=%==>oO=#>@@*&X..@*X&.O@==;*",
"&*=*.*&=#==;$=&%OO&%O===O$*=-*@&%.&%*&;*=X.**O==",
"%=;##&-=%*;*$%--O#==%+=.  O-& XO.O=;*.&;@=X$$.%#",
".$&###**.*=##$=-#@-+$=o%%O#$$#$%&=@-=**&-@.*=-=%",
"$&*#.$**$=*$.#$=O + .#%&=====$=*&*&X*;*X.OX.+@==",
";=;&-*-*&===$# &==$**$$##@+&#===$%.$*=$.&=&-X*#%",
"&-*;==#*=====#*==***-==# &=$O-=%&%$$-=*$-@=#%%%#",
"==&=;&$ *-&=O$=-O&=# =@@%===&;&==-$ $=+;%OOO&%=%",
"&$#$=-== &&=X #=&$%==%@=%@+.-$X@*O*=*O=*XX@=*O--",
"&==&&%===&-$%%==-##==@=%%%%%$%.X##=;=.o-*@==X-@*",
"*--*##%==*-=;@== ## *&&O;==&;=*.#$==#.**X+-$%$O$",
"&*=####%&==;*.%%&=+= X#***&*&@-+ $$# === =%%=&* ",
"%-=& ;==&*=#-=-=;==$==$#X$%=$%@&*==&#*-=@#%.%;@=",
"#&=====-$&=&X@=O== .$=& =$+=-% =-@==&&--@%&O=*@@",
"##&-&%$%#===.%X OO*%#%+=%&@-&..%-&#-==$*;&;=;XX-",
"*=$&&==-&&=%-%%X&;=;X.*=O%@**$.**$.$-$#X%&&;%$%%",
"==$$==>&# %*&-==*@=X&&&*@*O%==&%%%%&=*X===$o&=*&",
"$=%$=;& %==*#$==*.O&=;$*--&==*$&.%>@-#@@-&..-==$",
"$&===#$%==* &*&=%.O@@X *=-%O*X$=*=O-@*X;=&.*==#$",
"&==>$-=&--$%*=*&*.X=X$*&;%.#X=;@;O##= =-==$O=$%%",
"&#==*$$&=$&#**;* .**#*;-&#%*$X+=$&=# #$*= #&%===",
"$ %-%#%&%==*.=*#X%&=*==* ==-O.XXX===$O$%$%=*-%==",
"&=%&*%&$ $-=&*&..*=;*&*.&*@=O$&# X==&$*=>*@=$ O-",
"=;= **=&=&$#=%=&=%==-$.#%X#%.X-==%&O ==@$%$* &%%",
"&=#==-$#==;$#==>=$ =*..$X*%%.o@-=%%%$%;O$%**=-O#",
"#&===$%&$===&=;%&%=&=X&***-=O*-&%#$&$OO*;@= +=+#",
">&$=&%=&##==%$%&--%#&-=-% O-=$O#%#==@ .$@* #%=%=",
";#&==&#$%XXX==& +O #%-@*=&$O-# %&-==-&X.%%$#$X=@",
" $=;& ===&$#=;$#$%$.X&=+=;%#O*#$$===*>%===#X&&-=",
"%##-*;==%%#X%=-$%&X=&-*+-*&-&&%=#$$O-$==--O=%#$X",
"&==&&%=#&==-%*&#%%*&===##&-@= $--=*&O O:$$-=+XO=",
"O*-=O  X*--%#.$=-==X.=-&$O--$# .@+;* $=O#$&;@&-=",
"o =;$=*=X=OXX#*-+*.X#%%&%#%$O=*= *=###=&=%*-$%O=",
"$$$*$=;=%*==%$#@+ ==-&&-@-##@==O%O*O# $==%#-== X",
"=;o  #*OO@=%%*&* =@;%.=@=%OO=@# =*& O&%OO -@=$=$",
"$$ *&=# *-X %==$ O-&.# O.$# oO#===O$=-=.$&+-#*--",
"O *@-&##+-%O.===&=&#O$%#-== $*O#=# ==* %=%O$%&+*",
"XXO=O %&%*;=@%--+O#&-==$X-@= $X$OO%*=.#$&==O%=&$",
"XX=O.#%;==&-+=%%.#$=$=@O#$=OX#==&=@;$#=&=*;$&==O"
};
