/* XPM */
static char *idle__rev__0001666807395[] = {
/* columns rows colors chars-per-pixel */
"32 48 170 2 ",
"   c None",
".  c #0C0C0C",
"X  c #1B0E0E",
"o  c #160C0C",
"O  c #151515",
"+  c #1A1314",
"@  c #1C1C1C",
"#  c #1B1A15",
"$  c #2A0909",
"%  c #230E0E",
"&  c #3E0202",
"*  c #390D0D",
"=  c #360A0A",
"-  c #241313",
";  c #2C1616",
":  c #221E1C",
">  c #2D1A1A",
",  c #301717",
"<  c #3D1313",
"1  c #331B1A",
"2  c #3B1D1D",
"3  c #20201F",
"4  c #2B251B",
"5  c #312415",
"6  c #201F20",
"7  c #242423",
"8  c #2C2323",
"9  c #272828",
"0  c #2C2C2C",
"q  c #2A2821",
"w  c #322222",
"e  c #3D2121",
"r  c #332828",
"t  c #323232",
"y  c #3D3C3C",
"u  c #410404",
"i  c #4B0404",
"p  c #4D0B0B",
"a  c #530101",
"s  c #5B0101",
"d  c #441313",
"f  c #471919",
"g  c #501E1E",
"h  c #670000",
"j  c #680000",
"k  c #432323",
"l  c #4B2526",
"z  c #412925",
"x  c #442D2B",
"c  c #4E2929",
"v  c #542727",
"b  c #532A2A",
"n  c #5B2D2E",
"m  c #48322C",
"M  c #553828",
"N  c #4D3A3A",
"B  c #403D3D",
"V  c #5E3131",
"C  c #5A3737",
"Z  c #663333",
"A  c #6A3535",
"S  c #6F3838",
"D  c #733B3B",
"F  c #793E3E",
"G  c #504631",
"H  c #434343",
"J  c #4A4949",
"K  c #524E4E",
"L  c #5B4849",
"P  c #5B574D",
"I  c #664445",
"U  c #7D4040",
"Y  c #7C4D4D",
"T  c #695E47",
"R  c #655744",
"E  c #635E5E",
"W  c #6A5C5A",
"Q  c #715858",
"!  c #6E6648",
"~  c #786B4E",
"^  c #686363",
"/  c #766767",
"(  c #7B7C7C",
")  c #836C38",
"_  c #8B713A",
"`  c #834444",
"'  c #8A4747",
"]  c #8B4848",
"[  c #967C43",
"{  c #817559",
"}  c #A07F49",
"|  c #856C6C",
" . c #847963",
".. c #31B16F",
"X. c #A6853C",
"o. c #98814D",
"O. c #AF8E44",
"+. c #A6905D",
"@. c #BF9D51",
"#. c #8F8C6A",
"$. c #819B72",
"%. c #95927A",
"&. c #AA976B",
"*. c #BA9F60",
"=. c #A1967C",
"-. c #BEA976",
";. c #C8A554",
":. c #D2AB5C",
">. c #E5A76D",
",. c #E5BD63",
"<. c #DDC17F",
"1. c #ECC162",
"2. c #F7CC69",
"3. c #FED36D",
"4. c #EBCB7F",
"5. c #FFD677",
"6. c #FFD978",
"7. c #6DA488",
"8. c #7FDDAE",
"9. c gray56",
"0. c #818181",
"q. c #9F9898",
"w. c #9D9696",
"e. c #A69C84",
"r. c #A09999",
"t. c #99AB9D",
"y. c #BDAC84",
"u. c #B1A487",
"i. c #A5BE8A",
"p. c #A5A19C",
"a. c #9FA0A0",
"s. c #B7B7B7",
"d. c #D58982",
"f. c #E49686",
"g. c #C8B084",
"h. c #D2BC8D",
"j. c #D6BE83",
"k. c #C6BF95",
"l. c #E3B891",
"z. c #C2B7A2",
"x. c #FFB0A3",
"c. c #84CDA7",
"v. c #83D3AA",
"b. c #95D2AE",
"n. c #DEC384",
"m. c #D3C195",
"M. c #E2C685",
"N. c #FFCB8E",
"B. c #F5D48A",
"V. c #EBCD92",
"C. c #E6CE94",
"Z. c #FCDE95",
"A. c #F7DB99",
"S. c #FFE29B",
"D. c #FFE293",
"F. c #D7CFA1",
"G. c #CCCABA",
"H. c #F0D5A2",
"J. c #E3D9B3",
"K. c #FFE5A7",
"L. c #FEE6AC",
"P. c #FFE9AE",
"I. c #FFEAB3",
"U. c #FFEDBD",
"Y. c #A8E0C3",
"T. c #CBD2D0",
"R. c #D7D6D7",
"E. c #FFECC0",
"W. c #E2E8E0",
"Q. c white",
/* pixels */
"                        ; c l                                   ",
"                      l D S A V k 2 l l                         ",
"                    b ` ' S Z A A A A S A b                     ",
"                  b ` ' ` S Z Z Z Z Z Z Z A b                   ",
"                k ` ' ' ` A Z Z Z Z Z Z Z Z A k                 ",
"                D ] ' ' F Z Z Z Z Z Z Z A Z Z n                 ",
"              k F F U D A Z A Z Z Z Z Z Z Z Z Z 2               ",
"              n Z Z Z Z Z Z Z Z Z A Z Z Z Z Z A l               ",
"            1 Z Z Z Z Z Z Z Z Z Z Z Z Z Z Z Z Z c               ",
"            2 A Z Z Z Z Z Z Z Z Z Z V n b n n V b               ",
"            l A Z A Z Z A Z Z A Z Z l n V n n v l -             ",
"  o - -     2 b v v v v v v v b b v f Z Z A A A A Z V c 1       ",
"  - 1 k 2 ; & s s s s s s s s s s i g Z Z Z Z Z Z Z A A A n 1   ",
"    1 2 k 2 i j j j j j j j j j s f Z Z A Z Z Z Z Z Z Z Z A Z - ",
"    ; 2 2 2 i h j j j j j h s i v Z Z Z Z Z Z Z Z Z Z Z Z Z Z e ",
"      2 k ; & a s a a a a p g Z Z Z Z Z Z Z A Z Z Z Z Z Z Z n 1 ",
"        2 l 2 < = d < f c V V V n n n n n n n b b b c c c k 2 o ",
"            - 2 e 5 z x z 1 1 1 1 1 1 z z r z x m x ; ; - X     ",
"            # : + . ~ m.-.q . @ @ 4 ~ h.h.g.g.n.M.m.P           ",
"            T #.a. .h.I.L.&.! 7.T.z.4.P.P.A.V.3.3.S.u.          ",
"            T $.v.J.K.E.I.H.i...Y.W.n.L.L.L.D.3.3.S.y.          ",
"            q %.b.F.P.U.P.K.m.c.v.G.V.P.K.S.6.3.6.A.{           ",
"              d.l.A.S.C.V.Z.B.j.h.f.x.N.6.3.1.*.-.{             ",
"                [ ,.2.:.,.3.3.2.1.>.>.:.;.@.[ 4                 ",
"                    ) _ [ +.X.o.e.R 5                           ",
"                    k 2 L r.O.%.R.I c k                         ",
"                  b b n A y M W Q Z n Z Z l                     ",
"                  Z b Z n / I < n Z c Z Z Z                     ",
"                b Z v n n r.R.c < V v l Z Z n                   ",
"                n Z l Z b w.Q./ = < n 2 2 n Z                   ",
"                V Z c Z n w.Q.| n * < k 1 n Z n                 ",
"                n n 2 k k E q.L v l $ $ 1 n n l                 ",
"                C U n > ; E s.^ , 1 $ & n ` Y N                 ",
"              - k V e 9 8 J 0.K 8 w - % 4 e C N                 ",
"                > > 7 t t t t t t r q @ 0 9 :                   ",
"              @ 9 > > t t t t t 9 G ! 3 0 0 0 O                 ",
"              O 9 - s d r 9 @ O 7 3 7 @ 0 0 9                   ",
"                3 9 d s & o     O 7 @ O O 7 @                   ",
"                O 0 t 1 k K       7 0 0 @ .                     ",
"                  t t 9 ( s.      @ t t 0                       ",
"                9 t t 9 0 9.      7 0 t 0                       ",
"                t H J H 3         t H H H                       ",
"                0 y B t           0 H H y                       ",
"                  e l ;           + w z >                       ",
"          1 c b c c b l           2 l c c c b k                 ",
"        , n Z Z b b b b 2         l b b v n Z Z k               ",
"        k n n b b c c b k       - b b c c b n n b ;             ",
"        , 1 1 1 , ; 1 1 -       - ; , , ; 1 1 2 2 -             "
};
