/* XPM */
static char *Idle__0011666799401[] = {
/* columns rows colors chars-per-pixel */
"32 48 167 2 ",
"   c None",
".  c #0D0D0D",
"X  c #140D0D",
"o  c #1B0E0E",
"O  c #151414",
"+  c #1B1312",
"@  c #1C1C1C",
"#  c #2A0909",
"$  c #230D0D",
"%  c #390B0B",
"&  c #350909",
"*  c #241313",
"=  c #2B1616",
"-  c #2D1919",
";  c #251E19",
":  c #3D1414",
">  c #341B1B",
",  c #3A1D1D",
"<  c #351717",
"1  c #20201F",
"2  c #2B261A",
"3  c #392C18",
"4  c #3E1F20",
"5  c #242423",
"6  c #2A2423",
"7  c #272828",
"8  c #2C2C2C",
"9  c #322222",
"0  c #3D2121",
"q  c #332828",
"w  c #3B3429",
"e  c #323232",
"r  c #3D3C3C",
"t  c #430303",
"y  c #4E0808",
"u  c #560404",
"i  c #5B0101",
"p  c #441313",
"a  c #411919",
"s  c #4E1B1B",
"d  c #670000",
"f  c #680000",
"g  c #442323",
"h  c #4B2626",
"j  c #452926",
"k  c #452C2A",
"l  c #4E2828",
"z  c #502424",
"x  c #542A2A",
"c  c #5B2E2E",
"v  c #4C3A3A",
"b  c #403D3D",
"n  c #5F3030",
"m  c #5B3838",
"M  c #573637",
"N  c #602F2F",
"B  c #663333",
"V  c #6A3535",
"C  c #643D3E",
"Z  c #753C3C",
"A  c #7A3F3F",
"S  c #494336",
"D  c #5B4130",
"F  c #615039",
"G  c #715D30",
"H  c #434343",
"J  c #4C4B4B",
"K  c #5C4343",
"L  c #524E4E",
"P  c #7D4747",
"I  c #675D47",
"U  c #6D5C5B",
"Y  c #64595A",
"T  c #715656",
"R  c #5F624B",
"E  c #72654B",
"W  c #746A52",
"Q  c #7F7254",
"!  c #686363",
"~  c #756B6B",
"^  c #7B7C7C",
"/  c #91783F",
"(  c #844444",
")  c #8A4747",
"_  c #8B4848",
"`  c #9A7F41",
"'  c #8C7B55",
"]  c #816666",
"[  c #3AB375",
"{  c #9E8141",
"}  c #9B8553",
"|  c #AC8B41",
" . c #A88A4E",
".. c #AD9358",
"X. c #B79353",
"o. c #8A8869",
"O. c #9B9179",
"+. c #A2926E",
"@. c #A6997B",
"#. c #80A578",
"$. c #BBA47D",
"%. c #C9A658",
"&. c #D0AC57",
"*. c #DCB05F",
"=. c #C5A866",
"-. c #C4AD7C",
";. c #D5BA7B",
":. c #E6BE64",
">. c #E8A671",
",. c #F1AB73",
"<. c #F3CB6D",
"1. c #F7C865",
"2. c #FFD36D",
"3. c #FFD672",
"4. c #FFDA7A",
"5. c #719E88",
"6. c #6FCB9D",
"7. c gray56",
"8. c #858686",
"9. c #89948B",
"0. c #A29A87",
"q. c #A09A90",
"w. c #96A284",
"e. c #92BD89",
"r. c #B8AA8A",
"t. c #BEB08F",
"y. c #B8BE97",
"u. c #A5A1A1",
"i. c #AAA5A5",
"p. c #B6B6B6",
"a. c #D79288",
"s. c #E49688",
"d. c #C6B386",
"f. c #CCB98A",
"g. c #CFB794",
"h. c #DFBE96",
"j. c #FFB7A7",
"k. c #8DD3AC",
"l. c #9BDBBA",
"z. c #84E0B3",
"x. c #DBC286",
"c. c #DAC591",
"v. c #EACC88",
"b. c #FFCF8B",
"n. c #F1CF8C",
"m. c #F2D287",
"M. c #EED59A",
"N. c #EED096",
"B. c #FBDB94",
"V. c #F5DA97",
"C. c #FEE199",
"Z. c #DFD1A0",
"A. c #CFC9B6",
"S. c #E7D6A9",
"D. c #EDD2A0",
"F. c #FCE2A3",
"G. c #F7E0A8",
"H. c #FEE6AB",
"J. c #FFE9AE",
"K. c #FFEBB2",
"L. c #FFECBD",
"P. c #C8C7C9",
"I. c #D1CECE",
"U. c #DEDED3",
"Y. c #C6EED9",
"T. c #FFEDC0",
"R. c #FDFEFE",
/* pixels */
"                                  0 h -                         ",
"                        4 h , , c V V Z h                       ",
"                    g B V V V V V B V ( ( c                     ",
"                  g B B B B V B B B V ( ) ) c                   ",
"                , B B B B B B B B B B ( ) ) ( l                 ",
"                x V B B B B B B B B B Z ) ) _ A                 ",
"              = N B B B B B V B B B B V Z ( A A l               ",
"              0 B B B B V B B B B B B B B B B B c               ",
"              g V B B B B B B B B B B B B B B B B ,             ",
"              l B c c x x N B B B B B B B V B B B h             ",
"            $ g x x c c c j B V V B V V B V V B B x             ",
"        j x B V V V V B V g z x x x x x c x x c c g     o o o   ",
"    x B V B B B B B B B V z t u u i u u u u u u u t * , 0 > *   ",
"  c V B B B V B B B B B V B s i f f f f f f f f f u > j 0 >     ",
", B B B B B B B B B B B B B V z y i f f d d f f f u < a , >     ",
"= c B B B B B B B B B B B B B V B s y u i i i i i t = , g       ",
"X > j l x c x x x c c c c c N N c B c l a : & & % : g 0         ",
"    $ * = = q k k j 0 0 g , > 2 , , > 0 j j g 4 4 , =           ",
"          S d.x.;.-.$.d.d.' * O O X + +.d.Q . O + O             ",
"          O.F.4.3.n.M.J.J.v.r.P.5.R ' G.K.c.E 9.o.I             ",
"          @.C.2.2.B.H.J.J.v.U.Y.[ e.V.J.L.H.S.l.#.W             ",
"          W M.4.2.3.C.H.J.N.A.z.6.y.G.K.L.J.Z.k.w.w             ",
"            Q -.=.:.2.4.b.j.s.g.f.n.C.M.M.F.V.h.a.              ",
"                2 / %.&.*.>.,.:.2.2.2.:.%.<.<.X.                ",
"                          3 F @.} | .. .{ ` G                   ",
"                        4 h C P.0.| q.Y < 4                     ",
"                    g B B n B T U D k m B x x                   ",
"                    B B B x B c , M ~ x B x B                   ",
"                  x B B h l N : g I.i.x n x B x                 ",
"                  B n 4 4 c p & U R.u.x B h B c                 ",
"                x B c > 4 : % c ] R.q.N B h B B                 ",
"                h c c > # # g l K u.~ g l , c c                 ",
"                v P ( c t # > - ! p.! - - l A c                 ",
"                v m 0 6 $ * 4 6 L 8.J 6 6 j B 0 +               ",
"                  ; 7 7 ; 1 8 e e 8 e e e 1 - 4 X               ",
"                @ 8 8 8 1 E S 7 e 8 e e e - - 5 @               ",
"                  5 8 8 @ 7 6 5 O @ 7 q p i * 5 @               ",
"                  1 5 O O @ 1 O     X t i p 5 5 O               ",
"                    . @ 7 e @       L j > e e O                 ",
"                      8 e e 1       p.^ 8 e e                   ",
"                      8 e 8 5       7.8 8 8 e 5                 ",
"                      H H H 8         5 H H J e                 ",
"                      r H H 8           e r r 8                 ",
"                      - j 9 +           > j 4                   ",
"                4 x l l x h >           j x x l x z >           ",
"              g B B c x x x h         , x x l x B B c -         ",
"            = x c c x l l l l -       g x l l x x c c g         ",
"            * , , > > = - > > o       = > = = < > > > -         "
};
