/* XPM */
static char *idle__rev__0051666807396[] = {
/* columns rows colors chars-per-pixel */
"32 48 168 2 ",
"   c None",
".  c gray5",
"X  c #150C0C",
"o  c #1D0F0F",
"O  c #170F10",
"+  c #151515",
"@  c #1C1111",
"#  c #1B1C1C",
"$  c #2B0606",
"%  c #2C0B0B",
"&  c #270909",
"*  c #3D0606",
"=  c #360B0B",
"-  c #3A0808",
";  c #241313",
":  c #2B1616",
">  c #231D1D",
",  c #2D1919",
"<  c #3B1616",
"1  c #331A1A",
"2  c #3A1E1E",
"3  c #31171A",
"4  c #2B261A",
"5  c #30231F",
"6  c #3E1F20",
"7  c #242424",
"8  c #2F2121",
"9  c #2C2C2C",
"0  c #272828",
"q  c #342222",
"w  c #3D2020",
"e  c #342F24",
"r  c #322C2C",
"t  c #3D2F26",
"y  c #3E382B",
"u  c #323232",
"i  c #3D3C3C",
"p  c #430202",
"a  c #490B0B",
"s  c #520303",
"d  c #5C0101",
"f  c #441313",
"g  c #4C1313",
"h  c #431C1C",
"j  c #4C1E1E",
"k  c #650000",
"l  c #680000",
"z  c #432E1F",
"x  c #442222",
"c  c #4B2626",
"v  c #4E2929",
"b  c #4A2A26",
"n  c #532424",
"m  c #532A2A",
"M  c #5B2E2E",
"N  c #433D2F",
"B  c #463939",
"V  c #553434",
"C  c #5F3030",
"Z  c #573D3D",
"A  c #602E2E",
"S  c #653333",
"D  c #6A3535",
"F  c #6F3838",
"G  c #623D3D",
"H  c #723A3A",
"J  c #3B443D",
"K  c #4C4535",
"L  c #5C533E",
"P  c #66532C",
"I  c #6B5E3F",
"U  c #756237",
"Y  c #434343",
"T  c #4A4944",
"R  c #534D4D",
"E  c #5F594C",
"W  c #585555",
"Q  c #6D4A4A",
"!  c #774A4A",
"~  c #765A4F",
"^  c #675B5B",
"/  c #725050",
"(  c #6B6149",
")  c #73624D",
"_  c #7B6A51",
"`  c #77735A",
"'  c #736363",
"]  c #68726E",
"[  c #7D7B78",
"{  c #85663B",
"}  c #8E753C",
"|  c #854545",
" . c #894747",
".. c #8F7843",
"X. c #8C7A5B",
"o. c #907D5F",
"O. c #917E60",
"+. c #857C72",
"@. c #3FBC7C",
"#. c #A88D55",
"$. c #AF965C",
"%. c #BEA05C",
"&. c #8F8564",
"*. c #998B68",
"=. c #A38E68",
"-. c #AC976A",
";. c #B1A07E",
":. c #C8A554",
">. c #D5AF59",
",. c #DCB55C",
"<. c #D6B059",
"1. c #D19276",
"2. c #C8AC6B",
"3. c #C5B077",
"4. c #DBBD77",
"5. c #F6B275",
"6. c #EBC266",
"7. c #F2C768",
"8. c #FFD26B",
"9. c #EDCA79",
"0. c #F2CB78",
"q. c #FED370",
"w. c #FED67A",
"e. c #FFD977",
"r. c #8D7F80",
"t. c #5DBA85",
"y. c #6ABF8B",
"u. c #6BC090",
"i. c #8C8A8A",
"p. c #979898",
"a. c #A19494",
"s. c #ABABAA",
"d. c #B2B2B2",
"f. c #CEB985",
"g. c #D2BE8F",
"h. c #FFA589",
"j. c #FDB881",
"k. c #E8A991",
"l. c #C9BAA8",
"z. c #9BCAA3",
"x. c #B2CFB0",
"c. c #B0D8B5",
"v. c #DCC68D",
"b. c #C9C09C",
"n. c #D4C39C",
"m. c #FFDD8A",
"M. c #FFD981",
"N. c #E6C896",
"B. c #F5DA9D",
"V. c #FFE193",
"C. c #FEE19D",
"Z. c #CBCAA1",
"A. c #CBCDBC",
"S. c #EDD7A3",
"D. c #FBD6A7",
"F. c #FBE2A4",
"G. c #FDE5AC",
"H. c #FFE8AE",
"J. c #F7E0A7",
"K. c #FFE9B0",
"L. c #FFEDBF",
"P. c #A7DCC1",
"I. c #BDEFD7",
"U. c #CCCBCB",
"Y. c #C4C1C1",
"T. c #FFEDC1",
"R. c #E9E9E9",
"E. c #F4F6F5",
/* pixels */
"                                                                ",
"                      v D S c                                   ",
"                    S | F S D S M D D M w                       ",
"                  D  . .H S S D D S S D D c                     ",
"                S  . .| F S S D S S S D S S x                   ",
"              v |  . .| D S S S S S S S S D M                   ",
"              H  . .| H S S S S D S S S S S D 2                 ",
"            x D F F F S S D S S S S S D S S S c                 ",
"            M S S S S S S S S D S S D S S S S M                 ",
"            C S S S S S S S S S S S S A A S S M                 ",
"          1 S S S S S D S S S D S M c m n c c c ;               ",
"          q S D S S S S S S S S S x M D D F D S M m x           ",
"o : 3 ; o % g g g g g g g g g a a < S S S D S D D D F A m ,     ",
"  , 2 x w - l l k k l l l l l l s n S S S S S S S S S D D S 1   ",
"  , 1 x w * l k k k k k k l k a n D S S S S S S S S S S S D c   ",
"    2 2 5 * k k k k k k d s g M D S S S D S S S S D S D S S c   ",
"      x w = p p p p * f j M D S S S S S S C C C C C M M m x :   ",
"        2 x x h h h c b v v x x x x x 2 h 2 6 w 6 1 1 , : o     ",
"          . + @ ; 5 ) ) t O + O X 4 _ X.&.X.=.-.;.E             ",
"          e K K 9 L D.H.*.4 J ] [ $.F.K.G.N.w.e.V.n.            ",
"          L &.z.A.v.H.K.J.3.t.c.E.g.C.H.G.D.e.8.w.S.E           ",
"          y ` u.c.B.L.T.H.v.u.@.I.n.D.G.H.V.q.q.m.g.            ",
"            ~ l.Z.J.H.H.G.B.g.x.l.k.D.m.w.q.6.9.f.(             ",
"              1.0.m.4.2.9.e.0.7.5.h.j.7.6.,.U K                 ",
"                } :.<.<.,.<.:.%.#.{ P P P                       ",
"                    b z &.X...s.r.m 6 3                         ",
"                  c v M W b ) ' Q S C S M                       ",
"                x S m S V ^ 2 c S C M S D m                     ",
"                m S m S V U.a.= j M x M S S c                   ",
"                S C c S V U.R.V - h m 2 c C C                   ",
"                S C x S M Y.E./ n - < 2 2 S S m                 ",
"              m S C 6 M x i.s.Z m 6 $ $ 1 M M x                 ",
"              2 m m : : : ^ d.W 3 3 $ p C | ! B                 ",
"              ; v H b 8 q W p.R 5 r ; & 5 c L V                 ",
"              1 2 q > r u 9 u u 9 9 > # 0 7 >                   ",
"              7 7 , , u u u u 9 9 N ( # r 9 9 #                 ",
"              7 0 ; d f r 0 # # 7 e y # 9 9 0 +                 ",
"              7 0 7 f d * X     + 7 # + # 7 7                   ",
"              + # u u 8 b R       # 9 7 + .                     ",
"                + u u 0 [ d.      7 u u 9                       ",
"                0 u u 0 9 i.      7 9 u 9                       ",
"                u T T Y 7         u Y Y Y                       ",
"                9 i i u           9 Y Y i                       ",
"                  6 c ,           @ q w ,                       ",
"          1 c m v v m c           2 c m m c m h                 ",
"        3 M D S M m m m 6         c m m m M D S x               ",
"        x M M m v v v m x       , n v c m m M M m ,             ",
"        3 1 1 3 3 : , 1 :       o 3 3 , , 1 1 1 2 ;             "
};
