/* XPM */
static char *idle__rev__0031666807395[] = {
/* columns rows colors chars-per-pixel */
"32 48 170 2 ",
"   c None",
".  c #0C0C0C",
"X  c #130D0D",
"o  c #14100F",
"O  c #150F10",
"+  c #151414",
"@  c #1D1212",
"#  c #1C1C1C",
"$  c #2B0707",
"%  c #240B0B",
"&  c #2D0C0C",
"*  c #3B0303",
"=  c #360A0A",
"-  c #3A0A0A",
";  c #231212",
":  c #2C1616",
">  c #211D1D",
",  c #2D1919",
"<  c #241C14",
"1  c #341010",
"2  c #3D1515",
"3  c #341B1B",
"4  c #3B1E1E",
"5  c #361B17",
"6  c #20201E",
"7  c #3C201F",
"8  c #242424",
"9  c #2C2222",
"0  c #2C2C2C",
"q  c #2F2B23",
"w  c #332222",
"e  c #3D2121",
"r  c #332828",
"t  c #332F27",
"y  c #363125",
"u  c #323232",
"i  c #3D3C3C",
"p  c #420404",
"a  c #4F0707",
"s  c #4E0B0B",
"d  c #5C0101",
"f  c #500909",
"g  c #570101",
"h  c #431313",
"j  c #441B1B",
"k  c #4D1818",
"l  c #501F1F",
"z  c #640000",
"x  c #690000",
"c  c #442323",
"v  c #4A2525",
"b  c #4E2929",
"n  c #462A28",
"m  c #542424",
"M  c #532A2A",
"N  c #5C2E2E",
"B  c #4E3E22",
"V  c #5A2E30",
"C  c #433B3B",
"Z  c #4E3A3A",
"A  c #5F3030",
"S  c #5F3B3B",
"D  c #602F30",
"F  c #663333",
"G  c #693535",
"H  c #6F3838",
"J  c #763C3C",
"K  c #7C3F3F",
"L  c #4C4021",
"P  c #5C4C27",
"I  c #494230",
"U  c #524830",
"Y  c #59503A",
"T  c #66453F",
"R  c #6D5534",
"E  c #434343",
"W  c #484848",
"Q  c #564747",
"!  c #4A5245",
"~  c #5C5441",
"^  c #545252",
"/  c #5D5B5A",
"(  c #61494A",
")  c #794B4B",
"_  c #685743",
"`  c #6A5A5A",
"'  c #795A5A",
"]  c #6F6242",
"[  c #6E685A",
"{  c #756A50",
"}  c #72705B",
"|  c #766A69",
" . c #7A7878",
".. c #836D3A",
"X. c #844444",
"o. c #894747",
"O. c #8A4848",
"+. c #837558",
"@. c #847B65",
"#. c #B97967",
"$. c #9F8343",
"%. c #A28441",
"&. c #B69549",
"*. c #AB925A",
"=. c #9F8C6A",
"-. c #928873",
";. c #A28E68",
":. c #AE9967",
">. c #AD9B75",
",. c #B5A075",
"<. c #C09D4F",
"1. c #C09F53",
"2. c #C6A457",
"3. c #DAB45C",
"4. c #C3A560",
"5. c #DDB567",
"6. c #C2A973",
"7. c #DABB72",
"8. c #E6BC64",
"9. c #F7BD6C",
"0. c #F8AC7D",
"q. c #EAC46C",
"w. c #F8CC66",
"e. c #FFD46D",
"r. c #E8C471",
"t. c #FFD672",
"y. c #FFDA7D",
"u. c #748C80",
"i. c #6FBC86",
"p. c #49C185",
"a. c #69C495",
"s. c #8F8F8F",
"d. c #86B98C",
"f. c #A6A49D",
"g. c #A5A5A5",
"h. c #B0A8AA",
"j. c #B3B2B2",
"k. c #BAB4B4",
"l. c #BEBBBB",
"z. c #E59C8C",
"x. c #CBB584",
"c. c #D7A799",
"v. c #CAB6A0",
"b. c #96C09A",
"n. c #92D5AD",
"m. c #DBC48F",
"M. c #D4C498",
"N. c #E5C787",
"B. c #FEDA83",
"V. c #F9D58A",
"C. c #E4CD97",
"Z. c #E8CB9B",
"A. c #ECD59E",
"S. c #EDD297",
"D. c #F7DC9D",
"F. c #FADD99",
"G. c #FFE097",
"H. c #C2C5A1",
"J. c #D3C7AC",
"K. c #FFC5AB",
"L. c #F5DEA6",
"P. c #FBE1A3",
"I. c #FDE5AB",
"U. c #FFE8AE",
"Y. c #FFEBB3",
"T. c #9DE8C4",
"R. c #C4E0CD",
"E. c #FFEEC4",
"W. c #EEFDF7",
"Q. c #F7F8F8",
/* pixels */
"                        , 4                                     ",
"                      b G H D j     4                           ",
"                    F X.J F G G F G H F M                       ",
"                  F o.o.) F F F G F F F G F                     ",
"                M o.o.o.J G F F F F F F F G M                   ",
"              e X.o.o.o.J F F F F F F F F F F 4                 ",
"              A X.X.X.J F F F F F F G F F F G M                 ",
"            3 F G G F F F F F F F F F F F F F D                 ",
"            v G F F F F F F F F F F F F F F F F 3               ",
"            M F F F G F F F G F F F F N N N F F 4               ",
"            N F F F F F F F F F F N v M M M m v 3               ",
"  X       @ N A F A A A N F N N D v M G G G H G F N b 4         ",
"  : 4 3 : % s s s s s f f f f f a - N F G F F F F F H G N c     ",
"  : 3 c c 1 z x x x x x x x x x d l F F F F F F F F F F G G c   ",
"    3 3 c 1 d z z z z z z z z a m F F F F F F F F F F F F F N   ",
"    3 c 3 1 d z z z z d d s k N G G F F F F G F F F F F F F M ; ",
"      3 c 5 = * * * - h v N F F F F A A D A A N N N N M b c 3   ",
"        ; 4 c c c c v v c c e c 4 4 4 7 7 7 e e e 3 , , ; ;     ",
"            o + X < } ;._ X X O o < +.>.>.;.,.6.x.-.            ",
"            ~ } / Y A.Y.m.U ! u.g.:.F.U.I.Z.V.e.B.L.[           ",
"            +.d.R.C.U.Y.U.N.i.a.W.J.V.U.I.L.B.e.t.P.@.          ",
"            _ d.n.A.Y.E.Y.S.b.p.T.J.D.U.U.G.t.e.B.C.~           ",
"            ( c.M.L.I.L.L.P.m.H.v.z.K.B.y.t.8.7.6.}             ",
"              #.5.y.r.4.q.t.t.w.9.0.0.8.3.3...t                 ",
"                P $.1.<.2.2.&.*.=.R B B                         ",
"                    3 5 | -.%.g.h.V c 4                         ",
"                  M M D Q n R ` _ D N F F 4                     ",
"                  D M F N | n j D F N F F N                     ",
"                N F b F V l.k.h j D v M F F b                   ",
"                D D v F M k.Q.( = j M 4 c D F                   ",
"                F F c F M j.Q.' m - 2 4 3 D G M                 ",
"                D N 7 M c  .g.Q M c $ $ 5 N N v                 ",
"              : N F 4 , : ` j./ : 3 $ p D X.) C                 ",
"              ; n J b 9 9 ^ s.^ 9 r ; % w c G Z                 ",
"              ; 3 3 > u u u u u u 0 6 # 0 8 >                   ",
"              6 8 > , u u u u 0 0 I ] 6 0 0 0 +                 ",
"              > 0 ; d h 0 0 # + 8 q t # 0 0 8                   ",
"              # 8 8 j d p X     + 8 # + + 8 8                   ",
"                + u u 3 n ^       # 0 0 # .                     ",
"                  u u 8  .j.      # u u 0                       ",
"                8 u u 0 0 s.      8 u 0 0                       ",
"                u W W E #         0 E E E                       ",
"                0 i C u           0 E W i                       ",
"                  e n ,           @ w e ,                       ",
"          3 m M v b M v           3 b M M v M 4                 ",
"        : N F F N M M M 4         v M M M N F F c               ",
"        c N N M b v b M c       , b M v M M N N N :             ",
"        : 3 3 3 3 : : 3 :       % , 3 : : 3 3 4 3 ;             "
};
