/* XPM */
static char *Idle__0021666799401[] = {
/* columns rows colors chars-per-pixel */
"32 48 168 2 ",
"   c None",
".  c #0B0B0B",
"X  c #150D0D",
"o  c #1D0F0F",
"O  c #12110F",
"+  c #130F10",
"@  c #151313",
"#  c #1C1111",
"$  c #171818",
"%  c #1C1D1D",
"&  c #240D0D",
"*  c #2A0909",
"=  c #390606",
"-  c #3A0C0C",
";  c #350909",
":  c #251313",
">  c #2C1616",
",  c #2D1A1A",
"<  c #241D18",
"1  c #331515",
"2  c #331A1A",
"3  c #3B1E1E",
"4  c #381615",
"5  c #22211F",
"6  c #2F2A1E",
"7  c #242424",
"8  c #2C2323",
"9  c #2D2A24",
"0  c #2C2C2C",
"q  c #342222",
"w  c #3D2221",
"e  c #332828",
"r  c #323232",
"t  c #3D3C3C",
"y  c #410404",
"u  c #4B0707",
"i  c #4E0808",
"p  c #540505",
"a  c #5C0000",
"s  c #520808",
"d  c #421515",
"f  c #421C1C",
"g  c #4E1B1B",
"h  c #660000",
"j  c #690000",
"k  c #42351C",
"l  c #432323",
"z  c #4A2526",
"x  c #452B29",
"c  c #4E2828",
"v  c #412926",
"b  c #502121",
"n  c #532A2A",
"m  c #5B2E2E",
"M  c #5F2F30",
"N  c #443B3B",
"B  c #4E3A3A",
"V  c #5F3131",
"C  c #5D3939",
"Z  c #663333",
"A  c #6A3535",
"S  c #6E3939",
"D  c #733B3B",
"F  c #7B3F3F",
"G  c #4C4434",
"H  c #624B38",
"J  c #655034",
"K  c #434343",
"L  c #484848",
"P  c #5C4444",
"I  c #524E4E",
"U  c #535A48",
"Y  c #535151",
"T  c #7C4040",
"R  c #7A4C4C",
"E  c #645A45",
"W  c #625E5E",
"Q  c #6A5857",
"!  c #705454",
"~  c #6E6041",
"^  c #706343",
"/  c #7A6F53",
"(  c #7E7156",
")  c #6E6161",
"_  c #7D6060",
"`  c #736B6B",
"'  c #777B78",
"]  c #8A723B",
"[  c #834343",
"{  c #894747",
"}  c #8A4848",
"|  c #857659",
" . c #827355",
".. c #AB6D5F",
"X. c #837E67",
"o. c #AD8C43",
"O. c #AE9049",
"+. c #B09049",
"@. c #A28B57",
"#. c #B79955",
"$. c #978C71",
"%. c #A1916D",
"&. c #AF9975",
"*. c #B29F76",
"=. c #BCA77C",
"-. c #B7A47B",
";. c #CFAA57",
":. c #C8A55D",
">. c #D8B25A",
",. c #D0B26C",
"<. c #CAB27B",
"1. c #E3B963",
"2. c #EEAA76",
"3. c #F6AA79",
"4. c #E8C168",
"5. c #F8C767",
"6. c #FFD46D",
"7. c #EFC870",
"8. c #FED572",
"9. c #FFD97B",
"0. c #749686",
"q. c #4EBA82",
"w. c #5AC690",
"e. c #8D8D8D",
"r. c #9A9282",
"t. c #A89C82",
"y. c #A39F93",
"u. c #82AF81",
"i. c #90AE8B",
"p. c #80BD88",
"a. c #A8BF99",
"s. c #AFA9A9",
"d. c #A4A5A5",
"f. c #B5B4B4",
"g. c #BFBABC",
"h. c #D89C90",
"j. c #E4988A",
"k. c #D3BC87",
"l. c #CCB69B",
"z. c #FFBEAA",
"x. c #8BD4AC",
"c. c #8FE4BA",
"v. c #C8C197",
"b. c #DAC39B",
"n. c #EDCF88",
"m. c #E5C98B",
"M. c #F3D18C",
"N. c #FED68A",
"B. c #E6CE9B",
"V. c #E9D39D",
"C. c #E6D29E",
"Z. c #F6D890",
"A. c #F4DA9D",
"S. c #F2D698",
"D. c #FFE19C",
"F. c #D0C7B0",
"G. c #F3DBA1",
"H. c #FBE3A7",
"J. c #FEE6AC",
"K. c #FFE9AE",
"L. c #FFEBB2",
"P. c #FFEAB9",
"I. c #B2E0C7",
"U. c #C7C2C2",
"Y. c #DAD4C2",
"T. c #FFEEC3",
"R. c #DDF8EB",
"E. c #FBFCFC",
/* pixels */
"                                  2 l ,                         ",
"                          l 3   z Z A S c                       ",
"                    3 M A A A A A Z A [ { m                     ",
"                  3 Z A Z Z A Z Z Z A T { { V                   ",
"                  M Z Z Z Z Z Z Z Z Z F { { { c                 ",
"                z Z Z Z Z Z Z Z Z A Z D { { { F 3               ",
"                m Z Z Z A Z A Z Z Z Z A F [ [ [ n               ",
"              2 Z Z Z Z Z Z Z Z Z Z Z Z Z Z Z A Z >             ",
"              3 A Z Z A Z Z Z Z Z Z Z Z Z Z Z Z Z l             ",
"              l Z m m m m M Z Z Z Z Z Z Z A Z Z Z z             ",
"              3 z n n m n z M Z A Z Z Z Z Z Z Z A n             ",
"        w n Z A A A A A A z n m m m m m m m m m m n       o X   ",
"    z V A A A Z Z Z Z Z Z n - p p p s s s s s s s u & 2 3 2 :   ",
"  c A Z Z Z Z Z Z Z Z A Z A g a j j j j j j j j j a 1 l l 2 :   ",
"> Z Z Z Z Z Z Z Z Z Z Z Z Z A b i a j j j h h h h a 1 l 3 3     ",
": m Z Z Z Z Z Z Z Z Z Z Z Z Z A M g i a a a a a h u : 3 l       ",
"  2 z n c m n m m M m V M M M M M Z M z d - ; = = - 3 z :       ",
"    # : > > 3 v w w w w 3 3 3 3 3 3 3 l x x l l l w 2           ",
"            t.k.<.=.*.=.t.| < @ @ + X | *.( @ X @ O             ",
"          X.H.9.6.M.V.K.L.N.*.f.0.U ~ V.L.C.H ' X.E             ",
"          $.H.6.6.N.H.K.J.n.Y.R.q.p.S.K.P.J.C.I.u.(             ",
"          ~ V.9.6.8.D.J.J.S.F.c.w.a.A.L.T.L.C.x.i.G             ",
"            / <.,.4.6.9.N.z.j.l.v.m.D.A.G.H.A.b.h.              ",
"                6 ] ;.>.1.2.3.5.5.6.6.4.:.7.8.:...              ",
"                        k k J %.@.o.#.#.O.O.]                   ",
"                        3 z V g.y.o.r.) 1 3                     ",
"                    3 Z Z m Z ! ) H x P Z n n                   ",
"                    V Z Z n Z m f n ` c Z n Z                   ",
"                  n Z Z c z Z d f U.s.n Z n Z n                 ",
"                  Z V l 3 m 4 ; Q E.s.n Z l Z m                 ",
"                n Z m 3 w 4 - n _ E.s.m Z l Z Z                 ",
"                z m m 4 * * l n P d.` l c w m Z                 ",
"                N R [ M y * 2 1 Y g.) , < w D M                 ",
"                B C w q & : q 8 I e.Y 8 8 z S z #               ",
"                  < 7 0 % 5 0 r r r r r r 5 , 8 +               ",
"                $ 0 0 0 7 ^ G 0 e 0 r r r , , 7 %               ",
"                  7 0 0 % 9 9 7 $ $ 0 e d p > 7 %               ",
"                  5 7 $ @ $ 5 @     X y h d 7 7 $               ",
"                    . $ 0 0 %       I x , r r @                 ",
"                      0 r r 5       f.' 0 r r                   ",
"                      0 r 0 7       e.0 0 0 r 7                 ",
"                      K K K 0         7 K L L r                 ",
"                      t K K 0           r N t 0                 ",
"                      , v w @           , l w                   ",
"                w n c c n c 2           z n n z n n 2           ",
"              l Z Z m n n n z         3 n n n n Z Z m >         ",
"            > n m m n n c c c >       l n c c n n m m l         ",
"            & 3 3 2 2 > > 2 2 #       : 2 > 1 , 2 2 2 ,         "
};
