/* XPM */
static char *idle__rev__0081666807396[] = {
/* columns rows colors chars-per-pixel */
"32 48 168 2 ",
"   c None",
".  c #0B0B0B",
"X  c #150D0D",
"o  c #1D0F0F",
"O  c #12110F",
"+  c #130F10",
"@  c #151313",
"#  c #1C1111",
"$  c #171818",
"%  c #1C1D1D",
"&  c #240D0D",
"*  c #2A0909",
"=  c #390606",
"-  c #3A0C0C",
";  c #350909",
":  c #251313",
">  c #2C1616",
",  c #2D1A1A",
"<  c #241D18",
"1  c #331515",
"2  c #331A1A",
"3  c #3B1E1E",
"4  c #381615",
"5  c #22211F",
"6  c #2F2A1E",
"7  c #242424",
"8  c #2C2323",
"9  c #2D2A24",
"0  c #2C2C2C",
"q  c #342222",
"w  c #3D2221",
"e  c #332828",
"r  c #323232",
"t  c #3D3C3C",
"y  c #410404",
"u  c #4B0707",
"i  c #4E0808",
"p  c #540505",
"a  c #5C0000",
"s  c #520808",
"d  c #421515",
"f  c #421C1C",
"g  c #4E1B1B",
"h  c #660000",
"j  c #690000",
"k  c #42351C",
"l  c #432323",
"z  c #4A2526",
"x  c #452B29",
"c  c #4E2828",
"v  c #412926",
"b  c #502121",
"n  c #532A2A",
"m  c #5B2E2E",
"M  c #5F2F30",
"N  c #443B3B",
"B  c #4E3A3A",
"V  c #5F3131",
"C  c #5D3939",
"Z  c #663333",
"A  c #6A3535",
"S  c #6E3939",
"D  c #733B3B",
"F  c #7B3F3F",
"G  c #4C4434",
"H  c #624B38",
"J  c #655034",
"K  c #434343",
"L  c #484848",
"P  c #5C4444",
"I  c #524E4E",
"U  c #535A48",
"Y  c #535151",
"T  c #7C4040",
"R  c #7A4C4C",
"E  c #645A45",
"W  c #625E5E",
"Q  c #6A5857",
"!  c #705454",
"~  c #6E6041",
"^  c #706343",
"/  c #7A6F53",
"(  c #7E7156",
")  c #6E6161",
"_  c #7D6060",
"`  c #736B6B",
"'  c #777B78",
"]  c #8A723B",
"[  c #834343",
"{  c #894747",
"}  c #8A4848",
"|  c #857659",
" . c #827355",
".. c #AB6D5F",
"X. c #837E67",
"o. c #AD8C43",
"O. c #AE9049",
"+. c #B09049",
"@. c #A28B57",
"#. c #B79955",
"$. c #978C71",
"%. c #A1916D",
"&. c #AF9975",
"*. c #B29F76",
"=. c #BCA77C",
"-. c #B7A47B",
";. c #CFAA57",
":. c #C8A55D",
">. c #D8B25A",
",. c #D0B26C",
"<. c #CAB27B",
"1. c #E3B963",
"2. c #EEAA76",
"3. c #F6AA79",
"4. c #E8C168",
"5. c #F8C767",
"6. c #FFD46D",
"7. c #EFC870",
"8. c #FED572",
"9. c #FFD97B",
"0. c #749686",
"q. c #4EBA82",
"w. c #5AC690",
"e. c #8D8D8D",
"r. c #9A9282",
"t. c #A89C82",
"y. c #A39F93",
"u. c #82AF81",
"i. c #90AE8B",
"p. c #80BD88",
"a. c #A8BF99",
"s. c #AFA9A9",
"d. c #A4A5A5",
"f. c #B5B4B4",
"g. c #BFBABC",
"h. c #D89C90",
"j. c #E4988A",
"k. c #D3BC87",
"l. c #CCB69B",
"z. c #FFBEAA",
"x. c #8BD4AC",
"c. c #8FE4BA",
"v. c #C8C197",
"b. c #DAC39B",
"n. c #EDCF88",
"m. c #E5C98B",
"M. c #F3D18C",
"N. c #FED68A",
"B. c #E6CE9B",
"V. c #E9D39D",
"C. c #E6D29E",
"Z. c #F6D890",
"A. c #F4DA9D",
"S. c #F2D698",
"D. c #FFE19C",
"F. c #D0C7B0",
"G. c #F3DBA1",
"H. c #FBE3A7",
"J. c #FEE6AC",
"K. c #FFE9AE",
"L. c #FFEBB2",
"P. c #FFEAB9",
"I. c #B2E0C7",
"U. c #C7C2C2",
"Y. c #DAD4C2",
"T. c #FFEEC3",
"R. c #DDF8EB",
"E. c #FBFCFC",
/* pixels */
"                        , l 2                                   ",
"                      c S S Z z   2 l                           ",
"                    Z [ [ A Z S A A S A m 3                     ",
"                  V [ } F Z Z Z Z Z Z Z A Z 3                   ",
"                n [ } } F Z Z Z Z Z Z Z Z A M                   ",
"              2 T { { { D A Z Z Z Z Z Z Z Z Z l                 ",
"              n [ [ T F Z Z Z Z Z Z Z Z Z Z Z m                 ",
"            > Z A A Z Z Z Z Z Z Z A Z Z Z Z A Z 2               ",
"            l Z Z Z Z Z Z Z Z Z Z Z Z Z Z Z Z Z 3               ",
"            c Z Z Z Z Z Z Z Z A Z Z Z m m m Z Z l               ",
"            n A A Z Z Z Z Z Z Z Z Z z n n n n b 3               ",
"  X o       n m m m m m m m m m m z c A A A A A A Z n w         ",
"  > 2 3 2 & u s s s s s s s p p p - n Z Z Z Z Z Z A A A Z z     ",
"  : 2 l l 1 a j j j j j j j j j a g Z Z Z Z Z Z Z Z Z Z Z A c   ",
"    2 3 l 1 a h j h h h j h a p b A Z Z Z Z Z Z Z Z Z Z Z Z Z > ",
"      l 2 > p a h a a a a i g m A Z Z Z S Z Z Z Z Z Z A Z Z n : ",
"      > l 3 - = = = - d b m Z Z M m Z m m m m m m n n n c z 2   ",
"          2 w l l l z v v 3 3 3 3 3 3 w w w w v v q > > : o     ",
"            . + O O  .-.| O X # @ <  .=.=.&.=.<.k.t.            ",
"            U $.' J B.L.V.~ U e.f.*.Z.L.K.B.N.8.8.H.$.          ",
"            ( u.I.C.K.P.K.M.w.q.R.Y.n.J.J.G.N.6.6.D.$.          ",
"            G i.x.C.L.T.L.A.a.w.c.F.S.J.J.D.8.6.N.V.E           ",
"              h.b.A.H.G.A.D.m.v.l.j.z.N.9.8.1.,.<./             ",
"              ..:.8.7.:.4.8.8.5.5.3.2.1.>.;.] 6                 ",
"                  ] O.O.#.#.o.@.%.J k k                         ",
"                    3 1 ) r.o.y.g.V z 3                         ",
"                  n n M P x H ) ! Z V Z Z l                     ",
"                  Z n Z n ` n f m Z n Z Z V                     ",
"                n Z n Z n f.U.f d V z c M Z n                   ",
"                m Z l Z n s.E.! ; f m 3 w V Z                   ",
"                Z Z z Z m s.E.! n - 4 3 2 V Z n                 ",
"                V m 3 c l ` d.P n z * * 2 m V z                 ",
"                m D l > > W f.W , 2 * y m [ R N                 ",
"              : z S x 8 8 Y e.Y 8 q : & 2 l C B                 ",
"              + , , 7 r r r r r r 0 5 % 0 7 5                   ",
"              % 7 , , r r r 0 0 0 G ^ 5 0 0 0 $                 ",
"              % 7 : a d e 0 $ $ 7 6 7 % 0 0 7                   ",
"              $ 7 8 d a y X     $ 7 % @ $ 7 7                   ",
"                $ r r 2 v I       % 0 0 $ .                     ",
"                  r r 0 ' f.      % r r 0                       ",
"                7 r r 7 0 e.      7 r 0 0                       ",
"                r L L K 7         0 K K K                       ",
"                0 t t r           0 K L t                       ",
"                  w z ,           # q w ,                       ",
"          2 z n z n n z           2 c n b c n 3                 ",
"        1 m A Z n c n n 3         z n n n m Z Z l               ",
"        l m M n n c c n l       > c n c n n m m n >             ",
"        , 2 2 2 > , > 2 >       & , , , , 2 2 3 3 :             "
};
