/* XPM */
static char *Idle__0051666799402[] = {
/* columns rows colors chars-per-pixel */
"32 48 168 2 ",
"   c None",
".  c gray5",
"X  c #150C0C",
"o  c #1D0F0F",
"O  c #170F10",
"+  c #151515",
"@  c #1C1111",
"#  c #1B1C1C",
"$  c #2B0606",
"%  c #2C0B0B",
"&  c #270909",
"*  c #3D0606",
"=  c #360B0B",
"-  c #3A0808",
";  c #241313",
":  c #2B1616",
">  c #231D1D",
",  c #2D1919",
"<  c #3B1616",
"1  c #331A1A",
"2  c #3A1E1E",
"3  c #31171A",
"4  c #2B261A",
"5  c #30231F",
"6  c #3E1F20",
"7  c #242424",
"8  c #2F2121",
"9  c #2C2C2C",
"0  c #272828",
"q  c #342222",
"w  c #3D2020",
"e  c #342F24",
"r  c #322C2C",
"t  c #3D2F26",
"y  c #3E382B",
"u  c #323232",
"i  c #3D3C3C",
"p  c #430202",
"a  c #490B0B",
"s  c #520303",
"d  c #5C0101",
"f  c #441313",
"g  c #4C1313",
"h  c #431C1C",
"j  c #4C1E1E",
"k  c #650000",
"l  c #680000",
"z  c #432E1F",
"x  c #442222",
"c  c #4B2626",
"v  c #4E2929",
"b  c #4A2A26",
"n  c #532424",
"m  c #532A2A",
"M  c #5B2E2E",
"N  c #433D2F",
"B  c #463939",
"V  c #553434",
"C  c #5F3030",
"Z  c #573D3D",
"A  c #602E2E",
"S  c #653333",
"D  c #6A3535",
"F  c #6F3838",
"G  c #623D3D",
"H  c #723A3A",
"J  c #3B443D",
"K  c #4C4535",
"L  c #5C533E",
"P  c #66532C",
"I  c #6B5E3F",
"U  c #756237",
"Y  c #434343",
"T  c #4A4944",
"R  c #534D4D",
"E  c #5F594C",
"W  c #585555",
"Q  c #6D4A4A",
"!  c #774A4A",
"~  c #765A4F",
"^  c #675B5B",
"/  c #725050",
"(  c #6B6149",
")  c #73624D",
"_  c #7B6A51",
"`  c #77735A",
"'  c #736363",
"]  c #68726E",
"[  c #7D7B78",
"{  c #85663B",
"}  c #8E753C",
"|  c #854545",
" . c #894747",
".. c #8F7843",
"X. c #8C7A5B",
"o. c #907D5F",
"O. c #917E60",
"+. c #857C72",
"@. c #3FBC7C",
"#. c #A88D55",
"$. c #AF965C",
"%. c #BEA05C",
"&. c #8F8564",
"*. c #998B68",
"=. c #A38E68",
"-. c #AC976A",
";. c #B1A07E",
":. c #C8A554",
">. c #D5AF59",
",. c #DCB55C",
"<. c #D6B059",
"1. c #D19276",
"2. c #C8AC6B",
"3. c #C5B077",
"4. c #DBBD77",
"5. c #F6B275",
"6. c #EBC266",
"7. c #F2C768",
"8. c #FFD26B",
"9. c #EDCA79",
"0. c #F2CB78",
"q. c #FED370",
"w. c #FED67A",
"e. c #FFD977",
"r. c #8D7F80",
"t. c #5DBA85",
"y. c #6ABF8B",
"u. c #6BC090",
"i. c #8C8A8A",
"p. c #979898",
"a. c #A19494",
"s. c #ABABAA",
"d. c #B2B2B2",
"f. c #CEB985",
"g. c #D2BE8F",
"h. c #FFA589",
"j. c #FDB881",
"k. c #E8A991",
"l. c #C9BAA8",
"z. c #9BCAA3",
"x. c #B2CFB0",
"c. c #B0D8B5",
"v. c #DCC68D",
"b. c #C9C09C",
"n. c #D4C39C",
"m. c #FFDD8A",
"M. c #FFD981",
"N. c #E6C896",
"B. c #F5DA9D",
"V. c #FFE193",
"C. c #FEE19D",
"Z. c #CBCAA1",
"A. c #CBCDBC",
"S. c #EDD7A3",
"D. c #FBD6A7",
"F. c #FBE2A4",
"G. c #FDE5AC",
"H. c #FFE8AE",
"J. c #F7E0A7",
"K. c #FFE9B0",
"L. c #FFEDBF",
"P. c #A7DCC1",
"I. c #BDEFD7",
"U. c #CCCBCB",
"Y. c #C4C1C1",
"T. c #FFEDC1",
"R. c #E9E9E9",
"E. c #F4F6F5",
/* pixels */
"                                                                ",
"                                  c S S v                       ",
"                      w M S D C S D D F | S                     ",
"                    c D D S S D S S S H |  .F                   ",
"                  w D S S S S S S S S H |  . .S                 ",
"                  M S S D S S S S D S D |  . . .v               ",
"                w S S S S S S D S S D S H |  . .H               ",
"                n D S S S S S S S S S S S D H D D x             ",
"                M S S S S S S S S S S S S S S S S M             ",
"                M S S S C S S S D S S S S S S D S C             ",
"              ; c v c n m c M S S S G S S D S S S S 1           ",
"          x m A S D D D D C x S S S S C S S S S S S 2           ",
"    , m S S F S S S S S S S < a a g g g g g g g g g % o : 1 ; o ",
"  1 S D S S S S S S D S S S n s l l l l l l l l k k - w x 2 ,   ",
"  c D S S S S S S S D S S S D n a k l k k k k k k k - w x 2 :   ",
"  c S S S S D S S S S S S S S D M g s d k k k k k k - 2 1 2     ",
"  : x m m M A A C C C S C S S S S S M j a * p p p p % x x       ",
"    @ : 1 1 2 5 w w 6 6 6 x x x c c c c c x z h h j x 1         ",
"            E ;.-.=.X.o.o._ , O X o o t ) ) 5 # @ @ .           ",
"            n.V.e.M.N.G.K.F.-.+.] J 4 *.H.F.L 9 T K e           ",
"          E S.e.8.w.D.J.K.B.v.E.P.t.3.F.H.H.v.A.z.&.L           ",
"            n.m.8.8.V.H.K.D.g.I.@.u.v.H.L.L.C.c.y.` y           ",
"            ( f.9.6.8.M.m.D.k.l.x.l.B.G.H.H.J.b.l.~             ",
"                K U ,.6.7.j.h.5.7.q.e.9.2.4.m.0.1.              ",
"                      P P P { #.:.:.<.,.<.<.:.}                 ",
"                        3 6 M +.s...X.+.z z                     ",
"                      M S M S Q ' ) b ^ C v c                   ",
"                    M S S M S C c 2 ^ v S m C x                 ",
"                  c S S M x C j = a.U.V S m S M                 ",
"                  C S c 2 m h - V R.U.V S c A S                 ",
"                m D S 2 2 < = n Q E.Y.m S x C S                 ",
"                x M m 3 $ $ 6 m Z s.i.b M w C S m               ",
"                B ! | M p $ 1 3 W s.^ , , : M m 6               ",
"                B G c q & ; q 5 R p.W q 7 c H c ;               ",
"                  , 7 0 # # 9 u u u u u u > 6 1 2               ",
"                # 9 9 9 4 ( N 9 9 u u u u , > 7 #               ",
"                + 0 9 9 # y e 7 # # 0 r f d ; 0 0               ",
"                  7 0 + + # # +     X p d f 7 0 7               ",
"                    . # 0 9 #       R b 1 u 9 # +               ",
"                      9 u u 7       d.[ 9 u u #                 ",
"                      9 u 9 7       i.9 9 u u 0                 ",
"                      Y Y Y 9         7 Y Y T u                 ",
"                      i Y Y 9           u B Y 9                 ",
"                      , x q @           , x q                   ",
"                z m c n m v 2           c m m c m m 1           ",
"              x C S C m m m c         2 m m m m S S M :         ",
"            : m A M m v c v v :       x m c m m m M M x         ",
"            ; 6 1 3 1 3 , 1 1 @       : 1 1 : : 1 1 1 1         "
};
