/* XPM */
static char *idle__rev__0041666807395[] = {
/* columns rows colors chars-per-pixel */
"32 48 173 2 ",
"   c None",
".  c #0C0C0C",
"X  c #140D0D",
"o  c #1A0D0D",
"O  c #151414",
"+  c #1B1111",
"@  c #1C1C1C",
"#  c #2B0707",
"$  c #250B0B",
"%  c #2C0909",
"&  c #3D0303",
"*  c #350B0B",
"=  c #251313",
"-  c #2C1616",
";  c #231D1C",
":  c #2D1919",
">  c #261D16",
",  c #3A1313",
"<  c #331A1A",
"1  c #3B1E1E",
"2  c #301212",
"3  c #3A241B",
"4  c #3F1F20",
"5  c #242424",
"6  c #2F2222",
"7  c #2C2C2C",
"8  c #332222",
"9  c #3D2121",
"0  c #322C2C",
"q  c #312D24",
"w  c #3B3427",
"e  c #323232",
"r  c #3D3C3C",
"t  c #430404",
"y  c #4E0D0D",
"u  c #4D0606",
"i  c #530303",
"p  c #5B0101",
"a  c #431212",
"s  c #4C1212",
"d  c #461B1B",
"f  c #4E1F1F",
"g  c #640000",
"h  c #690000",
"j  c #441F20",
"k  c #442323",
"l  c #4A2525",
"z  c #4E2929",
"x  c #472A26",
"c  c #522323",
"v  c #532A2A",
"b  c #5C2E2E",
"n  c #413B2D",
"m  c #463F30",
"M  c #463A3A",
"N  c #553030",
"B  c #5E3030",
"V  c #593F3F",
"C  c #653333",
"Z  c #6A3535",
"A  c #603C3C",
"S  c #753C3C",
"D  c #5A4A27",
"F  c #4F4234",
"G  c #584F3A",
"H  c #534B39",
"J  c #785C37",
"K  c #796435",
"L  c #434343",
"P  c #484848",
"I  c #424B42",
"U  c #534D4D",
"Y  c #58544A",
"T  c #525050",
"R  c #5A5858",
"E  c #5C5555",
"W  c #6E4F4A",
"Q  c #784B4B",
"!  c #675D4B",
"~  c #635858",
"^  c #755555",
"/  c #6D6248",
"(  c #70664D",
")  c #776A55",
"_  c #716162",
"`  c #777061",
"'  c #7F7670",
"]  c #7B7C7C",
"[  c #864545",
"{  c #894747",
"}  c #997E41",
"|  c #807055",
" . c #8B785C",
".. c #8B7F60",
"X. c #807C7C",
"o. c #3FBD7D",
"O. c #708078",
"+. c #BA994E",
"@. c #A38C5B",
"#. c #AE965F",
"$. c #B4995C",
"%. c #8E8165",
"&. c #9F8D6A",
"*. c #988365",
"=. c #AD986F",
"-. c #B7A06F",
";. c #B9A87E",
":. c #CDA956",
">. c #CAA757",
",. c #D3AE5B",
"<. c #DAB45C",
"1. c #C6856F",
"2. c #C4A865",
"3. c #D7BC7F",
"4. c #E5BE63",
"5. c #F7B870",
"6. c #F9B37E",
"7. c #EFC265",
"8. c #F5C967",
"9. c #FFD36C",
"0. c #E2C175",
"q. c #ECC571",
"w. c #FFD572",
"e. c #FFD876",
"r. c #FDD77F",
"t. c #FFDA7F",
"y. c #63BB85",
"u. c #76BC8C",
"i. c gray56",
"p. c #918E8B",
"a. c #999494",
"s. c #BEAC83",
"d. c #AAA7A6",
"f. c #AFB0B0",
"g. c #B7B6B6",
"h. c #CDB783",
"j. c #E6A28F",
"k. c #FEA684",
"l. c #C8B6A4",
"z. c #D2B2A1",
"x. c #C2BFBF",
"c. c #81C197",
"v. c #90C397",
"b. c #88D0AB",
"n. c #9ED6B1",
"m. c #BACAA9",
"M. c #D5C397",
"N. c #E2C98F",
"B. c #FFDE85",
"V. c #FFD88A",
"C. c #FCD682",
"Z. c #E7C998",
"A. c #E3CB92",
"S. c #FADF9F",
"D. c #F6DA9A",
"F. c #FFE095",
"G. c #CEC8A0",
"H. c #D2C2A1",
"J. c #FFCCAB",
"K. c #E6D3A5",
"L. c #F5DDA5",
"P. c #F9DFA2",
"I. c #FBE2A4",
"U. c #FDE5AB",
"Y. c #FFE8AE",
"T. c #FFEBB1",
"R. c #FFECBB",
"E. c #AEECCE",
"W. c #C6C5C5",
"Q. c #CCDACA",
"!. c #FFEDC3",
"~. c #EFF0F0",
"^. c #F6FAF9",
/* pixels */
"                          <                                     ",
"                      v Z Z v <                                 ",
"                    C [ S C Z Z C Z Z C l                       ",
"                  Z { { S C C C Z C C Z Z v                     ",
"                b { { { S C C C C C Z C C Z l                   ",
"              k [ { { [ Z C C C C C C C C C C <                 ",
"              Z { { [ S C C C Z C C C C C Z Z k                 ",
"            1 Z Z Z Z Z C C C C C Z C C C C C v                 ",
"            v C C C Z C C C Z C C C C Z C C C b                 ",
"            b C C C C C C C C C C C C B b C C C <               ",
"          - b C C C C C C C C C C b l v v c c l -               ",
"  X       - C C C C C C B C B C C k b Z Z Z Z Z C v l           ",
"o - < - = $ s s y s y y y y y y y , b C C C C C C Z Z Z v 1     ",
"  - 1 k 9 * g h h g h h h h h h i c C C C Z Z C C C C C Z Z 1   ",
"  = 1 1 k * p g g g g g g g g i c C C C C C C C C Z Z C C C v   ",
"    1 1 1 * g g g g g g p i d b Z C C C C C Z C C C C C C C v   ",
"      9 k 2 & & & & & a f b Z C C C C B B B B B B b b v v l -   ",
"        - k k k d l x k k x k k k d 4 1 3 9 4 9 9 < < : = +     ",
"            X O + ; )  .F X + X X > ) &.&.*.=.-.s.`             ",
"            G E L G I.Y.;.w I O.p.$.I.T.U.A.r.w.B.K.Y           ",
"          H ..v.Q.N.T.T.Y.3.y.b.^.M.D.U.U.I.r.9.e.L.)           ",
"            / u.n.D.R.!.T.M.c.o.E.H.I.T.U.F.e.w.B.M.            ",
"            W z.G.F.U.U.U.F.M.m.l.j.J.B.t.9.4.0.h.(             ",
"              1.q.t.3.2.q.e.9.8.5.k.k.8.7.,.K n                 ",
"                K +.>.>.,.>.+.$.@.J D D                         ",
"                    3 3 ' ..} d.a.v j <                         ",
"                  v z B E x ! _ W Z C C b                       ",
"                j C z C v _ d f B C v C Z b                     ",
"                b C v C b W.d., d B l v C C l                   ",
"                B B l C v x.~.V * d v 1 l B C                   ",
"                C B k C v g.^.^ c * , 1 1 b C v                 ",
"              v C B 4 b z X.d.V v j # % < b b k                 ",
"              : v B - : - R f.R - < % t B [ Q M                 ",
"              = z S z 6 4 R i.T 6 5 = $ 3 x A M                 ",
"              - 1 < ; e e e e e e 7 ; @ 7 5 ;                   ",
"              5 5 > : e e e e e 7 F / @ 7 7 7 O                 ",
"              5 7 = p a 7 7 @ O 5 7 w @ 7 7 5 O                 ",
"              @ 5 5 d p & X     O 5 @ O @ 5 5                   ",
"              O @ 7 e : x U       ; 7 7 O .                     ",
"                @ e e 7 ] f.      ; e e 7                       ",
"                5 e e 7 7 i.      5 e 7 7                       ",
"                e P P L @         e L L L                       ",
"                7 r M e           7 L L r                       ",
"                  4 x :           + 8 k :                       ",
"          < l v z v v k           1 l v z l v k                 ",
"        - b Z C v v v v 4         x v v v b C C k               ",
"        k b b v v z z v k       - c z v v v b b v -             ",
"        < < < < - - - < -       + - < - - < < < 1 =             "
};
