/* XPM */
static char *idle__rev__0091666807396[] = {
/* columns rows colors chars-per-pixel */
"32 48 167 2 ",
"   c None",
".  c #0D0D0D",
"X  c #140D0D",
"o  c #1B0E0E",
"O  c #151414",
"+  c #1B1312",
"@  c #1C1C1C",
"#  c #2A0909",
"$  c #230D0D",
"%  c #390B0B",
"&  c #350909",
"*  c #241313",
"=  c #2B1616",
"-  c #2D1919",
";  c #251E19",
":  c #3D1414",
">  c #341B1B",
",  c #3A1D1D",
"<  c #351717",
"1  c #20201F",
"2  c #2B261A",
"3  c #392C18",
"4  c #3E1F20",
"5  c #242423",
"6  c #2A2423",
"7  c #272828",
"8  c #2C2C2C",
"9  c #322222",
"0  c #3D2121",
"q  c #332828",
"w  c #3B3429",
"e  c #323232",
"r  c #3D3C3C",
"t  c #430303",
"y  c #4E0808",
"u  c #560404",
"i  c #5B0101",
"p  c #441313",
"a  c #411919",
"s  c #4E1B1B",
"d  c #670000",
"f  c #680000",
"g  c #442323",
"h  c #4B2626",
"j  c #452926",
"k  c #452C2A",
"l  c #4E2828",
"z  c #502424",
"x  c #542A2A",
"c  c #5B2E2E",
"v  c #4C3A3A",
"b  c #403D3D",
"n  c #5F3030",
"m  c #5B3838",
"M  c #573637",
"N  c #602F2F",
"B  c #663333",
"V  c #6A3535",
"C  c #643D3E",
"Z  c #753C3C",
"A  c #7A3F3F",
"S  c #494336",
"D  c #5B4130",
"F  c #615039",
"G  c #715D30",
"H  c #434343",
"J  c #4C4B4B",
"K  c #5C4343",
"L  c #524E4E",
"P  c #7D4747",
"I  c #675D47",
"U  c #6D5C5B",
"Y  c #64595A",
"T  c #715656",
"R  c #5F624B",
"E  c #72654B",
"W  c #746A52",
"Q  c #7F7254",
"!  c #686363",
"~  c #756B6B",
"^  c #7B7C7C",
"/  c #91783F",
"(  c #844444",
")  c #8A4747",
"_  c #8B4848",
"`  c #9A7F41",
"'  c #8C7B55",
"]  c #816666",
"[  c #3AB375",
"{  c #9E8141",
"}  c #9B8553",
"|  c #AC8B41",
" . c #A88A4E",
".. c #AD9358",
"X. c #B79353",
"o. c #8A8869",
"O. c #9B9179",
"+. c #A2926E",
"@. c #A6997B",
"#. c #80A578",
"$. c #BBA47D",
"%. c #C9A658",
"&. c #D0AC57",
"*. c #DCB05F",
"=. c #C5A866",
"-. c #C4AD7C",
";. c #D5BA7B",
":. c #E6BE64",
">. c #E8A671",
",. c #F1AB73",
"<. c #F3CB6D",
"1. c #F7C865",
"2. c #FFD36D",
"3. c #FFD672",
"4. c #FFDA7A",
"5. c #719E88",
"6. c #6FCB9D",
"7. c gray56",
"8. c #858686",
"9. c #89948B",
"0. c #A29A87",
"q. c #A09A90",
"w. c #96A284",
"e. c #92BD89",
"r. c #B8AA8A",
"t. c #BEB08F",
"y. c #B8BE97",
"u. c #A5A1A1",
"i. c #AAA5A5",
"p. c #B6B6B6",
"a. c #D79288",
"s. c #E49688",
"d. c #C6B386",
"f. c #CCB98A",
"g. c #CFB794",
"h. c #DFBE96",
"j. c #FFB7A7",
"k. c #8DD3AC",
"l. c #9BDBBA",
"z. c #84E0B3",
"x. c #DBC286",
"c. c #DAC591",
"v. c #EACC88",
"b. c #FFCF8B",
"n. c #F1CF8C",
"m. c #F2D287",
"M. c #EED59A",
"N. c #EED096",
"B. c #FBDB94",
"V. c #F5DA97",
"C. c #FEE199",
"Z. c #DFD1A0",
"A. c #CFC9B6",
"S. c #E7D6A9",
"D. c #EDD2A0",
"F. c #FCE2A3",
"G. c #F7E0A8",
"H. c #FEE6AB",
"J. c #FFE9AE",
"K. c #FFEBB2",
"L. c #FFECBD",
"P. c #C8C7C9",
"I. c #D1CECE",
"U. c #DEDED3",
"Y. c #C6EED9",
"T. c #FFEDC0",
"R. c #FDFEFE",
/* pixels */
"                        - h 0                                   ",
"                      h Z V V c , , g 0                         ",
"                    c ( ( V B V V V V V B g                     ",
"                  c ) ) ( V B B V B B V B V h                   ",
"                h ( ) ) ( B B B B B V B B B B >                 ",
"                Z ) ) ) Z B B B B B B B B B B x                 ",
"              h A ( ( Z B B B B B B B B B B B B =               ",
"              n B B B B B B B B B B B B B B B B 0               ",
"            , B B B B B B B B B B B B N B B B B h               ",
"            h B B B B B B B B B B B N c c c c N h               ",
"            x B B B B V B B B B V B h c c c c x g +             ",
"  o + o     g c c x c x c x c c x x g B B B V V V B c g         ",
"  * > a 4 * t u u u u u u u u u i t h V B V B B B B B V B x     ",
"    > 0 g > u f f f d d f f f f i s B B B B B B B B B B B V c   ",
"    > > 0 > u f f f f d f d i y s V B B B B B B B B B B B B B > ",
"      g 4 = t i i i i i u y s B V B B B B B V B V B B B B B c - ",
"        g g : % & & : a l c B c B n c c n c c c c x x x l h > X ",
"          * > 0 g g g j g , > , > > 3 0 0 0 0 k k q ; = * o     ",
"            O + O . Q d.+.+ . O + ; Q d.d.$.-.;.x.t.S           ",
"            I o.9.E c.K.G.' R 5.P.r.n.K.K.M.n.2.2.F.O.          ",
"            W #.l.S.H.L.J.V.e.[ Y.U.v.G.H.H.B.2.2.C.@.          ",
"            w w.k.Z.K.T.K.G.y.6.z.A.N.H.H.B.3.2.4.M.W           ",
"              a.h.V.F.M.N.C.n.f.g.s.j.b.4.3.:.=.-.Q             ",
"                X.<.<.%.<.2.2.1.1.,.>.*.&.%./ 2                 ",
"                  G ` {  ...| } @.F 3                           ",
"                    4 < Y q.| 0.P.C h 0                         ",
"                  x x c C k D U T B c B B g                     ",
"                  B x B x ~ M , c B x B B B                     ",
"                x B x B c i.I.h p B h h B B x                   ",
"                c B h B x q.R.T & : c , 0 n B                   ",
"                n B h B x i.R.~ c % : 4 > c B c                 ",
"                c c 4 l g ! u.K x g # # > c c h                 ",
"                c F h - = ! p.! = > # t c ( P v                 ",
"              * z V k 5 4 J 8.J 6 3 * $ - 0 m v                 ",
"              X 4 - 1 e e 8 e e e 8 6 @ 8 7 ;                   ",
"              @ 5 = - e e e e 8 8 S I 1 8 8 8 @                 ",
"              @ 7 * u p 8 7 @ O 5 6 6 @ 8 8 7                   ",
"              O 5 5 p u t X     O 5 @ O O 7 @                   ",
"                O 8 e 4 k L       1 8 8 @ .                     ",
"                  e e 7 ^ p.      @ e e 8                       ",
"                7 e 8 7 8 7.      5 8 e 8                       ",
"                e J J H 1         e H H H                       ",
"                8 r r e           8 H H r                       ",
"                  4 j -           + 9 0 -                       ",
"          > h x h x x h           > l x l g c a                 ",
"        < c B B c l x x 4         h x x x n B B g               ",
"        g c c x l l h x g       = l x l l x c c x =             ",
"        - > > > - = - > =       o > - - - > > , , *             "
};
