/* XPM */
static char *Idle__0061666799403[] = {
/* columns rows colors chars-per-pixel */
"32 48 173 2 ",
"   c None",
".  c #0C0C0C",
"X  c #140D0D",
"o  c #1A0D0D",
"O  c #151414",
"+  c #1B1111",
"@  c #1C1C1C",
"#  c #2B0707",
"$  c #250B0B",
"%  c #2C0909",
"&  c #3D0303",
"*  c #350B0B",
"=  c #251313",
"-  c #2C1616",
";  c #231D1C",
":  c #2D1919",
">  c #261D16",
",  c #3A1313",
"<  c #331A1A",
"1  c #3B1E1E",
"2  c #301212",
"3  c #3A241B",
"4  c #3F1F20",
"5  c #242424",
"6  c #2F2222",
"7  c #2C2C2C",
"8  c #332222",
"9  c #3D2121",
"0  c #322C2C",
"q  c #312D24",
"w  c #3B3427",
"e  c #323232",
"r  c #3D3C3C",
"t  c #430404",
"y  c #4E0D0D",
"u  c #4D0606",
"i  c #530303",
"p  c #5B0101",
"a  c #431212",
"s  c #4C1212",
"d  c #461B1B",
"f  c #4E1F1F",
"g  c #640000",
"h  c #690000",
"j  c #441F20",
"k  c #442323",
"l  c #4A2525",
"z  c #4E2929",
"x  c #472A26",
"c  c #522323",
"v  c #532A2A",
"b  c #5C2E2E",
"n  c #413B2D",
"m  c #463F30",
"M  c #463A3A",
"N  c #553030",
"B  c #5E3030",
"V  c #593F3F",
"C  c #653333",
"Z  c #6A3535",
"A  c #603C3C",
"S  c #753C3C",
"D  c #5A4A27",
"F  c #4F4234",
"G  c #584F3A",
"H  c #534B39",
"J  c #785C37",
"K  c #796435",
"L  c #434343",
"P  c #484848",
"I  c #424B42",
"U  c #534D4D",
"Y  c #58544A",
"T  c #525050",
"R  c #5A5858",
"E  c #5C5555",
"W  c #6E4F4A",
"Q  c #784B4B",
"!  c #675D4B",
"~  c #635858",
"^  c #755555",
"/  c #6D6248",
"(  c #70664D",
")  c #776A55",
"_  c #716162",
"`  c #777061",
"'  c #7F7670",
"]  c #7B7C7C",
"[  c #864545",
"{  c #894747",
"}  c #997E41",
"|  c #807055",
" . c #8B785C",
".. c #8B7F60",
"X. c #807C7C",
"o. c #3FBD7D",
"O. c #708078",
"+. c #BA994E",
"@. c #A38C5B",
"#. c #AE965F",
"$. c #B4995C",
"%. c #8E8165",
"&. c #9F8D6A",
"*. c #988365",
"=. c #AD986F",
"-. c #B7A06F",
";. c #B9A87E",
":. c #CDA956",
">. c #CAA757",
",. c #D3AE5B",
"<. c #DAB45C",
"1. c #C6856F",
"2. c #C4A865",
"3. c #D7BC7F",
"4. c #E5BE63",
"5. c #F7B870",
"6. c #F9B37E",
"7. c #EFC265",
"8. c #F5C967",
"9. c #FFD36C",
"0. c #E2C175",
"q. c #ECC571",
"w. c #FFD572",
"e. c #FFD876",
"r. c #FDD77F",
"t. c #FFDA7F",
"y. c #63BB85",
"u. c #76BC8C",
"i. c gray56",
"p. c #918E8B",
"a. c #999494",
"s. c #BEAC83",
"d. c #AAA7A6",
"f. c #AFB0B0",
"g. c #B7B6B6",
"h. c #CDB783",
"j. c #E6A28F",
"k. c #FEA684",
"l. c #C8B6A4",
"z. c #D2B2A1",
"x. c #C2BFBF",
"c. c #81C197",
"v. c #90C397",
"b. c #88D0AB",
"n. c #9ED6B1",
"m. c #BACAA9",
"M. c #D5C397",
"N. c #E2C98F",
"B. c #FFDE85",
"V. c #FFD88A",
"C. c #FCD682",
"Z. c #E7C998",
"A. c #E3CB92",
"S. c #FADF9F",
"D. c #F6DA9A",
"F. c #FFE095",
"G. c #CEC8A0",
"H. c #D2C2A1",
"J. c #FFCCAB",
"K. c #E6D3A5",
"L. c #F5DDA5",
"P. c #F9DFA2",
"I. c #FBE2A4",
"U. c #FDE5AB",
"Y. c #FFE8AE",
"T. c #FFEBB1",
"R. c #FFECBB",
"E. c #AEECCE",
"W. c #C6C5C5",
"Q. c #CCDACA",
"!. c #FFEDC3",
"~. c #EFF0F0",
"^. c #F6FAF9",
/* pixels */
"                                    <                           ",
"                                < v Z Z z                       ",
"                      z C Z C C Z Z C S [ C                     ",
"                    v Z Z C C Z C C C S { { Z                   ",
"                  z C C C C C C C C C S { { { B                 ",
"                - C C C Z C C Z C Z Z Z [ { { [ k               ",
"                l C C C C C C C C Z C C S [ [ { Z               ",
"                v Z Z C C C C C C C C C C Z Z Z C 9             ",
"                b C C C C C C Z Z C C C C C C C Z v             ",
"              < C C B B b C C C C C C C C C C C C b             ",
"              - z z c v v l v C C C C C C C C C C B -           ",
"          l v C C Z Z Z Z b l C B C B C C C C C C B <       X   ",
"    1 v C Z Z Z C C C C C B , u y y y y y y s s s s $ = : < - o ",
"  1 C Z C Z C C C C C Z C C c p h h h h h h h h h g * k k 1 -   ",
"  v Z C C C C C C C C C Z C Z c u g g h g g h g g g * 9 1 < =   ",
"  v C C C C Z C Z C C C C C C Z b d i p g g g g g p * 1 9 1     ",
"  : k z v b N B b B B C B C B C C Z b f a & & & t & - k d       ",
"    + - : < < 9 9 4 4 3 4 3 k k k k k l l l k j d k k -         ",
"            ` s.-.=.*.&.&.) > o X o X F  .) > O O O             ",
"          Y K.B.w.C.Z.U.Y.I.#.i.O.I w ;.T.L.G L ! H             ",
"          ) I.e.9.r.L.U.Y.D.M.^.b.y.3.U.T.T.N.Q.v...H           ",
"            M.B.9.w.F.U.U.S.H.E.o.c.A.T.!.R.D.n.u.(             ",
"            ( h.0.7.9.B.B.J.j.l.m.M.S.I.U.U.F.G.z.W             ",
"                w K <.4.5.6.k.5.8.w.e.q.2.3.B.q.1.              ",
"                        D D J @.$.+.>.,.>.:.+.K                 ",
"                        < k b a.d.} %.' 3 3                     ",
"                      b C B C W ) ! x ~ b z z                   ",
"                    b C C v C B j j _ z Z c C k                 ",
"                  v C C v j C d , d.W.N C v C b                 ",
"                  B B k 4 v d * A ~.x.N C l C b                 ",
"                v C B 1 4 , * c ^ ^.g.b C l B C                 ",
"                l B v < % # j v V d.] l v 1 b C v               ",
"                M Q [ B t # < : R f.~ : ; : B N :               ",
"                M A x < $ = 6 4 T i.R 8 6 z S k =               ",
"                  : 5 7 @ @ 7 e e e e e e ; < 4 :               ",
"                @ 7 7 7 @ / F 7 e 0 0 e e : : 5 ;               ",
"                O 7 7 7 @ w 7 5 @ @ 7 0 a p > 5 5               ",
"                  5 5 O O @ 5 O     X & p a 5 5 ;               ",
"                    . @ 7 7 @       T x 4 e 7 @ O               ",
"                      7 e e ;       f.] 5 e e @                 ",
"                      7 e 7 5       i.7 7 7 e 7                 ",
"                      L L L 7         5 L L P e                 ",
"                      r L L 7           e M r 7                 ",
"                      : x 8 +           < k 9                   ",
"                d v l z v l 1           l z v z v v <           ",
"              k C C b v v v l         1 v v v v C C b -         ",
"            - v N b v v z z z -       d v z z v v b b k         ",
"            = 1 1 < < : - < < +       - < - - < < < < -         "
};
