/* XPM */
static char *Idle__0001666799400[] = {
/* columns rows colors chars-per-pixel */
"32 48 170 2 ",
"   c None",
".  c #0C0C0C",
"X  c #1B0E0E",
"o  c #160C0C",
"O  c #151515",
"+  c #1A1314",
"@  c #1C1C1C",
"#  c #1B1A15",
"$  c #2A0909",
"%  c #230E0E",
"&  c #3E0202",
"*  c #390D0D",
"=  c #360A0A",
"-  c #241313",
";  c #2C1616",
":  c #221E1C",
">  c #2D1A1A",
",  c #301717",
"<  c #3D1313",
"1  c #331B1A",
"2  c #3B1D1D",
"3  c #20201F",
"4  c #2B251B",
"5  c #312415",
"6  c #201F20",
"7  c #242423",
"8  c #2C2323",
"9  c #272828",
"0  c #2C2C2C",
"q  c #2A2821",
"w  c #322222",
"e  c #3D2121",
"r  c #332828",
"t  c #323232",
"y  c #3D3C3C",
"u  c #410404",
"i  c #4B0404",
"p  c #4D0B0B",
"a  c #530101",
"s  c #5B0101",
"d  c #441313",
"f  c #471919",
"g  c #501E1E",
"h  c #670000",
"j  c #680000",
"k  c #432323",
"l  c #4B2526",
"z  c #412925",
"x  c #442D2B",
"c  c #4E2929",
"v  c #542727",
"b  c #532A2A",
"n  c #5B2D2E",
"m  c #48322C",
"M  c #553828",
"N  c #4D3A3A",
"B  c #403D3D",
"V  c #5E3131",
"C  c #5A3737",
"Z  c #663333",
"A  c #6A3535",
"S  c #6F3838",
"D  c #733B3B",
"F  c #793E3E",
"G  c #504631",
"H  c #434343",
"J  c #4A4949",
"K  c #524E4E",
"L  c #5B4849",
"P  c #5B574D",
"I  c #664445",
"U  c #7D4040",
"Y  c #7C4D4D",
"T  c #695E47",
"R  c #655744",
"E  c #635E5E",
"W  c #6A5C5A",
"Q  c #715858",
"!  c #6E6648",
"~  c #786B4E",
"^  c #686363",
"/  c #766767",
"(  c #7B7C7C",
")  c #836C38",
"_  c #8B713A",
"`  c #834444",
"'  c #8A4747",
"]  c #8B4848",
"[  c #967C43",
"{  c #817559",
"}  c #A07F49",
"|  c #856C6C",
" . c #847963",
".. c #31B16F",
"X. c #A6853C",
"o. c #98814D",
"O. c #AF8E44",
"+. c #A6905D",
"@. c #BF9D51",
"#. c #8F8C6A",
"$. c #819B72",
"%. c #95927A",
"&. c #AA976B",
"*. c #BA9F60",
"=. c #A1967C",
"-. c #BEA976",
";. c #C8A554",
":. c #D2AB5C",
">. c #E5A76D",
",. c #E5BD63",
"<. c #DDC17F",
"1. c #ECC162",
"2. c #F7CC69",
"3. c #FED36D",
"4. c #EBCB7F",
"5. c #FFD677",
"6. c #FFD978",
"7. c #6DA488",
"8. c #7FDDAE",
"9. c gray56",
"0. c #818181",
"q. c #9F9898",
"w. c #9D9696",
"e. c #A69C84",
"r. c #A09999",
"t. c #99AB9D",
"y. c #BDAC84",
"u. c #B1A487",
"i. c #A5BE8A",
"p. c #A5A19C",
"a. c #9FA0A0",
"s. c #B7B7B7",
"d. c #D58982",
"f. c #E49686",
"g. c #C8B084",
"h. c #D2BC8D",
"j. c #D6BE83",
"k. c #C6BF95",
"l. c #E3B891",
"z. c #C2B7A2",
"x. c #FFB0A3",
"c. c #84CDA7",
"v. c #83D3AA",
"b. c #95D2AE",
"n. c #DEC384",
"m. c #D3C195",
"M. c #E2C685",
"N. c #FFCB8E",
"B. c #F5D48A",
"V. c #EBCD92",
"C. c #E6CE94",
"Z. c #FCDE95",
"A. c #F7DB99",
"S. c #FFE29B",
"D. c #FFE293",
"F. c #D7CFA1",
"G. c #CCCABA",
"H. c #F0D5A2",
"J. c #E3D9B3",
"K. c #FFE5A7",
"L. c #FEE6AC",
"P. c #FFE9AE",
"I. c #FFEAB3",
"U. c #FFEDBD",
"Y. c #A8E0C3",
"T. c #CBD2D0",
"R. c #D7D6D7",
"E. c #FFECC0",
"W. c #E2E8E0",
"Q. c white",
/* pixels */
"                                  l c ;                         ",
"                        k c 2 k Z A S D l                       ",
"                    v A A A A A A Z S ' ` b                     ",
"                  b A A A Z A Z Z Z S ` ] ` b                   ",
"                k Z Z Z Z Z Z Z Z Z A ` ' ' ` k                 ",
"                n A Z Z Z Z Z A Z Z Z F ' ' ' D                 ",
"              2 Z Z Z A Z Z Z Z Z Z Z A D U U D l               ",
"              l Z Z Z Z Z Z Z Z Z Z Z Z Z A Z Z b               ",
"              b Z Z Z A Z Z Z Z Z Z Z Z Z Z Z Z Z 1             ",
"              b V n b b b V Z Z Z Z Z Z Z Z Z Z A 2             ",
"            - l b n n Z n l Z A A Z Z A A A A Z A l             ",
"      1 c n A A A A Z Z Z 2 v v v v v v v v v b v 2     - - X   ",
"  1 b A A A Z Z Z Z Z Z A l a s s s s s s s s s s & ; 2 e 1 -   ",
"; V A Z Z Z Z Z Z Z Z Z Z Z f s j j j j j j j j j i 2 k 2 1     ",
"f Z Z Z Z Z Z Z Z Z Z Z Z Z Z g p s h h h h j j j i 2 2 2 ;     ",
"1 V Z Z Z Z A Z Z Z Z Z Z Z Z A V g p a a a s a s & > k 2       ",
"X 2 k c c b b b n b b n n n n n n Z n c f < * * < f l 1         ",
"    X - ; - x m m z z z e 1 1 1 1 1 1 k m z 5 k 1 >             ",
"          P m.n.<.g.g.m.m.~ 4 7 O . 4 g.m.~ . O @ #             ",
"          u.S.5.3.V.H.P.P.4.z.T.7.! &.L.P.m./ q.#.!             ",
"          y.D.3.3.D.K.P.L.j.W.Y...i.S.I.E.K.J.8.$.T             ",
"          { A.6.3.6.S.K.L.V.G.v.8.m.K.I.U.L.F.b.%.4             ",
"            { -.*.1.3.6.N.x.f.h.j.B.A.V.C.H.Z.l.d.              ",
"                4 [ @.;.:.>.>.1.2.2.2.,.:.2.,.O.                ",
"                          5 R e.o.X.&.[ _ )                     ",
"                        k c I R.=.O.r.L 2 k                     ",
"                    c Z Z Z Z Q W M x C n b b                   ",
"                    Z Z n v Z b < I / b Z b Z                   ",
"                  n Z V l c Z d m R.r.n V c Z b                 ",
"                  Z n 2 2 n < = / Q.r.b Z l Z n                 ",
"                n Z n 1 k < * b | Q.r.b V l Z Z                 ",
"                l n n 1 $ $ k v L a.W k l 2 n n                 ",
"                N Y ` n & $ 1 ; ^ s.^ , > b ` n                 ",
"                N C e > - - w 8 J 0.J w 0 e V x -               ",
"                  : 9 0 @ 4 0 t t t t t t 7 > >                 ",
"                O 0 0 0 7 ! G 0 0 t t t t > : 8 @               ",
"                  9 0 0 @ 7 3 7 O # 0 r d s - 7 O               ",
"                  @ 7 O O @ 7 O     o & s d 7 6                 ",
"                    . # 9 t @       K x 1 t t O                 ",
"                      t t t @       s.( 9 t t                   ",
"                      0 t 0 7       9.9 9 t t 7                 ",
"                      H H H 0         7 H J J t                 ",
"                      y H H 0           t B B 0                 ",
"                      > l w +           > k 2                   ",
"                f b c c c c 1           k b b c b b 1           ",
"              k Z Z n b b b l         2 b b b b Z Z n ,         ",
"            , b V b b c c v c ;       k b c b b b n n k         ",
"            - e 1 1 1 , , 1 , +       ; 1 ; ; > 1 1 1 ,         "
};
