/* XPM */
static char *Idle__0071666799402[] = {
/* columns rows colors chars-per-pixel */
"32 48 170 2 ",
"   c None",
".  c #0C0C0C",
"X  c #130D0D",
"o  c #14100F",
"O  c #150F10",
"+  c #151414",
"@  c #1D1212",
"#  c #1C1C1C",
"$  c #2B0707",
"%  c #240B0B",
"&  c #2D0C0C",
"*  c #3B0303",
"=  c #360A0A",
"-  c #3A0A0A",
";  c #231212",
":  c #2C1616",
">  c #211D1D",
",  c #2D1919",
"<  c #241C14",
"1  c #341010",
"2  c #3D1515",
"3  c #341B1B",
"4  c #3B1E1E",
"5  c #361B17",
"6  c #20201E",
"7  c #3C201F",
"8  c #242424",
"9  c #2C2222",
"0  c #2C2C2C",
"q  c #2F2B23",
"w  c #332222",
"e  c #3D2121",
"r  c #332828",
"t  c #332F27",
"y  c #363125",
"u  c #323232",
"i  c #3D3C3C",
"p  c #420404",
"a  c #4F0707",
"s  c #4E0B0B",
"d  c #5C0101",
"f  c #500909",
"g  c #570101",
"h  c #431313",
"j  c #441B1B",
"k  c #4D1818",
"l  c #501F1F",
"z  c #640000",
"x  c #690000",
"c  c #442323",
"v  c #4A2525",
"b  c #4E2929",
"n  c #462A28",
"m  c #542424",
"M  c #532A2A",
"N  c #5C2E2E",
"B  c #4E3E22",
"V  c #5A2E30",
"C  c #433B3B",
"Z  c #4E3A3A",
"A  c #5F3030",
"S  c #5F3B3B",
"D  c #602F30",
"F  c #663333",
"G  c #693535",
"H  c #6F3838",
"J  c #763C3C",
"K  c #7C3F3F",
"L  c #4C4021",
"P  c #5C4C27",
"I  c #494230",
"U  c #524830",
"Y  c #59503A",
"T  c #66453F",
"R  c #6D5534",
"E  c #434343",
"W  c #484848",
"Q  c #564747",
"!  c #4A5245",
"~  c #5C5441",
"^  c #545252",
"/  c #5D5B5A",
"(  c #61494A",
")  c #794B4B",
"_  c #685743",
"`  c #6A5A5A",
"'  c #795A5A",
"]  c #6F6242",
"[  c #6E685A",
"{  c #756A50",
"}  c #72705B",
"|  c #766A69",
" . c #7A7878",
".. c #836D3A",
"X. c #844444",
"o. c #894747",
"O. c #8A4848",
"+. c #837558",
"@. c #847B65",
"#. c #B97967",
"$. c #9F8343",
"%. c #A28441",
"&. c #B69549",
"*. c #AB925A",
"=. c #9F8C6A",
"-. c #928873",
";. c #A28E68",
":. c #AE9967",
">. c #AD9B75",
",. c #B5A075",
"<. c #C09D4F",
"1. c #C09F53",
"2. c #C6A457",
"3. c #DAB45C",
"4. c #C3A560",
"5. c #DDB567",
"6. c #C2A973",
"7. c #DABB72",
"8. c #E6BC64",
"9. c #F7BD6C",
"0. c #F8AC7D",
"q. c #EAC46C",
"w. c #F8CC66",
"e. c #FFD46D",
"r. c #E8C471",
"t. c #FFD672",
"y. c #FFDA7D",
"u. c #748C80",
"i. c #6FBC86",
"p. c #49C185",
"a. c #69C495",
"s. c #8F8F8F",
"d. c #86B98C",
"f. c #A6A49D",
"g. c #A5A5A5",
"h. c #B0A8AA",
"j. c #B3B2B2",
"k. c #BAB4B4",
"l. c #BEBBBB",
"z. c #E59C8C",
"x. c #CBB584",
"c. c #D7A799",
"v. c #CAB6A0",
"b. c #96C09A",
"n. c #92D5AD",
"m. c #DBC48F",
"M. c #D4C498",
"N. c #E5C787",
"B. c #FEDA83",
"V. c #F9D58A",
"C. c #E4CD97",
"Z. c #E8CB9B",
"A. c #ECD59E",
"S. c #EDD297",
"D. c #F7DC9D",
"F. c #FADD99",
"G. c #FFE097",
"H. c #C2C5A1",
"J. c #D3C7AC",
"K. c #FFC5AB",
"L. c #F5DEA6",
"P. c #FBE1A3",
"I. c #FDE5AB",
"U. c #FFE8AE",
"Y. c #FFEBB3",
"T. c #9DE8C4",
"R. c #C4E0CD",
"E. c #FFEEC4",
"W. c #EEFDF7",
"Q. c #F7F8F8",
/* pixels */
"                                    4 ,                         ",
"                          4     e F H G b                       ",
"                      M F H G F G G F K X.F                     ",
"                    A G F F F F F F F K O.o.F                   ",
"                  N G F G F F F F F F J o.o.o.M                 ",
"                4 F F F F F F F F F F H o.o.X.X.e               ",
"                M F G F F F G F F G F G J X.X.X.A               ",
"                N F F F F F F F F F F F F G G G F 3             ",
"              5 F F F F F F F F F F F F F F F F G v             ",
"              4 F F N N N F F F F F F F F F F F F M             ",
"              5 v b M M M v N G F G F F F F F F G N             ",
"        4 b N F G G G G G M v D N N A A V F A F A N ;       X   ",
"    c N F G G F F F F F G N - f f f f f f f s s s s @ , 5 4 :   ",
"  c G G F F F F F F F F F F l g x x x x x x x x z z = c c 3 :   ",
"  N F F F F F F F F F F F F F l a z x z z z x z z d 1 c 3 5     ",
"; M F F G F G F G F F G F F F G N k f g d z z z z g 1 3 c 3     ",
"  3 c M M M V V N A A A A A F A F F N v h - * * * - 5 v 5       ",
"    @ : , , 3 e e e e e 7 7 4 e e c j c c n c c c c 4 ;         ",
"            -.x.6.,.;.>.>.+.< o o X X _ =.+.@ + + X             ",
"          [ L.y.e.V.C.U.U.F.:.g.u.! U M.Y.A.Y / } ~             ",
"          @.P.t.e.B.L.I.U.V.J.W.a.i.N.U.Y.U.C.R.d.+.            ",
"          ~ C.B.e.t.F.I.U.D.J.T.p.b.S.Y.E.Y.A.n.d.~             ",
"            { x.7.8.e.y.V.K.z.v.H.m.P.P.L.U.D.M.c.(             ",
"                y ..3.3.8.0.0.9.w.e.t.q.4.r.y.5.#.              ",
"                        L B R ;.*.&.2.2.&.2.%.P                 ",
"                        4 c V h.f.%.-.| 5 3                     ",
"                    4 D G D D ) [ _ n Q F M M                   ",
"                    D G F M F D j v | b F M F                   ",
"                  M G D M c D j h k.l.M G v G M                 ",
"                  D D c 4 N j = ( Q.k.M F v D D                 ",
"                M F D 3 4 2 - m ' Q.j.M F c F F                 ",
"                c N N 3 $ $ c M Q g. .v M 4 N F                 ",
"                C ) X.A p $ 3 , / j.` , : 3 G V ;               ",
"                Z F n , % ; w w ^ s.^ 9 9 b J v ;               ",
"                  > 8 0 # 6 0 u u u u u u # w 3 ;               ",
"                # 0 0 0 6 ] I 0 0 u u u u , , 8 6               ",
"                  8 0 0 6 t q 8 + # 0 r h d ; 8 6               ",
"                  8 8 + + # 6 +     X p d h 8 8 #               ",
"                    . # 8 0 #       ^ n 3 u 0 #                 ",
"                      u u u 8       j. .0 u u                   ",
"                      0 u u 6       s.0 8 u u 0                 ",
"                      E E E u         8 E E W u                 ",
"                      i E E 0           u C i 0                 ",
"                      , n 4 +           3 c e                   ",
"                c M v b b v 3           v M M b M m ,           ",
"              c D F A M M M v         4 M b M M F G N 3         ",
"            , M N N M m v M b ,       c M v b M M N N c         ",
"            ; 4 3 5 , 3 , 3 , @       : 3 , : , 3 3 5 :         "
};
