/* XPM */
static char *key1666809994[] = {
/* columns rows colors chars-per-pixel */
"48 48 113 2 ",
"   c None",
".  c black",
"X  c #020200",
"o  c #020201",
"O  c #040301",
"+  c #040401",
"@  c #060502",
"#  c #090501",
"$  c #0B0601",
"%  c #0B0701",
"&  c #0D0601",
"*  c #0C0801",
"=  c #0C0901",
"-  c #0D0B04",
";  c #130A02",
":  c #140C02",
">  c #140D02",
",  c #150F03",
"<  c #180D02",
"1  c #180E02",
"2  c #161003",
"3  c #1D1305",
"4  c #1E1604",
"5  c #2C1703",
"6  c #231B06",
"7  c #341B04",
"8  c #382807",
"9  c #3A2807",
"0  c #372D0F",
"q  c #3B3010",
"w  c #4A2706",
"e  c #402C07",
"r  c #4A2906",
"t  c #582E06",
"y  c #42320D",
"u  c #543C0B",
"i  c #463811",
"p  c #443813",
"a  c #4A3D14",
"s  c #4E3F14",
"d  c #723C09",
"f  c #723D09",
"g  c #743E09",
"h  c #5B4B19",
"j  c #64460C",
"k  c #6F4E0D",
"l  c #7D4109",
"z  c #7A4D0C",
"x  c #7B500D",
"c  c #7D540E",
"v  c #7F5A0F",
"b  c #604F1A",
"n  c #735716",
"m  c #725E1F",
"M  c #745F1F",
"N  c #756020",
"B  c #8D4A0B",
"V  c #805A0F",
"C  c #815B0F",
"Z  c #8B5E0F",
"A  c #A3570D",
"S  c #A4570D",
"D  c #A75A0D",
"F  c #A65A0E",
"G  c #8D620F",
"H  c #886010",
"J  c #926115",
"K  c #926811",
"L  c #9E6F12",
"P  c #9B6F15",
"I  c #BA680F",
"U  c #A16310",
"Y  c #A96B11",
"T  c #AF6E12",
"R  c #B56910",
"E  c #A47213",
"W  c #AD7A15",
"Q  c #AE7B15",
"!  c #B17213",
"~  c #BB7111",
"^  c #B17E17",
"/  c #927828",
"(  c #B98316",
")  c #BA8316",
"_  c #BB8517",
"`  c #BD8516",
"'  c #A4862C",
"]  c #B08420",
"[  c #BD9830",
"{  c #C68616",
"}  c #C28917",
"|  c #CD931B",
" . c #D09018",
".. c #D0911B",
"X. c #D1961C",
"o. c #C48926",
"O. c #C49425",
"+. c #C99420",
"@. c #CD972B",
"#. c #DBA123",
"$. c #D4A22A",
"%. c #C5A236",
"&. c #CAA637",
"*. c #D6AF38",
"=. c #DDB238",
"-. c #E4AE2D",
";. c #E4AC33",
":. c #FDD045",
">. c #FFD145",
",. c #FFD245",
"<. c #FFD446",
"1. c #FFD546",
"2. c #FFD746",
/* pixels */
"                                                                                                ",
"                                                                                                ",
"                                                                                                ",
"                                                                                                ",
"                                                                                                ",
"                                                                                                ",
"                                                                                                ",
"                                                                                                ",
"                                                                                                ",
"                                                                                                ",
"                                                                                                ",
"                                            . . . . .                                           ",
"                                            h N M M M 0                                         ",
"                                          O ' 2.>.>.>.s .                                       ",
"                                      . p %.$.+.i n #.^ H =                                     ",
"                                      . a 2.O.G = 9 L } W = .                                   ",
"                                      . a 2.b .     . K ^ = .                                   ",
"                                      . y -.J t & 9 k Y U $ .                                   ",
"                                      . 9 ` ~ F 3 u | R B $ .                                   ",
"                                          4 Z ..*.@.I w <                                       ",
"                                          . j P ;.o.l 5 .                                       ",
"                                            . ; A d .                                           ",
"                                            . , ! x .                                           ",
"                                            . , ) C .                                           ",
"                                            . , ) C .                                           ",
"                                            . , ) C .                                           ",
"                                          . . 2 ) C .                                           ",
"                                          . m [ | v .                                           ",
"                                          . / =.X.v .                                           ",
"                                            - 6 _ C .                                           ",
"                                            . ; T z .                                           ",
"                                      . O + + , F d .                                           ",
"                                      . q &.] E { c .                                           ",
"                                      . q &.] E { c .                                           ",
"                                      . . $ + , F g .                                           ",
"                                            . $ w 7 .                                           ",
"                                            . . . . .                                           ",
"                                                                                                ",
"                                                                                                ",
"                                                                                                ",
"                                                                                                ",
"                                                                                                ",
"                                                                                                ",
"                                                                                                ",
"                                                                                                ",
"                                                                                                ",
"                                                                                                ",
"                                                                                                "
};
