/* XPM */
static char *run__rev__0081666807397[] = {
/* columns rows colors chars-per-pixel */
"39 48 169 2 ",
"   c None",
".  c #0B0B0B",
"X  c #140E0F",
"o  c #1A0E0E",
"O  c #160F10",
"+  c #151313",
"@  c #1D1313",
"#  c #1D1D1C",
"$  c #2E0E0E",
"%  c #200E0E",
"&  c #3A0404",
"*  c #350909",
"=  c #241212",
"-  c #2A1515",
";  c #231B1B",
":  c #2D1A19",
">  c #351212",
",  c #3B1414",
"<  c #331B1B",
"1  c #3B1E1E",
"2  c #242323",
"3  c #2C2723",
"4  c #2B2B2B",
"5  c #2E2C25",
"6  c #342120",
"7  c #3E2221",
"8  c #392E2E",
"9  c #352D2D",
"0  c #3D3428",
"q  c #3A3327",
"w  c #323232",
"e  c #3C3C3C",
"r  c #393131",
"t  c #420101",
"y  c #480000",
"u  c #440E0E",
"i  c #4C0C0C",
"p  c #5C0101",
"a  c #510D0D",
"s  c #401111",
"d  c #4D1515",
"f  c #431B1B",
"g  c #4D1B1B",
"h  c #521919",
"j  c #650000",
"k  c #680000",
"l  c #431F21",
"z  c #432222",
"x  c #4C2526",
"c  c #4E2929",
"v  c #432B27",
"b  c #502020",
"n  c #542B2B",
"m  c #5B2E2E",
"M  c #47302A",
"N  c #483E29",
"B  c #483832",
"V  c #533333",
"C  c #5E3030",
"Z  c #553F3F",
"A  c #663333",
"S  c #693535",
"D  c #6D3A3A",
"F  c #663C3C",
"G  c #733B3B",
"H  c #7B3F3F",
"J  c #4F483A",
"K  c #4E4633",
"L  c #564E39",
"P  c #5C503D",
"I  c #6B552E",
"U  c #695130",
"Y  c #695C3F",
"T  c #4B4C4C",
"R  c #414240",
"E  c #544040",
"W  c #5F4D4D",
"Q  c #565243",
"!  c #644949",
"~  c #7D4242",
"^  c #665941",
"/  c #615353",
"(  c #715E5E",
")  c #546E5F",
"_  c #6E6041",
"`  c #79674F",
"'  c #706344",
"]  c #6C6554",
"[  c DimGray",
"{  c #737272",
"}  c #8B733B",
"|  c #91783D",
" . c #844444",
".. c #8A4747",
"X. c #8A4848",
"o. c #867759",
"O. c #8C7979",
"+. c #BF786C",
"@. c #49BB7E",
"#. c #AB8436",
"$. c #9E8343",
"%. c #958256",
"&. c #98865B",
"*. c #AF914A",
"=. c #B4944C",
"-. c #A08D5F",
";. c #B69A5A",
":. c #9B8862",
">. c #A9966A",
",. c #B9A47D",
"<. c #BBA97F",
"1. c #CBA55B",
"2. c #D5B15C",
"3. c #DA9C67",
"4. c #D4AC65",
"5. c #EAAF6B",
"6. c #DFC17C",
"7. c #E6C26E",
"8. c #F5CA68",
"9. c #FFD46C",
"0. c #E5C67F",
"q. c #FFD672",
"w. c #FFD878",
"e. c #FDD678",
"r. c #7FAC83",
"t. c #65D39C",
"y. c #888787",
"u. c gray57",
"i. c #AA9F89",
"p. c #A79D9D",
"a. c #91B489",
"s. c #ABA18C",
"d. c #9DA7A3",
"f. c #AEAFAF",
"g. c #A9A0A2",
"h. c #B4B0B0",
"j. c #C99D8F",
"k. c #DD9D89",
"l. c #C1AE82",
"z. c #CAB882",
"x. c #FEAC9E",
"c. c #81C49D",
"v. c #90D4AC",
"b. c #DBC389",
"n. c #CCC095",
"m. c #D8C793",
"M. c #FFDC8A",
"N. c #F6D287",
"B. c #E4CB93",
"V. c #E5C693",
"C. c #FFCA90",
"Z. c #EDD19F",
"A. c #FCDD94",
"S. c #F5DB9F",
"D. c #D2C7A1",
"F. c #C4C0B8",
"G. c #EED6A0",
"H. c #F2DBA3",
"J. c #FDE3A6",
"K. c #FEE6AC",
"L. c #FFE9AD",
"P. c #FFEAB1",
"I. c #FFEBB9",
"U. c #A6DCC0",
"Y. c #C4D8C6",
"T. c #FFEDC0",
"R. c #DFE0E1",
"E. c #E5EDE5",
"W. c #EFF0F0",
/* pixels */
"                                                                              ",
"                          x 1                                                 ",
"                      x G D A n z x n z                                       ",
"                    n  . .A A S S D S D A 1                                   ",
"                  c  .X. .S A A A A A A S A <                                 ",
"                1 H ....~ S A S A A A A A A m                                 ",
"                A ......G A A A A A A S A A A 1                               ",
"              < D ~ H G S A A A A A A A A A S x                               ",
"              x A A A A A A A A A A A A A A A m                               ",
"              n S A A A A A S A A A A A A A A C                               ",
"              m A A A A A A A A A A b c b c x x -                             ",
"            < C S S A S A A A A A m x D S S D A C n x                         ",
"    o = =   o x x g g g g g d d d s x S A A A A A S S A n <                   ",
"    - < 7 1 $ p j j j j j k j k j u A A A A A S A A A A S A                   ",
"      < 1 z > j j k j j j j j j i m A A A A A A A A A A A A z                 ",
"      < 1 1 > p k j j j j p i g A S A A S A A A A A A A A m <                 ",
"        1 z - t y y t t u b C A A A C C C m m n n n x x z <                   ",
"          < z z f f z x x x z z 7 7 1 7 z z v M N 6 = =                       ",
"              + @ @ ; ` o.0 . X + @ ^ ,.s.,.4.6.B.s.                          ",
"              K Q R L H.P.>.K ) d.s.0.P.P.G.A.9.w.H.]                         ",
"              ` a.Y.m.I.P.K.z.@.U.E.b.J.K.K.M.9.q.S.]                         ",
"              P r.v.G.I.T.L.m.c.t.Y.V.J.J.M.q.q.M.<.                          ",
"                j.D.S.J.H.H.A.z.n.k.x.C.q.9.2.&.o.0                           ",
"                +.4.w.7.4.8.q.9.8.5.3.1.;.;.U = x n n x                       ",
"                    | =.=.*.$.} U P %.#.F.p.V b A S A A m m                   ",
"                                l B s.:.R.O.A m n C m n A A n                 ",
"                                m c E n / F A A z < : : x m D W               ",
"                  J 5 &.N 1 z - z x V ( s l A A c <     - S ~ V ;             ",
"                  -.' Y 6 V G c m c n h.p.> f A n 1       n 7 2 4 3           ",
"                  >.K 4 3 V ~ C S c n O.W.! * , g u &     X # 4 4 4 #         ",
"                  %.0 2 # E Z b n   x ! f.W : & p A a     + # 3 4 2 #         ",
"                                    < 6 y.u.; $ i p p       _ 2 # + .         ",
"                                      @ { [ 2 4 9 d j t     N # .             ",
"                                      3 w 2 2 w w 9 &                         ",
"                                        4 2 4 w w w e       - -               ",
"                                  = < < 4 4 w w 4 4 e 2 : x c z =             ",
"                                    ; w w w w 4 4 w T r x c n z               ",
"                                    w T e 4 3 4 w w T r z n n 1               ",
"                        < x m n 7 < < e T w     4 4 e 3 7 n n <               ",
"                        x A A C n n c 7 4 2             n A n -               ",
"                        < z c n n n n z                 n A n -               ",
"                            = : 7 x c 1                 1 C x                 ",
"                                  - < :                   1 1                 ",
"                                                                              ",
"                                                                              ",
"                                                                              ",
"                                                                              ",
"                                                                              "
};
