/* XPM */
static char *Run__0031666802656[] = {
/* columns rows colors chars-per-pixel */
"39 48 165 2 ",
"   c None",
".  c gray5",
"X  c #140C0C",
"o  c #1B0E0E",
"O  c #151515",
"+  c #1D1112",
"@  c #171718",
"#  c #1A1A1B",
"$  c #310808",
"%  c #3A0B0B",
"&  c #390404",
"*  c #241313",
"=  c #2B1616",
"-  c #211813",
";  c #241B1B",
":  c #2F1A1A",
">  c #3A1010",
",  c #341C1C",
"<  c #3B1D1D",
"1  c #371313",
"2  c #24221E",
"3  c #242424",
"4  c #2B2525",
"5  c #2C2C2C",
"6  c #2B2A23",
"7  c #3D2221",
"8  c #322C2C",
"9  c #382A2A",
"0  c #373329",
"q  c #333333",
"w  c #3B3B3B",
"e  c #3B3333",
"r  c #440505",
"t  c #4B0303",
"y  c #4C0909",
"u  c #550202",
"i  c #5B0101",
"p  c #520909",
"a  c #5B0A0A",
"s  c #401718",
"d  c #4D1C1C",
"f  c #501C1C",
"g  c #660000",
"h  c #680000",
"j  c #442223",
"k  c #4C2626",
"l  c #422A27",
"z  c #4E2929",
"x  c #442929",
"c  c #532424",
"v  c #512728",
"b  c #532A2A",
"n  c #5B2E2E",
"m  c #5D2424",
"M  c #47322D",
"N  c #443E2E",
"B  c #523D28",
"V  c #533F26",
"C  c #4A3435",
"Z  c #5F3030",
"A  c #513F3F",
"S  c #663333",
"D  c #693535",
"F  c #673939",
"G  c #713939",
"H  c #474030",
"J  c #4C4534",
"K  c #57423F",
"L  c #594536",
"P  c #56503F",
"I  c #434343",
"U  c #4B4B4B",
"Y  c #5C4443",
"T  c #505F58",
"R  c #5C5457",
"E  c #7E4141",
"W  c #615245",
"Q  c #6A5151",
"!  c #785959",
"~  c #70674D",
"^  c #766949",
"/  c #7A6A51",
"(  c #7D785C",
")  c #6E6060",
"_  c #7B7464",
"`  c #8C733A",
"'  c #9D7F3F",
"]  c #844444",
"[  c #894747",
"{  c #8A4848",
"}  c #80704A",
"|  c #967C40",
" . c #84785A",
".. c #897979",
"X. c #A68947",
"o. c #A28344",
"O. c #BC9B4F",
"+. c #AD9154",
"@. c #908363",
"#. c #A08D61",
"$. c #A79363",
"%. c #A89571",
"&. c #AD9D7C",
"*. c #B09B76",
"=. c #94AB7B",
"-. c #B4A17C",
";. c #C3A459",
":. c #CCA855",
">. c #D1AC57",
",. c #D5AA5A",
"<. c #D0B26D",
"1. c #CFB57C",
"2. c #D8BB77",
"3. c #E6A470",
"4. c #F4AA76",
"5. c #DEC27F",
"6. c #F7C969",
"7. c #FFD36C",
"8. c #F0CB7E",
"9. c #FCD475",
"0. c #FFD875",
"q. c #FED67A",
"w. c #4DBC84",
"e. c #6DBF8D",
"r. c #60C491",
"t. c #858685",
"y. c #9D9D9D",
"u. c #9DB69A",
"i. c #AAA594",
"p. c #AFBE90",
"a. c #A9AAAA",
"s. c #B4BEA4",
"d. c #DA9781",
"f. c #DF9C8D",
"g. c #CABA95",
"h. c #D0BE91",
"j. c #FFBCA6",
"k. c #80DEB0",
"l. c #D7C089",
"z. c #C3C49E",
"x. c #DECA9B",
"c. c #E5C98D",
"v. c #FFD287",
"b. c #FFDD85",
"n. c #FFDE8B",
"m. c #F1D38D",
"M. c #E8CF95",
"N. c #E7CD9A",
"B. c #F6DA96",
"V. c #F1D598",
"C. c #FFE08C",
"Z. c #C4C7A5",
"A. c #D2CEB8",
"S. c #C0DBB9",
"D. c #DAD2BB",
"F. c #F6DDA3",
"G. c #FDE2A5",
"H. c #FEE5AC",
"J. c #FFE8AF",
"K. c #FFEAB1",
"L. c #FFEBBA",
"P. c #C5C4C0",
"I. c #FFEEC3",
"U. c #E5E6E7",
"Y. c #E6F8F0",
/* pixels */
"                                                                              ",
"                                                    ,                         ",
"                                        j k s   z D D n                       ",
"                                    j S D F G D D S D [ D                     ",
"                                  j D D S S S S S S G [ { D                   ",
"                                : S S S S S D S S D D [ [ [ n                 ",
"                                k S S S S S S S S S D E [ [ E <               ",
"                                n S S S S S S S S D D G E ] ] n               ",
"                              < S S S S S S S S S S S S D D D Z               ",
"                              j S S S S D S S S S S S S S S S S <             ",
"                              < c k z z k n S S S S S S S S S S j             ",
"                        7 z n S D D D D n k S D D S D S D S S D k             ",
"                    k S D D D S S S S S S , d d k c c b b n n n j             ",
"                  k D S S S S S S S S S D d i g g g i i i u u p % * , , = o   ",
"                  n S S S S S S S S D S S S d i g g g h h h h h r < j < =     ",
"                  k Z S S S S S S S S S S S S f p i g h g h h h r 7 < , =     ",
"                  * < j k v b b n n S S S S S D Z f y t u i u i & , < ,       ",
"                      o * = M M l 7 7 < j j j k v b k j 1 > % % < x <         ",
"                          _ x.5.1.*.*.%./ - X o + * L K 9 , 7 , ,             ",
"                          g.n.7.q.N.H.K.B.#.t.T 6 J N.F.~ O 3 2               ",
"                          h.b.7.q.F.J.J.m.D.Y.r.=.c.J.K.l.i.p._ J             ",
"                          @.B.0.7.n.G.J.V.A.k.w.p.G.L.I.B.S.r._ H             ",
"                             .$.;.7.0.v.j.f.Z.z.M.G.J.K.G.Z.s.W               ",
"                              X V +.;.,.3.4.6.6.0.9.<.2.C.8.d.                ",
"                            k k v ..P.o.' ^ ` X.O.>.>.>.:.|                   ",
"                          j S S b ! U.&.-.R                                   ",
"                          b D Z k S ) K Y M                                   ",
"                          n S k k c > Y C v                                   ",
"                          z b 7 < 1 Y U L J                                   ",
"                        & m D b S Z 3 # N 0 X                                 ",
"                        y F S n E z 3 5 3 @ .                                 ",
"                        i i y < Q x 3 5 5 @                                   ",
"                      8 x a t * q 6 3 5 5 O                                   ",
"                    5 q q 7 $ 4 q q 3 3 ; o                                   ",
"      *       3 @ 3 q q q 4 O 3 8 q q 7 u >                                   ",
"      < k , 4 I q q q 5 3       ^ W # y y 8 5                                 ",
"    * x v k e U q q 4 @             X s 4 q q 5                               ",
"    , v b k 4 U w q                   a.w 5 q q                               ",
"    j v b j   8                       y.3 q I U q                             ",
"  = v n b                                 w J e ;                             ",
"  7 Z S k                                   4 k j < c k ,                     ",
"* k S b                                     j b b b S S n <                   ",
"  < <                                       k v v b b n v j                   ",
"                                          * k z j 7 , : *                     ",
"                                            = =                               ",
"                                                                              ",
"                                                                              ",
"                                                                              "
};
