/* XPM */
static char *Run__0061666807737[] = {
/* columns rows colors chars-per-pixel */
"39 48 165 2 ",
"   c None",
".  c #090909",
"X  c #1C0F0F",
"o  c #150B0B",
"O  c #141414",
"+  c #1D1313",
"@  c #1C1C1B",
"#  c #1D1C16",
"$  c #340202",
"%  c #3A0303",
"&  c #350A0A",
"*  c #3A0F0F",
"=  c #241414",
"-  c #2C1616",
";  c #231C16",
":  c #251B1B",
">  c #2E1B1B",
",  c #321515",
"<  c #3D1313",
"1  c #341B1B",
"2  c #3B1D1D",
"3  c #252424",
"4  c #2B2923",
"5  c #272829",
"6  c #2C2C2C",
"7  c #362222",
"8  c #3D2221",
"9  c #3B2C2C",
"0  c #363228",
"q  c #2F3030",
"w  c #323232",
"e  c #393939",
"r  c #3A3232",
"t  c #460505",
"y  c #4D0505",
"u  c #4A0C0C",
"i  c #550202",
"p  c #5C0202",
"a  c #4A1515",
"s  c #401919",
"d  c #4D1C1C",
"f  c #501E1E",
"g  c #650000",
"h  c #680000",
"j  c #432222",
"k  c #4B2525",
"l  c #4E2728",
"z  c #4F2929",
"x  c #462F29",
"c  c #532525",
"v  c #532A2A",
"b  c #5B2E2E",
"n  c #503F26",
"m  c #4D3838",
"M  c #4E3A30",
"N  c #5D3131",
"B  c #543838",
"V  c #602F2F",
"C  c #663333",
"Z  c #693535",
"A  c #743B3B",
"S  c #7A3F3F",
"D  c #4B4539",
"F  c #574837",
"G  c #5B513B",
"H  c #665A3E",
"J  c #444444",
"K  c gray29",
"L  c #5C4745",
"P  c #4D5753",
"I  c #6E4A4A",
"U  c #604343",
"Y  c #695C45",
"T  c #695654",
"R  c #715858",
"E  c #7C6D4A",
"W  c #7A6658",
"Q  c #776565",
"!  c #72716F",
"~  c #767273",
"^  c #7E7D7D",
"/  c #9A7C3A",
"(  c #844444",
")  c #894747",
"_  c #8A4848",
"`  c #83724B",
"'  c #897850",
"]  c #8B7C5E",
"[  c #917E60",
"{  c #3FB87B",
"}  c #7F8264",
"|  c #8E805F",
" . c #9B8554",
".. c #A08443",
"X. c #AE904A",
"o. c #A7905A",
"O. c #BC9B52",
"+. c #8D8665",
"@. c #948365",
"#. c #A59163",
"$. c #AF996D",
"%. c #B79C67",
"&. c #83A97B",
"*. c #BEA774",
"=. c #C09E51",
"-. c #CEA956",
";. c #D0AB57",
":. c #D4AE58",
">. c #D6B15C",
",. c #D99D7C",
"<. c #D0AF61",
"1. c #C9B075",
"2. c #D7B870",
"3. c #D0B472",
"4. c #E2B760",
"5. c #F3BE6D",
"6. c #EFAB78",
"7. c #F9A67D",
"8. c #F6CB6A",
"9. c #FFD36C",
"0. c #FFD673",
"q. c #F7D27F",
"w. c #FED67A",
"e. c #FFD97A",
"r. c #6DC694",
"t. c #77CBA0",
"y. c #888787",
"u. c gray52",
"i. c #9ABE91",
"p. c #AFA48A",
"a. c #B3A585",
"s. c #BCB097",
"d. c #B2ACAC",
"f. c #A2BFA7",
"g. c #B9B7B0",
"h. c #C3B38C",
"j. c #D9BD82",
"k. c #E1A08F",
"l. c #B9C7A9",
"z. c #D9C593",
"x. c #FFD788",
"c. c #FFDD8B",
"v. c #E6CB94",
"b. c #F7DC9D",
"n. c #FBDD9B",
"m. c #F8DB95",
"M. c #FFE59B",
"N. c #C2C0A9",
"B. c #D5CBA3",
"V. c #D4C9AE",
"C. c #CEDAB5",
"Z. c #FFC7A9",
"A. c #F6DFA7",
"S. c #F9DFA8",
"D. c #F8DDA1",
"F. c #FDE3A6",
"G. c #FEE5AB",
"H. c #FFE8AE",
"J. c #FFEAB2",
"K. c #98E6C0",
"L. c #C3C3C3",
"P. c #D7D6D6",
"I. c #FFEEC5",
"U. c #E1E0E2",
"Y. c #F3FAF8",
/* pixels */
"                                                                              ",
"                                                                              ",
"                      v Z C v     j 2                                         ",
"                    C ( A C Z C C Z Z C j                                     ",
"                  N ) ) A C C C C C C Z Z j                                   ",
"                v ( ) ) A C C C C C Z C C C 1                                 ",
"                S ) _ ( Z C C C C C C C C C z                                 ",
"              v ( ( ( A C C C C Z C C C C C N                                 ",
"              b Z Z Z C C C C C C C C C C C C 2                               ",
"            2 C C C C C C C C Z C C Z C C C C j                               ",
"            j C C C C C C C C C C V v k c v v 2                               ",
"            k Z C C Z Z Z C Z C C k N C C C C b k j                           ",
"    o       j b b b v c c c c d d 2 C C C C Z Z Z Z C v 2                     ",
"  X - 2 1 = & p i i p p p p p g p d C C C C C C C C C Z C j                   ",
"    - 2 j 2 t h h h h h h g g p a C C C C C C C C C C C C b                   ",
"    = 2 2 8 t h h h g h g g i k C C C C C C C C C Z C C C v                   ",
"      1 j 1 $ p i i i y u f V Z C C C C C C N b b b b v j >                   ",
"        1 j 2 < * < < j c v v k l k j 8 j s 8 8 8 , - = X                     ",
"            = > 1 1 x F M = = + X ; Y ] [ @.$.*.a.D                           ",
"            # 3 4 O ] A.z.0 5 P !  .b.J.S.v.w.0.M.p.                          ",
"            G +.f.p.v.J.H.j.&.t.Y.B.m.H.G.D.w.9.c.h.                          ",
"            D +.r.C.F.I.J.b.i.{ K.V.b.H.G.c.9.0.M.@.                          ",
"              W l.B.G.J.H.F.z.l.N.k.Z.x.w.9.<.1.]                             ",
"                ,.q.x.3.2.e.0.8.5.7.6.4.>.O.n 1 k z                           ",
"                  ..-.;.:.;.=.X./ ` /  .g.T z v Z C C b                       ",
"                                , ! %.s.U.I C b b C b C C v                   ",
"                                j B L T Q C C v 2 1 1 v C b 8                 ",
"                                v v m B < b C C k =   1 z A R                 ",
"                                8 k U L.R & k C v ,     N A z 4               ",
"                        F > C k b v v d.P.l & < a u %   2 > 3 5 3             ",
"                    3 Y ' # A A N b v Q L.L , $ p Z y   O @ 6 6 6 @           ",
"                    #.G 0 3 B I k   8 j u.^ : & i p p $ : 4 5 6 5 @           ",
"                    #.H 5 3 7         : y.~ 6 : 7 d p $   H @ @ O             ",
"                    E ` #             @ w w 5 5 e w 7     : O .               ",
"                      o.        = 2 1 = 9 w : 6 w w 3                         ",
"                                    + , p a : q w 6                           ",
"                                      + 7 1 6 w 6 #                           ",
"                                        w q w q q 3                           ",
"                                          6 e J K 6                           ",
"                                          5 e J r :                           ",
"                                            3 7 k 2 2 2                       ",
"                                            1 z v v j 8 2                     ",
"                                            v v v z 2 - >                     ",
"                                          V b v j > X                         ",
"                                        k C b k =                             ",
"                                        k b j =                               ",
"                                        1 8                                   ",
"                                                                              "
};
