/* XPM */
static char *Run__0011666802656[] = {
/* columns rows colors chars-per-pixel */
"39 48 160 2 ",
"   c None",
".  c #0E0F0F",
"X  c #150E0E",
"o  c #1D0E0E",
"O  c #12120F",
"+  c #161515",
"@  c #1F1111",
"#  c #191817",
"$  c #1C1C1B",
"%  c #280808",
"&  c #3A0B0B",
"*  c #330B0B",
"=  c #241414",
"-  c #2A1515",
";  c #2C1B1B",
":  c #2B1C17",
">  c #3B1313",
",  c #341A1A",
"<  c #3A1E1E",
"1  c #321616",
"2  c #25221A",
"3  c #3A1F20",
"4  c #242424",
"5  c #2C2624",
"6  c #2B2B2B",
"7  c #322424",
"8  c #3D2121",
"9  c #332D2D",
"0  c #323232",
"q  c #3C3B3B",
"w  c #450101",
"e  c #4C0404",
"r  c #460B0B",
"t  c #530303",
"y  c #5C0101",
"u  c #520A0A",
"i  c #590C0C",
"p  c #401F1F",
"a  c #4C1D1D",
"s  c #471414",
"d  c #501B1B",
"f  c #660000",
"g  c #680000",
"h  c #432222",
"j  c #4B2626",
"k  c #4D2928",
"l  c #442E28",
"z  c #532424",
"x  c #532A2A",
"c  c #5B2E2E",
"v  c #483722",
"b  c #5F2F30",
"n  c #443F30",
"m  c #4D3838",
"M  c #5E3030",
"N  c #533836",
"B  c #602F2F",
"V  c #663333",
"C  c #693535",
"Z  c #6D3939",
"A  c #703939",
"S  c #4A473F",
"D  c #454239",
"F  c #59503C",
"G  c #6E5639",
"H  c #765937",
"J  c #444444",
"K  c #4B4B4B",
"L  c #5B4242",
"P  c #594949",
"I  c #4A524F",
"U  c #604C47",
"Y  c #6D4647",
"T  c #7C4141",
"R  c #6E5453",
"E  c #665754",
"W  c #75634D",
"Q  c #7B6F5D",
"!  c #686865",
"~  c #766666",
"^  c #7A7576",
"/  c #A07D34",
"(  c #844444",
")  c #894747",
"_  c #8A4848",
"`  c #86734B",
"'  c #84785B",
"]  c #907D5F",
"[  c #C17571",
"{  c #3BB678",
"}  c #79A67A",
"|  c #9B8042",
" . c #9C8555",
".. c #B5964D",
"X. c #A08A57",
"o. c #B49450",
"O. c #868061",
"+. c #898665",
"@. c #9A8666",
"#. c #968C74",
"$. c #B79C65",
"%. c #BFA872",
"&. c #BBA371",
"*. c #C7A85F",
"=. c #C8A554",
"-. c #D4AF5B",
";. c #DBB45C",
":. c #E1B65F",
">. c #C9AE77",
",. c #CBB37C",
"<. c #D7BB78",
"1. c #F3BC6E",
"2. c #EFAC78",
"3. c #FAA57E",
"4. c #F4C96A",
"5. c #FED26B",
"6. c #FFD674",
"7. c #FFD875",
"8. c #FFD978",
"9. c #FDD67D",
"0. c #77CB9D",
"q. c #949494",
"w. c #A69B80",
"e. c #8EBE8F",
"r. c #99AC9B",
"t. c #BAAA85",
"y. c #BEB39A",
"u. c #A8A6A7",
"i. c #BBB9B3",
"p. c #E0A788",
"a. c #E2A290",
"s. c #86D0AA",
"d. c #A5CAAB",
"f. c #B4CBAA",
"g. c #D7C597",
"h. c #D6C49B",
"j. c #FFDA87",
"k. c #F6D486",
"l. c #E6CB94",
"z. c #EBD59F",
"x. c #F4D897",
"c. c #FADE9D",
"v. c #FADB96",
"b. c #FFE091",
"n. c #FFE49D",
"m. c #C1C0AA",
"M. c #D0CFA2",
"N. c #D4C7A9",
"B. c #D9DBB6",
"V. c #FFC9A9",
"C. c #F7DDA7",
"Z. c #FDE3A6",
"A. c #FDE5AB",
"S. c #FFE8AE",
"D. c #FFE7B0",
"F. c #FFEBB3",
"G. c #A2E9C7",
"H. c #FFEEC5",
"J. c #E0DEE0",
"K. c #F5F9F8",
/* pixels */
"                                                                              ",
"                                                                              ",
"                                          h     h c C x                       ",
"                                    , c C C C V C C C ( Z                     ",
"                                  , V C V V V V V V Z ( _ Z                   ",
"                                  c C V V V V V V V C ( _ ) M                 ",
"                                h V V V V V V V V V C T _ _ ( h               ",
"                                x V V V V V V V V V C Z ( ( ( V               ",
"                                B V V V V V V V V V V V V A A V ,             ",
"                              < V V V V V V V V V V V V V V V V h             ",
"                              , x z j k x c V V V V V V V V V V x             ",
"                          h k c M V V V V j V V V C V C V V V V x             ",
"                    < c V C C C C V V V V p a z z x x x c c V M x             ",
"                  < V C V V V V C V V V V j t f f y y y y u u u & % ; , - o   ",
"                  x C V V V V V V V V V V V a y f f g g g g g g t , h 8 ,     ",
"                  h V V V V V V V V V V V V V j u f f g f f f g e , h < -     ",
"                  = p j x x x b b V V V V V V C B d r t t t y f w ; < <       ",
"                      = = : 8 l 8 8 < 3 h j j x x b x a s & & & > h h         ",
"                          J t.,.%.@.@.] W : o @ = = l N l 3 3 < , -           ",
"                          w.n.5.8.l.C.S.C.X.! I 4 2 t.z. .O # $ +             ",
"                          t.v.5.6.c.A.D.c.h.K.s.} >.A.F.g.#.r.O.F             ",
"                          ' x.7.5.j.Z.D.c.N.G.{ e.x.F.H.A.B.0.+.F             ",
"                            ' %.*.5.8.j.V.p.m.f.g.A.S.F.S.M.d.Q               ",
"                              X v o.-.:.2.3.1.4.6.9.<.<.v.k.p.[               ",
"                            x x x R i. ./ ' ` ..=.;.;.-.;...H                 ",
"                          j C V c Y J.y.$.]                                   ",
"                          c C c j V ~ E U N -                                 ",
"                          M c h x c > N m x                                   ",
"                          b j 3 h * L u.L j                                   ",
"                        s V B x B 1 6 D G :                                   ",
"                        e z b T Z ; 4 4 n #                                   ",
"                        y y s E k 4 6 5 $ .                                   ",
"                      , a i w 8 ; 6 6 6 + . -                                 ",
"                      0 0 0 - 5 6 4 6 6 + - -                                 ",
"                    6 0 0 6 $ ; 6 6 4 # = -                                   ",
"                  4 0 0 0 $     $ 6 8 u *                                     ",
"                  6 0 0 $         % t u ,                                     ",
"                4 6 0 6           P 1 9 0                                     ",
"              4 J q 0 6         q.q.6 0 0                                     ",
"              ; n K q           ! J q 0 0                                     ",
"          - h j 9 0 0             6 K K 0                                     ",
"        = j x x x -               ; 7 q 0                                     ",
"          < k x x j           - j k h -                                       ",
"            , k x B x         h x x x x x                                     ",
"              < x V c       = h j k x c V c                                   ",
"                < c c           - , h k c V 8                                 ",
"                  h h                 = , h <                                 ",
"                    =                                                         "
};
