/* XPM */
static char *Run__0051666802656[] = {
/* columns rows colors chars-per-pixel */
"39 48 172 2 ",
"   c None",
".  c #0D0E0E",
"X  c #120C0D",
"o  c #1B0F0F",
"O  c #151212",
"+  c #1C1212",
"@  c #1B1A1A",
"#  c #260D0D",
"$  c #2F0E0E",
"%  c #3C0606",
"&  c #3B0A0A",
"*  c #350808",
"=  c #241313",
"-  c #2B1515",
";  c #221D1D",
":  c #2E1A1A",
">  c #3C1414",
",  c #341B1B",
"<  c #3A1E1E",
"1  c #2D261F",
"2  c #362E1E",
"3  c #242424",
"4  c #2A2423",
"5  c #2C2C2C",
"6  c #332323",
"7  c #3D2120",
"8  c #382F22",
"9  c #3C2B2B",
"0  c #352B2A",
"q  c #383329",
"w  c #323232",
"e  c #393939",
"r  c #3D3737",
"t  c #420101",
"y  c #470E0E",
"u  c #530303",
"i  c #5B0101",
"p  c #500B0B",
"a  c #5A0A0A",
"s  c #411717",
"d  c #4C1313",
"f  c #431C1C",
"g  c #4C1B1B",
"h  c #521010",
"j  c #650000",
"k  c #680000",
"l  c #620C0C",
"z  c #51291D",
"x  c #432323",
"c  c #4B2626",
"v  c #4D2827",
"b  c #4F2828",
"n  c #512323",
"m  c #532A2A",
"M  c #5B2E2E",
"N  c #47302A",
"B  c #4B362D",
"V  c #543528",
"C  c #4F3A30",
"Z  c #4F3939",
"A  c #503030",
"S  c #5E3030",
"D  c #513D3D",
"F  c #612E2F",
"G  c #653333",
"H  c #693535",
"J  c #6D3939",
"K  c #733B3B",
"L  c #793E3E",
"P  c #4F4838",
"I  c #4A4332",
"U  c #594B3C",
"Y  c #59513D",
"T  c #69572E",
"R  c #65573F",
"E  c #695C3E",
"W  c #444444",
"Q  c #4B4A49",
"!  c #4C4841",
"~  c #5C4B4B",
"^  c #5F5C43",
"/  c #6A4B48",
"(  c #7C4040",
")  c #764B47",
"_  c #6E5E4F",
"`  c #655845",
"'  c #605C5C",
"]  c #765656",
"[  c #786947",
"{  c #746544",
"}  c #666657",
"|  c #796853",
" . c #7B7054",
".. c #7C7777",
"X. c #806A37",
"o. c #856D38",
"O. c #947A3F",
"+. c #894747",
"@. c #8A4848",
"#. c #824343",
"$. c #8A7B5B",
"%. c #AE745E",
"&. c #917F7F",
"*. c #39B575",
"=. c #978558",
"-. c #A18444",
";. c #AC8C49",
":. c #BC8F52",
">. c #A7915E",
",. c #9D8A69",
"<. c #9E8D66",
"1. c #A59164",
"2. c #A99668",
"3. c #AA9669",
"4. c #CF9F5E",
"5. c #D4B05D",
"6. c #E1B85D",
"7. c #D3AE60",
"8. c #DEB964",
"9. c #DFC17F",
"0. c #EFC563",
"q. c #F7CC69",
"w. c #F9CD6A",
"e. c #FACD67",
"r. c #FED169",
"t. c #FFCA7D",
"y. c #FCD57C",
"u. c #FFD97E",
"i. c #F9D172",
"p. c #6C9C83",
"a. c #828383",
"s. c #948586",
"d. c #938C88",
"f. c #81BB90",
"g. c #B0A589",
"h. c #B0BE88",
"j. c #A19FA0",
"k. c #A8A5A5",
"l. c #EF9B85",
"z. c #D8BA89",
"x. c #D8A798",
"c. c #C7B898",
"v. c #FFAE9C",
"b. c #8BC397",
"n. c #8CCAA6",
"m. c #89DBB2",
"M. c #A6D4AE",
"N. c #D3C394",
"B. c #DDC997",
"V. c #E7CC8C",
"C. c #EECF88",
"Z. c #FAD989",
"A. c #E2CC9B",
"S. c #F3CD9D",
"D. c #EED29F",
"F. c #EAD196",
"G. c #F0D598",
"H. c #F4DA9A",
"J. c #FFE097",
"K. c #FDE19D",
"L. c #CDC0AD",
"P. c #F5DAA0",
"I. c #FEE3A4",
"U. c #FFE6AC",
"Y. c #FFE9AE",
"T. c #FFEAB3",
"R. c #FFECBB",
"E. c #A6E2C3",
"W. c #C7C4C4",
"Q. c #CCD5C9",
"!. c #DCDFD1",
"~. c #E5E6E7",
/* pixels */
"                                                                              ",
"                                                                              ",
"                                                  , m v                       ",
"                                        v M S m m H H K H ,                   ",
"                                    , G H H H H H G H L @.K ,                 ",
"                                    S H G G G G G G G K @.@.J                 ",
"                                  c H G G G H G G G G K +.+.@.M               ",
"                                  S G G G G G G G G H J ( +.@.( ,             ",
"                                < G G G G G G G H G G H H K L K c             ",
"                                c H G H G G G G G G G G G G G H M             ",
"                                b F M M F G G G G G G G G G G G G ,           ",
"                              - c m m M m c M G G G H G G G G H H <           ",
"                        x m G G H H H H H M c M S G G G G H H H H x           ",
"                    < S H H H G G G G G G M > p y p y d d d g g g - X # = +   ",
"                    M G G G G G G G G G G H n i k k k k k j j j j % < 7 < -   ",
"                  , G G G G G G G H G G G G H n u j k j j j j j j & 7 x , -   ",
"                  o x M G F G G G G G G G G H H M d u i j j j j j & < , <     ",
"                    = , < x x x c c m m m M S S F G M g & t % t t $ 7 x       ",
"                            8 _ ` U C V N 7 , , < 7 7 x c x f x x x ,         ",
"                            g.K.Z.C.z.A.B.3.8 ; O . 4 ,.,.q o + O             ",
"                            A.u.e.y.D.Y.T.Z.c.Q.p.^ <.Y.Y.$.Q } Y             ",
"                            N.Z.e.y.I.Y.Y.V.!.E.*.h.I.T.R.G.Q.b.$.            ",
"                             .V.y.e.u.J.P.S.L.m.n.N.Y.R.R.H.M.f.`             ",
"                          f m / R ;.e.e.t.v.l.z.V.Z.H.F.H.K.B.x./             ",
"                        M G H G x V $.2.;.:.4.8.0.0.e.5.8.i.7.%.              ",
"                      G S G S M M F s.~.;.2.!   T { O.-.-.o.                  ",
"                    S H b , < x F G ] j.| d.x                                 ",
"                    S m < o < m H G n , c A c                                 ",
"                  ~ +.L 2 # x F M s s &...m x                                 ",
"                  9 9 M d h y s * > s.~./ c -                                 ",
"                ; 3 3 ; $ M l % $ A W.k.m c ,                                 ",
"                3 5 5 3 ; t i * - ' a.D m m K m                               ",
"                3 5 5 3 R z > - 5 a.k.4 : ) K , 8                             ",
"                @ @ @ @ 8 q 5 3 w w e @ O D < ; =.^                           ",
"                      . 3 w 5 @ 5 e 9 , - - 4 5 I P                           ",
"                      @ 3 5 5 . + > a i -   @ 3 [ 2.I                         ",
"                    @ e w w 5 e d.7 < 0 @     { >.R                           ",
"              , 7 , , Q W 5 w ..a.w w w 3     >.                              ",
"              7 m m x r Q w 5   5 5 w w                                       ",
"              , v m x 4 w     ; W W w 5                                       ",
"              : v m c         : 0 Q W                                         ",
"              : b M c       7 b c 6 3                                         ",
"              - m G m     , m m m v m x                                       ",
"              = m G b     x m b m m H G x                                     ",
"              = v m       = , , f c m S m                                     ",
"                ,                 + - , <                                     ",
"                                                                              ",
"                                                                              "
};
