/* XPM */
static char *Run__0091666802657[] = {
/* columns rows colors chars-per-pixel */
"39 48 166 2 ",
"   c None",
".  c #120C0D",
"X  c #161212",
"o  c #1C1313",
"O  c #1D1D1D",
"+  c #2F0E0E",
"@  c #3C0606",
"#  c #3B0B0B",
"$  c #340707",
"%  c #231212",
"&  c #2C1414",
"*  c #221D1D",
"=  c #2B1A1A",
"-  c #3C1414",
";  c #331A1A",
":  c #3B1E1E",
">  c #2D261F",
",  c #332A1D",
"<  c #1F2020",
"1  c #232323",
"2  c #2C2323",
"3  c #2D2C2C",
"4  c #3E2121",
"5  c #332C26",
"6  c #302F2F",
"7  c #3F2829",
"8  c #352222",
"9  c #3C3228",
"0  c #323232",
"q  c #3B3B3B",
"w  c #410101",
"e  c #4E0E0E",
"r  c #530303",
"t  c #5E0000",
"y  c #500B0B",
"u  c #50140C",
"i  c #411717",
"p  c #4D1313",
"a  c #441C1C",
"s  c #4C1B1B",
"d  c #650000",
"f  c #680000",
"g  c #442323",
"h  c #4B2626",
"j  c #4E2828",
"k  c #522121",
"l  c #532A2A",
"z  c #5B2E2E",
"x  c #47302A",
"c  c #473A2D",
"v  c #5E3820",
"b  c #543528",
"n  c #4F3535",
"m  c #4F3A30",
"M  c #463232",
"N  c #503030",
"B  c #5E3030",
"V  c #5F3B3B",
"C  c #513D3D",
"Z  c #612E2F",
"A  c #653333",
"S  c #6A3535",
"D  c #6C3838",
"F  c #743B3B",
"G  c #783E3E",
"H  c #554C37",
"J  c #594B3C",
"K  c #69572E",
"L  c #6E413C",
"P  c #63583D",
"I  c #444444",
"U  c #4D4840",
"Y  c #4F4845",
"T  c #5F5943",
"R  c #6A4B48",
"E  c #7C4040",
"W  c #704949",
"Q  c #6A5541",
"!  c #635A44",
"~  c #6E5E4F",
"^  c #605C5C",
"/  c #765656",
"(  c #76644E",
")  c #666657",
"_  c #796853",
"`  c #7F7575",
"'  c #806A37",
"]  c #856D38",
"[  c #947A3F",
"{  c #814343",
"}  c #894747",
"|  c #814848",
" . c #8A4848",
".. c #81724E",
"X. c #8B7B5A",
"o. c #8C7B53",
"O. c #907F56",
"+. c #AE745E",
"@. c #917F7F",
"#. c #39B575",
"$. c #958256",
"%. c #A18444",
"&. c #AC8C49",
"*. c #BC8F52",
"=. c #9D8A69",
"-. c #9E8D66",
";. c #A99668",
":. c #A79367",
">. c #CF9F5E",
",. c #D4B05D",
"<. c #E1B85D",
"1. c #D3AE60",
"2. c #DEB964",
"3. c #DFC17F",
"4. c #EFC563",
"5. c #F7CC69",
"6. c #F9CD6A",
"7. c #FACD67",
"8. c #FED269",
"9. c #FFCA7D",
"0. c #F9D275",
"q. c #FCD57D",
"w. c #FFD97E",
"e. c #6C9C83",
"r. c #828282",
"t. c #948586",
"y. c #948A82",
"u. c #81BB90",
"i. c #B0A589",
"p. c #B0BE88",
"a. c #A19FA0",
"s. c #A8A5A5",
"d. c #EF9B85",
"f. c #D7BA86",
"g. c #D8A798",
"h. c #C7B898",
"j. c #FFAE9C",
"k. c #8BC397",
"l. c #8CCAA6",
"z. c #89DBB2",
"x. c #A6D4AE",
"c. c #D3C494",
"v. c #DDC997",
"b. c #EECF88",
"n. c #E7CC8A",
"m. c #FAD989",
"M. c #E2CC9B",
"N. c #F3CD9D",
"B. c #EED29F",
"V. c #EAD196",
"C. c #F0D598",
"Z. c #F4DA9A",
"A. c #FFE097",
"S. c #FDE19D",
"D. c #CDC0AD",
"F. c #F5DAA0",
"G. c #FEE3A4",
"H. c #FFE6AC",
"J. c #FFE9AE",
"K. c #FFEAB3",
"L. c #FFECBB",
"P. c #A6E2C3",
"I. c #C7C4C4",
"U. c #CCD5C9",
"Y. c #DCDFD1",
"T. c #E5E6E7",
/* pixels */
"                                                                              ",
"                                                                              ",
"                                                  ; l j                       ",
"                                        h z B l l S S F D ;                   ",
"                                    : B S S S D S A S G  .F ;                 ",
"                                    z S A S A A A A A F }  .D                 ",
"                                  h S A A A A A A A A F } }  .z               ",
"                                  B A A A A A A A A S D E }  .E ;             ",
"                                : A A A A A A A A A S A D F G F h             ",
"                                h S A S A A A A A A A A A A A A z             ",
"                                j A B z z A A S S A A A A A A A A ;           ",
"                              & h j l l z h l A A A A A S A A A A :           ",
"                        g l B S A S S S D z h A B B A A A S S A S 4           ",
"                    : B S S S A A A A A A Z # y y e e p p p s s s & . % % o   ",
"                    z A A A A A A A A A A A k r f f f f f f d d d @ ; g 4 &   ",
"                  ; A A A A A A A A A A A A A k y d f d d d d d d # g 4 ; &   ",
"                  o g z B Z A A A S S A A S A S z p r t d d d d d # 8 ; :     ",
"                    % ; : g g g h k l l l z B z Z A z a # @ w w w + g a       ",
"                            5 ( Q J m x x : ; : : 8 g g h g g a g g ;         ",
"                            i.S.m.b.f.M.M.:.5 O o . 2 =.=.9 X o X             ",
"                            M.w.8.q.B.H.J.m.h.U.e.T -.J.J.X.Y ) J             ",
"                            c.m.8.q.H.K.H.n.Y.P.#.p.G.K.L.C.U.k.X.            ",
"                            ( f.0.6.m.m.G.N.D.z.l.c.J.L.L.Z.x.u.!             ",
"                        l z z L P &.7.7.9.j.d.f.3.m.Z.V.F.S.v.g.R             ",
"                      B z A A A g b X.;.&.*.>.<.4.5.8.,.2.0.,.+.              ",
"                    A S h g l h z Z t.T.&.:.U   K ( [ %.%.]                   ",
"                    z z :   ; h A A / a._ y.7                                 ",
"                    W { z o : l A A k ; h n j g                               ",
"                  M V l h % g Z z - - @.` l j                                 ",
"                  o * 1 O o # i # - t.T.R k =                                 ",
"                  1 3 3 1 5 y @ - N I.s.l l ,                                 ",
"                = < 3 3 > H v $ * ^ r.C l l D S                               ",
"              : h * 1 O X O o = 3 r.s.2 & V | j > !                           ",
"            4 l l g = o < 3 6 1 0 0 0 *   U n * H o.                          ",
"          g z Z z h 4 2 0 0 0 < 3 0 6       O 3 5 P !                         ",
"        : l A A h     q 0 0 0 < = - 2 ; &     O c :...                        ",
"          : g :       0 3 0 0 1 2 o     ;       o.$.                          ",
"                          3 0 3 1               $.                            ",
"                          1 0 0 1                                             ",
"                          3 q I q                                             ",
"                          0 I I 0                                             ",
"                            8 g =                                             ",
"                            g l l l z l :                                     ",
"                          = l l l l A A z ;                                   ",
"                          ; l h h h h h h ;                                   ",
"                          % = % % % % %                                       ",
"                                                                              ",
"                                                                              "
};
