/* XPM */
static char *run__rev__0071666807397[] = {
/* columns rows colors chars-per-pixel */
"39 48 177 2 ",
"   c None",
".  c #0D0C0C",
"X  c #140D0D",
"o  c #1C0F0F",
"O  c #0F0F10",
"+  c #161212",
"@  c #1E1010",
"#  c #1C1C1C",
"$  c #191819",
"%  c #3D0202",
"&  c #360808",
"*  c #3C0C0C",
"=  c #300303",
"-  c #241312",
";  c #2B1616",
":  c #221A18",
">  c #2B1D1D",
",  c #231F17",
"<  c #361010",
"1  c #3F1515",
"2  c #341A1B",
"3  c #3B1E1E",
"4  c #25221E",
"5  c #3D1F20",
"6  c #252524",
"7  c #2C2222",
"8  c #2E2B24",
"9  c #2B2B2B",
"0  c #3E2121",
"q  c #3A2C2C",
"w  c #3C362A",
"e  c #2E2E30",
"r  c #333232",
"t  c #3D3D3D",
"y  c #410101",
"u  c #4E0202",
"i  c #4C0C0C",
"p  c #420D0D",
"a  c #540101",
"s  c #5B0101",
"d  c #560B0B",
"f  c #4D1414",
"g  c #431B1B",
"h  c #4C1A1A",
"j  c #421212",
"k  c #531212",
"l  c #511E1E",
"z  c #650000",
"x  c #680000",
"c  c #432322",
"v  c #4B2525",
"b  c #4F2728",
"n  c #4F2828",
"m  c #442D27",
"M  c #502727",
"N  c #532A2A",
"B  c #5C2E2E",
"V  c #4A352B",
"C  c #443F2F",
"Z  c #5F302F",
"A  c #4F3737",
"S  c #483934",
"D  c #5F3131",
"F  c #513838",
"G  c #553935",
"H  c #6A2F2F",
"J  c #653333",
"K  c #693535",
"L  c #6D3939",
"P  c #643F3F",
"I  c #733B3B",
"U  c #7B3F3F",
"Y  c #554126",
"T  c #4C4434",
"R  c #594E35",
"E  c #594C3D",
"W  c #66542B",
"Q  c #675A3C",
"!  c #725B3C",
"~  c #776333",
"^  c #633F41",
"/  c #434343",
"(  c #4A4A4A",
")  c #534141",
"_  c #5C5C5C",
"`  c gray33",
"'  c #624E4E",
"]  c #7D4141",
"[  c #615954",
"{  c #765959",
"}  c #5B745D",
"|  c #6D644C",
" . c #6B6046",
".. c #77684F",
"X. c #726347",
"o. c #686A67",
"O. c #766262",
"+. c #7C7070",
"@. c #8A723B",
"#. c #93793D",
"$. c #894747",
"%. c #8A4848",
"&. c #854545",
"*. c #8A7749",
"=. c #9A7F41",
"-. c #8D7B55",
";. c #8F7E58",
":. c #847857",
">. c #B58A33",
",. c #9F8342",
"<. c #998554",
"1. c #AD904F",
"2. c #B08854",
"3. c #8D826B",
"4. c #988B6E",
"5. c #848D71",
"6. c #8B9C73",
"7. c #9E9379",
"8. c #AD9868",
"9. c #BD8178",
"0. c #AB9873",
"q. c #C0954E",
"w. c #CA965E",
"e. c #CDAA5B",
"r. c #DEB060",
"t. c #D5B97A",
"y. c #E6BD60",
"u. c #EBC263",
"i. c #EAC369",
"p. c #F6CC6A",
"a. c #FFD36D",
"s. c #FFD472",
"d. c #5EBE8C",
"f. c #64BC84",
"g. c #71D1A1",
"h. c #868585",
"j. c #928883",
"k. c #9D9E9E",
"l. c #9D9494",
"z. c #A59696",
"x. c #98B6A7",
"c. c #FC9F93",
"v. c #DFA884",
"b. c #CAB687",
"n. c #D7BF85",
"m. c #D2BA8B",
"M. c #DCBB99",
"N. c #FFBF96",
"B. c #C2B8A2",
"V. c #ABC19F",
"C. c #83D0A6",
"Z. c #A0DABB",
"A. c #D8C597",
"S. c #ECCB81",
"D. c #E9CD8E",
"F. c #F9D787",
"G. c #E0CB98",
"H. c #ECD296",
"J. c #F1D495",
"K. c #FFDF93",
"L. c #F1D89D",
"P. c #FFE39B",
"I. c #DAD2A4",
"U. c #E2D2A8",
"Y. c #F4DAA5",
"T. c #FDE2A1",
"R. c #FFE8A7",
"E. c #FFE5AC",
"W. c #FFEAAF",
"Q. c #FFECB2",
"!. c #FFEBBB",
"~. c #B5D9C3",
"^. c #CCCBCC",
"/. c #C8C3C1",
"(. c #FFEDC0",
"). c #DBF7EA",
"_. c #F3F4F4",
/* pixels */
"                                                                              ",
"                          N n                                                 ",
"                      c I L K J n N B N 0                                     ",
"                    v &.%.I J J K L K K K N                                   ",
"                  0 ] %.$.L J J J J J J J L b                                 ",
"                  L %.$.&.K J K J K J J J J J 3                               ",
"                N $.$.$.U J J J J J J J J J J M                               ",
"                B U I I K J J J J J J K J J J J                               ",
"              3 J J J J J J K J J J J J J J J J 2                             ",
"              v J J J J J J J J J J J J B B J J c                             ",
"              M K J J J K J J J J J M M N N M M 3                             ",
"              N K J J J D J J J J B v J J L K L J D N c                       ",
"    o ; ; - X 1 h f f f f f k i i i 3 J K J J J J K K K J v                   ",
"      ; 0 0 2 a z z x z x x x x x d B J J J J J J J J J J K c                 ",
"      2 2 c 2 u z z z z z z z s i H J J J J K J J J J J J K N                 ",
"        0 3 2 u z z z z z a d h J K J J J J J J J J J J J B 3                 ",
"        ; v 2 & y y % * j v B J B Z Z B N B N M M v v c 0 2 @                 ",
"            2 c c g c c v c 0 5 2 2 2 c m m S G E S @ @                       ",
"              X + + + ..0.X.X X $ # R b.A.m.b.s.F.I.[                         ",
"              T | o.E A.Q.G. .} x./.t.R.Q.Y.H.a.a.K.7.                        ",
"              | 6.Z.U.R.!.Q.D.f.d.).M.Y.E.E.P.a.a.P.4.                        ",
"              w 5.C.I.Q.(.Q.L.V.g.~.M.Y.P.P.s.a.F.b.                          ",
"                9.M.J.T.H.H.K.S.S.v.c.J.a.a.y.*.:.T                           ",
"                  2.i.p.e.u.p.p.y.r.w.1.1.8.! - 2 b n                         ",
"                    W #.,.=.@.~ Y V 3.>.B.^.^ M J J J J B N                   ",
"                    $ 8         v 5 j.-.^.z.J D N J J B J J B                 ",
"                  ;. .<.Q ; c   n n F v ) P J J v 3 3 2 b B J { A             ",
"                  8.E w 4 N L 0 v v N +.n j D K M 2       3 &.B > 6 #         ",
"                Q -.8 9 6 L ^ B J v n l./.3 1 D B 0         N > 6 e 9 #       ",
"                  <.  # > ' D D J 5 v O._.O.< < g p %       + # 9 9 9 #       ",
"                                    v G z.[ 1 = a H k         6 6 6 # .       ",
"                                      5 h.k.6 ; i d s         ! T + .         ",
"                                      : o._ 4 9 e k z y         , O           ",
"                                      6 e # 9 r r q %                         ",
"                                  ; 2 > 6 9 r r r 6                           ",
"                                    ; 7 r r r e ` h.                          ",
"                                    9 t r e 9 6 / _ r                         ",
"                                    9 ( ( r 6 r 9 / 9                         ",
"                            c v 3 5 3 q t r 9 r r ( q 0 b c -                 ",
"                        ; N J J N N N v :     6 / / q n N N c -               ",
"                        c D D N N N N v -         6 c n N v 2                 ",
"                        ; 2 3 0 3 c v v ;         B J N v ;                   ",
"                                      ;         5 J D v ;                     ",
"                                                0 B n ;                       ",
"                                                ; c ;                         ",
"                                                                              ",
"                                                                              ",
"                                                                              "
};
