/* XPM */
static char *run__rev__0091666807397[] = {
/* columns rows colors chars-per-pixel */
"39 48 166 2 ",
"   c None",
".  c #120C0D",
"X  c #161212",
"o  c #1C1313",
"O  c #1D1D1D",
"+  c #2F0E0E",
"@  c #3C0606",
"#  c #3B0B0B",
"$  c #340707",
"%  c #231212",
"&  c #2C1414",
"*  c #221D1D",
"=  c #2B1A1A",
"-  c #3C1414",
";  c #331A1A",
":  c #3B1E1E",
">  c #2D261F",
",  c #332A1D",
"<  c #1F2020",
"1  c #232323",
"2  c #2C2323",
"3  c #2D2C2C",
"4  c #3E2121",
"5  c #332C26",
"6  c #302F2F",
"7  c #3F2829",
"8  c #352222",
"9  c #3C3228",
"0  c #323232",
"q  c #3B3B3B",
"w  c #410101",
"e  c #4E0E0E",
"r  c #530303",
"t  c #5E0000",
"y  c #500B0B",
"u  c #50140C",
"i  c #411717",
"p  c #4D1313",
"a  c #441C1C",
"s  c #4C1B1B",
"d  c #650000",
"f  c #680000",
"g  c #442323",
"h  c #4B2626",
"j  c #4E2828",
"k  c #522121",
"l  c #532A2A",
"z  c #5B2E2E",
"x  c #47302A",
"c  c #473A2D",
"v  c #5E3820",
"b  c #543528",
"n  c #4F3535",
"m  c #4F3A30",
"M  c #463232",
"N  c #503030",
"B  c #5E3030",
"V  c #5F3B3B",
"C  c #513D3D",
"Z  c #612E2F",
"A  c #653333",
"S  c #6A3535",
"D  c #6C3838",
"F  c #743B3B",
"G  c #783E3E",
"H  c #554C37",
"J  c #594B3C",
"K  c #69572E",
"L  c #6E413C",
"P  c #63583D",
"I  c #444444",
"U  c #4D4840",
"Y  c #4F4845",
"T  c #5F5943",
"R  c #6A4B48",
"E  c #7C4040",
"W  c #704949",
"Q  c #6A5541",
"!  c #635A44",
"~  c #6E5E4F",
"^  c #605C5C",
"/  c #765656",
"(  c #76644E",
")  c #666657",
"_  c #796853",
"`  c #7F7575",
"'  c #806A37",
"]  c #856D38",
"[  c #947A3F",
"{  c #814343",
"}  c #894747",
"|  c #814848",
" . c #8A4848",
".. c #81724E",
"X. c #8B7B5A",
"o. c #8C7B53",
"O. c #907F56",
"+. c #AE745E",
"@. c #917F7F",
"#. c #39B575",
"$. c #958256",
"%. c #A18444",
"&. c #AC8C49",
"*. c #BC8F52",
"=. c #9D8A69",
"-. c #9E8D66",
";. c #A99668",
":. c #A79367",
">. c #CF9F5E",
",. c #D4B05D",
"<. c #E1B85D",
"1. c #D3AE60",
"2. c #DEB964",
"3. c #DFC17F",
"4. c #EFC563",
"5. c #F7CC69",
"6. c #F9CD6A",
"7. c #FACD67",
"8. c #FED269",
"9. c #FFCA7D",
"0. c #F9D275",
"q. c #FCD57D",
"w. c #FFD97E",
"e. c #6C9C83",
"r. c #828282",
"t. c #948586",
"y. c #948A82",
"u. c #81BB90",
"i. c #B0A589",
"p. c #B0BE88",
"a. c #A19FA0",
"s. c #A8A5A5",
"d. c #EF9B85",
"f. c #D7BA86",
"g. c #D8A798",
"h. c #C7B898",
"j. c #FFAE9C",
"k. c #8BC397",
"l. c #8CCAA6",
"z. c #89DBB2",
"x. c #A6D4AE",
"c. c #D3C494",
"v. c #DDC997",
"b. c #EECF88",
"n. c #E7CC8A",
"m. c #FAD989",
"M. c #E2CC9B",
"N. c #F3CD9D",
"B. c #EED29F",
"V. c #EAD196",
"C. c #F0D598",
"Z. c #F4DA9A",
"A. c #FFE097",
"S. c #FDE19D",
"D. c #CDC0AD",
"F. c #F5DAA0",
"G. c #FEE3A4",
"H. c #FFE6AC",
"J. c #FFE9AE",
"K. c #FFEAB3",
"L. c #FFECBB",
"P. c #A6E2C3",
"I. c #C7C4C4",
"U. c #CCD5C9",
"Y. c #DCDFD1",
"T. c #E5E6E7",
/* pixels */
"                                                                              ",
"                                                                              ",
"                      j l :                                                   ",
"                  ; S F D A l l B z j                                         ",
"                ; F } G A A S D S S D A ;                                     ",
"                D } } G A A A A A A A S B                                     ",
"              z } } } F A A S A A A A A S j                                   ",
"            ; E } } { D S A A A A A A A A z                                   ",
"            j F G F D A A A A A A A A A A A :                                 ",
"            z A A A A A A S A A A S A S A A h                                 ",
"          ; A A A A A S A A A A A A z z A A j                                 ",
"          : A A A A A A A A A A z j l l l j h &                               ",
"          g S A S A A A A B Z Z g z S A S S S S A l g                         ",
"  o & o . & s s s p p p p e y y - z A A A A A A A S A B :                     ",
"  & : 4 : @ d d d f f f d f f r k A A A S A A A A A A A z                     ",
"  & ; g : # d d d d d d f d r h S A S A A A A A A A A A A ;                   ",
"    ; : : # d d d d d t r p z S A A A A A A A A A Z Z z h %                   ",
"      g 4 + w @ w @ # s l A A B Z z z z l l h g g g : ; o                     ",
"        ; g g a g g g g 4 4 : ; ; , x x m Y Q ~ 5                             ",
"            X o X 9 =.=.2 . X * , :.M.M.f.b.q.A.i.                            ",
"            P ) Y X.J.J.-.T e.U.h.m.J.H.B.q.8.w.M.                            ",
"            X.k.U.Z.L.K.G.p.#.P.Y.n.H.H.G.q.8.m.c.                            ",
"            ) e.x.Z.L.L.H.c.l.z.D.N.F.Z.w.6.0.f.(                             ",
"            Q g.v.G.Z.V.Z.m.3.f.d.j.m.7.7.&.Q L z A l                         ",
"              +.1.0.2.,.5.5.4.<.>.*.&.:.X.b g A S A z A                       ",
"                  ] %.%.[ ' K   U :.&.T.t.Z z j l g h A A                     ",
"                                7 y._ s./ A A g ;   : z z                     ",
"                              g j n g - k A A l : % z E W                     ",
"                                h l @.@.- i z A g % g l V M                   ",
"                                = j R T.t.- # a # o < 1 * o                   ",
"                                : j j s.I.N + @ u 5 1 3 3 1                   ",
"                              A D l j C r.^ % $ v H 1 3 3 1 ;                 ",
"                          ! , j | V & 2 s.` 3 = % O X O 1 * h :               ",
"                          X.H O N Y   * q q 6 1 6 3 O X = g l l 4             ",
"                        T P 5 3 o       3 0 3 1 0 0 6 2 4 h l B z g           ",
"                        _ :.c O     = ; 1 - = < 0 0 0 q     h A A l :         ",
"                          $.o.      ;     o 2 1 0 0 3 6       4 g :           ",
"                            $.              < 6 0 6                           ",
"                                            1 0 0 1                           ",
"                                            q I q 6                           ",
"                                            0 I I 0                           ",
"                                            = 7 8                             ",
"                                    : l z l l l g                             ",
"                                  & z A A l l j l ;                           ",
"                                  : h j h h g h j :                           ",
"                                      % % % % & & o                           ",
"                                                                              ",
"                                                                              "
};
