/* XPM */
static char *run__rev__0041666807397[] = {
/* columns rows colors chars-per-pixel */
"39 48 166 2 ",
"   c None",
".  c gray6",
"X  c #120C0D",
"o  c #151112",
"O  c #1C1213",
"+  c gray11",
"@  c #2A0C0C",
"#  c #3C0606",
"$  c #3B0B0B",
"%  c #350C0C",
"&  c #2A0F10",
"*  c #251313",
"=  c #2B1616",
"-  c #221E1D",
";  c #2E1818",
":  c #371111",
">  c #3C1414",
",  c #341B1B",
"<  c #3B1E1E",
"1  c #2E261D",
"2  c #22211D",
"3  c #362E1E",
"4  c #232323",
"5  c #2E2121",
"6  c #272929",
"7  c #2B2B2B",
"8  c #3E2222",
"9  c #3B2728",
"0  c #352D2D",
"q  c #352625",
"w  c #3A3329",
"e  c #323232",
"r  c #3B3A3A",
"t  c #410101",
"y  c #4E0E0E",
"u  c #530303",
"i  c #5E0101",
"p  c #520B0B",
"a  c #411717",
"s  c #4D1313",
"d  c #431C1C",
"f  c #4C1B1B",
"g  c #650000",
"h  c #680000",
"j  c #442222",
"k  c #4B2526",
"l  c #4F2828",
"z  c #522121",
"x  c #532A2A",
"c  c #5B2E2E",
"v  c #47302A",
"b  c #4B362D",
"n  c #543528",
"m  c #4F3A30",
"M  c #4F3939",
"N  c #523333",
"B  c #5E3030",
"V  c #503D3D",
"C  c #612E2F",
"Z  c #653333",
"A  c #693535",
"S  c #6C3838",
"D  c #743B3B",
"F  c #783E3E",
"G  c #4A4333",
"H  c #554E3B",
"J  c #594737",
"K  c #69572E",
"L  c #634C34",
"P  c #62553B",
"I  c #6E5F3E",
"U  c #444444",
"Y  c #4A4A48",
"T  c #4C4941",
"R  c #5F5C43",
"E  c #634C4C",
"W  c #6D4943",
"Q  c #7D4343",
"!  c #6E5E4F",
"~  c #655845",
"^  c #605B5B",
"/  c #765656",
"(  c #7C6E4D",
")  c #666657",
"_  c #796853",
"`  c #7F7E7D",
"'  c #7F7575",
"]  c #806A37",
"[  c #856D38",
"{  c #947A3F",
"}  c #894747",
"|  c #8A4848",
" . c #824343",
".. c #8A7B5B",
"X. c #817557",
"o. c #AE745E",
"O. c #917F7F",
"+. c #39B575",
"@. c #A18444",
"#. c #AF8D46",
"$. c #AA8C4C",
"%. c #BC8F52",
"&. c #9D8A69",
"*. c #9E8D66",
"=. c #A99668",
"-. c #A69369",
";. c #B29C69",
":. c #CF9F5E",
">. c #D4B05D",
",. c #E1B85D",
"<. c #D3AE60",
"1. c #DEB964",
"2. c #DFC17F",
"3. c #EFC563",
"4. c #F7CC69",
"5. c #F9CD6A",
"6. c #FACD67",
"7. c #FED169",
"8. c #FFCA7D",
"9. c #FCD57C",
"0. c #FFD97E",
"q. c #F9D172",
"w. c #6C9C83",
"e. c #828383",
"r. c #948586",
"t. c #948A82",
"y. c #9C9D9D",
"u. c #81BB90",
"i. c #B0A589",
"p. c #B0BE88",
"a. c #A19FA0",
"s. c #A9A5A6",
"d. c #EF9B85",
"f. c #D8BA89",
"g. c #D8A798",
"h. c #C7B898",
"j. c #FFAE9C",
"k. c #8BC397",
"l. c #8CCAA6",
"z. c #89DBB2",
"x. c #A6D4AE",
"c. c #D3C394",
"v. c #DDC997",
"b. c #E7CD8C",
"n. c #EECF88",
"m. c #FAD989",
"M. c #E2CC9B",
"N. c #F3CD9D",
"B. c #EED29F",
"V. c #EAD196",
"C. c #F0D598",
"Z. c #F4DA9A",
"A. c #FFE097",
"S. c #FDE19D",
"D. c #CDC0AD",
"F. c #F5DAA0",
"G. c #FEE3A4",
"H. c #FFE6AC",
"J. c #FFE9AE",
"K. c #FFEAB3",
"L. c #FFECBB",
"P. c #A6E2C3",
"I. c #C7C4C4",
"U. c #CCD5C9",
"Y. c #DCDFD1",
"T. c #E5E6E7",
/* pixels */
"                                                                              ",
"                                                                              ",
"                      k x ,                                                   ",
"                  , A D A A x x B c l                                         ",
"                < D } F Z Z A S A A S Z ,                                     ",
"                S } } F Z Z Z Z Z Z Z A B                                     ",
"              c } } } D Z Z Z Z Z Z Z Z A l                                   ",
"            , Q } }  .S Z Z Z Z A Z Z Z Z c                                   ",
"            l D F D A Z Z Z Z Z Z Z Z Z Z Z <                                 ",
"            c Z Z A Z Z Z Z Z A A Z Z A Z A k                                 ",
"          , B Z Z Z Z Z Z Z Z Z Z Z B c c Z x                                 ",
"          < A A Z Z Z A Z Z Z A c l x x x x k =                               ",
"          j A A A Z Z Z Z B B B j x A A A A A A B x j                         ",
"  O * * X = f f f s s s s y p p $ Z Z A Z Z Z Z A A A B <                     ",
"  = < < < # g g g h h h h h h i z A Z Z Z Z Z Z Z Z Z Z c                     ",
"  = , j < # g g g g g g g g u k A Z Z Z A Z Z Z Z Z Z Z Z ,                   ",
"    , < 3 % g g g g g i u s c A Z Z Z Z A Z Z Z Z Z B c j O                   ",
"      j d % # t t # $ d x Z Z B c c c c x l k j j d < , *                     ",
"        , d j d j j j k 8 8 8 , ; 3 v v m J ~ ! q                             ",
"            . . O w &.&.5 X o - 3 =.M.M.f.n.9.S.i.                            ",
"            P ) Y ..J.J.*.R w.U.h.m.J.H.B.9.7.0.M.                            ",
"            &.k.U.C.K.K.G.p.+.P.Y.b.J.H.G.9.6.m.c.                            ",
"            ) w.x.F.L.L.H.c.l.z.D.N.F.Z.0.5.9.b.X.                            ",
"            W g.v.G.Z.V.m.m.2.f.d.j.n.6.6.$.P J ,                             ",
"              o.<.q.1.>.6.6.6.,.:.%.#.-...n j C Z x                           ",
"                  [ @.@.{ I K   T -.$.T.r.C c Z Z A c                         ",
"                                9 t._ a./ Z c j x x B C                       ",
"                                k M k > z Z Z x , 8 C Z                       ",
"                                ; x ' O.< a c C 8 j c c                       ",
"                                  l E T.r.> % a j F Q M                       ",
"                                  , x s.I.l @ @ = 8 Z E                       ",
"                                < Z c V e.^ 1 4 4 6 4 *                       ",
"                                3 C k 5 s.` I w 6 7 7 +                       ",
"                              ( L ; = - r 7 - + 6 7 6 +         * =           ",
"                              H P + : < 0 e - . o 4 4 6 4 4 + = j j           ",
"                              X.P + y i p =       o 4 7 0 U 0 j x x ,         ",
"                              ( ;.J 7 q $ V         4 e e Y r j x x k *       ",
"                                P G e e 7 y.y.        e e U r = x x x j       ",
"                                    e e 6 r `                   , x Z x <     ",
"                                    e r U 6                       k Z Z l =   ",
"                                    U Y r 4                         < l j =   ",
"                                    - q j *                                   ",
"                                  k j l x j                                   ",
"                              8 c Z c x x x ,                                 ",
"                              x Z c x l l l 8                                 ",
"                            = j j < , = = = *                                 ",
"                                                                              ",
"                                                                              "
};
