/* XPM */
static char *run__rev__0001666807396[] = {
/* columns rows colors chars-per-pixel */
"39 48 168 2 ",
"   c None",
".  c #0C0A0A",
"X  c #120C0D",
"o  c #141111",
"O  c #1C1313",
"+  c #171718",
"@  c #1B1A1A",
"#  c #2F0E0E",
"$  c #3C0606",
"%  c #330D0D",
"&  c #3B0A0A",
"*  c #221212",
"=  c #2C1515",
"-  c #211D1D",
";  c #2D1C1C",
":  c #3B1414",
">  c #341B1B",
",  c #3B1E1E",
"<  c #2E251E",
"1  c #362E1E",
"2  c #242424",
"3  c #2A2523",
"4  c #272828",
"5  c #2C2C2C",
"6  c #312525",
"7  c #3D2222",
"8  c #332C25",
"9  c #332E2E",
"0  c #3F2B2B",
"q  c #3A2D25",
"w  c #3E362A",
"e  c #333333",
"r  c #3B3737",
"t  c #3D3D3D",
"y  c #420202",
"u  c #4E0E0E",
"i  c #540404",
"p  c #5E0000",
"a  c #500B0B",
"s  c #421616",
"d  c #4D1313",
"f  c #4C1B1B",
"g  c #421E1E",
"h  c #650000",
"j  c #680000",
"k  c #442223",
"l  c #4B2626",
"z  c #4F2828",
"x  c #442C2B",
"c  c #522121",
"v  c #532A2A",
"b  c #5B2E2E",
"n  c #47302A",
"m  c #4B362D",
"M  c #543528",
"N  c #4F3A30",
"B  c #433F3F",
"V  c #4F3535",
"C  c #5E3131",
"Z  c #523E3F",
"A  c #602E2F",
"S  c #653333",
"D  c #693535",
"F  c #6C3939",
"G  c #743B3B",
"H  c #783E3E",
"J  c #47402F",
"K  c #574335",
"L  c #594B3C",
"P  c #69572E",
"I  c #66593D",
"U  c #434242",
"Y  c #4A4948",
"T  c #4C4941",
"R  c #5F5C43",
"E  c #505050",
"W  c #595753",
"Q  c #6A4B48",
"!  c #7C4141",
"~  c #6E5E4F",
"^  c #665943",
"/  c #695151",
"(  c #765656",
")  c #6B6146",
"_  c #746648",
"`  c #666657",
"'  c #64625C",
"]  c #796853",
"[  c #7F7575",
"{  c #806A37",
"}  c #856D38",
"|  c #947A3F",
" . c #894747",
".. c #8A4848",
"X. c #824343",
"o. c #806C4D",
"O. c #80714D",
"+. c #827759",
"@. c #8A7B5B",
"#. c #AE745E",
"$. c #917F7F",
"%. c #39B575",
"&. c #A18444",
"*. c #AF8D46",
"=. c #AA8C4C",
"-. c #BC8F52",
";. c #9D8A69",
":. c #9E8D66",
">. c #A49067",
",. c #A99668",
"<. c #A7956B",
"1. c #CF9F5E",
"2. c #D4B05D",
"3. c #E1B85D",
"4. c #D3AE60",
"5. c #DEB964",
"6. c #DFC17F",
"7. c #EFC563",
"8. c #F7CC69",
"9. c #F9CD6A",
"0. c #FACD67",
"q. c #FED169",
"w. c #FFCA7D",
"e. c #FCD57C",
"r. c #FFD97E",
"t. c #F9D172",
"y. c #6C9C83",
"u. c #948586",
"i. c #948981",
"p. c #81BB90",
"a. c #B0A589",
"s. c #B0BE88",
"d. c #A19FA0",
"f. c #ACA6A6",
"g. c #EF9B85",
"h. c #D8BA89",
"j. c #D8A798",
"k. c #C7B898",
"l. c #FFAE9C",
"z. c #8BC397",
"x. c #8CCAA6",
"c. c #89DBB2",
"v. c #A6D4AE",
"b. c #D3C394",
"n. c #DDC997",
"m. c #E7CD8C",
"M. c #EECF88",
"N. c #FAD989",
"B. c #E2CC9B",
"V. c #F3CD9D",
"C. c #EED29F",
"Z. c #EAD196",
"A. c #F0D598",
"S. c #F4DA9A",
"D. c #FFE097",
"F. c #FDE19D",
"G. c #CDC0AD",
"H. c #F5DAA0",
"J. c #FEE3A4",
"K. c #FFE6AC",
"L. c #FFE9AE",
"P. c #FFEAB3",
"I. c #FFECBB",
"U. c #A6E2C3",
"Y. c #C9C6C6",
"T. c #CCD5C9",
"R. c #DCDFD1",
"E. c #E5E6E7",
/* pixels */
"                                                                              ",
"                                                                              ",
"                      z v >                                                   ",
"                  > D G D D v v C b z                                         ",
"                > G ..H S S D F D D F A ,                                     ",
"                F .. .G S S S S S S S D C                                     ",
"              b ......G S S S S S S S S S z                                   ",
"            > ! ....X.D S S D S S S S S S A                                   ",
"            z G H G F S S S S S S S S S S S ,                                 ",
"            b S S S S S S S S S S S D S S D l                                 ",
"          > S S S S S S D S S S S S b C b S z                                 ",
"          , S S S S S S S S S D b z v v v v l =                               ",
"          k D S D S S S S C C b k b S D D D D D S v k                         ",
"  O * * X = f f f d d d d u a a : A S S S S S S S D S C ,                     ",
"  = , k , $ h h j j j j h j j p c D S S S S S S S S S S b                     ",
"  = > , , & h h h j h h h h i l S S S S D S S S S S S S S >                   ",
"    > , , % h h h h h p i d b D D S S S S S S S S S A b k O                   ",
"      k g # y y y $ & g b S C C A b b b v z l k k g , > *                     ",
"        > k k g k k l k , , , > > < x m V L I ~ 6                             ",
"            o O o w ;.;.3 X + - 1 ,.B.B.h.M.e.F.a.                            ",
"            I ` T @.L.L.:.^ y.T.k.N.L.K.C.e.q.r.B.                            ",
"            @.z.T.S.I.P.J.s.%.U.R.m.L.K.J.e.q.N.b.                            ",
"            ` y.v.H.I.I.K.b.x.c.G.V.H.S.r.9.e.m.+.                            ",
"            Q j.n.J.S.Z.N.N.6.h.g.l.w.q.0.=.I K                               ",
"              #.4.t.5.2.9.8.0.3.1.-.*.>.@.M k A S l                           ",
"                  } &.&.O.{ P   T >.=.E.u.b b S S S v                         ",
"                                q i.] f.( S v l b b b                         ",
"                                k V k : c S S z > k S S                       ",
"                                = v [ $.s s b b , z S b                       ",
"                                  v Q E.i.% % , D ! C                         ",
"                                  , v f.Y.x O + 7 F /                         ",
"                                  v v Z ' ) 3 4 4 ; f                         ",
"                                  l < < W m 2 5 5 4 : %                       ",
"                                ] 8 @ - 4 + + 5 5 2 4 5                       ",
"                                _ J e 2 e 4 o + 4 2 e e                       ",
"                              3 q > ; * 9 9 < . o 2 e e 2                     ",
"                                ^ o.K < i i y ;   + e e 4                     ",
"                                  I ) < : s # B E 2 4 e 5                     ",
"                                        e e 5 r t 2 5 e 5 4                   ",
"                                          e e U U ; 6 t Y t                   ",
"                                          5 5 Y t k 0 Y B 6                   ",
"                                              e x v k 3 7 z g                 ",
"                                                b v l l v v v <               ",
"                                              l z v S b v v v l *             ",
"                                              , k A S v z k , =               ",
"                                              * g z k > *                     ",
"                                                * *                           ",
"                                                                              "
};
