/* XPM */
static char *Run__0051666807737[] = {
/* columns rows colors chars-per-pixel */
"39 48 172 2 ",
"   c None",
".  c #0D0E0E",
"X  c #120C0D",
"o  c #1B0F0F",
"O  c #151212",
"+  c #1C1212",
"@  c #1B1A1A",
"#  c #260D0D",
"$  c #2F0E0E",
"%  c #3C0606",
"&  c #3B0A0A",
"*  c #350808",
"=  c #241313",
"-  c #2B1515",
";  c #221D1D",
":  c #2E1A1A",
">  c #3C1414",
",  c #341B1B",
"<  c #3A1E1E",
"1  c #2D261F",
"2  c #362E1E",
"3  c #242424",
"4  c #2A2423",
"5  c #2C2C2C",
"6  c #332323",
"7  c #3D2120",
"8  c #382F22",
"9  c #3C2B2B",
"0  c #352B2A",
"q  c #383329",
"w  c #323232",
"e  c #393939",
"r  c #3D3737",
"t  c #420101",
"y  c #470E0E",
"u  c #530303",
"i  c #5B0101",
"p  c #500B0B",
"a  c #5A0A0A",
"s  c #411717",
"d  c #4C1313",
"f  c #431C1C",
"g  c #4C1B1B",
"h  c #521010",
"j  c #650000",
"k  c #680000",
"l  c #620C0C",
"z  c #51291D",
"x  c #432323",
"c  c #4B2626",
"v  c #4D2827",
"b  c #4F2828",
"n  c #512323",
"m  c #532A2A",
"M  c #5B2E2E",
"N  c #47302A",
"B  c #4B362D",
"V  c #543528",
"C  c #4F3A30",
"Z  c #4F3939",
"A  c #503030",
"S  c #5E3030",
"D  c #513D3D",
"F  c #612E2F",
"G  c #653333",
"H  c #693535",
"J  c #6D3939",
"K  c #733B3B",
"L  c #793E3E",
"P  c #4F4838",
"I  c #4A4332",
"U  c #594B3C",
"Y  c #59513D",
"T  c #69572E",
"R  c #65573F",
"E  c #695C3E",
"W  c #444444",
"Q  c #4B4A49",
"!  c #4C4841",
"~  c #5C4B4B",
"^  c #5F5C43",
"/  c #6A4B48",
"(  c #7C4040",
")  c #764B47",
"_  c #6E5E4F",
"`  c #655845",
"'  c #605C5C",
"]  c #765656",
"[  c #786947",
"{  c #746544",
"}  c #666657",
"|  c #796853",
" . c #7B7054",
".. c #7C7777",
"X. c #806A37",
"o. c #856D38",
"O. c #947A3F",
"+. c #894747",
"@. c #8A4848",
"#. c #824343",
"$. c #8A7B5B",
"%. c #AE745E",
"&. c #917F7F",
"*. c #39B575",
"=. c #978558",
"-. c #A18444",
";. c #AC8C49",
":. c #BC8F52",
">. c #A7915E",
",. c #9D8A69",
"<. c #9E8D66",
"1. c #A59164",
"2. c #A99668",
"3. c #AA9669",
"4. c #CF9F5E",
"5. c #D4B05D",
"6. c #E1B85D",
"7. c #D3AE60",
"8. c #DEB964",
"9. c #DFC17F",
"0. c #EFC563",
"q. c #F7CC69",
"w. c #F9CD6A",
"e. c #FACD67",
"r. c #FED169",
"t. c #FFCA7D",
"y. c #FCD57C",
"u. c #FFD97E",
"i. c #F9D172",
"p. c #6C9C83",
"a. c #828383",
"s. c #948586",
"d. c #938C88",
"f. c #81BB90",
"g. c #B0A589",
"h. c #B0BE88",
"j. c #A19FA0",
"k. c #A8A5A5",
"l. c #EF9B85",
"z. c #D8BA89",
"x. c #D8A798",
"c. c #C7B898",
"v. c #FFAE9C",
"b. c #8BC397",
"n. c #8CCAA6",
"m. c #89DBB2",
"M. c #A6D4AE",
"N. c #D3C394",
"B. c #DDC997",
"V. c #E7CC8C",
"C. c #EECF88",
"Z. c #FAD989",
"A. c #E2CC9B",
"S. c #F3CD9D",
"D. c #EED29F",
"F. c #EAD196",
"G. c #F0D598",
"H. c #F4DA9A",
"J. c #FFE097",
"K. c #FDE19D",
"L. c #CDC0AD",
"P. c #F5DAA0",
"I. c #FEE3A4",
"U. c #FFE6AC",
"Y. c #FFE9AE",
"T. c #FFEAB3",
"R. c #FFECBB",
"E. c #A6E2C3",
"W. c #C7C4C4",
"Q. c #CCD5C9",
"!. c #DCDFD1",
"~. c #E5E6E7",
/* pixels */
"                                                                              ",
"                                                                              ",
"                      v m ,                                                   ",
"                  , H K H H m m S M v                                         ",
"                , K @.L G G H H H H H G ,                                     ",
"                J @.+.L G G H G G G G H S                                     ",
"              M +.+.@.K G G H G H G G G H v                                   ",
"            , ( @.+.#.H G G G G G G G G G M                                   ",
"            v K L K H G H G G G G H G G G G <                                 ",
"            M G G H H G G G G G G G G H H G v                                 ",
"          , G G H G G G G G G G G G M M M G v                                 ",
"          < G G G G G G G G G H M v m m m m c -                               ",
"          x H H G G G G G G S F x M G G H H H H S m x                         ",
"  + - o X - g g g d d d d y p p > F G G G G G G H H H S <                     ",
"  - < 7 < % j j k k k k k k k i n G G G H G G G G G G G M                     ",
"  - , x < & j j j j j j k j u c H G H G G G G G G G G G G ,                   ",
"    , < < & j j j j j i u d M H G G G G G H G G G G S M x +                   ",
"      x 7 $ t % t % & g m G G S F M M M m b c x x f < , =                     ",
"        , x 7 x x x c x 7 < < , > 2 N N A U ` | 6                             ",
"            O O o q ,.,.4 X @ @ 2 2.A.A.z.C.y.H.g.                            ",
"            Y } Q $.Y.Y.<.` p.Q.c.C.U.U.D.y.r.y.A.                            ",
"            =.b.Q.H.T.T.K.h.*.E.!.V.U.U.I.y.e.Z.N.                            ",
"            } p.M.P.R.R.U.N.n.m.L.S.I.H.u.w.y.V. .                            ",
"            ) x.B.I.H.F.H.Z.9.z.l.v.Z.e.e.;.` R v x                           ",
"              %.7.i.8.5.q.e.0.6.4.:.;.1.$.V x S H G M                         ",
"                  o.-.-.O.[ T   ! 1.;.~.s.F M M M G M G                       ",
"                                x d.| j.] G G x < < b G G                     ",
"                                b Z c > n G H m < o < M M                     ",
"                                x m ..&.> f M G x # g R ) ~                   ",
"                                - b / ~.s.> $ s y h d m c 9                   ",
"                                , c M k.W.A $ t l F # 3 3 3 @                 ",
"                              m J m b D a.' = * i t @ 3 w 5 3                 ",
"                            8 < K ) - 4 k.a.5 - > n E 3 5 5 3                 ",
"                          Y =.; 6 D O ; e w e 3 5 0 q @ @ @ O                 ",
"                          P I 5 4 - - , 0 w 5 @ 5 w 3 .                       ",
"                        I 2.[ 4 @   $ i a s + . 5 5 3 @                       ",
"                          R 1.{     @ 0 < 6 d.e 5 5 w e @                     ",
"                              >.    3 w w w a...w 5 W W 1 , < ,               ",
"                                      w w w w   5 w Q r x b m <               ",
"                                      5 w W W ;     e ; c m m <               ",
"                                        W Q 9 ,         v m b :               ",
"                                        4 4 x v <       c M b :               ",
"                                      c m c b m m <     m G m -               ",
"                                    x G G M b m v x     v G m =               ",
"                                    v M m c x , , =       m v =               ",
"                                    < , - +                 ,                 ",
"                                                                              ",
"                                                                              "
};
