/* XPM */
static char *Run__0021666802656[] = {
/* columns rows colors chars-per-pixel */
"39 48 167 2 ",
"   c None",
".  c #0E0E0E",
"X  c #130B0B",
"o  c #190D0D",
"O  c #1F110E",
"+  c #160F10",
"@  c #151515",
"#  c #1B1313",
"$  c #1D1B1B",
"%  c #1F1A14",
"&  c #2B0C0C",
"*  c #320B0B",
"=  c #3D0909",
"-  c #241313",
";  c #2A1313",
":  c #231B17",
">  c #271718",
",  c #241818",
"<  c #2A1B1B",
"1  c #351212",
"2  c #3E1515",
"3  c #331A1A",
"4  c #3A1D1D",
"5  c #2B271F",
"6  c #1E2121",
"7  c #242424",
"8  c #2A2625",
"9  c #2B2B2B",
"0  c #2F2D25",
"q  c #352626",
"w  c #3E2121",
"e  c #322E23",
"r  c #352B2A",
"t  c #333028",
"y  c #3B372A",
"u  c #2F3030",
"i  c #323333",
"p  c #393030",
"a  c #3C3B3B",
"s  c #450202",
"d  c #4B0000",
"f  c #420D0D",
"g  c #4F0C0C",
"h  c #540202",
"j  c #5C0202",
"k  c #5B0B0B",
"l  c #4C1414",
"z  c #421C1C",
"x  c #4E1C1C",
"c  c #531010",
"v  c #650000",
"b  c #690000",
"n  c #442223",
"m  c #4B2626",
"M  c #4E2828",
"N  c #442C27",
"B  c #522323",
"V  c #502728",
"C  c #532A2A",
"Z  c #5B2E2E",
"A  c #5C2626",
"S  c #49382E",
"D  c #403C31",
"F  c #5E3131",
"G  c #583838",
"H  c #692F2F",
"J  c #653333",
"K  c #693535",
"L  c #6F3939",
"P  c #603C3D",
"I  c #733B3B",
"U  c #7A3E3E",
"Y  c #4B412D",
"T  c #4D433C",
"R  c #584939",
"E  c #634F38",
"W  c #715D30",
"Q  c #74643F",
"!  c #454545",
"~  c #4A4A4A",
"^  c #574646",
"/  c #7D4040",
"(  c #685543",
")  c #745555",
"_  c #536D5C",
"`  c #6D6146",
"'  c #75694F",
"]  c #786E57",
"[  c #746350",
"{  c #686767",
"}  c #636464",
"|  c #767676",
" . c #8A723B",
".. c #92783D",
"X. c #834444",
"o. c #894747",
"O. c #8B4848",
"+. c #826F56",
"@. c #8F7C57",
"#. c #877E69",
"$. c #D17D78",
"%. c #7E9C76",
"&. c #B68A32",
"*. c #A5894A",
"=. c #B5954C",
"-. c #BD974E",
";. c #8F8368",
":. c #A8966E",
">. c #AD8C7D",
",. c #AB9A73",
"<. c #95A67D",
"1. c #B8A77C",
"2. c #D7B25B",
"3. c #CE9760",
"4. c #C7A860",
"5. c #D3A46C",
"6. c #E3B263",
"7. c #E9C269",
"8. c #F6CA66",
"9. c #FED26C",
"0. c #E0C27B",
"q. c #F9CF70",
"w. c #F3CD77",
"e. c #FBD57D",
"r. c #FFD572",
"t. c #54BB80",
"y. c #65D09B",
"u. c #7ED2A6",
"i. c #858181",
"p. c #988C89",
"a. c #989898",
"s. c #959393",
"d. c #9FB0A8",
"f. c #BDB5A8",
"g. c #DDA486",
"h. c #D3BC8E",
"j. c #DFBE94",
"k. c #FDA296",
"l. c #C7BDA9",
"z. c #96C29E",
"x. c #81CCA5",
"c. c #D4C18E",
"v. c #D8C286",
"b. c #DEC996",
"n. c #E3C689",
"m. c #F3D38B",
"M. c #FFDD8C",
"N. c #E0CB98",
"B. c #FFC193",
"V. c #E7D097",
"C. c #ECD59C",
"Z. c #F5DB9E",
"A. c #FCDF9A",
"S. c #FFE29F",
"D. c #C7C7AA",
"F. c #DBCAA0",
"G. c #E4D5A4",
"H. c #F7DFA5",
"J. c #F1D7A3",
"K. c #FEE3A3",
"L. c #FEE5AC",
"P. c #FFEAAE",
"I. c #FFEAB2",
"U. c #BAD6C3",
"Y. c #CFCECE",
"T. c #FFEEC4",
"R. c #E3F5EC",
/* pixels */
"                                                                              ",
"                                                  m w                         ",
"                                      m Z Z m M J K I Z                       ",
"                                  3 J K K K K K J J U o.J                     ",
"                                  J K J J J K J J J U o.o.Z                   ",
"                                V J J J J J J J J J I o.o.X.n                 ",
"                              3 J J J J J J J J J J I o.o.o.L                 ",
"                              n J J J J K J J J K J J I / X.U w               ",
"                              V K J J J J K J J J J J J J K K V               ",
"                              Z J Z Z J J J J J J J J J J J J Z               ",
"                            3 m M V C C m J J J J K J J J J J J               ",
"                      m Z J K K K K K K V V J J J J J K J J J J 3             ",
"                  m J K K J J J J J J K M = c l l x x x B m B C -     o X     ",
"                3 J K J J J J J J J J J J l j b v v v v v j j j & 3 4 3 -     ",
"                w J J J J J J J J J J J J J l j v b v v v v b v 1 n n 3 -     ",
"                ; m Z Z J J J J J K J J J J J B h j v b v v v j 1 w 4 3       ",
"                  - 3 4 w n n m C C Z Z F F H J F x f s s d d d ; 4 n         ",
"                        X T [ ( R M N N 3 e 4 n n m m n z z 2 z n w           ",
"                          F.M.e.n.h.b.h.` 6 @ @ X Y +.( < < > -               ",
"                        #.K.9.9.m.J.P.P.0.d.d._ Y 1.P.V.y i D 0               ",
"                        ] Z.r.9.M.L.L.K.c.R.u.%.h.L.I.L.h.U.<.'               ",
"                          ,.m.9.9.M.K.L.c.Y.y.z.V.I.T.I.G.u.%.R               ",
"                            ` ` 2.9.9.B.k.g.c.n.A.Z.H.L.J.l.>.                ",
"                              O E :.*.-.3.6.8.8.9.7.4.w.m.5.3.                ",
"                            4 V P Y.l.&.;.Y W  .*.=.-.=...                    ",
"                            F J V p.Y.@.p.:                                   ",
"                          3 J J m G ^ w r Q 8                                 ",
"                          3 J F w 4 * : $ 0 $ .                               ",
"                          4 Z V w n J 5 9 9 7 .                               ",
"                        = = x J J J / < 9 9 9 @                               ",
"                        c H j A F F ) n 8 9 8 $                               ",
"                        j j h * r a.i.< # $                                   ",
"                      r n k d > i } { $ # >                                   ",
"                    9 i i r * 8 i i t 9 1 ;                                   ",
"                  9 i i i 9 : r 9 i a q j 2 6                                 ",
"                7 i i r 7 @     e 8 7 = h r i                                 ",
"              9 9 i 9 $               1 3 u i u                               ",
"            9 ~ i i 9                 s.| 7 u a i                             ",
"      - 3 3 q ! ~ i                   a.| 9 ! ~ a                             ",
"      3 V V M q a                         9 a p <                             ",
"      ; V C V 3                             - 4 n n V C n                     ",
"        n V Z 4                             4 C C C Z J J m                   ",
"        4 C Z n                             n C C C C C M n -                 ",
"        < C J C                             w m n 4 3 ; -                     ",
"        - V J m                             - -                               ",
"          n C 3                                                               ",
"          3 3                                                                 ",
"                                                                              "
};
