/* XPM */
static char *Run__0081666802657[] = {
/* columns rows colors chars-per-pixel */
"39 48 169 2 ",
"   c None",
".  c #0B0B0B",
"X  c #140E0F",
"o  c #1A0E0E",
"O  c #160F10",
"+  c #151313",
"@  c #1D1313",
"#  c #1D1D1C",
"$  c #2E0E0E",
"%  c #200E0E",
"&  c #3A0404",
"*  c #350909",
"=  c #241212",
"-  c #2A1515",
";  c #231B1B",
":  c #2D1A19",
">  c #351212",
",  c #3B1414",
"<  c #331B1B",
"1  c #3B1E1E",
"2  c #242323",
"3  c #2C2723",
"4  c #2B2B2B",
"5  c #2E2C25",
"6  c #342120",
"7  c #3E2221",
"8  c #392E2E",
"9  c #352D2D",
"0  c #3D3428",
"q  c #3A3327",
"w  c #323232",
"e  c #3C3C3C",
"r  c #393131",
"t  c #420101",
"y  c #480000",
"u  c #440E0E",
"i  c #4C0C0C",
"p  c #5C0101",
"a  c #510D0D",
"s  c #401111",
"d  c #4D1515",
"f  c #431B1B",
"g  c #4D1B1B",
"h  c #521919",
"j  c #650000",
"k  c #680000",
"l  c #431F21",
"z  c #432222",
"x  c #4C2526",
"c  c #4E2929",
"v  c #432B27",
"b  c #502020",
"n  c #542B2B",
"m  c #5B2E2E",
"M  c #47302A",
"N  c #483E29",
"B  c #483832",
"V  c #533333",
"C  c #5E3030",
"Z  c #553F3F",
"A  c #663333",
"S  c #693535",
"D  c #6D3A3A",
"F  c #663C3C",
"G  c #733B3B",
"H  c #7B3F3F",
"J  c #4F483A",
"K  c #4E4633",
"L  c #564E39",
"P  c #5C503D",
"I  c #6B552E",
"U  c #695130",
"Y  c #695C3F",
"T  c #4B4C4C",
"R  c #414240",
"E  c #544040",
"W  c #5F4D4D",
"Q  c #565243",
"!  c #644949",
"~  c #7D4242",
"^  c #665941",
"/  c #615353",
"(  c #715E5E",
")  c #546E5F",
"_  c #6E6041",
"`  c #79674F",
"'  c #706344",
"]  c #6C6554",
"[  c DimGray",
"{  c #737272",
"}  c #8B733B",
"|  c #91783D",
" . c #844444",
".. c #8A4747",
"X. c #8A4848",
"o. c #867759",
"O. c #8C7979",
"+. c #BF786C",
"@. c #49BB7E",
"#. c #AB8436",
"$. c #9E8343",
"%. c #958256",
"&. c #98865B",
"*. c #AF914A",
"=. c #B4944C",
"-. c #A08D5F",
";. c #B69A5A",
":. c #9B8862",
">. c #A9966A",
",. c #B9A47D",
"<. c #BBA97F",
"1. c #CBA55B",
"2. c #D5B15C",
"3. c #DA9C67",
"4. c #D4AC65",
"5. c #EAAF6B",
"6. c #DFC17C",
"7. c #E6C26E",
"8. c #F5CA68",
"9. c #FFD46C",
"0. c #E5C67F",
"q. c #FFD672",
"w. c #FFD878",
"e. c #FDD678",
"r. c #7FAC83",
"t. c #65D39C",
"y. c #888787",
"u. c gray57",
"i. c #AA9F89",
"p. c #A79D9D",
"a. c #91B489",
"s. c #ABA18C",
"d. c #9DA7A3",
"f. c #AEAFAF",
"g. c #A9A0A2",
"h. c #B4B0B0",
"j. c #C99D8F",
"k. c #DD9D89",
"l. c #C1AE82",
"z. c #CAB882",
"x. c #FEAC9E",
"c. c #81C49D",
"v. c #90D4AC",
"b. c #DBC389",
"n. c #CCC095",
"m. c #D8C793",
"M. c #FFDC8A",
"N. c #F6D287",
"B. c #E4CB93",
"V. c #E5C693",
"C. c #FFCA90",
"Z. c #EDD19F",
"A. c #FCDD94",
"S. c #F5DB9F",
"D. c #D2C7A1",
"F. c #C4C0B8",
"G. c #EED6A0",
"H. c #F2DBA3",
"J. c #FDE3A6",
"K. c #FEE6AC",
"L. c #FFE9AD",
"P. c #FFEAB1",
"I. c #FFEBB9",
"U. c #A6DCC0",
"Y. c #C4D8C6",
"T. c #FFEDC0",
"R. c #DFE0E1",
"E. c #E5EDE5",
"W. c #EFF0F0",
/* pixels */
"                                                                              ",
"                                                1 x                           ",
"                                      z n n z n S D G x                       ",
"                                  7 A S S S S S A A  . .n                     ",
"                                < A S A A A A A A S  .X. .x                   ",
"                                n S A A A A A A A A ~ X.X.~ 1                 ",
"                              1 A A A A A S A A A A G X...X.A                 ",
"                              x S A A A A A A A A A A G H ~ D <               ",
"                              m A A A A A A A A A A A A A A S x               ",
"                              C A A A A A A A A A S A A A A A m               ",
"                            - x x x c c c A A A A A A A A A A m               ",
"                        z n A A S S S S x m A A A A A S A A A A :             ",
"                  < n A S S S A A A S A x , d d d g g g g b x g %   = = o     ",
"                  A S A A A A A A A A A A d k k k j j j k k j p $ 1 7 < -     ",
"                z A A A S A A A A A A A A C i p j k j j j k k p > z 1 <       ",
"                < n A A A A A A A S A A A A A g i p j j j k k p > 1 1 <       ",
"                  < z x x n n n m m C C C A A A C b s t t y y t - z 1         ",
"                      = = 1 B M v z 7 7 1 7 f z z x x z z f f z z <           ",
"                          s.B.0.z.,.l.,.^ @ + o X q o.` 3 @ @ O               ",
"                        ] S.w.9.N.G.L.L.0.i.d.) K >.P.G.L R Q B               ",
"                        ] S.q.9.M.J.K.K.b.E.U.@.z.J.P.P.B.U.a.o.              ",
"                          <.M.q.q.A.J.J.V.Y.t.c.m.P.T.I.Z.v.a.P               ",
"                          0 o.&.2.9.q.C.x.k.n.b.A.H.H.J.S.D.j.                ",
"                      x n n x = U ;.;.1.3.5.8.8.q.8.1.7.e.4.+.                ",
"                  C C A A S A n m g.F.| o.P I } $.*.=.=.o.                    ",
"                c A A n m m n m S O.R.:.s.B l                                 ",
"              W D m x : : < z A S S / V P c m                                 ",
"            : V ~ S -     < x A A b , ( V b z - z 1 N &.5 J                   ",
"          2 4 ; 7 c       < n C f > p.h.n c m c G n 5 ^ ' -.                  ",
"        # 4 4 4 # X     & u d > * ! W.O.n x A m ~ V 2 4 K >.                  ",
"        # 4 4 4 # #     a A p & < W h.! x   m n J Z ; 2 M %.                  ",
"        . X # 2 '       p j i $ ; u.y.1 <                                     ",
"            . # N     t j a 8 4 2 [ { ;                                       ",
"                        * 8 w w 2 2 w 2                                       ",
"              - -       e w w w 4 2 4                                         ",
"            = x n z < ; e 4 4 w w 4 4 : < =                                   ",
"              z n n x 8 T w 4 4 w w w w ;                                     ",
"              1 n n z r T w w 4 2 w e T w                                     ",
"              < c n z 2 e 4 w     w T e < < z n m x -                         ",
"              : n A n             2 3 7 c n n C A A c                         ",
"              - n A n                 7 n n n n c z <                         ",
"                x C 1                 z n x 1 < =                             ",
"                7 1                   - < -                                   ",
"                                                                              ",
"                                                                              ",
"                                                                              ",
"                                                                              ",
"                                                                              "
};
