/* XPM */
static char *run__rev__0011666807396[] = {
/* columns rows colors chars-per-pixel */
"39 48 160 2 ",
"   c None",
".  c #0E0F0F",
"X  c #150E0E",
"o  c #1D0E0E",
"O  c #12120F",
"+  c #161515",
"@  c #1F1111",
"#  c #191817",
"$  c #1C1C1B",
"%  c #280808",
"&  c #3A0B0B",
"*  c #330B0B",
"=  c #241414",
"-  c #2A1515",
";  c #2C1B1B",
":  c #2B1C17",
">  c #3B1313",
",  c #341A1A",
"<  c #3A1E1E",
"1  c #321616",
"2  c #25221A",
"3  c #3A1F20",
"4  c #242424",
"5  c #2C2624",
"6  c #2B2B2B",
"7  c #322424",
"8  c #3D2121",
"9  c #332D2D",
"0  c #323232",
"q  c #3C3B3B",
"w  c #450101",
"e  c #4C0404",
"r  c #460B0B",
"t  c #530303",
"y  c #5C0101",
"u  c #520A0A",
"i  c #590C0C",
"p  c #401F1F",
"a  c #4C1D1D",
"s  c #471414",
"d  c #501B1B",
"f  c #660000",
"g  c #680000",
"h  c #432222",
"j  c #4B2626",
"k  c #4D2928",
"l  c #442E28",
"z  c #532424",
"x  c #532A2A",
"c  c #5B2E2E",
"v  c #483722",
"b  c #5F2F30",
"n  c #443F30",
"m  c #4D3838",
"M  c #5E3030",
"N  c #533836",
"B  c #602F2F",
"V  c #663333",
"C  c #693535",
"Z  c #6D3939",
"A  c #703939",
"S  c #4A473F",
"D  c #454239",
"F  c #59503C",
"G  c #6E5639",
"H  c #765937",
"J  c #444444",
"K  c #4B4B4B",
"L  c #5B4242",
"P  c #594949",
"I  c #4A524F",
"U  c #604C47",
"Y  c #6D4647",
"T  c #7C4141",
"R  c #6E5453",
"E  c #665754",
"W  c #75634D",
"Q  c #7B6F5D",
"!  c #686865",
"~  c #766666",
"^  c #7A7576",
"/  c #A07D34",
"(  c #844444",
")  c #894747",
"_  c #8A4848",
"`  c #86734B",
"'  c #84785B",
"]  c #907D5F",
"[  c #C17571",
"{  c #3BB678",
"}  c #79A67A",
"|  c #9B8042",
" . c #9C8555",
".. c #B5964D",
"X. c #A08A57",
"o. c #B49450",
"O. c #868061",
"+. c #898665",
"@. c #9A8666",
"#. c #968C74",
"$. c #B79C65",
"%. c #BFA872",
"&. c #BBA371",
"*. c #C7A85F",
"=. c #C8A554",
"-. c #D4AF5B",
";. c #DBB45C",
":. c #E1B65F",
">. c #C9AE77",
",. c #CBB37C",
"<. c #D7BB78",
"1. c #F3BC6E",
"2. c #EFAC78",
"3. c #FAA57E",
"4. c #F4C96A",
"5. c #FED26B",
"6. c #FFD674",
"7. c #FFD875",
"8. c #FFD978",
"9. c #FDD67D",
"0. c #77CB9D",
"q. c #949494",
"w. c #A69B80",
"e. c #8EBE8F",
"r. c #99AC9B",
"t. c #BAAA85",
"y. c #BEB39A",
"u. c #A8A6A7",
"i. c #BBB9B3",
"p. c #E0A788",
"a. c #E2A290",
"s. c #86D0AA",
"d. c #A5CAAB",
"f. c #B4CBAA",
"g. c #D7C597",
"h. c #D6C49B",
"j. c #FFDA87",
"k. c #F6D486",
"l. c #E6CB94",
"z. c #EBD59F",
"x. c #F4D897",
"c. c #FADE9D",
"v. c #FADB96",
"b. c #FFE091",
"n. c #FFE49D",
"m. c #C1C0AA",
"M. c #D0CFA2",
"N. c #D4C7A9",
"B. c #D9DBB6",
"V. c #FFC9A9",
"C. c #F7DDA7",
"Z. c #FDE3A6",
"A. c #FDE5AB",
"S. c #FFE8AE",
"D. c #FFE7B0",
"F. c #FFEBB3",
"G. c #A2E9C7",
"H. c #FFEEC5",
"J. c #E0DEE0",
"K. c #F5F9F8",
/* pixels */
"                                                                              ",
"                                                                              ",
"                      x Z c h     <                                           ",
"                    C ( Z V Z V Z Z Z c ,                                     ",
"                  Z ) ) C V V Z V V V V V ,                                   ",
"                c ) ) ( C V V V V V V V V c                                   ",
"              h ( ) ) ( V V V V V V V V V V h                                 ",
"              V ) ( ( A V V V V V V V V V V x                                 ",
"            , V Z Z V V V V V V V V V V V V c                                 ",
"            h C V V V V V V V V V V V V V V V <                               ",
"            k C V V V V V V V V V c k k z x x ,                               ",
"            x C V V V V V V V Z V j M C C V B c x h                           ",
"            k M B c c c x x z j a < C V V C V C V Z V x <                     ",
"  o - , - o r u u u u t y f y f t z C V V V V V V V V Z C <                   ",
"    , 8 h , t g g g g g f g g y a V V V V V V V V V V V Z x                   ",
"    - < h < e g g g g g f y u d V V V V V V V V V V V V B h                   ",
"      8 3 , w y y y t e u a c Z V V V V V b b M c x x j 8 =                   ",
"        8 8 > & * & s a x c x x j j h p p p 8 h 8 - - =                       ",
"          - 3 3 < < l N l = = @ X : W ] @.@.&.,.t.J                           ",
"            O $ # O ] z.t.2 4 I ! X.Z.F.C.l.7.6.Z.w.                          ",
"            F O.r.#.l.F.A.>.} s.K.g.c.S.A.c.7.5.b.t.                          ",
"            F +.0.B.Z.H.F.x.e.{ G.N.c.S.Z.j.5.7.x.'                           ",
"              Q d.M.A.F.S.A.g.f.m.a.V.j.8.5.*.%.'                             ",
"              [ p.k.v.<.<.9.7.4.1.3.2.:.-.o.v X                               ",
"                H ..;.-.;.;.=...| ` /  .i.R j x x                             ",
"                                  ^ $.y.J.Y c V C j                           ",
"                                - N P E ~ V j b C M                           ",
"                                  x m c > c x h x M                           ",
"                                  j L u.L * h < k c                           ",
"                                  ; G D 6 1 b x V V s                         ",
"                                  # D 2 4 5 A A c z e                         ",
"                                  O $ 6 6 4 k R s y y                         ",
"                                - X + 6 6 6 5 7 e i a ,                       ",
"                                - ; + 4 4 4 4 5 * 9 0 0                       ",
"                                  - = $ 4 6 4 4 $ 6 0 0 6                     ",
"                                    & u 8 0 $     $ 0 0 0 4                   ",
"                                    , u t %         $ 0 0 6                   ",
"                                    0 6 1 P           4 0 0 4                 ",
"                                    0 0 6 q.q.        0 0 q J 4               ",
"                                    0 0 q J !           q K q 5               ",
"                                    0 K K 6             0 0 h j h -           ",
"                                    0 q 7 ,               = k x x j =         ",
"                                      - h k j -           j x x k <           ",
"                                    x x x x x h         j V x j ,             ",
"                                  c V c x k j h =       c V x <               ",
"                                8 V c k 8 , -           c c 8                 ",
"                                < h , =                 h 8                   ",
"                                                        =                     "
};
