/* XPM */
static char *Run__0071666802657[] = {
/* columns rows colors chars-per-pixel */
"39 48 177 2 ",
"   c None",
".  c #0D0C0C",
"X  c #140D0D",
"o  c #1C0F0F",
"O  c #0F0F10",
"+  c #161212",
"@  c #1E1010",
"#  c #1C1C1C",
"$  c #191819",
"%  c #3D0202",
"&  c #360808",
"*  c #3C0C0C",
"=  c #300303",
"-  c #241312",
";  c #2B1616",
":  c #221A18",
">  c #2B1D1D",
",  c #231F17",
"<  c #361010",
"1  c #3F1515",
"2  c #341A1B",
"3  c #3B1E1E",
"4  c #25221E",
"5  c #3D1F20",
"6  c #252524",
"7  c #2C2222",
"8  c #2E2B24",
"9  c #2B2B2B",
"0  c #3E2121",
"q  c #3A2C2C",
"w  c #3C362A",
"e  c #2E2E30",
"r  c #333232",
"t  c #3D3D3D",
"y  c #410101",
"u  c #4E0202",
"i  c #4C0C0C",
"p  c #420D0D",
"a  c #540101",
"s  c #5B0101",
"d  c #560B0B",
"f  c #4D1414",
"g  c #431B1B",
"h  c #4C1A1A",
"j  c #421212",
"k  c #531212",
"l  c #511E1E",
"z  c #650000",
"x  c #680000",
"c  c #432322",
"v  c #4B2525",
"b  c #4F2728",
"n  c #4F2828",
"m  c #442D27",
"M  c #502727",
"N  c #532A2A",
"B  c #5C2E2E",
"V  c #4A352B",
"C  c #443F2F",
"Z  c #5F302F",
"A  c #4F3737",
"S  c #483934",
"D  c #5F3131",
"F  c #513838",
"G  c #553935",
"H  c #6A2F2F",
"J  c #653333",
"K  c #693535",
"L  c #6D3939",
"P  c #643F3F",
"I  c #733B3B",
"U  c #7B3F3F",
"Y  c #554126",
"T  c #4C4434",
"R  c #594E35",
"E  c #594C3D",
"W  c #66542B",
"Q  c #675A3C",
"!  c #725B3C",
"~  c #776333",
"^  c #633F41",
"/  c #434343",
"(  c #4A4A4A",
")  c #534141",
"_  c #5C5C5C",
"`  c gray33",
"'  c #624E4E",
"]  c #7D4141",
"[  c #615954",
"{  c #765959",
"}  c #5B745D",
"|  c #6D644C",
" . c #6B6046",
".. c #77684F",
"X. c #726347",
"o. c #686A67",
"O. c #766262",
"+. c #7C7070",
"@. c #8A723B",
"#. c #93793D",
"$. c #894747",
"%. c #8A4848",
"&. c #854545",
"*. c #8A7749",
"=. c #9A7F41",
"-. c #8D7B55",
";. c #8F7E58",
":. c #847857",
">. c #B58A33",
",. c #9F8342",
"<. c #998554",
"1. c #AD904F",
"2. c #B08854",
"3. c #8D826B",
"4. c #988B6E",
"5. c #848D71",
"6. c #8B9C73",
"7. c #9E9379",
"8. c #AD9868",
"9. c #BD8178",
"0. c #AB9873",
"q. c #C0954E",
"w. c #CA965E",
"e. c #CDAA5B",
"r. c #DEB060",
"t. c #D5B97A",
"y. c #E6BD60",
"u. c #EBC263",
"i. c #EAC369",
"p. c #F6CC6A",
"a. c #FFD36D",
"s. c #FFD472",
"d. c #5EBE8C",
"f. c #64BC84",
"g. c #71D1A1",
"h. c #868585",
"j. c #928883",
"k. c #9D9E9E",
"l. c #9D9494",
"z. c #A59696",
"x. c #98B6A7",
"c. c #FC9F93",
"v. c #DFA884",
"b. c #CAB687",
"n. c #D7BF85",
"m. c #D2BA8B",
"M. c #DCBB99",
"N. c #FFBF96",
"B. c #C2B8A2",
"V. c #ABC19F",
"C. c #83D0A6",
"Z. c #A0DABB",
"A. c #D8C597",
"S. c #ECCB81",
"D. c #E9CD8E",
"F. c #F9D787",
"G. c #E0CB98",
"H. c #ECD296",
"J. c #F1D495",
"K. c #FFDF93",
"L. c #F1D89D",
"P. c #FFE39B",
"I. c #DAD2A4",
"U. c #E2D2A8",
"Y. c #F4DAA5",
"T. c #FDE2A1",
"R. c #FFE8A7",
"E. c #FFE5AC",
"W. c #FFEAAF",
"Q. c #FFECB2",
"!. c #FFEBBB",
"~. c #B5D9C3",
"^. c #CCCBCC",
"/. c #C8C3C1",
"(. c #FFEDC0",
"). c #DBF7EA",
"_. c #F3F4F4",
/* pixels */
"                                                                              ",
"                                                n N                           ",
"                                    0 N D N M J K L I c                       ",
"                                  N K K K K K K J L %.&.v                     ",
"                                N K J J J J J J J L $.%.] 0                   ",
"                              2 J J J J J K J J J K &.$.%.L                   ",
"                              N J J J K J J J J J J U $.$.$.N                 ",
"                              B K J J J J J J K J J J I U I D                 ",
"                            2 J J J J J J J J J J J J J J J J 3               ",
"                            c J J B B J J J J J J J J J J J J v               ",
"                            3 N N N N N N J J J K J J J J J J N               ",
"                      c N D J K K J K J v B D J J J J J J J J N               ",
"                  v J K K J J J J J J J g i i f i f f f f h h j X @ ; - o     ",
"                c J J J J J J J J J J J B u x x x x x x x x z a 2 c g 2       ",
"                N K J J J J J J J J J K K B i s x x z z z z z u 2 c 2 2       ",
"                3 B J J J J J K K J K J J K J l i s s z z z z u 2 3 3         ",
"                @ 2 0 v v v n n B B N B D Z Z J B M j p % y y & 3 v ;         ",
"                      @ @ S E G V m m c 2 2 3 5 3 c c c c g c c 3             ",
"                        [ A.F.S.m.m.A.b.R , $ X X X.0...+ + + X               ",
"                        0.P.a.a.J.Y.W.T.t./.x.}  .G.Q.A.E o.| T               ",
"                        4.P.a.a.K.E.W.T.A.).d.f.D.Q.!.E.U.Z.6.|               ",
"                          b.F.a.s.K.T.T.M.~.g.V.L.Q.!.W.I.C.5.w               ",
"                          T :.*.y.a.s.N.c.v.n.S.K.H.H.T.L.M.9.                ",
"                        v M 2 - ! 8.1.1.w.r.y.p.p.y.e.p.i.2.                  ",
"                  N B J K K J v ' ^.B.>.3.V Y ~ @.,.,.#.W                     ",
"                B J J B B J B Z H z.^.;.j.5 v         4 #                     ",
"            F { J B n 2 2 3 v J J G ) c F n N   c 2 Q 3. .<.                  ",
"        # 6 > D ] c       2 N K H g n +.N v v g L N : w R 8.                  ",
"      # 9 9 9 > N         3 B D 1 1 /.l.N M J B ^ L 6 9 9 -.Q                 ",
"      # 9 9 9 # o       % p g < * O._.O.v 3 J B D ' > #   <.                  ",
"      . # 6 6 4         k H s = 2 _ k.F v                                     ",
"        . $ T Q         s d i - 7 k.h.5                                       ",
"          O ,         y z k r 9 4 _ o.$                                       ",
"                        % q r r 9 # e 6                                       ",
"                          e r r r 6 6 > 2 ;                                   ",
"                          :.` r r r r 7 ;                                     ",
"                        t ` / 6 9 r e t 9                                     ",
"                        e / e r 6 r ( ( 9                                     ",
"                ; 0 v c r ( t e 9 r t q 0 3 3 c c                             ",
"              - v N N N 5 / t 6     : v N N N J J B ;                         ",
"                > b n N c 7         - v N N N B B B c                         ",
"                  ; v N D B         ; v v c 0 3 5 5 ;                         ",
"                    ; n D J 0         -                                       ",
"                      ; v D 5                                                 ",
"                        ; c ;                                                 ",
"                                                                              ",
"                                                                              ",
"                                                                              "
};
