/* XPM */
static char *Run__0001666802655[] = {
/* columns rows colors chars-per-pixel */
"39 48 168 2 ",
"   c None",
".  c #0C0A0A",
"X  c #120C0D",
"o  c #141111",
"O  c #1C1313",
"+  c #171718",
"@  c #1B1A1A",
"#  c #2F0E0E",
"$  c #3C0606",
"%  c #330D0D",
"&  c #3B0A0A",
"*  c #221212",
"=  c #2C1515",
"-  c #211D1D",
";  c #2D1C1C",
":  c #3B1414",
">  c #341B1B",
",  c #3B1E1E",
"<  c #2E251E",
"1  c #362E1E",
"2  c #242424",
"3  c #2A2523",
"4  c #272828",
"5  c #2C2C2C",
"6  c #312525",
"7  c #3D2222",
"8  c #332C25",
"9  c #332E2E",
"0  c #3F2B2B",
"q  c #3A2D25",
"w  c #3E362A",
"e  c #333333",
"r  c #3B3737",
"t  c #3D3D3D",
"y  c #420202",
"u  c #4E0E0E",
"i  c #540404",
"p  c #5E0000",
"a  c #500B0B",
"s  c #421616",
"d  c #4D1313",
"f  c #4C1B1B",
"g  c #421E1E",
"h  c #650000",
"j  c #680000",
"k  c #442223",
"l  c #4B2626",
"z  c #4F2828",
"x  c #442C2B",
"c  c #522121",
"v  c #532A2A",
"b  c #5B2E2E",
"n  c #47302A",
"m  c #4B362D",
"M  c #543528",
"N  c #4F3A30",
"B  c #433F3F",
"V  c #4F3535",
"C  c #5E3131",
"Z  c #523E3F",
"A  c #602E2F",
"S  c #653333",
"D  c #693535",
"F  c #6C3939",
"G  c #743B3B",
"H  c #783E3E",
"J  c #47402F",
"K  c #574335",
"L  c #594B3C",
"P  c #69572E",
"I  c #66593D",
"U  c #434242",
"Y  c #4A4948",
"T  c #4C4941",
"R  c #5F5C43",
"E  c #505050",
"W  c #595753",
"Q  c #6A4B48",
"!  c #7C4141",
"~  c #6E5E4F",
"^  c #665943",
"/  c #695151",
"(  c #765656",
")  c #6B6146",
"_  c #746648",
"`  c #666657",
"'  c #64625C",
"]  c #796853",
"[  c #7F7575",
"{  c #806A37",
"}  c #856D38",
"|  c #947A3F",
" . c #894747",
".. c #8A4848",
"X. c #824343",
"o. c #806C4D",
"O. c #80714D",
"+. c #827759",
"@. c #8A7B5B",
"#. c #AE745E",
"$. c #917F7F",
"%. c #39B575",
"&. c #A18444",
"*. c #AF8D46",
"=. c #AA8C4C",
"-. c #BC8F52",
";. c #9D8A69",
":. c #9E8D66",
">. c #A49067",
",. c #A99668",
"<. c #A7956B",
"1. c #CF9F5E",
"2. c #D4B05D",
"3. c #E1B85D",
"4. c #D3AE60",
"5. c #DEB964",
"6. c #DFC17F",
"7. c #EFC563",
"8. c #F7CC69",
"9. c #F9CD6A",
"0. c #FACD67",
"q. c #FED169",
"w. c #FFCA7D",
"e. c #FCD57C",
"r. c #FFD97E",
"t. c #F9D172",
"y. c #6C9C83",
"u. c #948586",
"i. c #948981",
"p. c #81BB90",
"a. c #B0A589",
"s. c #B0BE88",
"d. c #A19FA0",
"f. c #ACA6A6",
"g. c #EF9B85",
"h. c #D8BA89",
"j. c #D8A798",
"k. c #C7B898",
"l. c #FFAE9C",
"z. c #8BC397",
"x. c #8CCAA6",
"c. c #89DBB2",
"v. c #A6D4AE",
"b. c #D3C394",
"n. c #DDC997",
"m. c #E7CD8C",
"M. c #EECF88",
"N. c #FAD989",
"B. c #E2CC9B",
"V. c #F3CD9D",
"C. c #EED29F",
"Z. c #EAD196",
"A. c #F0D598",
"S. c #F4DA9A",
"D. c #FFE097",
"F. c #FDE19D",
"G. c #CDC0AD",
"H. c #F5DAA0",
"J. c #FEE3A4",
"K. c #FFE6AC",
"L. c #FFE9AE",
"P. c #FFEAB3",
"I. c #FFECBB",
"U. c #A6E2C3",
"Y. c #C9C6C6",
"T. c #CCD5C9",
"R. c #DCDFD1",
"E. c #E5E6E7",
/* pixels */
"                                                                              ",
"                                                                              ",
"                                                  > v z                       ",
"                                        l b C v v D D G D >                   ",
"                                    , S D D D D D S D G ..G >                 ",
"                                    b D S S S S S S D G ....F                 ",
"                                  l D S S S S S S S S G  . . .b               ",
"                                  C S S S S S S S S D D X. ...! >             ",
"                                , S S S S D S S S S S D D G H H l             ",
"                                l D S S S S S S S S S S S S S S b             ",
"                                z S S b b S S S D S S S S S S S S >           ",
"                              = l z v v v l b S S S S S S S S S S ,           ",
"                        k v S S D D D D D b l S S C S S D D D S D 7           ",
"                    , b D D S D S S S S S A & a u u u d d d f f f = X * * O   ",
"                    b S S S S S S S S S S S c i h j j j j h h h h $ , 7 , =   ",
"                  > S S S S S S S S S S S S S l i h h j h h h h h $ 7 k > =   ",
"                  * k b C S S S S D D S S S S S b d i p h h h h h % , , >     ",
"                    O > , g k l l c z v b A A A A S b f & $ $ y y # g k       ",
"                            8 ~ ^ L N m n < > > , , 7 k l l g g k k <         ",
"                            a.F.N.M.h.B.B.<.8 - O X 3 ;.;.q o O O             ",
"                            B.r.0.e.C.K.P.N.k.T.y.R :.K.K.@.Y ` L             ",
"                            b.N.0.e.J.K.K.m.R.U.%.s.J.P.P.A.T.z.@.            ",
"                            +.m.e.8.e.D.J.V.G.c.x.b.K.I.I.S.v.z.^             ",
"                              K I =.0.0.w.l.g.h.m.N.S.Z.S.F.n.j.Q             ",
"                          l C A k M @.>.*.-.1.3.7.7.q.2.5.t.4.#.              ",
"                        z S S S b b u.E.=.>.T   P _ | &.&.}                   ",
"                        C v b l v A ( f.] i.q                                 ",
"                      S S l > l S S c > l V k                                 ",
"                      C S l , b A s : u.[ v =                                 ",
"                        C ! D , % & u.E./ c                                   ",
"                        / F 7 O - x Y.f.v ,                                   ",
"                        f ; 4 2 3 ^ ~ T v v                                   ",
"                      : % 4 5 5 2 w W 6 > k                                   ",
"                      5 4 2 5 5 @ + 4 - @ 8 O.                                ",
"                      e e 2 4 @ o 5 e 2 5 J _                                 ",
"                    2 e e 2 o . - 9 9 @ < > q 4                               ",
"                    5 e 5 +   ; y i i 7 K o.^                                 ",
"                    5 e 4 2 E B # s : < ) I                                   ",
"                  4 5 e 5 3 t r 5 e 5                                         ",
"                  t Y t 6 ; U U e e                                           ",
"                  6 B Y 0 k t Y 9 e                                           ",
"                , l k 3 l v 0 5                                               ",
"              , v v z k l v C                                                 ",
"            * l v v v C S v z l                                               ",
"              ; , k z v C A k ,                                               ",
"                    * > k z g *                                               ",
"                          * O                                                 ",
"                                                                              "
};
