/* XPM */
static char *run__rev__0021666807397[] = {
/* columns rows colors chars-per-pixel */
"39 48 167 2 ",
"   c None",
".  c #0E0E0E",
"X  c #130B0B",
"o  c #190D0D",
"O  c #1F110E",
"+  c #160F10",
"@  c #151515",
"#  c #1B1313",
"$  c #1D1B1B",
"%  c #1F1A14",
"&  c #2B0C0C",
"*  c #320B0B",
"=  c #3D0909",
"-  c #241313",
";  c #2A1313",
":  c #231B17",
">  c #271718",
",  c #241818",
"<  c #2A1B1B",
"1  c #351212",
"2  c #3E1515",
"3  c #331A1A",
"4  c #3A1D1D",
"5  c #2B271F",
"6  c #1E2121",
"7  c #242424",
"8  c #2A2625",
"9  c #2B2B2B",
"0  c #2F2D25",
"q  c #352626",
"w  c #3E2121",
"e  c #322E23",
"r  c #352B2A",
"t  c #333028",
"y  c #3B372A",
"u  c #2F3030",
"i  c #323333",
"p  c #393030",
"a  c #3C3B3B",
"s  c #450202",
"d  c #4B0000",
"f  c #420D0D",
"g  c #4F0C0C",
"h  c #540202",
"j  c #5C0202",
"k  c #5B0B0B",
"l  c #4C1414",
"z  c #421C1C",
"x  c #4E1C1C",
"c  c #531010",
"v  c #650000",
"b  c #690000",
"n  c #442223",
"m  c #4B2626",
"M  c #4E2828",
"N  c #442C27",
"B  c #522323",
"V  c #502728",
"C  c #532A2A",
"Z  c #5B2E2E",
"A  c #5C2626",
"S  c #49382E",
"D  c #403C31",
"F  c #5E3131",
"G  c #583838",
"H  c #692F2F",
"J  c #653333",
"K  c #693535",
"L  c #6F3939",
"P  c #603C3D",
"I  c #733B3B",
"U  c #7A3E3E",
"Y  c #4B412D",
"T  c #4D433C",
"R  c #584939",
"E  c #634F38",
"W  c #715D30",
"Q  c #74643F",
"!  c #454545",
"~  c #4A4A4A",
"^  c #574646",
"/  c #7D4040",
"(  c #685543",
")  c #745555",
"_  c #536D5C",
"`  c #6D6146",
"'  c #75694F",
"]  c #786E57",
"[  c #746350",
"{  c #686767",
"}  c #636464",
"|  c #767676",
" . c #8A723B",
".. c #92783D",
"X. c #834444",
"o. c #894747",
"O. c #8B4848",
"+. c #826F56",
"@. c #8F7C57",
"#. c #877E69",
"$. c #D17D78",
"%. c #7E9C76",
"&. c #B68A32",
"*. c #A5894A",
"=. c #B5954C",
"-. c #BD974E",
";. c #8F8368",
":. c #A8966E",
">. c #AD8C7D",
",. c #AB9A73",
"<. c #95A67D",
"1. c #B8A77C",
"2. c #D7B25B",
"3. c #CE9760",
"4. c #C7A860",
"5. c #D3A46C",
"6. c #E3B263",
"7. c #E9C269",
"8. c #F6CA66",
"9. c #FED26C",
"0. c #E0C27B",
"q. c #F9CF70",
"w. c #F3CD77",
"e. c #FBD57D",
"r. c #FFD572",
"t. c #54BB80",
"y. c #65D09B",
"u. c #7ED2A6",
"i. c #858181",
"p. c #988C89",
"a. c #989898",
"s. c #959393",
"d. c #9FB0A8",
"f. c #BDB5A8",
"g. c #DDA486",
"h. c #D3BC8E",
"j. c #DFBE94",
"k. c #FDA296",
"l. c #C7BDA9",
"z. c #96C29E",
"x. c #81CCA5",
"c. c #D4C18E",
"v. c #D8C286",
"b. c #DEC996",
"n. c #E3C689",
"m. c #F3D38B",
"M. c #FFDD8C",
"N. c #E0CB98",
"B. c #FFC193",
"V. c #E7D097",
"C. c #ECD59C",
"Z. c #F5DB9E",
"A. c #FCDF9A",
"S. c #FFE29F",
"D. c #C7C7AA",
"F. c #DBCAA0",
"G. c #E4D5A4",
"H. c #F7DFA5",
"J. c #F1D7A3",
"K. c #FEE3A3",
"L. c #FEE5AC",
"P. c #FFEAAE",
"I. c #FFEAB2",
"U. c #BAD6C3",
"Y. c #CFCECE",
"T. c #FFEEC4",
"R. c #E3F5EC",
/* pixels */
"                                                                              ",
"                        w m                                                   ",
"                      Z L K J M m Z Z m                                       ",
"                    J o.U J K K K K K K J 4                                   ",
"                  Z o.o.U J K J J J K J K F                                   ",
"                n X.o.o.U J J J J J J J J J V                                 ",
"                L O.O.X.I J J J J J J J J J J 3                               ",
"              w U X.U I J J J J J J J J J J J n                               ",
"              V K K J J J J J J J J J H J J J V                               ",
"              Z J J J J J J J J J J F J J Z J Z                               ",
"              J J J J J J J J J J F m C C C V m 3                             ",
"            3 J K J K K K K J J J C V L K J K L K J Z m                       ",
"    X o     ; V V B m x x l l l g = Z J J K J J J J J K J m                   ",
"    - 4 4 3 & h j j v v v v b b v l J J J J J J J J J J J J 4                 ",
"    - 3 n n 1 j b b v v v b v j l F K J J J J J J J J J J J 4                 ",
"      3 4 w 1 j b v v b v j g x J K J J J J J J J J J F Z m ;                 ",
"        w z ; s d d s s f x F J J F Z Z Z C V M m n n 4 < -                   ",
"          4 n z z z z m m m n n 4 4 3 N N S G E [ T X                         ",
"              , - ; < ( +.S X @ # % ` h.b.h.n.e.M.F.                          ",
"              t D i y N.I.1.Y _ d.f.0.P.I.J.m.9.9.K.#.                        ",
"              ' <.U.h.L.I.L.v.t.u.R.b.K.P.P.M.9.r.Z.]                         ",
"              R %.u.G.I.T.P.V.z.y.U.v.P.S.M.9.9.m.,.                          ",
"                >.D.C.L.H.Z.S.n.h.g.k.k.9.9.2.Q `                             ",
"                $.5.e.w.4.7.9.8.8.6.3.-.*.:.E O                               ",
"                    ..=.-.=.*. .W S ;.&.l.Y.P m 4                             ",
"                                  : p.@.Y.p.V J J                             ",
"                                5 Q p w ^ G m J J <                           ",
"                              . $ e $ > * 4 w Z J 3                           ",
"                              . 7 9 9 5 K m w M Z 4                           ",
"                              @ 9 9 9 < / K F J x = =                         ",
"                              $ 8 9 7 N ) F J A j J c                         ",
"                                  $ # < i.s.q & h j j                         ",
"                                  > # , { } i < d k m q                       ",
"                                  ; 1 9 9 i i 8 * q i i 9                     ",
"                                6 2 j q a i 9 t $ 8 i i i 9                   ",
"                                u r h f 7 8 e     @ 7 u i i 7                 ",
"                              i i 9 3 1               $ 9 i 9 9               ",
"                            i i i 7 | s.                9 i i ! 9             ",
"                            a ~ ! 9 | a.                  i ~ ! q 4 3 -       ",
"                            8 p a 9                         a q M V V 4       ",
"                    n C V n n 4 -                             3 M C M ;       ",
"                  m J K F C C C 4                             4 Z V n         ",
"                - n V V C C C C n                             n Z M 4         ",
"                    - ; 3 3 n M w                             C J Z 3         ",
"                              - -                             m J M ,         ",
"                                                              3 C m           ",
"                                                                ; 3           ",
"                                                                              "
};
