/* XPM */
static char *run__rev__0031666807396[] = {
/* columns rows colors chars-per-pixel */
"39 48 165 2 ",
"   c None",
".  c gray5",
"X  c #140C0C",
"o  c #1B0E0E",
"O  c #151515",
"+  c #1D1112",
"@  c #171718",
"#  c #1A1A1B",
"$  c #310808",
"%  c #3A0B0B",
"&  c #390404",
"*  c #241313",
"=  c #2B1616",
"-  c #211813",
";  c #241B1B",
":  c #2F1A1A",
">  c #3A1010",
",  c #341C1C",
"<  c #3B1D1D",
"1  c #371313",
"2  c #24221E",
"3  c #242424",
"4  c #2B2525",
"5  c #2C2C2C",
"6  c #2B2A23",
"7  c #3D2221",
"8  c #322C2C",
"9  c #382A2A",
"0  c #373329",
"q  c #333333",
"w  c #3B3B3B",
"e  c #3B3333",
"r  c #440505",
"t  c #4B0303",
"y  c #4C0909",
"u  c #550202",
"i  c #5B0101",
"p  c #520909",
"a  c #5B0A0A",
"s  c #401718",
"d  c #4D1C1C",
"f  c #501C1C",
"g  c #660000",
"h  c #680000",
"j  c #442223",
"k  c #4C2626",
"l  c #422A27",
"z  c #4E2929",
"x  c #442929",
"c  c #532424",
"v  c #512728",
"b  c #532A2A",
"n  c #5B2E2E",
"m  c #5D2424",
"M  c #47322D",
"N  c #443E2E",
"B  c #523D28",
"V  c #533F26",
"C  c #4A3435",
"Z  c #5F3030",
"A  c #513F3F",
"S  c #663333",
"D  c #693535",
"F  c #673939",
"G  c #713939",
"H  c #474030",
"J  c #4C4534",
"K  c #57423F",
"L  c #594536",
"P  c #56503F",
"I  c #434343",
"U  c #4B4B4B",
"Y  c #5C4443",
"T  c #505F58",
"R  c #5C5457",
"E  c #7E4141",
"W  c #615245",
"Q  c #6A5151",
"!  c #785959",
"~  c #70674D",
"^  c #766949",
"/  c #7A6A51",
"(  c #7D785C",
")  c #6E6060",
"_  c #7B7464",
"`  c #8C733A",
"'  c #9D7F3F",
"]  c #844444",
"[  c #894747",
"{  c #8A4848",
"}  c #80704A",
"|  c #967C40",
" . c #84785A",
".. c #897979",
"X. c #A68947",
"o. c #A28344",
"O. c #BC9B4F",
"+. c #AD9154",
"@. c #908363",
"#. c #A08D61",
"$. c #A79363",
"%. c #A89571",
"&. c #AD9D7C",
"*. c #B09B76",
"=. c #94AB7B",
"-. c #B4A17C",
";. c #C3A459",
":. c #CCA855",
">. c #D1AC57",
",. c #D5AA5A",
"<. c #D0B26D",
"1. c #CFB57C",
"2. c #D8BB77",
"3. c #E6A470",
"4. c #F4AA76",
"5. c #DEC27F",
"6. c #F7C969",
"7. c #FFD36C",
"8. c #F0CB7E",
"9. c #FCD475",
"0. c #FFD875",
"q. c #FED67A",
"w. c #4DBC84",
"e. c #6DBF8D",
"r. c #60C491",
"t. c #858685",
"y. c #9D9D9D",
"u. c #9DB69A",
"i. c #AAA594",
"p. c #AFBE90",
"a. c #A9AAAA",
"s. c #B4BEA4",
"d. c #DA9781",
"f. c #DF9C8D",
"g. c #CABA95",
"h. c #D0BE91",
"j. c #FFBCA6",
"k. c #80DEB0",
"l. c #D7C089",
"z. c #C3C49E",
"x. c #DECA9B",
"c. c #E5C98D",
"v. c #FFD287",
"b. c #FFDD85",
"n. c #FFDE8B",
"m. c #F1D38D",
"M. c #E8CF95",
"N. c #E7CD9A",
"B. c #F6DA96",
"V. c #F1D598",
"C. c #FFE08C",
"Z. c #C4C7A5",
"A. c #D2CEB8",
"S. c #C0DBB9",
"D. c #DAD2BB",
"F. c #F6DDA3",
"G. c #FDE2A5",
"H. c #FEE5AC",
"J. c #FFE8AF",
"K. c #FFEAB1",
"L. c #FFEBBA",
"P. c #C5C4C0",
"I. c #FFEEC3",
"U. c #E5E6E7",
"Y. c #E6F8F0",
/* pixels */
"                                                                              ",
"                        ,                                                     ",
"                      n D D z   < k j                                         ",
"                    D ] G S D D D D D S j                                     ",
"                  D [ { G S S S D S S D S j                                   ",
"                n [ ] [ D S S S S S S S S S ,                                 ",
"              < E { [ ] D D S S D S S S S D k                                 ",
"              n ] ] E G S S S S S S S S S S n                                 ",
"              S D D S S S S S S S S S S S S S <                               ",
"            < S S S S S S S D S S S S S S S S j                               ",
"            j S S S S S S S S D S n v k k k v <                               ",
"            k D S S D D D S D D S k Z D D D S S n v 7                         ",
"            j Z n n b b c c d d d < Z S S S S D S D D S k                     ",
"  o = , , * % p u u i i i g g h u f D S D S S S S S S S D z                   ",
"    = < j < r h h h h h g h h u f S S S S S S S S S S S S n                   ",
"    = , < < r g h h g g g i y c S S S S S S S S S S S S Z k                   ",
"      , j , & u u u u t y d Z D S Z S Z Z n n n b v k j < *                   ",
"        < j < > % > 1 k z b z k k j j s < j l x M = * o                       ",
"            : , < , 9 L L * + + + - / %.*.*.1.5.x._                           ",
"              2 3 O ~ F.N.H 4 T t.#.B.K.H.N.q.7.C.g.                          ",
"            P  .u.i.l.K.J.c.=.r.Y.D.V.H.H.F.q.7.b.h.                          ",
"            N ( e.S.B.I.L.G.p.w.e.A.V.H.F.n.7.9.B.@.                          ",
"              Y s.Z.H.J.H.G.M.z.A.f.F.v.q.9.;.$. .                            ",
"                3.m.n.2.<.9.0.7.6.4.3.,.;.+.V X                               ",
"                  | :.>.>.:.O.X.` ^ ' o.P...v k k                             ",
"                                  R -.&.U.! b S S j                           ",
"                                  z Y K ) S k Z D z                           ",
"                                  k C Y > b k k S n                           ",
"                                  J L U I > j < n c                           ",
"                                . 0 H ; 4 Z S b D m &                         ",
"                                . @ 3 5 3 b ] n n F y                         ",
"                                  @ 5 5 3 x Q < y i i                         ",
"                                  @ 5 5 3 4 8 - t a j 9                       ",
"                                  + ; 2 3 q q 5 $ 9 q q 5                     ",
"                                  > u , q q 5 2 O 3 q q q 3 @ 3       *       ",
"                                5 8 y y ; W ^       3 5 q q q I 4 , j 7       ",
"                              5 q q : 7 X             @ 5 q q U e k b l *     ",
"                              q q 5 w a.                  5 w U 7 k b z ,     ",
"                            q U I q 3 y.                      5   j n v j     ",
"                            ; e I w                                 v n v =   ",
"                    , k v < j k ,                                   k S Z 7   ",
"                  < n S S b b b j                                     b Z z * ",
"                  j z b n v v b k                                       < <   ",
"                    * , , 7 j z k *                                           ",
"                              = =                                             ",
"                                                                              ",
"                                                                              ",
"                                                                              "
};
