/* XPM */
static char *TILE_3C1666792785[] = {
/* columns rows colors chars-per-pixel */
"48 48 82 1 ",
"  c #000101",
". c #110F0E",
"X c #12110F",
"o c #151413",
"O c #191311",
"+ c #1C1916",
"@ c #1D1C1A",
"# c #211E1C",
"$ c #24211E",
"% c #272421",
"& c #2C2622",
"* c #2D2925",
"= c #2F2C2A",
"- c #322C27",
"; c #332E2A",
": c #2E302F",
"> c #36312D",
", c #39342F",
"< c #2E3030",
"1 c #353533",
"2 c #3A3632",
"3 c #343837",
"4 c #3C3936",
"5 c #363B3C",
"6 c #3C3D3B",
"7 c #423E36",
"8 c #403E3A",
"9 c #3E403F",
"0 c #41413E",
"q c #3A3F40",
"w c #3E4242",
"e c #424544",
"r c #484743",
"t c #454846",
"y c #4C4A46",
"u c #454A49",
"i c #4C4D4A",
"p c #504C47",
"a c #514E49",
"s c #55524D",
"d c #58554F",
"f c #5A584F",
"g c #555651",
"h c #5A5651",
"j c #5D5A54",
"k c #615D57",
"l c #635F59",
"z c #5F625B",
"x c #616157",
"c c #6A6556",
"v c #66625C",
"b c #69645D",
"n c #6D6B5D",
"m c #716C5C",
"M c #76705E",
"N c #78725D",
"B c #666660",
"V c #6A6760",
"C c #666961",
"Z c #6D6A61",
"A c #726D62",
"S c #6E726B",
"D c #757163",
"F c #797566",
"G c #7D7867",
"H c #72746D",
"J c #7B7768",
"K c #75796C",
"L c #7C7A6B",
"P c #7D7D72",
"I c #807C6B",
"U c #7F8071",
"Y c #7C8178",
"T c #828374",
"R c #8A8972",
"E c #82847A",
"W c #8B8B7B",
"Q c #918F7D",
"! c #92927D",
"~ c #868880",
"^ c #8B928D",
"/ c #939482",
/* pixels */
"nbvvbvbvmbh@Q/WJGmCPmkj#!^~ENDmmAvg@#0i0iCYLmlh-",
"bvvvvCvvCbbwHxlbmAblvkk0IxlnnvvbVBvbnJPMLYvvbkl8",
"NxDbvBBCbbk1cbDFblbbbvb6AbFnbvVCBlvkxlkmbzbvblV6",
"FbJBBBBbvvdemnnblbblbbj;AbFvBCCvvvlkbvJbvvvblVj&",
"GmvbBbblvjkuNAvbVbbvbkw3JmbvCvblljjllVAVvblbZkw3",
"AAlbbvbhjvbiUACVBbbbApt=mAlbvvbhkbkjllvBBbbnApe<",
"kblblbvrkvnuUCbvBlbkakr5jBlbbbvyllkbvvVBBvBjahr6",
"akbvbZkhxzvumvvvlkhhbbdwplbblnjhkkVblblVxjjdbbhq",
"yhbvZkdlllbrmvbxkllvvvlrrhlVZksllllbblllkllllble",
"avbvjhllblb2nbvzllbbvvV2plZvjsllblbllbbkllbVVlV2",
"khkpallhlZl>vCvvlblbvVk#jklyalbhkZlbkjjVVVljlVl;",
">;186urq28>oKZCbVlbvvlZ.+;;66ure2e$O>;;08erq20;o",
"DIQDFmjpryj#mVbBllbbbbk+RHcmmmmmmxa&RScAjeuaAAab",
"DFlbmAVlhjb2vvZvVbblllk2/lbmZBvvCbBeLvADVC5AHbkk",
"bnDIvlbVBlk>cDAvldlbbkl7ElDnvbCCBBk2AAABvZlbDvka",
"lbZllblbllk6MDvblkdVblleAbFvvCCbbvheABlbblAIZllh",
"llvvblbbvva3jVvbblsllVV8FmblVVbbVjl60kllvvlVZbld",
"llbBBVllbbdeuCBlbldhVlbunAlblVblllZ8wtdjllkkldhk",
"jvBCbblbAadet5lAlkvlllZtkVlbVllVbbl1pkldadlbllvl",
"vbBVVlbbvakepAbIbkvvZAhqrkbllblblhs;jVvVlkllZVbl",
"mCBbvvvlskh4ZKDZVlvVllk16hllllDlajk0hbbvlVlAlllv",
"vBCbjvbghkl0AvlBblvvlljqsblkZZldhkl>alkbbllAlljj",
"hbjhlbksjvl>aVljVbbbbs1@bxkhklhkkkj;yjvlVbZhkhgh",
"&04eiutee,%X;6=6eei0;OO vxlsdkhlVlV@->268iuw46&+",
"&/WDDTUnlhATIjt8uvPFcjh+zbvvlshvmbh-RHcmmnmmmld%",
"0YjvVDnvvbbvlHIALYBvblv8zvvnbbvvBvve/vvAZBvvBVb6",
"iLlJZCvvvvvvVllABxvvvlb8nvDbvvvbbbk5WlDZvvCCBBl2",
"0NmbCvCbvkvvVlGVvbvbbbj;MbFBbBBvbvdeAbFvvbCBBbhq",
"iLvvCBbxjvvvvbABBvbvZkq3GmbvbvvlvjliFmvvbbbbbjlu",
"vYlbvvllllvvvBCbBblZApe<mAlbbvvhjvbenAlvvbvvllVe",
"EvbvvvBjlvvvvBvBblZkajrqjBblvvvylvctxvvvvvbvbVxe",
"KvvvvbkdvvvvbbbblkhdVvhqplbblAjhllbtmvvvvvxblgsw",
"MvbvnAsbvvllVlVlkkllVlberhvvnjdkkkbumxbllvAvshke",
"xkvbkijvblVllVlllllVZlb>pvVvjdvlbvb2mbvkjljahkv;",
"hvbjwttgbZkVvjkVVVljlZl>hjlpibbhlZv$Alhlvlhvjkj;",
"-06;<>9we>-#,;>86ttq20>O;;;84iew20>XPlvvvvvvllZ+",
"!SvmmmnMmkd&RSvDjeupZApkZHbmMmnmmls;FvbvbAVljlb+",
"/xbmZbbvCBb0IlAAVZ5AKvlbVVlAZbvbCbb0KvvbmAbkjjh-",
"/lDZvbCCbBk2AAAbVVlnDllbvvAZvvBCBCj4PlDFlllllbl;",
"FvFvvbCbBbhqAVbbllZIZlbbvvVlvbCBbbheTmZbbblbbby5",
"ImZllVVVbjlueklllVlbVlbllVlVlBbVbjxumZBBBblbAkp2",
"ADlblVllvxBeerdkkkkklVblllVlbbblvvbtnBbBbllZkslu",
"klVlVllVbbleallsddlblVlZZllblbbbvbktmvBBblbkhlbr",
"dllVlVlVlgsekVlblkllZlblbbVlVllbldsembVVljphllhq",
"ahlllbVlsjjejbvllblZllllbllllBAbshjtABBllkllkVl1",
"khlZklljhll>plkVblbAlllblkllbcaahkv>lVlbkvlkklV0",
"kbkklVkljkj;yklvVbAhkklZlllladhjjvk;dvlhlVVvbVl>",
"VllllkkkvlV@&;266ueq282#;>,43uwe28>XO9>9uette,;X"
};
